<svg width="368" height="334" viewBox="0 0 368 334" fill="none" xmlns="http://www.w3.org/2000/svg">
<rect y="0.608429" width="367.729" height="95.8575" rx="6.20639" fill="white"/>
<rect x="20" y="20.6084" width="55.8575" height="55.8575" rx="6.20639" fill="#3D5213"/>
<path d="M47.0884 43.6666C47.7575 43.6666 48.4116 43.4681 48.968 43.0964C49.5244 42.7246 49.958 42.1963 50.2141 41.5781C50.4701 40.9599 50.5371 40.2796 50.4066 39.6233C50.276 38.9671 49.9538 38.3642 49.4807 37.8911C49.0075 37.418 48.4047 37.0957 47.7484 36.9652C47.0922 36.8347 46.4119 36.9017 45.7937 37.1577C45.1755 37.4138 44.6471 37.8474 44.2754 38.4038C43.9036 38.9601 43.7052 39.6142 43.7052 40.2834C43.7052 41.1807 44.0617 42.0412 44.6961 42.6756C45.3306 43.3101 46.1911 43.6666 47.0884 43.6666ZM47.0884 38.5918C47.423 38.5918 47.75 38.691 48.0282 38.8769C48.3064 39.0627 48.5232 39.3269 48.6512 39.636C48.7793 39.9451 48.8128 40.2853 48.7475 40.6134C48.6822 40.9415 48.5211 41.2429 48.2845 41.4795C48.048 41.7161 47.7466 41.8772 47.4184 41.9425C47.0903 42.0077 46.7502 41.9742 46.4411 41.8462C46.132 41.7182 45.8678 41.5014 45.6819 41.2232C45.496 40.945 45.3968 40.6179 45.3968 40.2834C45.3968 39.8347 45.575 39.4045 45.8923 39.0872C46.2095 38.77 46.6398 38.5918 47.0884 38.5918ZM38.6304 44.5124C38.6304 44.1778 38.7296 43.8507 38.9155 43.5726C39.1014 43.2944 39.3656 43.0776 39.6747 42.9495C39.9838 42.8215 40.3239 42.788 40.652 42.8533C40.9802 42.9185 41.2816 43.0796 41.5182 43.3162C41.7547 43.5528 41.9158 43.8542 41.9811 44.1823C42.0464 44.5105 42.0129 44.8506 41.8849 45.1597C41.7568 45.4688 41.54 45.733 41.2618 45.9189C40.9836 46.1047 40.6566 46.204 40.322 46.204C39.8734 46.204 39.4431 46.0257 39.1259 45.7085C38.8087 45.3913 38.6304 44.961 38.6304 44.5124ZM57.0519 46.057C56.9119 46.2322 56.7081 46.3446 56.4853 46.3696C56.2625 46.3946 56.0388 46.3301 55.8635 46.1902C55.742 46.0961 53.3568 44.3189 49.592 46.2547C49.5623 47.3304 49.4564 48.4027 49.2748 49.4634L52.7034 52.318C52.8343 52.4269 52.9292 52.5728 52.9758 52.7365C53.0223 52.9002 53.0185 53.0742 52.9646 53.2357L51.273 58.3105C51.202 58.5233 51.0495 58.6992 50.8488 58.7996C50.6482 58.8999 50.4159 58.9164 50.203 58.8454C49.9902 58.7745 49.8143 58.6219 49.714 58.4213C49.6136 58.2206 49.5971 57.9883 49.6681 57.7755L51.1768 53.2484L48.8424 51.3031C48.6899 51.8173 48.5099 52.3231 48.3032 52.8181C46.8495 56.2795 44.2455 58.5938 40.5641 59.6986C40.3511 59.7573 40.1236 59.7302 39.9303 59.6233C39.737 59.5163 39.5932 59.338 39.5297 59.1264C39.4661 58.9148 39.4879 58.6867 39.5904 58.491C39.6928 58.2953 39.8677 58.1474 40.0778 58.0789C46.4932 56.1537 47.599 50.4435 47.8401 47.332C44.9739 49.1516 42.7082 49.5871 41.2059 49.5871C40.4982 49.5895 39.7951 49.4726 39.1263 49.2414C38.9474 49.1632 38.801 49.0256 38.712 48.8518C38.6231 48.678 38.597 48.4787 38.6382 48.2879C38.6794 48.097 38.7854 47.9263 38.9381 47.8047C39.0909 47.6831 39.281 47.6181 39.4762 47.6207C39.5971 47.6205 39.7166 47.6468 39.8262 47.6978C39.8262 47.6978 42.6554 48.827 47.4584 45.5622C52.9868 41.8048 56.7622 44.7407 56.9218 44.8676C57.0085 44.9371 57.0806 45.0231 57.1341 45.1205C57.1875 45.2179 57.2212 45.3249 57.2333 45.4354C57.2454 45.5458 57.2356 45.6576 57.2044 45.7642C57.1733 45.8709 57.1215 45.9704 57.0519 46.057Z" fill="#CBF07F"/>
<path d="M96.9743 43.176H95.1124V33.494H91.7609V31.8493H100.341V33.494H96.9743V43.176ZM104.657 43.4553C101.74 43.4553 100.421 41.2675 100.421 39.1418V38.847C100.421 36.6748 101.787 34.5336 104.564 34.5336C107.264 34.5336 108.614 36.5352 108.614 38.6764V39.4056H102.159C102.283 40.8796 103.043 41.9192 104.657 41.9192C105.821 41.9192 106.597 41.3451 106.767 40.6469H108.459C108.102 42.3847 106.659 43.4553 104.657 43.4553ZM104.564 36.0697C103.199 36.0697 102.423 36.892 102.206 38.1799H106.845C106.674 36.861 105.914 36.0697 104.564 36.0697ZM112.387 43.176H110.572V34.8129H112.015V36.8145C112.387 35.3404 113.334 34.5646 114.885 34.5646H114.963C117.011 34.5646 118.035 35.899 118.035 38.3971V43.176H116.22V38.1488C116.22 36.9851 115.506 36.2093 114.358 36.2093C113.179 36.2093 112.387 37.0162 112.387 38.2264V43.176ZM122.373 43.176H120.557V34.8129H122V36.8145C122.373 35.3404 123.319 34.5646 124.871 34.5646H124.948C126.997 34.5646 128.021 35.899 128.021 38.3971V43.176H126.205V38.1488C126.205 36.9851 125.491 36.2093 124.343 36.2093C123.164 36.2093 122.373 37.0162 122.373 38.2264V43.176ZM131.536 33.6492C130.791 33.6492 130.434 33.2147 130.434 32.5941C130.434 31.989 130.791 31.539 131.536 31.539C132.296 31.539 132.653 31.989 132.653 32.5941C132.653 33.2147 132.296 33.6492 131.536 33.6492ZM132.762 43.176H130.946V36.2093H129.72V34.8129H132.762V43.176ZM138.353 43.4243C136.103 43.4243 134.8 42.4157 134.738 40.74H136.414C136.46 41.3606 137.003 41.9813 138.369 41.9813C139.532 41.9813 140.231 41.4848 140.231 40.7865C140.231 40.1659 139.781 39.809 138.633 39.6849L137.81 39.6073C136.088 39.4211 135.017 38.5988 135.017 37.1713C135.017 35.5111 136.367 34.5646 138.291 34.5646C140.262 34.5646 141.581 35.4646 141.643 37.1558H139.982C139.936 36.5196 139.377 36.0231 138.291 36.0231C137.252 36.0231 136.693 36.4886 136.693 37.1248C136.693 37.6989 137.065 38.0247 138.012 38.1333L138.834 38.2109C140.712 38.4126 141.906 39.266 141.906 40.74C141.906 42.3537 140.463 43.4243 138.353 43.4243ZM152.529 43.4553C148.387 43.4553 146.804 40.1969 146.804 37.6523V37.311C146.804 34.5491 148.48 31.5235 152.436 31.5235C155.493 31.5235 157.37 33.2613 157.65 35.868H155.772C155.524 34.1302 154.19 33.2458 152.436 33.2458C149.985 33.2458 148.697 35.0767 148.697 37.4972C148.697 39.8246 150 41.733 152.529 41.733C154.345 41.733 155.695 40.8021 155.958 39.1263H157.851C157.541 41.5158 155.726 43.4553 152.529 43.4553ZM163.621 43.4553C160.704 43.4553 159.106 41.3296 159.106 39.1574V38.847C159.106 36.6283 160.782 34.5336 163.621 34.5336C166.461 34.5336 168.137 36.6283 168.137 38.847V39.1574C168.137 41.3296 166.538 43.4553 163.621 43.4553ZM163.621 41.8727C165.344 41.8727 166.321 40.6314 166.321 39.0022C166.321 37.342 165.297 36.1162 163.621 36.1162C161.946 36.1162 160.922 37.342 160.922 39.0022C160.922 40.6314 161.899 41.8727 163.621 41.8727ZM173.16 43.4243H173.082C171.111 43.4243 170.025 42.1364 170.025 39.6539V34.8129H171.841V39.9021C171.841 41.0658 172.539 41.7796 173.625 41.7796C174.742 41.7796 175.534 41.0038 175.534 39.778V34.8129H177.349V43.176H175.906V41.2675C175.534 42.6795 174.618 43.4243 173.16 43.4243ZM181.861 43.176H180.045V34.8129H181.488V37.3575C181.737 35.5887 182.776 34.7198 184.561 34.7198H184.855V36.3179H184.297C182.73 36.3179 181.861 37.1868 181.861 38.7384V43.176ZM191.322 43.2691H190.066C187.987 43.2691 186.869 42.5243 186.869 40.1814V36.1628H185.488V34.8129H186.869V32.3769H188.592V34.8129H191.322V36.1628H188.592V40.3366C188.592 41.19 189.073 41.6865 189.926 41.6865H191.322V43.2691Z" fill="black"/>
<rect x="91.373" y="57.934" width="216.448" height="13.9644" rx="6.98219" fill="#E9E9E9"/>
<rect y="126.466" width="367.853" height="206.676" rx="6.20639" fill="white"/>
<path d="M34.3982 159.352C36.7225 159.352 37.4068 161.122 37.4068 163.132V163.653C37.4068 166.151 36.1251 167.563 33.7683 167.563C33.2035 167.563 32.8777 167.53 32.4106 167.476V166.586C32.8885 166.64 33.2361 166.672 33.8117 166.672C35.7884 166.672 36.451 165.521 36.451 163.577V163.392C36.06 164.25 35.2454 164.674 34.2136 164.674C32.5192 164.674 31.596 163.555 31.596 162.035C31.596 160.492 32.5518 159.352 34.3982 159.352ZM34.3982 160.264C33.2035 160.264 32.5953 160.992 32.5953 162.035C32.5953 163.077 33.1926 163.805 34.3222 163.805C35.43 163.805 36.2555 163.175 36.2555 162.024C36.2555 161.068 35.6798 160.264 34.3982 160.264ZM40.2435 163.479H38.9836V162.154H40.2435V163.479ZM40.2435 167.498H38.9836V166.173H40.2435V167.498ZM45.0737 167.693C42.6951 167.693 41.8153 165.912 41.8153 163.827V163.24C41.8153 161.057 42.8037 159.352 45.0737 159.352C47.3328 159.352 48.3212 161.057 48.3212 163.24V163.827C48.3212 165.912 47.4414 167.693 45.0737 167.693ZM45.0737 166.738C46.5725 166.738 47.2568 165.76 47.2568 163.544C47.2568 161.231 46.5508 160.308 45.0737 160.308C43.5857 160.308 42.8797 161.231 42.8797 163.523C42.8797 165.76 43.564 166.738 45.0737 166.738ZM53.1453 167.693C50.7667 167.693 49.8869 165.912 49.8869 163.827V163.24C49.8869 161.057 50.8753 159.352 53.1453 159.352C55.4044 159.352 56.3928 161.057 56.3928 163.24V163.827C56.3928 165.912 55.513 167.693 53.1453 167.693ZM53.1453 166.738C54.6441 166.738 55.3284 165.76 55.3284 163.544C55.3284 161.231 54.6224 160.308 53.1453 160.308C51.6573 160.308 50.9513 161.231 50.9513 163.523C50.9513 165.76 51.6356 166.738 53.1453 166.738ZM59.7833 167.65C58.4691 167.65 57.6762 166.966 57.6762 165.76C57.6762 164.533 58.5342 163.892 60.0439 163.892H61.5102V163.751C61.5102 162.958 61.0866 162.545 60.2937 162.545C59.6203 162.545 58.8275 162.578 58.3496 162.61V161.698C58.8166 161.655 59.4248 161.633 59.9462 161.633C61.7274 161.633 62.5094 162.208 62.5094 163.827V167.498H61.684V166.347C61.4342 167.205 60.7934 167.65 59.7833 167.65ZM60.0005 166.825C60.7282 166.825 61.4667 166.477 61.5102 165.347V164.674H60.0005C59.1642 164.674 58.6971 165.119 58.6971 165.76C58.6971 166.401 59.1642 166.825 60.0005 166.825ZM65.4658 167.498H64.4231V161.698H65.2486V163.034C65.4984 162.067 66.1175 161.524 67.1384 161.524H67.1819C68.1702 161.524 68.7893 162.035 69.05 162.958C69.3215 162.035 69.9515 161.524 70.9398 161.524H70.9833C72.3518 161.524 73.0252 162.502 73.0252 164.185V167.498H71.9825V163.957C71.9825 163.023 71.4937 162.48 70.6683 162.48C69.8103 162.48 69.2455 163.056 69.2455 164.022V167.498H68.2028V163.957C68.2028 163.023 67.714 162.48 66.8886 162.48C66.0306 162.48 65.4658 163.056 65.4658 164.022V167.498Z" fill="#868FA0"/>
<path d="M34.2896 233.804H33.2469V226.766H31.4874V225.875H34.2896V233.804ZM39.6325 233.999C37.2539 233.999 36.3741 232.218 36.3741 230.133V229.546C36.3741 227.363 37.3625 225.658 39.6325 225.658C41.8916 225.658 42.88 227.363 42.88 229.546V230.133C42.88 232.218 42.0002 233.999 39.6325 233.999ZM39.6325 233.044C41.1313 233.044 41.8156 232.066 41.8156 229.85C41.8156 227.537 41.1096 226.614 39.6325 226.614C38.1445 226.614 37.4385 227.537 37.4385 229.829C37.4385 232.066 38.1228 233.044 39.6325 233.044ZM45.7165 229.785H44.4566V228.46H45.7165V229.785ZM45.7165 233.804H44.4566V232.479H45.7165V233.804ZM50.5467 233.999C48.1681 233.999 47.2883 232.218 47.2883 230.133V229.546C47.2883 227.363 48.2767 225.658 50.5467 225.658C52.8058 225.658 53.7942 227.363 53.7942 229.546V230.133C53.7942 232.218 52.9144 233.999 50.5467 233.999ZM50.5467 233.044C52.0455 233.044 52.7298 232.066 52.7298 229.85C52.7298 227.537 52.0238 226.614 50.5467 226.614C49.0587 226.614 48.3527 227.537 48.3527 229.829C48.3527 232.066 49.037 233.044 50.5467 233.044ZM58.6183 233.999C56.2397 233.999 55.36 232.218 55.36 230.133V229.546C55.36 227.363 56.3483 225.658 58.6183 225.658C60.8774 225.658 61.8658 227.363 61.8658 229.546V230.133C61.8658 232.218 60.9861 233.999 58.6183 233.999ZM58.6183 233.044C60.1172 233.044 60.8014 232.066 60.8014 229.85C60.8014 227.537 60.0954 226.614 58.6183 226.614C57.1303 226.614 56.4244 227.537 56.4244 229.829C56.4244 232.066 57.1086 233.044 58.6183 233.044ZM65.2563 233.956C63.9421 233.956 63.1492 233.272 63.1492 232.066C63.1492 230.839 64.0072 230.198 65.5169 230.198H66.9832V230.057C66.9832 229.264 66.5596 228.851 65.7668 228.851C65.0934 228.851 64.3005 228.884 63.8226 228.916V228.004C64.2896 227.96 64.8979 227.939 65.4192 227.939C67.2004 227.939 67.9824 228.514 67.9824 230.133V233.804H67.157V232.653C66.9072 233.511 66.2664 233.956 65.2563 233.956ZM65.4735 233.13C66.2012 233.13 66.9398 232.783 66.9832 231.653V230.98H65.4735C64.6372 230.98 64.1702 231.425 64.1702 232.066C64.1702 232.707 64.6372 233.13 65.4735 233.13ZM70.9388 233.804H69.8961V228.004H70.7216V229.34C70.9714 228.373 71.5905 227.83 72.6114 227.83H72.6549C73.6432 227.83 74.2623 228.341 74.523 229.264C74.7945 228.341 75.4245 227.83 76.4128 227.83H76.4563C77.8248 227.83 78.4982 228.808 78.4982 230.491V233.804H77.4555V230.263C77.4555 229.329 76.9668 228.786 76.1413 228.786C75.2833 228.786 74.7185 229.362 74.7185 230.328V233.804H73.6758V230.263C73.6758 229.329 73.1871 228.786 72.3616 228.786C71.5036 228.786 70.9388 229.362 70.9388 230.328V233.804Z" fill="#868FA0"/>
<path d="M34.2896 300.11H33.2469V293.072H31.4874V292.181H34.2896V300.11ZM38.8505 300.11H37.8078V293.072H36.0483V292.181H38.8505V300.11ZM42.2057 296.091H40.9458V294.766H42.2057V296.091ZM42.2057 300.11H40.9458V298.785H42.2057V300.11ZM47.0359 300.305C44.6573 300.305 43.7775 298.524 43.7775 296.439V295.852C43.7775 293.669 44.7659 291.964 47.0359 291.964C49.295 291.964 50.2834 293.669 50.2834 295.852V296.439C50.2834 298.524 49.4036 300.305 47.0359 300.305ZM47.0359 299.349C48.5347 299.349 49.219 298.372 49.219 296.156C49.219 293.843 48.513 292.92 47.0359 292.92C45.5479 292.92 44.8419 293.843 44.8419 296.135C44.8419 298.372 45.5262 299.349 47.0359 299.349ZM55.1075 300.305C52.7289 300.305 51.8492 298.524 51.8492 296.439V295.852C51.8492 293.669 52.8375 291.964 55.1075 291.964C57.3667 291.964 58.355 293.669 58.355 295.852V296.439C58.355 298.524 57.4753 300.305 55.1075 300.305ZM55.1075 299.349C56.6064 299.349 57.2906 298.372 57.2906 296.156C57.2906 293.843 56.5846 292.92 55.1075 292.92C53.6195 292.92 52.9136 293.843 52.9136 296.135C52.9136 298.372 53.5978 299.349 55.1075 299.349ZM61.7455 300.262C60.4313 300.262 59.6384 299.578 59.6384 298.372C59.6384 297.145 60.4965 296.504 62.0062 296.504H63.4724V296.363C63.4724 295.57 63.0488 295.157 62.256 295.157C61.5826 295.157 60.7897 295.19 60.3118 295.222V294.31C60.7788 294.266 61.3871 294.245 61.9084 294.245C63.6896 294.245 64.4716 294.82 64.4716 296.439V300.11H63.6462V298.958C63.3964 299.816 62.7556 300.262 61.7455 300.262ZM61.9627 299.436C62.6904 299.436 63.429 299.089 63.4724 297.959V297.286H61.9627C61.1264 297.286 60.6594 297.731 60.6594 298.372C60.6594 299.013 61.1264 299.436 61.9627 299.436ZM67.428 300.11H66.3853V294.31H67.2108V295.646C67.4606 294.679 68.0797 294.136 69.1006 294.136H69.1441C70.1324 294.136 70.7515 294.647 71.0122 295.57C71.2837 294.647 71.9137 294.136 72.902 294.136H72.9455C74.314 294.136 74.9874 295.114 74.9874 296.797V300.11H73.9447V296.569C73.9447 295.635 73.456 295.092 72.6305 295.092C71.7725 295.092 71.2077 295.668 71.2077 296.634V300.11H70.165V296.569C70.165 295.635 69.6763 295.092 68.8508 295.092C67.9928 295.092 67.428 295.668 67.428 296.634V300.11Z" fill="#868FA0"/>
<path d="M85.4629 163.085L336.822 163.085" stroke="#C3C8D1" stroke-width="0.775799"/>
<path d="M85.4629 229.804L336.822 229.804" stroke="#C3C8D1" stroke-width="0.775799"/>
<path d="M85.4629 296.523L336.822 296.522" stroke="#C3C8D1" stroke-width="0.775799"/>
<rect x="85.3379" y="168.359" width="237.394" height="57.4091" rx="3.1032" fill="#EAF9CC"/>
<path d="M106.67 195.263H104.994V186.549H101.978V185.069H109.7V186.549H106.67V195.263ZM113.585 195.514C110.959 195.514 109.772 193.545 109.772 191.632V191.367C109.772 189.412 111.001 187.485 113.501 187.485C115.931 187.485 117.146 189.286 117.146 191.213V191.869H111.336C111.448 193.196 112.132 194.132 113.585 194.132C114.632 194.132 115.33 193.615 115.484 192.987H117.006C116.685 194.551 115.386 195.514 113.585 195.514ZM113.501 188.867C112.272 188.867 111.574 189.607 111.378 190.766H115.554C115.4 189.579 114.716 188.867 113.501 188.867ZM120.542 195.263H118.908V187.736H120.207V189.537C120.542 188.211 121.394 187.512 122.79 187.512H122.86C124.703 187.512 125.625 188.713 125.625 190.962V195.263H123.991V190.738C123.991 189.691 123.349 188.993 122.315 188.993C121.254 188.993 120.542 189.719 120.542 190.808V195.263ZM129.529 195.263H127.895V187.736H129.194V189.537C129.529 188.211 130.38 187.512 131.777 187.512H131.847C133.69 187.512 134.612 188.713 134.612 190.962V195.263H132.978V190.738C132.978 189.691 132.335 188.993 131.302 188.993C130.241 188.993 129.529 189.719 129.529 190.808V195.263ZM137.775 186.689C137.105 186.689 136.784 186.298 136.784 185.739C136.784 185.194 137.105 184.789 137.775 184.789C138.46 184.789 138.781 185.194 138.781 185.739C138.781 186.298 138.46 186.689 137.775 186.689ZM138.879 195.263H137.245V188.993H136.142V187.736H138.879V195.263ZM143.911 195.486C141.886 195.486 140.713 194.578 140.657 193.07H142.166C142.207 193.629 142.696 194.187 143.925 194.187C144.972 194.187 145.601 193.741 145.601 193.112C145.601 192.554 145.196 192.232 144.162 192.121L143.422 192.051C141.872 191.883 140.909 191.143 140.909 189.859C140.909 188.364 142.124 187.512 143.855 187.512C145.629 187.512 146.816 188.322 146.872 189.845H145.377C145.335 189.272 144.833 188.825 143.855 188.825C142.92 188.825 142.417 189.244 142.417 189.817C142.417 190.333 142.752 190.627 143.604 190.724L144.344 190.794C146.034 190.976 147.109 191.744 147.109 193.07C147.109 194.523 145.81 195.486 143.911 195.486ZM156.67 195.514C152.941 195.514 151.517 192.582 151.517 190.291V189.984C151.517 187.499 153.025 184.775 156.586 184.775C159.337 184.775 161.027 186.339 161.278 188.686H159.588C159.365 187.121 158.164 186.326 156.586 186.326C154.379 186.326 153.22 187.973 153.22 190.152C153.22 192.246 154.393 193.964 156.67 193.964C158.303 193.964 159.518 193.126 159.756 191.618H161.459C161.18 193.769 159.546 195.514 156.67 195.514ZM166.652 195.514C164.027 195.514 162.589 193.601 162.589 191.646V191.367C162.589 189.37 164.097 187.485 166.652 187.485C169.208 187.485 170.716 189.37 170.716 191.367V191.646C170.716 193.601 169.278 195.514 166.652 195.514ZM166.652 194.09C168.202 194.09 169.082 192.973 169.082 191.506C169.082 190.012 168.161 188.909 166.652 188.909C165.144 188.909 164.223 190.012 164.223 191.506C164.223 192.973 165.102 194.09 166.652 194.09ZM175.237 195.486H175.167C173.393 195.486 172.416 194.327 172.416 192.093V187.736H174.05V192.316C174.05 193.364 174.678 194.006 175.656 194.006C176.661 194.006 177.373 193.308 177.373 192.205V187.736H179.007V195.263H177.708V193.545C177.373 194.816 176.549 195.486 175.237 195.486ZM183.068 195.263H181.434V187.736H182.733V190.026C182.956 188.434 183.892 187.652 185.498 187.652H185.763V189.09H185.26C183.85 189.09 183.068 189.872 183.068 191.269V195.263ZM191.583 195.347H190.452C188.581 195.347 187.576 194.676 187.576 192.568V188.951H186.333V187.736H187.576V185.544H189.126V187.736H191.583V188.951H189.126V192.707C189.126 193.475 189.559 193.922 190.327 193.922H191.583V195.347Z" fill="#3D5213"/>
<circle cx="302.951" cy="178.832" r="1.1637" fill="#3D5213"/>
<circle cx="306.83" cy="178.832" r="1.1637" fill="#3D5213"/>
<circle cx="310.709" cy="178.832" r="1.1637" fill="#3D5213"/>
<path d="M102.189 211.694C102.413 213.332 103.645 214.634 105.689 214.634C107.061 214.634 108.041 214.144 108.615 213.15C109.189 212.156 109.483 210.98 109.483 209.608C109.483 208.152 109.175 206.948 108.573 205.996C107.971 205.03 107.019 204.554 105.689 204.554C103.799 204.554 102.399 205.912 102.399 207.914C102.399 209.454 103.463 210.994 105.549 210.994C106.823 210.994 107.691 210.28 108.069 209.174C108.083 209.3 108.083 209.482 108.083 209.72C108.083 211.918 107.271 213.234 105.759 213.234C104.541 213.234 103.785 212.576 103.659 211.274L102.189 211.694ZM107.649 207.774C107.649 208.894 106.879 209.664 105.759 209.664C104.625 209.664 103.869 208.95 103.869 207.844C103.869 206.71 104.653 205.884 105.759 205.884C106.305 205.884 106.767 206.066 107.117 206.43C107.467 206.794 107.649 207.242 107.649 207.774ZM110.878 209.874H112.558V208.194H110.878V209.874ZM110.878 214.494H112.558V212.814H110.878V214.494ZM113.96 209.594C113.96 212.66 115.5 214.634 117.95 214.634C120.4 214.634 121.94 212.66 121.94 209.594C121.94 206.528 120.4 204.554 117.95 204.554C115.5 204.554 113.96 206.528 113.96 209.594ZM120.47 209.594C120.47 210.686 120.246 211.582 119.812 212.268C119.378 212.954 118.762 213.304 117.95 213.304C117.138 213.304 116.508 212.968 116.074 212.282C115.64 211.596 115.43 210.7 115.43 209.594C115.43 208.488 115.64 207.606 116.074 206.92C116.508 206.234 117.138 205.884 117.95 205.884C118.762 205.884 119.378 206.234 119.812 206.92C120.246 207.606 120.47 208.502 120.47 209.594ZM123.011 209.594C123.011 212.66 124.551 214.634 127.001 214.634C129.451 214.634 130.991 212.66 130.991 209.594C130.991 206.528 129.451 204.554 127.001 204.554C124.551 204.554 123.011 206.528 123.011 209.594ZM129.521 209.594C129.521 210.686 129.297 211.582 128.863 212.268C128.429 212.954 127.813 213.304 127.001 213.304C126.189 213.304 125.559 212.968 125.125 212.282C124.691 211.596 124.481 210.7 124.481 209.594C124.481 208.488 124.691 207.606 125.125 206.92C125.559 206.234 126.189 205.884 127.001 205.884C127.813 205.884 128.429 206.234 128.863 206.92C129.297 207.606 129.521 208.502 129.521 209.594ZM135.565 210.294V211.624H139.345V210.294H135.565ZM146.393 214.494H147.863V204.694H146.533C146.267 206.094 145.161 206.85 143.663 207.004L143.943 208.614C144.937 208.558 146.113 207.732 146.393 206.864V214.494ZM149.397 209.594C149.397 212.66 150.937 214.634 153.387 214.634C155.837 214.634 157.377 212.66 157.377 209.594C157.377 206.528 155.837 204.554 153.387 204.554C150.937 204.554 149.397 206.528 149.397 209.594ZM155.907 209.594C155.907 210.686 155.683 211.582 155.249 212.268C154.815 212.954 154.199 213.304 153.387 213.304C152.575 213.304 151.945 212.968 151.511 212.282C151.077 211.596 150.867 210.7 150.867 209.594C150.867 208.488 151.077 207.606 151.511 206.92C151.945 206.234 152.575 205.884 153.387 205.884C154.199 205.884 154.815 206.234 155.249 206.92C155.683 207.606 155.907 208.502 155.907 209.594ZM158.784 209.874H160.464V208.194H158.784V209.874ZM158.784 214.494H160.464V212.814H158.784V214.494ZM161.866 209.594C161.866 212.66 163.406 214.634 165.856 214.634C168.306 214.634 169.846 212.66 169.846 209.594C169.846 206.528 168.306 204.554 165.856 204.554C163.406 204.554 161.866 206.528 161.866 209.594ZM168.376 209.594C168.376 210.686 168.152 211.582 167.718 212.268C167.284 212.954 166.668 213.304 165.856 213.304C165.044 213.304 164.414 212.968 163.98 212.282C163.546 211.596 163.336 210.7 163.336 209.594C163.336 208.488 163.546 207.606 163.98 206.92C164.414 206.234 165.044 205.884 165.856 205.884C166.668 205.884 167.284 206.234 167.718 206.92C168.152 207.606 168.376 208.502 168.376 209.594ZM170.917 209.594C170.917 212.66 172.457 214.634 174.907 214.634C177.357 214.634 178.897 212.66 178.897 209.594C178.897 206.528 177.357 204.554 174.907 204.554C172.457 204.554 170.917 206.528 170.917 209.594ZM177.427 209.594C177.427 210.686 177.203 211.582 176.769 212.268C176.335 212.954 175.719 213.304 174.907 213.304C174.095 213.304 173.465 212.968 173.031 212.282C172.597 211.596 172.387 210.7 172.387 209.594C172.387 208.488 172.597 207.606 173.031 206.92C173.465 206.234 174.095 205.884 174.907 205.884C175.719 205.884 176.335 206.234 176.769 206.92C177.203 207.606 177.427 208.502 177.427 209.594ZM180.066 212.604C180.066 213.878 181.158 214.634 182.25 214.634C183.426 214.634 184.182 214.116 184.476 213.374V214.494H185.876V210.364C185.876 208.684 184.826 207.718 182.936 207.718C181.312 207.718 180.29 208.572 179.996 209.874L181.326 210.224C181.48 209.426 182.054 208.908 182.936 208.908C183.818 208.908 184.476 209.412 184.476 210.294V210.784L183.776 210.616C183.398 210.518 183.006 210.476 182.6 210.476C181.13 210.476 180.066 211.162 180.066 212.604ZM184.476 211.974C184.476 212.856 183.804 213.374 182.838 213.374C181.998 213.374 181.606 212.982 181.606 212.464C181.606 211.862 182.096 211.582 182.838 211.582C183.104 211.582 183.468 211.638 183.944 211.764L184.476 211.904V211.974ZM187.673 207.858V214.494H189.143V210.476C189.143 209.538 189.591 209.034 190.263 209.034C190.921 209.034 191.383 209.51 191.383 210.336V214.494H192.853V210.336C192.853 209.51 193.315 209.034 193.973 209.034C194.631 209.034 195.093 209.51 195.093 210.336V214.494H196.563V210.014C196.563 208.516 195.765 207.718 194.533 207.718C193.707 207.718 192.979 208.166 192.643 209.104C192.377 208.166 191.719 207.718 190.893 207.718C190.011 207.718 189.437 208.124 189.143 208.796V207.858H187.673Z" fill="#3D5213"/>
</svg>
