<svg width="421" height="233" viewBox="0 0 421 233" fill="none" xmlns="http://www.w3.org/2000/svg">
<rect x="70.2715" y="139.065" width="350.621" height="93.2588" rx="8" fill="#FAFEF2"/>
<rect x="90.2715" y="159.065" width="53.2588" height="53.2588" rx="4" fill="#CBF07F"/>
<path d="M121.422 184.319L115.3 178.198L116.914 176.584L125.791 185.461L116.914 194.337L115.3 192.723L121.422 186.602H107.531V184.319H121.422Z" fill="black"/>
<path d="M166.756 179.194H164.981V168.32H168.754C171.239 168.32 172.837 169.415 172.837 171.767V172.004C172.837 173.661 172.038 174.682 170.706 175.141L173.724 179.194H171.609L168.887 175.436C168.842 175.436 168.798 175.436 168.754 175.436H166.756V179.194ZM168.99 169.859H166.756V173.942H168.99C170.248 173.942 171.032 173.099 171.032 171.901C171.032 170.717 170.248 169.859 168.99 169.859ZM178.639 179.46C175.858 179.46 174.6 177.374 174.6 175.348V175.067C174.6 172.995 175.902 170.954 178.55 170.954C181.124 170.954 182.411 172.862 182.411 174.904V175.599H176.257C176.375 177.005 177.1 177.996 178.639 177.996C179.748 177.996 180.488 177.448 180.651 176.783H182.263C181.923 178.44 180.547 179.46 178.639 179.46ZM178.55 172.418C177.248 172.418 176.509 173.203 176.301 174.43H180.725C180.562 173.173 179.837 172.418 178.55 172.418ZM186.01 182.153H184.279V171.22H185.654V173.173C186.172 171.679 187.371 170.969 188.791 170.969C191.069 170.969 192.563 172.803 192.563 175.067V175.348C192.563 177.611 191.054 179.46 188.776 179.46C187.666 179.46 186.646 179.031 186.01 178.07V182.153ZM188.406 177.966C189.856 177.966 190.832 176.842 190.832 175.2C190.832 173.572 189.856 172.448 188.406 172.448C187.089 172.448 185.95 173.38 185.95 174.933V175.57C185.95 177.079 187.119 177.966 188.406 177.966ZM198.294 179.46C195.512 179.46 193.989 177.434 193.989 175.362V175.067C193.989 172.951 195.586 170.954 198.294 170.954C201.001 170.954 202.599 172.951 202.599 175.067V175.362C202.599 177.434 201.075 179.46 198.294 179.46ZM198.294 177.951C199.936 177.951 200.868 176.768 200.868 175.215C200.868 173.632 199.891 172.463 198.294 172.463C196.696 172.463 195.719 173.632 195.719 175.215C195.719 176.768 196.651 177.951 198.294 177.951ZM206.308 179.194H204.577V171.22H205.953V173.646C206.19 171.96 207.181 171.131 208.882 171.131H209.163V172.655H208.631C207.137 172.655 206.308 173.484 206.308 174.963V179.194ZM215.33 179.283H214.131C212.149 179.283 211.084 178.573 211.084 176.339V172.507H209.767V171.22H211.084V168.897H212.726V171.22H215.33V172.507H212.726V176.487C212.726 177.3 213.184 177.774 213.998 177.774H215.33V179.283ZM227.185 179.194H220.661V168.394H227.052V169.933H222.422V172.936H226.771V174.475H222.422V177.656H227.185V179.194ZM231.056 179.194H229.326V171.22H230.701V173.114C231.042 171.738 231.9 170.983 233.29 170.983H233.364C234.666 170.983 235.509 171.649 235.894 172.862C236.279 171.649 237.137 170.983 238.439 170.983H238.513C240.362 170.983 241.309 172.3 241.309 174.652V179.194H239.578V174.401C239.578 173.247 238.971 172.552 237.936 172.552C236.871 172.552 236.19 173.291 236.19 174.475V179.194H234.444V174.401C234.444 173.247 233.838 172.552 232.817 172.552C231.752 172.552 231.056 173.291 231.056 174.475V179.194ZM247.192 179.46C244.41 179.46 243.153 177.374 243.153 175.348V175.067C243.153 172.995 244.455 170.954 247.103 170.954C249.677 170.954 250.964 172.862 250.964 174.904V175.599H244.81C244.928 177.005 245.653 177.996 247.192 177.996C248.301 177.996 249.041 177.448 249.204 176.783H250.816C250.476 178.44 249.1 179.46 247.192 179.46ZM247.103 172.418C245.801 172.418 245.061 173.203 244.854 174.43H249.278C249.115 173.173 248.39 172.418 247.103 172.418ZM254.562 179.194H252.831V171.22H254.207V173.646C254.444 171.96 255.435 171.131 257.137 171.131H257.418V172.655H256.885C255.391 172.655 254.562 173.484 254.562 174.963V179.194ZM261.932 182.316C261.178 182.316 260.379 182.257 259.713 182.153V180.688C260.423 180.792 261.267 180.866 261.962 180.866C264.033 180.866 264.832 180.111 264.832 178.336V177.626C264.27 178.706 263.249 179.253 262.021 179.253C259.802 179.253 258.323 177.448 258.323 175.215V174.933C258.323 172.685 259.876 170.969 262.125 170.969C263.501 170.969 264.566 171.62 265.098 172.803V171.22H266.474V178.247C266.474 181.147 265.143 182.316 261.932 182.316ZM262.45 177.715C263.737 177.715 264.817 176.812 264.817 175.303V174.697C264.817 173.232 263.693 172.404 262.465 172.404C261.03 172.404 260.054 173.469 260.054 175.067C260.054 176.709 261.045 177.715 262.45 177.715ZM272.402 179.46C269.621 179.46 268.364 177.374 268.364 175.348V175.067C268.364 172.995 269.666 170.954 272.314 170.954C274.888 170.954 276.175 172.862 276.175 174.904V175.599H270.021C270.139 177.005 270.864 177.996 272.402 177.996C273.512 177.996 274.252 177.448 274.414 176.783H276.027C275.687 178.44 274.311 179.46 272.402 179.46ZM272.314 172.418C271.012 172.418 270.272 173.203 270.065 174.43H274.488C274.326 173.173 273.601 172.418 272.314 172.418ZM279.773 179.194H278.042V171.22H279.418V173.129C279.773 171.723 280.675 170.983 282.155 170.983H282.229C284.182 170.983 285.158 172.256 285.158 174.638V179.194H283.427V174.401C283.427 173.291 282.747 172.552 281.652 172.552C280.528 172.552 279.773 173.321 279.773 174.475V179.194ZM291.025 179.46C288.288 179.46 287.001 177.36 287.001 175.348V175.081C287.001 173.01 288.347 170.954 291.01 170.954C293.052 170.954 294.561 172.182 294.679 174.061H293.007C292.874 173.158 292.179 172.478 291.01 172.478C289.471 172.478 288.732 173.632 288.732 175.215C288.732 176.753 289.457 177.937 291.025 177.937C292.223 177.937 292.978 177.256 293.081 176.309H294.768C294.664 178.218 293.081 179.46 291.025 179.46ZM297.363 182.316H296.179V180.792H297.496C298.413 180.792 298.886 180.481 299.153 179.564L299.301 179.017H298.206L295.498 171.22H297.259L299.375 177.611H299.7L301.475 171.22H303.147L300.632 179.978C300.159 181.65 299.153 182.316 297.363 182.316Z" fill="black"/>
<path d="M169.361 194.649C169.31 194.217 169.102 193.882 168.739 193.643C168.375 193.404 167.929 193.285 167.401 193.285C167.014 193.285 166.676 193.348 166.386 193.473C166.099 193.598 165.875 193.769 165.713 193.988C165.554 194.207 165.474 194.455 165.474 194.734C165.474 194.967 165.53 195.167 165.641 195.335C165.754 195.5 165.899 195.637 166.075 195.748C166.251 195.856 166.436 195.946 166.629 196.017C166.822 196.085 167 196.14 167.162 196.183L168.048 196.421C168.276 196.481 168.528 196.563 168.807 196.669C169.088 196.774 169.357 196.917 169.612 197.099C169.871 197.278 170.084 197.508 170.251 197.789C170.419 198.071 170.503 198.416 170.503 198.825C170.503 199.296 170.379 199.723 170.132 200.103C169.888 200.484 169.53 200.786 169.058 201.011C168.589 201.235 168.02 201.348 167.349 201.348C166.724 201.348 166.183 201.247 165.726 201.045C165.271 200.843 164.913 200.562 164.652 200.201C164.393 199.84 164.247 199.421 164.213 198.944H165.304C165.332 199.274 165.443 199.546 165.636 199.762C165.832 199.975 166.08 200.134 166.378 200.24C166.679 200.342 167.003 200.393 167.349 200.393C167.753 200.393 168.115 200.328 168.436 200.197C168.757 200.063 169.011 199.879 169.199 199.643C169.386 199.404 169.48 199.126 169.48 198.808C169.48 198.518 169.399 198.282 169.237 198.1C169.075 197.919 168.862 197.771 168.598 197.657C168.334 197.544 168.048 197.444 167.741 197.359L166.668 197.052C165.986 196.856 165.446 196.576 165.048 196.213C164.651 195.849 164.452 195.373 164.452 194.785C164.452 194.296 164.584 193.87 164.848 193.507C165.115 193.14 165.473 192.856 165.922 192.654C166.374 192.45 166.878 192.348 167.435 192.348C167.997 192.348 168.497 192.448 168.935 192.65C169.372 192.849 169.719 193.122 169.974 193.468C170.233 193.815 170.369 194.208 170.384 194.649H169.361ZM173.11 192.467V201.194H172.104V192.467H173.11ZM174.952 201.194V194.649H175.957V201.194H174.952ZM175.463 193.558C175.267 193.558 175.098 193.491 174.956 193.357C174.817 193.224 174.747 193.063 174.747 192.876C174.747 192.688 174.817 192.528 174.956 192.394C175.098 192.261 175.267 192.194 175.463 192.194C175.659 192.194 175.827 192.261 175.966 192.394C176.108 192.528 176.179 192.688 176.179 192.876C176.179 193.063 176.108 193.224 175.966 193.357C175.827 193.491 175.659 193.558 175.463 193.558ZM180.271 201.33C179.725 201.33 179.244 201.193 178.826 200.917C178.409 200.639 178.082 200.247 177.846 199.741C177.61 199.232 177.493 198.632 177.493 197.938C177.493 197.251 177.61 196.654 177.846 196.149C178.082 195.643 178.41 195.252 178.831 194.977C179.251 194.701 179.737 194.563 180.288 194.563C180.714 194.563 181.051 194.634 181.298 194.777C181.548 194.916 181.738 195.075 181.869 195.254C182.002 195.43 182.106 195.575 182.18 195.688H182.265V192.467H183.271V201.194H182.299V200.188H182.18C182.106 200.308 182.001 200.458 181.865 200.64C181.728 200.819 181.534 200.98 181.281 201.122C181.028 201.261 180.691 201.33 180.271 201.33ZM180.407 200.427C180.811 200.427 181.152 200.322 181.43 200.112C181.708 199.899 181.92 199.605 182.065 199.23C182.21 198.852 182.282 198.416 182.282 197.921C182.282 197.433 182.211 197.005 182.069 196.639C181.927 196.269 181.717 195.982 181.439 195.778C181.16 195.571 180.816 195.467 180.407 195.467C179.981 195.467 179.626 195.576 179.342 195.795C179.061 196.011 178.849 196.305 178.707 196.677C178.568 197.046 178.498 197.461 178.498 197.921C178.498 198.387 178.569 198.811 178.711 199.191C178.856 199.569 179.069 199.87 179.35 200.095C179.635 200.316 179.987 200.427 180.407 200.427ZM187.997 201.33C187.366 201.33 186.822 201.191 186.365 200.913C185.91 200.632 185.559 200.24 185.312 199.737C185.068 199.231 184.946 198.643 184.946 197.973C184.946 197.302 185.068 196.711 185.312 196.2C185.559 195.686 185.903 195.285 186.343 194.998C186.787 194.708 187.304 194.563 187.895 194.563C188.235 194.563 188.572 194.62 188.904 194.734C189.237 194.848 189.539 195.032 189.812 195.288C190.085 195.541 190.302 195.876 190.464 196.294C190.626 196.711 190.707 197.225 190.707 197.836V198.262H185.662V197.393H189.684C189.684 197.024 189.61 196.694 189.463 196.404C189.318 196.115 189.11 195.886 188.841 195.718C188.574 195.551 188.258 195.467 187.895 195.467C187.494 195.467 187.147 195.566 186.855 195.765C186.565 195.961 186.342 196.217 186.186 196.532C186.029 196.848 185.951 197.186 185.951 197.546V198.126C185.951 198.62 186.037 199.039 186.207 199.383C186.38 199.724 186.62 199.984 186.927 200.163C187.234 200.339 187.591 200.427 187.997 200.427C188.261 200.427 188.5 200.39 188.713 200.316C188.929 200.24 189.115 200.126 189.271 199.975C189.427 199.822 189.548 199.632 189.633 199.404L190.605 199.677C190.502 200.007 190.331 200.296 190.089 200.546C189.848 200.794 189.549 200.987 189.194 201.126C188.839 201.262 188.44 201.33 187.997 201.33ZM195.748 201.194V192.467H196.754V195.688H196.839C196.913 195.575 197.015 195.43 197.146 195.254C197.279 195.075 197.47 194.916 197.717 194.777C197.967 194.634 198.305 194.563 198.731 194.563C199.282 194.563 199.768 194.701 200.189 194.977C200.609 195.252 200.937 195.643 201.173 196.149C201.409 196.654 201.527 197.251 201.527 197.938C201.527 198.632 201.409 199.232 201.173 199.741C200.937 200.247 200.61 200.639 200.193 200.917C199.775 201.193 199.294 201.33 198.748 201.33C198.328 201.33 197.991 201.261 197.738 201.122C197.485 200.98 197.291 200.819 197.154 200.64C197.018 200.458 196.913 200.308 196.839 200.188H196.72V201.194H195.748ZM196.737 197.921C196.737 198.416 196.809 198.852 196.954 199.23C197.099 199.605 197.311 199.899 197.589 200.112C197.868 200.322 198.208 200.427 198.612 200.427C199.032 200.427 199.383 200.316 199.664 200.095C199.949 199.87 200.162 199.569 200.304 199.191C200.449 198.811 200.521 198.387 200.521 197.921C200.521 197.461 200.45 197.046 200.308 196.677C200.169 196.305 199.957 196.011 199.673 195.795C199.392 195.576 199.038 195.467 198.612 195.467C198.203 195.467 197.859 195.571 197.581 195.778C197.302 195.982 197.092 196.269 196.95 196.639C196.808 197.005 196.737 197.433 196.737 197.921ZM207.19 198.518V194.649H208.196V201.194H207.19V200.086H207.122C206.968 200.419 206.73 200.701 206.406 200.934C206.082 201.164 205.673 201.279 205.179 201.279C204.77 201.279 204.406 201.19 204.088 201.011C203.77 200.829 203.52 200.556 203.338 200.193C203.156 199.826 203.065 199.365 203.065 198.808V194.649H204.071V198.74C204.071 199.217 204.204 199.598 204.471 199.882C204.741 200.166 205.085 200.308 205.502 200.308C205.752 200.308 206.007 200.244 206.265 200.116C206.527 199.988 206.745 199.792 206.922 199.528C207.1 199.264 207.19 198.927 207.19 198.518ZM212.884 194.649V195.501H209.492V194.649H212.884ZM210.481 193.08H211.487V199.319C211.487 199.603 211.528 199.816 211.61 199.958C211.695 200.098 211.803 200.191 211.934 200.24C212.067 200.285 212.208 200.308 212.356 200.308C212.467 200.308 212.558 200.302 212.629 200.291C212.7 200.277 212.756 200.265 212.799 200.257L213.004 201.16C212.935 201.186 212.84 201.211 212.718 201.237C212.596 201.265 212.441 201.279 212.254 201.279C211.969 201.279 211.691 201.218 211.418 201.096C211.148 200.974 210.924 200.788 210.745 200.538C210.569 200.288 210.481 199.973 210.481 199.592V193.08ZM217.244 194.649V195.501H213.852V194.649H217.244ZM214.84 193.08H215.846V199.319C215.846 199.603 215.887 199.816 215.969 199.958C216.055 200.098 216.163 200.191 216.293 200.24C216.427 200.285 216.567 200.308 216.715 200.308C216.826 200.308 216.917 200.302 216.988 200.291C217.059 200.277 217.116 200.265 217.158 200.257L217.363 201.16C217.295 201.186 217.2 201.211 217.077 201.237C216.955 201.265 216.8 201.279 216.613 201.279C216.329 201.279 216.05 201.218 215.778 201.096C215.508 200.974 215.283 200.788 215.104 200.538C214.928 200.288 214.84 199.973 214.84 199.592V193.08ZM221.345 201.33C220.754 201.33 220.236 201.19 219.79 200.909C219.347 200.627 219 200.234 218.75 199.728C218.503 199.223 218.379 198.632 218.379 197.955C218.379 197.274 218.503 196.678 218.75 196.17C219 195.661 219.347 195.267 219.79 194.985C220.236 194.704 220.754 194.563 221.345 194.563C221.936 194.563 222.453 194.704 222.896 194.985C223.342 195.267 223.689 195.661 223.936 196.17C224.186 196.678 224.311 197.274 224.311 197.955C224.311 198.632 224.186 199.223 223.936 199.728C223.689 200.234 223.342 200.627 222.896 200.909C222.453 201.19 221.936 201.33 221.345 201.33ZM221.345 200.427C221.794 200.427 222.163 200.312 222.453 200.082C222.743 199.852 222.957 199.549 223.097 199.174C223.236 198.799 223.305 198.393 223.305 197.955C223.305 197.518 223.236 197.11 223.097 196.732C222.957 196.355 222.743 196.049 222.453 195.816C222.163 195.583 221.794 195.467 221.345 195.467C220.896 195.467 220.527 195.583 220.237 195.816C219.947 196.049 219.733 196.355 219.594 196.732C219.455 197.11 219.385 197.518 219.385 197.955C219.385 198.393 219.455 198.799 219.594 199.174C219.733 199.549 219.947 199.852 220.237 200.082C220.527 200.312 220.896 200.427 221.345 200.427ZM226.852 197.257V201.194H225.846V194.649H226.818V195.671H226.903C227.056 195.339 227.289 195.072 227.602 194.87C227.914 194.666 228.318 194.563 228.812 194.563C229.255 194.563 229.643 194.654 229.975 194.836C230.308 195.015 230.566 195.288 230.751 195.654C230.936 196.018 231.028 196.478 231.028 197.035V201.194H230.022V197.103C230.022 196.589 229.889 196.188 229.622 195.902C229.355 195.612 228.988 195.467 228.522 195.467C228.201 195.467 227.914 195.536 227.662 195.676C227.412 195.815 227.214 196.018 227.069 196.285C226.924 196.552 226.852 196.876 226.852 197.257ZM239.087 194.649V195.501H235.695V194.649H239.087ZM236.684 193.08H237.69V199.319C237.69 199.603 237.731 199.816 237.813 199.958C237.898 200.098 238.006 200.191 238.137 200.24C238.271 200.285 238.411 200.308 238.559 200.308C238.67 200.308 238.761 200.302 238.832 200.291C238.903 200.277 238.96 200.265 239.002 200.257L239.207 201.16C239.138 201.186 239.043 201.211 238.921 201.237C238.799 201.265 238.644 201.279 238.457 201.279C238.173 201.279 237.894 201.218 237.621 201.096C237.352 200.974 237.127 200.788 236.948 200.538C236.772 200.288 236.684 199.973 236.684 199.592V193.08ZM243.189 201.33C242.598 201.33 242.08 201.19 241.634 200.909C241.19 200.627 240.844 200.234 240.594 199.728C240.347 199.223 240.223 198.632 240.223 197.955C240.223 197.274 240.347 196.678 240.594 196.17C240.844 195.661 241.19 195.267 241.634 194.985C242.08 194.704 242.598 194.563 243.189 194.563C243.78 194.563 244.297 194.704 244.74 194.985C245.186 195.267 245.533 195.661 245.78 196.17C246.03 196.678 246.155 197.274 246.155 197.955C246.155 198.632 246.03 199.223 245.78 199.728C245.533 200.234 245.186 200.627 244.74 200.909C244.297 201.19 243.78 201.33 243.189 201.33ZM243.189 200.427C243.638 200.427 244.007 200.312 244.297 200.082C244.587 199.852 244.801 199.549 244.94 199.174C245.08 198.799 245.149 198.393 245.149 197.955C245.149 197.518 245.08 197.11 244.94 196.732C244.801 196.355 244.587 196.049 244.297 195.816C244.007 195.583 243.638 195.467 243.189 195.467C242.74 195.467 242.371 195.583 242.081 195.816C241.791 196.049 241.577 196.355 241.438 196.732C241.298 197.11 241.229 197.518 241.229 197.955C241.229 198.393 241.298 198.799 241.438 199.174C241.577 199.549 241.791 199.852 242.081 200.082C242.371 200.312 242.74 200.427 243.189 200.427ZM253.707 203.785C253.221 203.785 252.804 203.723 252.454 203.598C252.105 203.475 251.814 203.313 251.581 203.112C251.35 202.913 251.167 202.7 251.031 202.473L251.832 201.91C251.923 202.029 252.038 202.166 252.177 202.319C252.316 202.475 252.507 202.61 252.748 202.724C252.993 202.84 253.312 202.899 253.707 202.899C254.235 202.899 254.672 202.771 255.015 202.515C255.359 202.259 255.531 201.859 255.531 201.313V199.984H255.446C255.372 200.103 255.267 200.251 255.13 200.427C254.997 200.6 254.804 200.755 254.551 200.892C254.301 201.025 253.963 201.092 253.537 201.092C253.008 201.092 252.534 200.967 252.113 200.717C251.696 200.467 251.365 200.103 251.12 199.626C250.879 199.149 250.758 198.569 250.758 197.887C250.758 197.217 250.876 196.633 251.112 196.136C251.348 195.636 251.676 195.25 252.096 194.977C252.517 194.701 253.002 194.563 253.554 194.563C253.98 194.563 254.318 194.634 254.568 194.777C254.821 194.916 255.014 195.075 255.147 195.254C255.284 195.43 255.389 195.575 255.463 195.688H255.565V194.649H256.537V201.382C256.537 201.944 256.409 202.402 256.153 202.754C255.9 203.109 255.559 203.369 255.13 203.534C254.704 203.701 254.23 203.785 253.707 203.785ZM253.673 200.188C254.076 200.188 254.417 200.096 254.696 199.911C254.974 199.727 255.186 199.461 255.331 199.115C255.475 198.768 255.548 198.353 255.548 197.87C255.548 197.399 255.477 196.982 255.335 196.622C255.193 196.261 254.983 195.978 254.704 195.774C254.426 195.569 254.082 195.467 253.673 195.467C253.247 195.467 252.892 195.575 252.608 195.791C252.326 196.007 252.115 196.296 251.973 196.66C251.833 197.024 251.764 197.427 251.764 197.87C251.764 198.325 251.835 198.727 251.977 199.076C252.122 199.423 252.335 199.696 252.616 199.894C252.9 200.09 253.252 200.188 253.673 200.188ZM261.122 201.33C260.491 201.33 259.947 201.191 259.49 200.913C259.035 200.632 258.684 200.24 258.437 199.737C258.193 199.231 258.071 198.643 258.071 197.973C258.071 197.302 258.193 196.711 258.437 196.2C258.684 195.686 259.028 195.285 259.468 194.998C259.912 194.708 260.429 194.563 261.02 194.563C261.36 194.563 261.697 194.62 262.029 194.734C262.362 194.848 262.664 195.032 262.937 195.288C263.21 195.541 263.427 195.876 263.589 196.294C263.751 196.711 263.832 197.225 263.832 197.836V198.262H258.787V197.393H262.809C262.809 197.024 262.735 196.694 262.588 196.404C262.443 196.115 262.235 195.886 261.966 195.718C261.699 195.551 261.383 195.467 261.02 195.467C260.619 195.467 260.272 195.566 259.98 195.765C259.69 195.961 259.467 196.217 259.311 196.532C259.154 196.848 259.076 197.186 259.076 197.546V198.126C259.076 198.62 259.162 199.039 259.332 199.383C259.505 199.724 259.745 199.984 260.052 200.163C260.359 200.339 260.716 200.427 261.122 200.427C261.386 200.427 261.625 200.39 261.838 200.316C262.054 200.24 262.24 200.126 262.396 199.975C262.552 199.822 262.673 199.632 262.758 199.404L263.73 199.677C263.627 200.007 263.456 200.296 263.214 200.546C262.973 200.794 262.674 200.987 262.319 201.126C261.964 201.262 261.565 201.33 261.122 201.33ZM268.208 194.649V195.501H264.816V194.649H268.208ZM265.805 193.08H266.811V199.319C266.811 199.603 266.852 199.816 266.934 199.958C267.02 200.098 267.127 200.191 267.258 200.24C267.392 200.285 267.532 200.308 267.68 200.308C267.791 200.308 267.882 200.302 267.953 200.291C268.024 200.277 268.081 200.265 268.123 200.257L268.328 201.16C268.26 201.186 268.164 201.211 268.042 201.237C267.92 201.265 267.765 201.279 267.578 201.279C267.294 201.279 267.015 201.218 266.743 201.096C266.473 200.974 266.248 200.788 266.069 200.538C265.893 200.288 265.805 199.973 265.805 199.592V193.08ZM274.102 197.257V201.194H273.096V192.467H274.102V195.671H274.187C274.341 195.333 274.571 195.065 274.877 194.866C275.187 194.664 275.599 194.563 276.113 194.563C276.559 194.563 276.95 194.653 277.285 194.832C277.62 195.008 277.88 195.279 278.065 195.646C278.252 196.009 278.346 196.473 278.346 197.035V201.194H277.341V197.103C277.341 196.583 277.206 196.181 276.936 195.897C276.669 195.61 276.298 195.467 275.824 195.467C275.494 195.467 275.199 195.536 274.937 195.676C274.679 195.815 274.474 196.018 274.324 196.285C274.176 196.552 274.102 196.876 274.102 197.257ZM282.93 201.33C282.3 201.33 281.756 201.191 281.298 200.913C280.844 200.632 280.493 200.24 280.246 199.737C280.001 199.231 279.879 198.643 279.879 197.973C279.879 197.302 280.001 196.711 280.246 196.2C280.493 195.686 280.837 195.285 281.277 194.998C281.72 194.708 282.237 194.563 282.828 194.563C283.169 194.563 283.506 194.62 283.838 194.734C284.17 194.848 284.473 195.032 284.746 195.288C285.018 195.541 285.236 195.876 285.398 196.294C285.56 196.711 285.641 197.225 285.641 197.836V198.262H280.595V197.393H284.618C284.618 197.024 284.544 196.694 284.396 196.404C284.251 196.115 284.044 195.886 283.774 195.718C283.507 195.551 283.192 195.467 282.828 195.467C282.428 195.467 282.081 195.566 281.788 195.765C281.499 195.961 281.276 196.217 281.119 196.532C280.963 196.848 280.885 197.186 280.885 197.546V198.126C280.885 198.62 280.97 199.039 281.141 199.383C281.314 199.724 281.554 199.984 281.861 200.163C282.168 200.339 282.524 200.427 282.93 200.427C283.195 200.427 283.433 200.39 283.646 200.316C283.862 200.24 284.048 200.126 284.205 199.975C284.361 199.822 284.482 199.632 284.567 199.404L285.538 199.677C285.436 200.007 285.264 200.296 285.023 200.546C284.781 200.794 284.483 200.987 284.128 201.126C283.773 201.262 283.374 201.33 282.93 201.33ZM288.176 192.467V201.194H287.17V192.467H288.176ZM290.018 203.649V194.649H290.99V195.688H291.109C291.183 195.575 291.285 195.43 291.416 195.254C291.549 195.075 291.74 194.916 291.987 194.777C292.237 194.634 292.575 194.563 293.001 194.563C293.552 194.563 294.038 194.701 294.458 194.977C294.879 195.252 295.207 195.643 295.443 196.149C295.679 196.654 295.797 197.251 295.797 197.938C295.797 198.632 295.679 199.232 295.443 199.741C295.207 200.247 294.88 200.639 294.463 200.917C294.045 201.193 293.564 201.33 293.018 201.33C292.598 201.33 292.261 201.261 292.008 201.122C291.755 200.98 291.561 200.819 291.424 200.64C291.288 200.458 291.183 200.308 291.109 200.188H291.024V203.649H290.018ZM291.007 197.921C291.007 198.416 291.079 198.852 291.224 199.23C291.369 199.605 291.581 199.899 291.859 200.112C292.137 200.322 292.478 200.427 292.882 200.427C293.302 200.427 293.653 200.316 293.934 200.095C294.218 199.87 294.431 199.569 294.574 199.191C294.718 198.811 294.791 198.387 294.791 197.921C294.791 197.461 294.72 197.046 294.578 196.677C294.439 196.305 294.227 196.011 293.943 195.795C293.662 195.576 293.308 195.467 292.882 195.467C292.473 195.467 292.129 195.571 291.85 195.778C291.572 195.982 291.362 196.269 291.22 196.639C291.078 197.005 291.007 197.433 291.007 197.921Z" fill="#2E2D2D"/>
<rect width="350.621" height="93.2588" rx="8" fill="white"/>
<rect x="20" y="20" width="53.2588" height="53.2588" rx="4" fill="#FFE6CC"/>
<path d="M46.6276 34.6092C44.2503 34.6092 41.9263 35.3142 39.9496 36.635C37.9729 37.9558 36.4322 39.8331 35.5224 42.0295C34.6126 44.2259 34.3746 46.6428 34.8384 48.9745C35.3022 51.3062 36.447 53.448 38.1281 55.129C39.8091 56.8101 41.9509 57.9549 44.2826 58.4187C46.6143 58.8825 49.0312 58.6444 51.2276 57.7347C53.424 56.8249 55.3013 55.2842 56.6221 53.3075C57.9429 51.3308 58.6479 49.0068 58.6479 46.6294C58.6445 43.4425 57.377 40.3871 55.1235 38.1336C52.87 35.8801 49.8146 34.6126 46.6276 34.6092ZM45.703 41.0816C45.703 40.8364 45.8004 40.6012 45.9738 40.4278C46.1472 40.2544 46.3824 40.157 46.6276 40.157C46.8729 40.157 47.1081 40.2544 47.2815 40.4278C47.4549 40.6012 47.5523 40.8364 47.5523 41.0816V47.5541C47.5523 47.7993 47.4549 48.0345 47.2815 48.2079C47.1081 48.3813 46.8729 48.4787 46.6276 48.4787C46.3824 48.4787 46.1472 48.3813 45.9738 48.2079C45.8004 48.0345 45.703 47.7993 45.703 47.5541V41.0816ZM46.6276 53.1019C46.3533 53.1019 46.0852 53.0205 45.8571 52.8681C45.629 52.7157 45.4512 52.4991 45.3463 52.2457C45.2413 51.9922 45.2138 51.7134 45.2673 51.4443C45.3209 51.1753 45.453 50.9282 45.6469 50.7342C45.8409 50.5402 46.088 50.4081 46.3571 50.3546C46.6261 50.3011 46.905 50.3286 47.1584 50.4335C47.4118 50.5385 47.6285 50.7163 47.7809 50.9444C47.9333 51.1724 48.0146 51.4406 48.0146 51.7149C48.0146 52.0827 47.8685 52.4355 47.6084 52.6956C47.3483 52.9557 46.9955 53.1019 46.6276 53.1019Z" fill="#FF8200"/>
<path d="M101.234 40.1294H94.7096V29.3297H101.101V30.8683H96.4701V33.8715H100.82V35.4101H96.4701V38.5908H101.234V40.1294ZM105.105 40.1294H103.374V32.1554H104.75V34.049C105.09 32.6732 105.948 31.9187 107.339 31.9187H107.413C108.715 31.9187 109.558 32.5844 109.942 33.7975C110.327 32.5844 111.185 31.9187 112.487 31.9187H112.561C114.41 31.9187 115.357 33.2354 115.357 35.5876V40.1294H113.626V35.3361C113.626 34.1822 113.02 33.4869 111.984 33.4869C110.919 33.4869 110.238 34.2266 110.238 35.4101V40.1294H108.493V35.3361C108.493 34.1822 107.886 33.4869 106.865 33.4869C105.8 33.4869 105.105 34.2266 105.105 35.4101V40.1294ZM121.24 40.3957C118.459 40.3957 117.201 38.3097 117.201 36.2829V36.0019C117.201 33.9307 118.503 31.8891 121.151 31.8891C123.725 31.8891 125.013 33.7975 125.013 35.8391V36.5344H118.858C118.977 37.9399 119.701 38.9311 121.24 38.9311C122.35 38.9311 123.089 38.3837 123.252 37.718H124.865C124.524 39.3749 123.149 40.3957 121.24 40.3957ZM121.151 33.3537C119.849 33.3537 119.11 34.1378 118.903 35.3657H123.326C123.163 34.1082 122.438 33.3537 121.151 33.3537ZM128.611 40.1294H126.88V32.1554H128.256V34.5816C128.492 32.8951 129.484 32.0666 131.185 32.0666H131.466V33.5904H130.933C129.439 33.5904 128.611 34.4189 128.611 35.8983V40.1294ZM135.981 43.251C135.226 43.251 134.427 43.1918 133.762 43.0882V41.6236C134.472 41.7272 135.315 41.8011 136.01 41.8011C138.082 41.8011 138.88 41.0466 138.88 39.2714V38.5612C138.318 39.6412 137.297 40.1886 136.07 40.1886C133.85 40.1886 132.371 38.3837 132.371 36.1498V35.8687C132.371 33.62 133.924 31.9039 136.173 31.9039C137.549 31.9039 138.614 32.5548 139.147 33.7384V32.1554H140.523V39.1826C140.523 42.0822 139.191 43.251 135.981 43.251ZM136.499 38.65C137.786 38.65 138.866 37.7476 138.866 36.2386V35.632C138.866 34.1674 137.741 33.3389 136.513 33.3389C135.078 33.3389 134.102 34.4041 134.102 36.0019C134.102 37.644 135.093 38.65 136.499 38.65ZM146.451 40.3957C143.669 40.3957 142.412 38.3097 142.412 36.2829V36.0019C142.412 33.9307 143.714 31.8891 146.362 31.8891C148.936 31.8891 150.223 33.7975 150.223 35.8391V36.5344H144.069C144.187 37.9399 144.912 38.9311 146.451 38.9311C147.56 38.9311 148.3 38.3837 148.463 37.718H150.075C149.735 39.3749 148.359 40.3957 146.451 40.3957ZM146.362 33.3537C145.06 33.3537 144.32 34.1378 144.113 35.3657H148.537C148.374 34.1082 147.649 33.3537 146.362 33.3537ZM153.821 40.1294H152.09V32.1554H153.466V34.0638C153.821 32.6584 154.724 31.9187 156.203 31.9187H156.277C158.23 31.9187 159.206 33.191 159.206 35.5728V40.1294H157.475V35.3361C157.475 34.2266 156.795 33.4869 155.7 33.4869C154.576 33.4869 153.821 34.2561 153.821 35.4101V40.1294ZM165.073 40.3957C162.336 40.3957 161.049 38.2949 161.049 36.2829V36.0166C161.049 33.9455 162.395 31.8891 165.058 31.8891C167.1 31.8891 168.609 33.117 168.727 34.9959H167.055C166.922 34.0934 166.227 33.4129 165.058 33.4129C163.52 33.4129 162.78 34.5668 162.78 36.1498C162.78 37.6884 163.505 38.8719 165.073 38.8719C166.271 38.8719 167.026 38.1914 167.129 37.2446H168.816C168.712 39.153 167.129 40.3957 165.073 40.3957ZM171.411 43.251H170.227V41.7272H171.544C172.461 41.7272 172.935 41.4165 173.201 40.4993L173.349 39.9519H172.254L169.547 32.1554H171.307L173.423 38.5464H173.748L175.524 32.1554H177.195L174.68 40.9135C174.207 42.5852 173.201 43.251 171.411 43.251ZM188.563 40.1294H182.275V29.3297H184.05V38.5464H188.563V40.1294ZM191.164 31.0458C190.454 31.0458 190.113 30.6316 190.113 30.0398C190.113 29.4629 190.454 29.0338 191.164 29.0338C191.889 29.0338 192.229 29.4629 192.229 30.0398C192.229 30.6316 191.889 31.0458 191.164 31.0458ZM192.333 40.1294H190.602V33.4869H189.433V32.1554H192.333V40.1294ZM196.643 40.1294H194.912V32.1554H196.288V34.0638C196.643 32.6584 197.546 31.9187 199.025 31.9187H199.099C201.052 31.9187 202.028 33.191 202.028 35.5728V40.1294H200.298V35.3361C200.298 34.2266 199.617 33.4869 198.522 33.4869C197.398 33.4869 196.643 34.2561 196.643 35.4101V40.1294ZM207.91 40.3957C205.129 40.3957 203.871 38.3097 203.871 36.2829V36.0019C203.871 33.9307 205.173 31.8891 207.821 31.8891C210.395 31.8891 211.682 33.7975 211.682 35.8391V36.5344H205.528C205.646 37.9399 206.371 38.9311 207.91 38.9311C209.019 38.9311 209.759 38.3837 209.922 37.718H211.534C211.194 39.3749 209.818 40.3957 207.91 40.3957ZM207.821 33.3537C206.519 33.3537 205.78 34.1378 205.572 35.3657H209.996C209.833 34.1082 209.108 33.3537 207.821 33.3537Z" fill="black"/>
<path d="M101.339 56.1294H100.282C100.22 55.8254 100.111 55.5584 99.9544 55.3283C99.801 55.0982 99.6135 54.905 99.3919 54.7487C99.1731 54.5896 98.9302 54.4703 98.6632 54.3908C98.3961 54.3112 98.1177 54.2715 97.8279 54.2715C97.2995 54.2715 96.8208 54.405 96.3919 54.672C95.9657 54.9391 95.6262 55.3325 95.3734 55.8524C95.1234 56.3723 94.9984 57.0101 94.9984 57.7658C94.9984 58.5215 95.1234 59.1592 95.3734 59.6791C95.6262 60.199 95.9657 60.5925 96.3919 60.8595C96.8208 61.1266 97.2995 61.2601 97.8279 61.2601C98.1177 61.2601 98.3961 61.2203 98.6632 61.1408C98.9302 61.0612 99.1731 60.9433 99.3919 60.7871C99.6135 60.628 99.801 60.4334 99.9544 60.2033C100.111 59.9703 100.22 59.7033 100.282 59.4021H101.339C101.26 59.8482 101.115 60.2473 100.905 60.5996C100.694 60.9519 100.433 61.2516 100.121 61.4987C99.8081 61.743 99.4572 61.9291 99.068 62.057C98.6816 62.1848 98.2683 62.2487 97.8279 62.2487C97.0836 62.2487 96.4217 62.0669 95.8422 61.7033C95.2626 61.3396 94.8066 60.8226 94.4743 60.1521C94.1419 59.4817 93.9757 58.6862 93.9757 57.7658C93.9757 56.8453 94.1419 56.0499 94.4743 55.3794C94.8066 54.709 95.2626 54.1919 95.8422 53.8283C96.4217 53.4646 97.0836 53.2828 97.8279 53.2828C98.2683 53.2828 98.6816 53.3467 99.068 53.4746C99.4572 53.6024 99.8081 53.7899 100.121 54.0371C100.433 54.2814 100.694 54.5797 100.905 54.932C101.115 55.2814 101.26 55.6805 101.339 56.1294ZM104.837 62.2828C104.422 62.2828 104.046 62.2047 103.708 62.0484C103.369 61.8894 103.101 61.6607 102.902 61.3624C102.703 61.0612 102.604 60.6976 102.604 60.2715C102.604 59.8965 102.678 59.5925 102.825 59.3595C102.973 59.1237 103.171 58.9391 103.418 58.8055C103.665 58.672 103.938 58.5726 104.236 58.5073C104.537 58.4391 104.84 58.3851 105.144 58.3453C105.541 58.2942 105.864 58.2558 106.111 58.2303C106.361 58.2019 106.543 58.155 106.656 58.0896C106.773 58.0243 106.831 57.9107 106.831 57.7487V57.7146C106.831 57.2942 106.716 56.9675 106.486 56.7345C106.259 56.5016 105.914 56.3851 105.45 56.3851C104.97 56.3851 104.594 56.4902 104.321 56.7004C104.048 56.9107 103.857 57.1351 103.746 57.3737L102.791 57.0328C102.962 56.6351 103.189 56.3254 103.473 56.1038C103.76 55.8794 104.073 55.7232 104.411 55.6351C104.752 55.5442 105.087 55.4987 105.416 55.4987C105.627 55.4987 105.868 55.5243 106.141 55.5754C106.416 55.6237 106.682 55.7246 106.938 55.878C107.196 56.0314 107.411 56.2629 107.581 56.5726C107.752 56.8823 107.837 57.297 107.837 57.8169V62.1294H106.831V61.243H106.78C106.712 61.3851 106.598 61.5371 106.439 61.699C106.28 61.8609 106.068 61.9987 105.804 62.1124C105.54 62.226 105.218 62.2828 104.837 62.2828ZM104.99 61.3794C105.388 61.3794 105.723 61.3013 105.996 61.145C106.271 60.9888 106.479 60.7871 106.618 60.5399C106.76 60.2928 106.831 60.0328 106.831 59.7601V58.8396C106.789 58.8908 106.695 58.9376 106.55 58.9803C106.408 59.02 106.243 59.0555 106.056 59.0868C105.871 59.1152 105.691 59.1408 105.514 59.1635C105.341 59.1834 105.2 59.2004 105.093 59.2146C104.831 59.2487 104.587 59.3041 104.36 59.3808C104.135 59.4547 103.953 59.5669 103.814 59.7175C103.678 59.8652 103.61 60.0669 103.61 60.3226C103.61 60.672 103.739 60.9362 103.997 61.1152C104.259 61.2913 104.59 61.3794 104.99 61.3794ZM110.678 53.4021V62.1294H109.672V53.4021H110.678ZM113.526 53.4021V62.1294H112.52V53.4021H113.526ZM122.148 53.4021V62.1294H120.567V54.9405H120.515L118.474 56.2445V54.7956L120.643 53.4021H122.148ZM127.913 53.4021V62.1294H126.332V54.9405H126.281L124.24 56.2445V54.7956L126.409 53.4021H127.913ZM130.129 62.1294V60.9874L133.159 58.0172C133.449 57.7246 133.69 57.4646 133.883 57.2374C134.077 57.0101 134.221 56.7899 134.318 56.5769C134.415 56.3638 134.463 56.1365 134.463 55.895C134.463 55.6195 134.4 55.3837 134.275 55.1876C134.15 54.9888 133.979 54.8354 133.76 54.7274C133.541 54.6195 133.292 54.5655 133.014 54.5655C132.727 54.5655 132.476 54.6251 132.26 54.7445C132.044 54.8609 131.876 55.0271 131.757 55.243C131.64 55.459 131.582 55.7161 131.582 56.0144H130.078C130.078 55.4604 130.204 54.9788 130.457 54.5698C130.71 54.1607 131.058 53.8439 131.501 53.6195C131.947 53.395 132.459 53.2828 133.035 53.2828C133.621 53.2828 134.135 53.3922 134.578 53.6109C135.021 53.8297 135.365 54.1294 135.609 54.5101C135.856 54.8908 135.98 55.3254 135.98 55.8141C135.98 56.1408 135.917 56.4618 135.792 56.7771C135.667 57.0925 135.447 57.4419 135.132 57.8254C134.819 58.209 134.381 58.6734 133.815 59.2189L132.311 60.7487V60.8084H136.112V62.1294H130.129ZM144.017 55.584V56.4362H140.488V55.584H144.017ZM141.545 62.1294V54.6805C141.545 54.3055 141.633 53.993 141.809 53.743C141.986 53.493 142.214 53.3055 142.496 53.1805C142.777 53.0555 143.074 52.993 143.386 52.993C143.633 52.993 143.835 53.0129 143.991 53.0527C144.148 53.0925 144.264 53.1294 144.341 53.1635L144.051 54.0328C144 54.0158 143.929 53.9945 143.838 53.9689C143.75 53.9433 143.633 53.9305 143.488 53.9305C143.156 53.9305 142.916 54.0144 142.768 54.182C142.623 54.3496 142.551 54.5953 142.551 54.9192V62.1294H141.545ZM147.816 62.2658C147.225 62.2658 146.706 62.1251 146.26 61.8439C145.817 61.5626 145.471 61.1692 145.221 60.6635C144.974 60.1578 144.85 59.5669 144.85 58.8908C144.85 58.209 144.974 57.6138 145.221 57.1053C145.471 56.5967 145.817 56.2019 146.26 55.9206C146.706 55.6394 147.225 55.4987 147.816 55.4987C148.407 55.4987 148.924 55.6394 149.367 55.9206C149.813 56.2019 150.16 56.5967 150.407 57.1053C150.657 57.6138 150.782 58.209 150.782 58.8908C150.782 59.5669 150.657 60.1578 150.407 60.6635C150.16 61.1692 149.813 61.5626 149.367 61.8439C148.924 62.1251 148.407 62.2658 147.816 62.2658ZM147.816 61.3624C148.265 61.3624 148.634 61.2473 148.924 61.0172C149.214 60.7871 149.428 60.4845 149.567 60.1095C149.706 59.7345 149.776 59.3283 149.776 58.8908C149.776 58.4533 149.706 58.0456 149.567 57.6678C149.428 57.2899 149.214 56.9845 148.924 56.7516C148.634 56.5186 148.265 56.4021 147.816 56.4021C147.367 56.4021 146.998 56.5186 146.708 56.7516C146.418 56.9845 146.204 57.2899 146.064 57.6678C145.925 58.0456 145.856 58.4533 145.856 58.8908C145.856 59.3283 145.925 59.7345 146.064 60.1095C146.204 60.4845 146.418 60.7871 146.708 61.0172C146.998 61.2473 147.367 61.3624 147.816 61.3624ZM152.317 62.1294V55.584H153.289V56.5726H153.357C153.476 56.2487 153.692 55.9859 154.004 55.7842C154.317 55.5825 154.669 55.4817 155.061 55.4817C155.135 55.4817 155.227 55.4831 155.338 55.4859C155.449 55.4888 155.533 55.493 155.59 55.4987V56.5215C155.556 56.5129 155.477 56.5001 155.355 56.4831C155.236 56.4632 155.11 56.4533 154.976 56.4533C154.658 56.4533 154.374 56.52 154.124 56.6536C153.877 56.7842 153.681 56.9661 153.536 57.199C153.394 57.4291 153.323 57.6919 153.323 57.9874V62.1294H152.317ZM162.083 62.2828C161.668 62.2828 161.292 62.2047 160.954 62.0484C160.616 61.8894 160.347 61.6607 160.148 61.3624C159.949 61.0612 159.85 60.6976 159.85 60.2715C159.85 59.8965 159.924 59.5925 160.072 59.3595C160.219 59.1237 160.417 58.9391 160.664 58.8055C160.911 58.672 161.184 58.5726 161.482 58.5073C161.783 58.4391 162.086 58.3851 162.39 58.3453C162.787 58.2942 163.11 58.2558 163.357 58.2303C163.607 58.2019 163.789 58.155 163.903 58.0896C164.019 58.0243 164.077 57.9107 164.077 57.7487V57.7146C164.077 57.2942 163.962 56.9675 163.732 56.7345C163.505 56.5016 163.16 56.3851 162.697 56.3851C162.216 56.3851 161.84 56.4902 161.567 56.7004C161.295 56.9107 161.103 57.1351 160.992 57.3737L160.037 57.0328C160.208 56.6351 160.435 56.3254 160.719 56.1038C161.006 55.8794 161.319 55.7232 161.657 55.6351C161.998 55.5442 162.333 55.4987 162.662 55.4987C162.873 55.4987 163.114 55.5243 163.387 55.5754C163.662 55.6237 163.928 55.7246 164.184 55.878C164.442 56.0314 164.657 56.2629 164.827 56.5726C164.998 56.8823 165.083 57.297 165.083 57.8169V62.1294H164.077V61.243H164.026C163.958 61.3851 163.844 61.5371 163.685 61.699C163.526 61.8609 163.314 61.9987 163.05 62.1124C162.786 62.226 162.464 62.2828 162.083 62.2828ZM162.236 61.3794C162.634 61.3794 162.969 61.3013 163.242 61.145C163.518 60.9888 163.725 60.7871 163.864 60.5399C164.006 60.2928 164.077 60.0328 164.077 59.7601V58.8396C164.035 58.8908 163.941 58.9376 163.796 58.9803C163.654 59.02 163.489 59.0555 163.302 59.0868C163.117 59.1152 162.937 59.1408 162.76 59.1635C162.587 59.1834 162.447 59.2004 162.339 59.2146C162.077 59.2487 161.833 59.3041 161.606 59.3808C161.381 59.4547 161.199 59.5669 161.06 59.7175C160.924 59.8652 160.856 60.0669 160.856 60.3226C160.856 60.672 160.985 60.9362 161.243 61.1152C161.505 61.2913 161.836 61.3794 162.236 61.3794ZM167.924 58.1919V62.1294H166.919V55.584H167.89V56.6067H167.975C168.129 56.2743 168.362 56.0073 168.674 55.8055C168.987 55.601 169.39 55.4987 169.884 55.4987C170.328 55.4987 170.715 55.5896 171.048 55.7715C171.38 55.9504 171.639 56.2232 171.823 56.5896C172.008 56.9533 172.1 57.4135 172.1 57.9703V62.1294H171.095V58.0385C171.095 57.5243 170.961 57.1237 170.694 56.8368C170.427 56.547 170.061 56.4021 169.595 56.4021C169.274 56.4021 168.987 56.4717 168.734 56.6109C168.484 56.7501 168.286 56.9533 168.142 57.2203C167.997 57.4874 167.924 57.8112 167.924 58.1919ZM174.351 64.584C174.181 64.584 174.029 64.5698 173.895 64.5413C173.762 64.5158 173.67 64.4902 173.618 64.4646L173.874 63.5783C174.118 63.6408 174.334 63.6635 174.522 63.6465C174.709 63.6294 174.876 63.5456 175.02 63.395C175.168 63.2473 175.303 63.0073 175.425 62.6749L175.613 62.1635L173.192 55.584H174.283L176.09 60.7999H176.158L177.965 55.584H179.056L176.278 63.084C176.153 63.422 175.998 63.7019 175.813 63.9234C175.628 64.1479 175.414 64.3141 175.17 64.422C174.928 64.53 174.655 64.584 174.351 64.584ZM186.503 62.2658C185.872 62.2658 185.328 62.1266 184.871 61.8482C184.416 61.5669 184.065 61.1749 183.818 60.672C183.574 60.1663 183.452 59.5783 183.452 58.9078C183.452 58.2374 183.574 57.6465 183.818 57.1351C184.065 56.6209 184.409 56.2203 184.849 55.9334C185.292 55.6436 185.809 55.4987 186.4 55.4987C186.741 55.4987 187.078 55.5555 187.41 55.6692C187.743 55.7828 188.045 55.9675 188.318 56.2232C188.591 56.476 188.808 56.8112 188.97 57.2288C189.132 57.6465 189.213 58.1607 189.213 58.7715V59.1976H184.167V58.3283H188.19C188.19 57.959 188.116 57.6294 187.969 57.3396C187.824 57.0499 187.616 56.8212 187.346 56.6536C187.079 56.4859 186.764 56.4021 186.4 56.4021C186 56.4021 185.653 56.5016 185.361 56.7004C185.071 56.8965 184.848 57.1521 184.692 57.4675C184.535 57.7828 184.457 58.1209 184.457 58.4817V59.0612C184.457 59.5555 184.542 59.9746 184.713 60.3183C184.886 60.6592 185.126 60.9192 185.433 61.0982C185.74 61.2743 186.096 61.3624 186.503 61.3624C186.767 61.3624 187.006 61.3254 187.219 61.2516C187.434 61.1749 187.621 61.0612 187.777 60.9107C187.933 60.7573 188.054 60.5669 188.139 60.3396L189.111 60.6124C189.008 60.9419 188.836 61.2317 188.595 61.4817C188.354 61.7288 188.055 61.922 187.7 62.0612C187.345 62.1976 186.946 62.2658 186.503 62.2658ZM190.743 62.1294V55.584H191.714V56.6067H191.8C191.936 56.2573 192.156 55.9859 192.46 55.7928C192.764 55.5967 193.129 55.4987 193.555 55.4987C193.987 55.4987 194.346 55.5967 194.633 55.7928C194.923 55.9859 195.149 56.2573 195.311 56.6067H195.379C195.547 56.2686 195.798 56.0001 196.133 55.8013C196.469 55.5996 196.871 55.4987 197.339 55.4987C197.925 55.4987 198.403 55.682 198.775 56.0484C199.148 56.4121 199.334 56.9788 199.334 57.7487V62.1294H198.328V57.7487C198.328 57.2658 198.196 56.9206 197.932 56.7132C197.667 56.5058 197.356 56.4021 196.998 56.4021C196.538 56.4021 196.182 56.5413 195.929 56.8198C195.676 57.0953 195.55 57.4448 195.55 57.868V62.1294H194.527V57.6465C194.527 57.2743 194.406 56.9746 194.165 56.7473C193.923 56.5172 193.612 56.4021 193.231 56.4021C192.97 56.4021 192.726 56.4717 192.498 56.6109C192.274 56.7501 192.092 56.9433 191.953 57.1905C191.817 57.4348 191.748 57.7175 191.748 58.0385V62.1294H190.743ZM203.917 62.2658C203.286 62.2658 202.742 62.1266 202.285 61.8482C201.83 61.5669 201.479 61.1749 201.232 60.672C200.988 60.1663 200.866 59.5783 200.866 58.9078C200.866 58.2374 200.988 57.6465 201.232 57.1351C201.479 56.6209 201.823 56.2203 202.263 55.9334C202.706 55.6436 203.224 55.4987 203.814 55.4987C204.155 55.4987 204.492 55.5555 204.824 55.6692C205.157 55.7828 205.459 55.9675 205.732 56.2232C206.005 56.476 206.222 56.8112 206.384 57.2288C206.546 57.6465 206.627 58.1607 206.627 58.7715V59.1976H201.581V58.3283H205.604C205.604 57.959 205.53 57.6294 205.383 57.3396C205.238 57.0499 205.03 56.8212 204.76 56.6536C204.493 56.4859 204.178 56.4021 203.814 56.4021C203.414 56.4021 203.067 56.5016 202.775 56.7004C202.485 56.8965 202.262 57.1521 202.106 57.4675C201.949 57.7828 201.871 58.1209 201.871 58.4817V59.0612C201.871 59.5555 201.956 59.9746 202.127 60.3183C202.3 60.6592 202.54 60.9192 202.847 61.0982C203.154 61.2743 203.51 61.3624 203.917 61.3624C204.181 61.3624 204.42 61.3254 204.633 61.2516C204.849 61.1749 205.035 61.0612 205.191 60.9107C205.347 60.7573 205.468 60.5669 205.553 60.3396L206.525 60.6124C206.422 60.9419 206.251 61.2317 206.009 61.4817C205.768 61.7288 205.469 61.922 205.114 62.0612C204.759 62.1976 204.36 62.2658 203.917 62.2658ZM208.157 62.1294V55.584H209.128V56.5726H209.197C209.316 56.2487 209.532 55.9859 209.844 55.7842C210.157 55.5825 210.509 55.4817 210.901 55.4817C210.975 55.4817 211.067 55.4831 211.178 55.4859C211.289 55.4888 211.373 55.493 211.43 55.4987V56.5215C211.395 56.5129 211.317 56.5001 211.195 56.4831C211.076 56.4632 210.949 56.4533 210.816 56.4533C210.498 56.4533 210.214 56.52 209.964 56.6536C209.716 56.7842 209.52 56.9661 209.376 57.199C209.233 57.4291 209.162 57.6919 209.162 57.9874V62.1294H208.157ZM215.064 64.7203C214.579 64.7203 214.161 64.6578 213.812 64.5328C213.462 64.4107 213.171 64.2487 212.938 64.047C212.708 63.8482 212.525 63.6351 212.388 63.4078L213.189 62.8453C213.28 62.9646 213.395 63.101 213.535 63.2544C213.674 63.4107 213.864 63.5456 214.106 63.6592C214.35 63.7757 214.67 63.834 215.064 63.834C215.593 63.834 216.029 63.7061 216.373 63.4504C216.716 63.1948 216.888 62.7942 216.888 62.2487V60.9192H216.803C216.729 61.0385 216.624 61.1862 216.488 61.3624C216.354 61.5357 216.161 61.6905 215.908 61.8269C215.658 61.9604 215.32 62.0271 214.894 62.0271C214.366 62.0271 213.891 61.9021 213.471 61.6521C213.053 61.4021 212.722 61.0385 212.478 60.5612C212.236 60.084 212.116 59.5044 212.116 58.8226C212.116 58.1521 212.233 57.5683 212.469 57.0712C212.705 56.5712 213.033 56.1848 213.454 55.9121C213.874 55.6365 214.36 55.4987 214.911 55.4987C215.337 55.4987 215.675 55.5698 215.925 55.7118C216.178 55.851 216.371 56.0101 216.505 56.1891C216.641 56.3652 216.746 56.5101 216.82 56.6237H216.922V55.584H217.894V62.3169C217.894 62.8794 217.766 63.3368 217.51 63.6891C217.258 64.0442 216.917 64.3041 216.488 64.4689C216.062 64.6365 215.587 64.7203 215.064 64.7203ZM215.03 61.1237C215.434 61.1237 215.775 61.0314 216.053 60.8467C216.331 60.6621 216.543 60.3965 216.688 60.0499C216.833 59.7033 216.905 59.2885 216.905 58.8055C216.905 58.334 216.834 57.9178 216.692 57.557C216.55 57.1962 216.34 56.9135 216.062 56.709C215.783 56.5044 215.439 56.4021 215.03 56.4021C214.604 56.4021 214.249 56.5101 213.965 56.726C213.684 56.9419 213.472 57.2317 213.33 57.5953C213.191 57.959 213.121 58.3624 213.121 58.8055C213.121 59.2601 213.192 59.6621 213.334 60.0115C213.479 60.3581 213.692 60.6308 213.974 60.8297C214.258 61.0257 214.61 61.1237 215.03 61.1237ZM222.479 62.2658C221.849 62.2658 221.305 62.1266 220.847 61.8482C220.393 61.5669 220.042 61.1749 219.795 60.672C219.55 60.1663 219.428 59.5783 219.428 58.9078C219.428 58.2374 219.55 57.6465 219.795 57.1351C220.042 56.6209 220.385 56.2203 220.826 55.9334C221.269 55.6436 221.786 55.4987 222.377 55.4987C222.718 55.4987 223.055 55.5555 223.387 55.6692C223.719 55.7828 224.022 55.9675 224.295 56.2232C224.567 56.476 224.785 56.8112 224.947 57.2288C225.108 57.6465 225.189 58.1607 225.189 58.7715V59.1976H220.144V58.3283H224.167C224.167 57.959 224.093 57.6294 223.945 57.3396C223.8 57.0499 223.593 56.8212 223.323 56.6536C223.056 56.4859 222.741 56.4021 222.377 56.4021C221.976 56.4021 221.63 56.5016 221.337 56.7004C221.047 56.8965 220.824 57.1521 220.668 57.4675C220.512 57.7828 220.434 58.1209 220.434 58.4817V59.0612C220.434 59.5555 220.519 59.9746 220.689 60.3183C220.863 60.6592 221.103 60.9192 221.41 61.0982C221.716 61.2743 222.073 61.3624 222.479 61.3624C222.743 61.3624 222.982 61.3254 223.195 61.2516C223.411 61.1749 223.597 61.0612 223.753 60.9107C223.91 60.7573 224.03 60.5669 224.116 60.3396L225.087 60.6124C224.985 60.9419 224.813 61.2317 224.572 61.4817C224.33 61.7288 224.032 61.922 223.677 62.0612C223.322 62.1976 222.922 62.2658 222.479 62.2658ZM227.725 58.1919V62.1294H226.719V55.584H227.691V56.6067H227.776C227.93 56.2743 228.162 56.0073 228.475 55.8055C228.787 55.601 229.191 55.4987 229.685 55.4987C230.128 55.4987 230.516 55.5896 230.849 55.7715C231.181 55.9504 231.439 56.2232 231.624 56.5896C231.809 56.9533 231.901 57.4135 231.901 57.9703V62.1294H230.895V58.0385C230.895 57.5243 230.762 57.1237 230.495 56.8368C230.228 56.547 229.861 56.4021 229.395 56.4021C229.074 56.4021 228.787 56.4717 228.535 56.6109C228.285 56.7501 228.087 56.9533 227.942 57.2203C227.797 57.4874 227.725 57.8112 227.725 58.1919ZM236.398 62.2658C235.784 62.2658 235.256 62.1209 234.813 61.8311C234.369 61.5413 234.029 61.1422 233.79 60.6337C233.551 60.1251 233.432 59.5442 233.432 58.8908C233.432 58.226 233.554 57.6394 233.798 57.1308C234.046 56.6195 234.389 56.2203 234.83 55.9334C235.273 55.6436 235.79 55.4987 236.381 55.4987C236.841 55.4987 237.256 55.584 237.625 55.7544C237.994 55.9249 238.297 56.1635 238.533 56.4703C238.769 56.7771 238.915 57.1351 238.972 57.5442H237.966C237.889 57.2459 237.719 56.9817 237.455 56.7516C237.193 56.5186 236.841 56.4021 236.398 56.4021C236.006 56.4021 235.662 56.5044 235.367 56.709C235.074 56.9107 234.845 57.1962 234.681 57.5655C234.519 57.932 234.438 58.3624 234.438 58.8567C234.438 59.3624 234.517 59.8027 234.676 60.1777C234.838 60.5527 235.066 60.8439 235.358 61.0513C235.654 61.2587 236 61.3624 236.398 61.3624C236.659 61.3624 236.896 61.3169 237.11 61.226C237.323 61.1351 237.503 61.0044 237.651 60.834C237.798 60.6635 237.904 60.459 237.966 60.2203H238.972C238.915 60.6067 238.774 60.9547 238.55 61.2644C238.328 61.5712 238.034 61.8155 237.668 61.9973C237.304 62.1763 236.881 62.2658 236.398 62.2658ZM241.09 64.584C240.919 64.584 240.767 64.5698 240.634 64.5413C240.5 64.5158 240.408 64.4902 240.357 64.4646L240.612 63.5783C240.857 63.6408 241.073 63.6635 241.26 63.6465C241.448 63.6294 241.614 63.5456 241.759 63.395C241.906 63.2473 242.041 63.0073 242.164 62.6749L242.351 62.1635L239.931 55.584H241.021L242.828 60.7999H242.896L244.703 55.584H245.794L243.016 63.084C242.891 63.422 242.736 63.7019 242.551 63.9234C242.367 64.1479 242.152 64.3141 241.908 64.422C241.666 64.53 241.394 64.584 241.09 64.584Z" fill="#2E2D2D"/>
</svg>
