<svg width="1728" height="660" viewBox="0 0 1728 660" fill="none" xmlns="http://www.w3.org/2000/svg">
<g clip-path="url(#clip0_3729_6714)">
<path d="M-9.69736 -226.979V-15.0473C-9.69736 -11.0635 -11.2794 -7.24294 -14.0955 -4.42598C-16.9115 -1.60902 -20.7309 -0.0264596 -24.7135 -0.0264596H-147.01C-150.986 -0.0264596 -154.799 1.55331 -157.61 4.36531C-160.421 7.17731 -162 10.9912 -162 14.968V227.006C-162 230.982 -160.421 234.796 -157.61 237.608C-154.799 240.42 -150.986 242 -147.01 242H78.7074C82.6829 242 86.4956 240.42 89.3067 237.608C92.1178 234.796 93.6971 230.982 93.6971 227.006V15.0473C93.6971 13.076 94.0857 11.124 94.8406 9.30306C95.5956 7.48213 96.7021 5.82799 98.0968 4.43528C99.4915 3.04257 101.147 1.93865 102.969 1.18667C104.791 0.434684 106.742 0.049396 108.713 0.0528728H231.01C232.987 0.052922 234.945 -0.338389 236.771 -1.09854C238.596 -1.85868 240.254 -2.97264 241.647 -4.37622C243.04 -5.77981 244.142 -7.44529 244.889 -9.27673C245.636 -11.1082 246.014 -13.0694 246 -15.0473V-226.979C246.003 -228.95 245.618 -230.903 244.866 -232.725C244.115 -234.548 243.011 -236.204 241.619 -237.599C240.226 -238.994 238.573 -240.101 236.752 -240.856C234.932 -241.611 232.981 -242 231.01 -242H5.29228C3.32158 -242 1.37025 -241.611 -0.450111 -240.856C-2.27047 -240.101 -3.92407 -238.994 -5.31633 -237.599C-6.7086 -236.204 -7.81223 -234.548 -8.56398 -232.725C-9.31573 -230.903 -9.70083 -228.95 -9.69736 -226.979Z" fill="url(#paint0_linear_3729_6714)"/>
<path d="M-9.69736 327.021V538.953C-9.69736 542.936 -11.2794 546.757 -14.0955 549.574C-16.9115 552.391 -20.7309 553.974 -24.7135 553.974H-147.01C-150.986 553.974 -154.799 555.553 -157.61 558.365C-160.421 561.177 -162 564.991 -162 568.968V781.006C-162 784.982 -160.421 788.796 -157.61 791.608C-154.799 794.42 -150.986 796 -147.01 796H78.7074C82.6829 796 86.4956 794.42 89.3067 791.608C92.1178 788.796 93.6971 784.982 93.6971 781.006V569.047C93.6971 567.076 94.0857 565.124 94.8406 563.303C95.5956 561.482 96.7021 559.828 98.0968 558.435C99.4915 557.043 101.147 555.939 102.969 555.187C104.791 554.435 106.742 554.049 108.713 554.053H231.01C232.987 554.053 234.945 553.662 236.771 552.901C238.596 552.141 240.254 551.027 241.647 549.624C243.04 548.22 244.142 546.555 244.889 544.723C245.636 542.892 246.014 540.931 246 538.953V327.021C246.003 325.05 245.618 323.097 244.866 321.275C244.115 319.452 243.011 317.796 241.619 316.401C240.226 315.006 238.573 313.899 236.752 313.144C234.932 312.389 232.981 312 231.01 312H5.29228C3.32158 312 1.37025 312.389 -0.450111 313.144C-2.27047 313.899 -3.92407 315.006 -5.31633 316.401C-6.7086 317.796 -7.81223 319.452 -8.56398 321.275C-9.31573 323.097 -9.70083 325.05 -9.69736 327.021Z" fill="url(#paint1_linear_3729_6714)"/>
<path d="M1663.3 -62.9791V148.953C1663.3 152.936 1661.72 156.757 1658.9 159.574C1656.09 162.391 1652.27 163.974 1648.29 163.974H1525.99C1522.01 163.974 1518.2 165.553 1515.39 168.365C1512.58 171.177 1511 174.991 1511 178.968V391.006C1511 394.982 1512.58 398.796 1515.39 401.608C1518.2 404.42 1522.01 406 1525.99 406H1751.71C1755.68 406 1759.5 404.42 1762.31 401.608C1765.12 398.796 1766.7 394.982 1766.7 391.006V179.047C1766.7 177.076 1767.09 175.124 1767.84 173.303C1768.6 171.482 1769.7 169.828 1771.1 168.435C1772.49 167.043 1774.15 165.939 1775.97 165.187C1777.79 164.435 1779.74 164.049 1781.71 164.053H1904.01C1905.99 164.053 1907.95 163.662 1909.77 162.901C1911.6 162.141 1913.25 161.027 1914.65 159.624C1916.04 158.22 1917.14 156.555 1917.89 154.723C1918.64 152.892 1919.01 150.931 1919 148.953V-62.9791C1919 -64.9504 1918.62 -66.9031 1917.87 -68.7254C1917.11 -70.5476 1916.01 -72.2037 1914.62 -73.5989C1913.23 -74.9941 1911.57 -76.1009 1909.75 -76.8561C1907.93 -77.6113 1905.98 -78 1904.01 -78H1678.29C1676.32 -78 1674.37 -77.6113 1672.55 -76.8561C1670.73 -76.1009 1669.08 -74.9941 1667.68 -73.5989C1666.29 -72.2037 1665.19 -70.5476 1664.44 -68.7254C1663.68 -66.9031 1663.3 -64.9504 1663.3 -62.9791Z" fill="url(#paint2_linear_3729_6714)"/>
<path d="M1663.3 491.021V702.953C1663.3 706.936 1661.72 710.757 1658.9 713.574C1656.09 716.391 1652.27 717.974 1648.29 717.974H1525.99C1522.01 717.974 1518.2 719.553 1515.39 722.365C1512.58 725.177 1511 728.991 1511 732.968V945.006C1511 948.982 1512.58 952.796 1515.39 955.608C1518.2 958.42 1522.01 960 1525.99 960H1751.71C1755.68 960 1759.5 958.42 1762.31 955.608C1765.12 952.796 1766.7 948.982 1766.7 945.006V733.047C1766.7 731.076 1767.09 729.124 1767.84 727.303C1768.6 725.482 1769.7 723.828 1771.1 722.435C1772.49 721.043 1774.15 719.939 1775.97 719.187C1777.79 718.435 1779.74 718.049 1781.71 718.053H1904.01C1905.99 718.053 1907.95 717.662 1909.77 716.901C1911.6 716.141 1913.25 715.027 1914.65 713.624C1916.04 712.22 1917.14 710.555 1917.89 708.723C1918.64 706.892 1919.01 704.931 1919 702.953V491.021C1919 489.05 1918.62 487.097 1917.87 485.275C1917.11 483.452 1916.01 481.796 1914.62 480.401C1913.23 479.006 1911.57 477.899 1909.75 477.144C1907.93 476.389 1905.98 476 1904.01 476H1678.29C1676.32 476 1674.37 476.389 1672.55 477.144C1670.73 477.899 1669.08 479.006 1667.68 480.401C1666.29 481.796 1665.19 483.452 1664.44 485.275C1663.68 487.097 1663.3 489.05 1663.3 491.021Z" fill="url(#paint3_linear_3729_6714)"/>
</g>
<defs>
<linearGradient id="paint0_linear_3729_6714" x1="25" y1="-677" x2="42" y2="242" gradientUnits="userSpaceOnUse">
<stop stop-color="#9883D2"/>
<stop offset="1" stop-color="#9883D2" stop-opacity="0"/>
</linearGradient>
<linearGradient id="paint1_linear_3729_6714" x1="89" y1="-323" x2="42" y2="796" gradientUnits="userSpaceOnUse">
<stop stop-color="#9883D2"/>
<stop offset="1" stop-color="#9883D2" stop-opacity="0"/>
</linearGradient>
<linearGradient id="paint2_linear_3729_6714" x1="1762" y1="-713" x2="1715" y2="406" gradientUnits="userSpaceOnUse">
<stop stop-color="#9883D2"/>
<stop offset="1" stop-color="#9883D2" stop-opacity="0"/>
</linearGradient>
<linearGradient id="paint3_linear_3729_6714" x1="1698" y1="41" x2="1715" y2="960" gradientUnits="userSpaceOnUse">
<stop stop-color="#9883D2"/>
<stop offset="1" stop-color="#9883D2" stop-opacity="0"/>
</linearGradient>
<clipPath id="clip0_3729_6714">
<rect width="1728" height="660" fill="white"/>
</clipPath>
</defs>
</svg>
