<svg width="358" height="340" viewBox="0 0 358 340" fill="none" xmlns="http://www.w3.org/2000/svg">
<rect width="357.575" height="92.6136" rx="8" fill="white"/>
<rect x="16.5391" y="17.1893" width="58.2348" height="58.2348" rx="4" fill="#FFE6CC"/>
<mask id="mask0_947_986" style="mask-type:alpha" maskUnits="userSpaceOnUse" x="34" y="34" width="25" height="25">
<rect x="34.0156" y="34.2373" width="24.3532" height="24.3532" fill="#D9D9D9"/>
</mask>
<g mask="url(#mask0_947_986)">
</g>
<path d="M54.0491 45.7618L43.5491 57.0118C43.4378 57.1306 43.291 57.2099 43.1307 57.2379C42.9703 57.2658 42.8053 57.2409 42.6604 57.1668C42.5155 57.0927 42.3986 56.9735 42.3274 56.8272C42.2562 56.6808 42.2346 56.5153 42.2657 56.3556L43.64 49.4809L38.2372 47.4521C38.1212 47.4087 38.0177 47.3373 37.9361 47.2441C37.8544 47.151 37.7971 47.039 37.7692 46.9183C37.7413 46.7976 37.7438 46.6719 37.7764 46.5524C37.809 46.4328 37.8707 46.3233 37.956 46.2334L48.456 34.9834C48.5673 34.8646 48.7141 34.7853 48.8744 34.7574C49.0348 34.7294 49.1998 34.7544 49.3447 34.8284C49.4896 34.9025 49.6065 35.0217 49.6777 35.1681C49.7489 35.3144 49.7705 35.4799 49.7394 35.6396L48.3613 42.5218L53.7641 44.5478C53.8793 44.5915 53.9819 44.6629 54.063 44.7556C54.144 44.8484 54.2009 44.9597 54.2287 45.0797C54.2565 45.1998 54.2544 45.3248 54.2224 45.4437C54.1904 45.5627 54.1296 45.6719 54.0454 45.7618H54.0491Z" fill="#FF8200"/>
<path d="M99.3352 35.4031H92.7712V24.5375H99.2012V26.0855H94.5424V29.107H98.9184V30.655H94.5424V33.8551H99.3352V35.4031ZM103.334 35.4031H101.578V25.8771H100.521V24.5375H103.334V35.4031ZM109.39 35.671C106.592 35.671 105.327 33.5723 105.327 31.5332V31.2503C105.327 29.1665 106.637 27.1125 109.301 27.1125C111.891 27.1125 113.186 29.0326 113.186 31.0866V31.7862H106.994C107.113 33.2002 107.842 34.1974 109.39 34.1974C110.507 34.1974 111.251 33.6467 111.415 32.9769H113.037C112.695 34.644 111.31 35.671 109.39 35.671ZM109.301 28.5861C107.991 28.5861 107.247 29.3749 107.039 30.6103H111.489C111.325 29.3452 110.596 28.5861 109.301 28.5861ZM118.547 35.671C115.794 35.671 114.499 33.5574 114.499 31.5332V31.2652C114.499 29.1814 115.853 27.1125 118.532 27.1125C120.586 27.1125 122.105 28.3479 122.224 30.2382H120.542C120.408 29.3303 119.708 28.6456 118.532 28.6456C116.984 28.6456 116.24 29.8066 116.24 31.3992C116.24 32.9472 116.97 34.1379 118.547 34.1379C119.753 34.1379 120.512 33.4532 120.616 32.5006H122.313C122.209 34.4207 120.616 35.671 118.547 35.671ZM128.615 35.4924H127.409C125.415 35.4924 124.343 34.7779 124.343 32.5304V28.6754H123.019V27.3804H124.343V25.0436H125.995V27.3804H128.615V28.6754H125.995V32.6792C125.995 33.4979 126.457 33.9742 127.275 33.9742H128.615V35.4924ZM132.243 35.4031H130.501V27.3804H131.885V29.8215C132.123 28.1246 133.121 27.2911 134.832 27.2911H135.115V28.8242H134.579C133.076 28.8242 132.243 29.6577 132.243 31.1462V35.4031ZM137.617 26.2641C136.902 26.2641 136.56 25.8473 136.56 25.252C136.56 24.6715 136.902 24.2398 137.617 24.2398C138.346 24.2398 138.688 24.6715 138.688 25.252C138.688 25.8473 138.346 26.2641 137.617 26.2641ZM138.793 35.4031H137.051V28.72H135.875V27.3804H138.793V35.4031ZM144.871 35.671C142.117 35.671 140.823 33.5574 140.823 31.5332V31.2652C140.823 29.1814 142.177 27.1125 144.856 27.1125C146.91 27.1125 148.428 28.3479 148.548 30.2382H146.866C146.732 29.3303 146.032 28.6456 144.856 28.6456C143.308 28.6456 142.564 29.8066 142.564 31.3992C142.564 32.9472 143.293 34.1379 144.871 34.1379C146.077 34.1379 146.836 33.4532 146.94 32.5006H148.637C148.533 34.4207 146.94 35.671 144.871 35.671ZM151.396 26.2641C150.682 26.2641 150.34 25.8473 150.34 25.252C150.34 24.6715 150.682 24.2398 151.396 24.2398C152.126 24.2398 152.468 24.6715 152.468 25.252C152.468 25.8473 152.126 26.2641 151.396 26.2641ZM152.572 35.4031H150.831V28.72H149.655V27.3804H152.572V35.4031ZM159.663 35.4924H158.457C156.463 35.4924 155.391 34.7779 155.391 32.5304V28.6754H154.066V27.3804H155.391V25.0436H157.043V27.3804H159.663V28.6754H157.043V32.6792C157.043 33.4979 157.505 33.9742 158.323 33.9742H159.663V35.4924ZM162.353 38.5437H161.162V37.0106H162.487C163.409 37.0106 163.886 36.698 164.154 35.7752L164.302 35.2245H163.201L160.477 27.3804H162.248L164.377 33.8105H164.704L166.49 27.3804H168.172L165.642 36.1919C165.166 37.8739 164.154 38.5437 162.353 38.5437ZM177.451 35.4626H173.283V24.4631H177.004C179.43 24.4631 180.666 25.5199 180.666 27.4251V27.6335C180.666 28.72 180.234 29.4047 179.505 29.8215C180.487 30.2084 181.112 30.9675 181.112 32.2476V32.456C181.112 34.3761 179.877 35.4626 177.451 35.4626ZM177.228 25.9515H175.054V29.2112H177.228C178.344 29.2112 178.865 28.5563 178.865 27.5888C178.865 26.6064 178.344 25.9515 177.228 25.9515ZM177.629 30.6401H175.054V33.9742H177.629C178.716 33.9742 179.311 33.3342 179.311 32.3071C179.311 31.2503 178.731 30.6401 177.629 30.6401ZM184.232 26.2641C183.518 26.2641 183.175 25.8473 183.175 25.252C183.175 24.6715 183.518 24.2398 184.232 24.2398C184.961 24.2398 185.304 24.6715 185.304 25.252C185.304 25.8473 184.961 26.2641 184.232 26.2641ZM185.408 35.4031H183.666V28.72H182.491V27.3804H185.408V35.4031ZM189.849 35.4031H188.093V25.8771H187.036V24.5375H189.849V35.4031ZM194.253 35.4031H192.497V25.8771H191.44V24.5375H194.253V35.4031ZM199.58 35.6412C197.422 35.6412 196.172 34.6737 196.112 33.0662H197.72C197.765 33.6616 198.285 34.257 199.595 34.257C200.712 34.257 201.381 33.7807 201.381 33.1109C201.381 32.5155 200.95 32.1732 199.848 32.0541L199.059 31.9797C197.407 31.8011 196.38 31.0122 196.38 29.6428C196.38 28.0502 197.675 27.1423 199.521 27.1423C201.411 27.1423 202.676 28.0056 202.736 29.628H201.143C201.099 29.0177 200.563 28.5414 199.521 28.5414C198.524 28.5414 197.988 28.9879 197.988 29.5982C197.988 30.1489 198.345 30.4615 199.253 30.5657L200.042 30.6401C201.843 30.8336 202.989 31.6522 202.989 33.0662C202.989 34.6142 201.605 35.6412 199.58 35.6412Z" fill="black"/>
<path d="M311.548 24.7809V34.4031H310.096V24.7809H311.548ZM313.662 34.4031V24.7809H317.186C317.869 24.7809 318.434 24.8936 318.882 25.1192C319.33 25.3416 319.665 25.6438 319.888 26.0259C320.11 26.4049 320.221 26.8325 320.221 27.3086C320.221 27.7095 320.147 28.0478 320 28.3234C319.853 28.5959 319.656 28.8152 319.408 28.9812C319.164 29.1441 318.895 29.2631 318.6 29.3383V29.4322C318.92 29.4479 319.231 29.5513 319.535 29.7423C319.842 29.9303 320.096 30.1981 320.296 30.5457C320.497 30.8934 320.597 31.3163 320.597 31.8143C320.597 32.3061 320.481 32.7477 320.249 33.1392C320.021 33.5276 319.667 33.8361 319.187 34.0648C318.708 34.2903 318.096 34.4031 317.35 34.4031H313.662ZM315.114 33.158H317.209C317.905 33.158 318.403 33.0233 318.704 32.754C319.004 32.4846 319.155 32.1479 319.155 31.7438C319.155 31.44 319.078 31.1612 318.924 30.9075C318.771 30.6538 318.552 30.4518 318.267 30.3014C317.985 30.1511 317.65 30.0759 317.261 30.0759H315.114V33.158ZM315.114 28.9436H317.059C317.385 28.9436 317.678 28.881 317.938 28.7557C318.201 28.6304 318.409 28.455 318.563 28.2295C318.719 28.0008 318.798 27.7314 318.798 27.4213C318.798 27.0236 318.658 26.69 318.379 26.4206C318.101 26.1512 317.673 26.0165 317.097 26.0165H315.114V28.9436ZM325.434 34.4031H322.319V24.7809H325.533C326.475 24.7809 327.285 24.9735 327.962 25.3588C328.638 25.7409 329.157 26.2906 329.517 27.0079C329.88 27.722 330.062 28.5787 330.062 29.5779C330.062 30.5802 329.879 31.4416 329.512 32.162C329.149 32.8824 328.623 33.4368 327.933 33.8252C327.244 34.2104 326.411 34.4031 325.434 34.4031ZM323.771 33.1345H325.354C326.087 33.1345 326.696 32.9967 327.182 32.7211C327.667 32.4423 328.031 32.0398 328.272 31.5136C328.513 30.9843 328.633 30.339 328.633 29.5779C328.633 28.823 328.513 28.1825 328.272 27.6563C328.034 27.1301 327.678 26.7307 327.205 26.4582C326.732 26.1857 326.145 26.0494 325.443 26.0494H323.771V33.1345ZM339.859 27.91H338.393C338.337 27.5968 338.232 27.3211 338.078 27.0831C337.925 26.845 337.737 26.643 337.515 26.477C337.292 26.311 337.043 26.1857 336.767 26.1011C336.495 26.0165 336.205 25.9743 335.898 25.9743C335.344 25.9743 334.847 26.1136 334.409 26.3924C333.974 26.6712 333.629 27.0799 333.375 27.6187C333.125 28.1574 332.999 28.8152 332.999 29.592C332.999 30.375 333.125 31.0359 333.375 31.5747C333.629 32.1134 333.975 32.5206 334.414 32.7962C334.852 33.0719 335.345 33.2097 335.894 33.2097C336.197 33.2097 336.486 33.169 336.758 33.0875C337.034 33.003 337.283 32.8792 337.505 32.7164C337.727 32.5535 337.915 32.3546 338.069 32.1197C338.226 31.8816 338.334 31.6091 338.393 31.3022L339.859 31.3069C339.781 31.7798 339.629 32.2152 339.403 32.613C339.181 33.0077 338.894 33.3491 338.543 33.6372C338.196 33.9223 337.798 34.1431 337.35 34.2997C336.902 34.4563 336.414 34.5346 335.884 34.5346C335.051 34.5346 334.309 34.3373 333.657 33.9426C333.006 33.5448 332.492 32.9763 332.116 32.2371C331.743 31.4979 331.557 30.6162 331.557 29.592C331.557 28.5646 331.745 27.6829 332.121 26.9468C332.497 26.2076 333.01 25.6407 333.662 25.246C334.313 24.8482 335.054 24.6493 335.884 24.6493C336.395 24.6493 336.871 24.7229 337.312 24.8702C337.757 25.0142 338.157 25.2272 338.511 25.5091C338.864 25.7879 339.157 26.1293 339.389 26.5334C339.621 26.9343 339.778 27.3932 339.859 27.91Z" fill="#868FA0"/>
<path d="M96.0813 51.319V60.9412H94.3382V53.0151H94.2818L92.0313 54.4528V52.8553L94.4228 51.319H96.0813ZM102.081 61.1244C101.307 61.1244 100.643 60.9286 100.089 60.5371C99.5377 60.1424 99.1133 59.5739 98.8157 58.8316C98.5213 58.0861 98.3741 57.1888 98.3741 56.1395C98.3772 55.0902 98.526 54.1975 98.8204 53.4614C99.118 52.7222 99.5424 52.1584 100.094 51.77C100.648 51.3816 101.311 51.1874 102.081 51.1874C102.852 51.1874 103.514 51.3816 104.068 51.77C104.623 52.1584 105.047 52.7222 105.342 53.4614C105.639 54.2006 105.788 55.0933 105.788 56.1395C105.788 57.1919 105.639 58.0908 105.342 58.8363C105.047 59.5786 104.623 60.1456 104.068 60.5371C103.517 60.9286 102.855 61.1244 102.081 61.1244ZM102.081 59.6538C102.682 59.6538 103.157 59.3578 103.505 58.7658C103.855 58.1707 104.031 57.2953 104.031 56.1395C104.031 55.3752 103.951 54.7331 103.791 54.2131C103.632 53.6932 103.406 53.3017 103.115 53.0386C102.823 52.7723 102.479 52.6392 102.081 52.6392C101.483 52.6392 101.01 52.9368 100.662 53.5319C100.315 54.1239 100.139 54.9931 100.136 56.1395C100.133 56.9069 100.21 57.5521 100.366 58.0752C100.526 58.5983 100.751 58.9929 101.043 59.2592C101.334 59.5223 101.68 59.6538 102.081 59.6538ZM110.906 61.1244C110.132 61.1244 109.468 60.9286 108.914 60.5371C108.362 60.1424 107.938 59.5739 107.64 58.8316C107.346 58.0861 107.199 57.1888 107.199 56.1395C107.202 55.0902 107.351 54.1975 107.645 53.4614C107.943 52.7222 108.367 52.1584 108.918 51.77C109.473 51.3816 110.135 51.1874 110.906 51.1874C111.676 51.1874 112.339 51.3816 112.893 51.77C113.448 52.1584 113.872 52.7222 114.166 53.4614C114.464 54.2006 114.613 55.0933 114.613 56.1395C114.613 57.1919 114.464 58.0908 114.166 58.8363C113.872 59.5786 113.448 60.1456 112.893 60.5371C112.342 60.9286 111.679 61.1244 110.906 61.1244ZM110.906 59.6538C111.507 59.6538 111.982 59.3578 112.329 58.7658C112.68 58.1707 112.856 57.2953 112.856 56.1395C112.856 55.3752 112.776 54.7331 112.616 54.2131C112.456 53.6932 112.231 53.3017 111.939 53.0386C111.648 52.7723 111.304 52.6392 110.906 52.6392C110.307 52.6392 109.835 52.9368 109.487 53.5319C109.139 54.1239 108.964 54.9931 108.961 56.1395C108.957 56.9069 109.034 57.5521 109.191 58.0752C109.351 58.5983 109.576 58.9929 109.867 59.2592C110.159 59.5223 110.505 59.6538 110.906 59.6538ZM119.73 61.1244C118.957 61.1244 118.293 60.9286 117.738 60.5371C117.187 60.1424 116.763 59.5739 116.465 58.8316C116.171 58.0861 116.023 57.1888 116.023 56.1395C116.027 55.0902 116.175 54.1975 116.47 53.4614C116.767 52.7222 117.192 52.1584 117.743 51.77C118.297 51.3816 118.96 51.1874 119.73 51.1874C120.501 51.1874 121.163 51.3816 121.718 51.77C122.272 52.1584 122.697 52.7222 122.991 53.4614C123.289 54.2006 123.437 55.0933 123.437 56.1395C123.437 57.1919 123.289 58.0908 122.991 58.8363C122.697 59.5786 122.272 60.1456 121.718 60.5371C121.167 60.9286 120.504 61.1244 119.73 61.1244ZM119.73 59.6538C120.332 59.6538 120.806 59.3578 121.154 58.7658C121.505 58.1707 121.68 57.2953 121.68 56.1395C121.68 55.3752 121.6 54.7331 121.441 54.2131C121.281 53.6932 121.055 53.3017 120.764 53.0386C120.473 52.7723 120.128 52.6392 119.73 52.6392C119.132 52.6392 118.659 52.9368 118.311 53.5319C117.964 54.1239 117.788 54.9931 117.785 56.1395C117.782 56.9069 117.859 57.5521 118.015 58.0752C118.175 58.5983 118.401 58.9929 118.692 59.2592C118.983 59.5223 119.329 59.6538 119.73 59.6538ZM127.951 52.7802V51.319H135.628V52.7802H132.654V60.9412H130.925V52.7802H127.951ZM139.135 61.0821C138.43 61.0821 137.819 60.9271 137.302 60.617C136.785 60.3069 136.384 59.8731 136.099 59.3155C135.817 58.758 135.677 58.1065 135.677 57.361C135.677 56.6156 135.817 55.9625 136.099 55.4018C136.384 54.8412 136.785 54.4058 137.302 54.0957C137.819 53.7856 138.43 53.6306 139.135 53.6306C139.839 53.6306 140.45 53.7856 140.967 54.0957C141.484 54.4058 141.883 54.8412 142.165 55.4018C142.45 55.9625 142.592 56.6156 142.592 57.361C142.592 58.1065 142.45 58.758 142.165 59.3155C141.883 59.8731 141.484 60.3069 140.967 60.617C140.45 60.9271 139.839 61.0821 139.135 61.0821ZM139.144 59.7196C139.526 59.7196 139.846 59.6147 140.102 59.4048C140.359 59.1918 140.55 58.9068 140.676 58.5497C140.804 58.1926 140.868 57.7948 140.868 57.3563C140.868 56.9147 140.804 56.5153 140.676 56.1583C140.55 55.7981 140.359 55.5115 140.102 55.2985C139.846 55.0855 139.526 54.979 139.144 54.979C138.752 54.979 138.427 55.0855 138.167 55.2985C137.91 55.5115 137.717 55.7981 137.589 56.1583C137.463 56.5153 137.401 56.9147 137.401 57.3563C137.401 57.7948 137.463 58.1926 137.589 58.5497C137.717 58.9068 137.91 59.1918 138.167 59.4048C138.427 59.6147 138.752 59.7196 139.144 59.7196ZM145.587 58.6766L145.582 56.6234H145.854L148.448 53.7245H150.435L147.245 57.2765H146.893L145.587 58.6766ZM144.036 60.9412V51.319H145.737V60.9412H144.036ZM148.565 60.9412L146.216 57.657L147.362 56.4589L150.6 60.9412H148.565ZM154.466 61.0821C153.743 61.0821 153.118 60.9318 152.592 60.6311C152.069 60.3272 151.666 59.8981 151.384 59.3437C151.102 58.7862 150.961 58.13 150.961 57.3751C150.961 56.6328 151.102 55.9813 151.384 55.4206C151.669 54.8568 152.067 54.4183 152.578 54.1051C153.088 53.7887 153.688 53.6306 154.377 53.6306C154.822 53.6306 155.242 53.7026 155.636 53.8467C156.034 53.9876 156.385 54.2069 156.689 54.5044C156.996 54.802 157.237 55.181 157.412 55.6414C157.588 56.0987 157.675 56.6438 157.675 57.2765V57.798H151.76V56.6516H156.045C156.042 56.3258 155.971 56.0361 155.834 55.7824C155.696 55.5255 155.503 55.3235 155.256 55.1763C155.011 55.0291 154.726 54.9555 154.401 54.9555C154.053 54.9555 153.748 55.0401 153.484 55.2092C153.221 55.3752 153.016 55.5945 152.869 55.867C152.725 56.1363 152.651 56.4323 152.648 56.7549V57.7557C152.648 58.1754 152.725 58.5356 152.878 58.8363C153.032 59.1339 153.246 59.3625 153.522 59.5223C153.798 59.6789 154.12 59.7572 154.49 59.7572C154.737 59.7572 154.961 59.7227 155.162 59.6538C155.362 59.5818 155.536 59.4768 155.683 59.339C155.83 59.2012 155.942 59.0305 156.017 58.8269L157.605 59.0054C157.505 59.4252 157.314 59.7916 157.032 60.1049C156.753 60.4149 156.396 60.6561 155.96 60.8284C155.525 60.9975 155.027 61.0821 154.466 61.0821ZM160.815 56.7127V60.9412H159.114V53.7245H160.74V54.9508H160.824C160.99 54.5467 161.255 54.2257 161.618 53.9876C161.985 53.7496 162.437 53.6306 162.976 53.6306C163.474 53.6306 163.908 53.737 164.278 53.95C164.65 54.163 164.939 54.4716 165.142 54.8756C165.349 55.2797 165.451 55.7699 165.448 56.3462V60.9412H163.747V56.6093C163.747 56.1269 163.621 55.7495 163.371 55.477C163.123 55.2045 162.78 55.0682 162.342 55.0682C162.044 55.0682 161.78 55.134 161.548 55.2656C161.319 55.394 161.139 55.5804 161.008 55.8247C160.879 56.069 160.815 56.365 160.815 56.7127ZM172.88 55.632L171.33 55.8012C171.286 55.6446 171.209 55.4974 171.1 55.3595C170.993 55.2217 170.849 55.1105 170.667 55.026C170.486 54.9414 170.263 54.8991 170 54.8991C169.646 54.8991 169.349 54.9758 169.108 55.1293C168.869 55.2828 168.752 55.4817 168.755 55.726C168.752 55.9359 168.829 56.1066 168.985 56.2381C169.145 56.3697 169.408 56.4777 169.775 56.5623L171.006 56.8254C171.688 56.9726 172.196 57.206 172.528 57.5255C172.863 57.845 173.032 58.2631 173.035 58.7799C173.032 59.2341 172.899 59.635 172.636 59.9827C172.376 60.3272 172.014 60.5966 171.551 60.7908C171.087 60.985 170.555 61.0821 169.953 61.0821C169.07 61.0821 168.359 60.8973 167.82 60.5277C167.281 60.155 166.96 59.6366 166.857 58.9726L168.516 58.8128C168.591 59.1386 168.75 59.3844 168.995 59.5505C169.239 59.7165 169.557 59.7995 169.949 59.7995C170.353 59.7995 170.677 59.7165 170.921 59.5505C171.169 59.3844 171.292 59.1793 171.292 58.935C171.292 58.7282 171.212 58.5575 171.053 58.4229C170.896 58.2882 170.652 58.1848 170.32 58.1128L169.089 57.8544C168.397 57.7103 167.884 57.4675 167.552 57.1261C167.22 56.7816 167.056 56.3462 167.059 55.82C167.056 55.3752 167.177 54.9899 167.421 54.6642C167.668 54.3353 168.011 54.0816 168.45 53.9031C168.891 53.7214 169.4 53.6306 169.977 53.6306C170.822 53.6306 171.488 53.8107 171.974 54.1709C172.462 54.5311 172.764 55.0181 172.88 55.632Z" fill="#84C7C1"/>
<rect x="282.23" y="43.6721" width="58.8072" height="24.5381" rx="12.2691" fill="#CBF07F"/>
<path d="M295.465 51.5217H297.332L299.831 57.6225H299.93L302.429 51.5217H304.296V59.9412H302.832V54.1569H302.754L300.427 59.9165H299.334L297.007 54.1446H296.929V59.9412H295.465V51.5217ZM308.686 60.0645C308.053 60.0645 307.506 59.9329 307.046 59.6698C306.588 59.404 306.236 59.0285 305.989 58.5434C305.743 58.0556 305.619 57.4814 305.619 56.8209C305.619 56.1713 305.743 55.6013 305.989 55.1107C306.239 54.6174 306.587 54.2337 307.034 53.9596C307.48 53.6828 308.005 53.5444 308.608 53.5444C308.997 53.5444 309.365 53.6074 309.71 53.7335C310.058 53.8568 310.365 54.0487 310.631 54.309C310.899 54.5694 311.11 54.901 311.264 55.3039C311.417 55.704 311.494 56.1809 311.494 56.7345V57.1909H306.318V56.1878H310.068C310.065 55.9027 310.003 55.6492 309.883 55.4272C309.762 55.2025 309.593 55.0257 309.377 54.8969C309.163 54.7681 308.914 54.7037 308.629 54.7037C308.325 54.7037 308.057 54.7777 307.827 54.9257C307.597 55.0709 307.417 55.2628 307.289 55.5012C307.162 55.7369 307.098 55.9959 307.095 56.2782V57.1539C307.095 57.5211 307.162 57.8363 307.297 58.0994C307.431 58.3598 307.619 58.5599 307.86 58.6996C308.101 58.8367 308.383 58.9052 308.707 58.9052C308.923 58.9052 309.119 58.875 309.295 58.8147C309.47 58.7517 309.622 58.6599 309.751 58.5393C309.88 58.4187 309.977 58.2693 310.043 58.0912L311.432 58.2474C311.345 58.6147 311.178 58.9353 310.931 59.2094C310.687 59.4807 310.375 59.6918 309.994 59.8425C309.613 59.9905 309.177 60.0645 308.686 60.0645ZM315.906 53.6266V54.7777H312.276V53.6266H315.906ZM313.172 52.1137H314.661V58.0419C314.661 58.2419 314.691 58.3954 314.751 58.5023C314.814 58.6064 314.896 58.6777 314.998 58.7161C315.099 58.7544 315.212 58.7736 315.335 58.7736C315.428 58.7736 315.513 58.7668 315.59 58.7531C315.669 58.7394 315.73 58.727 315.771 58.7161L316.021 59.8795C315.942 59.9069 315.828 59.9371 315.68 59.9699C315.535 60.0028 315.357 60.022 315.146 60.0275C314.773 60.0385 314.437 59.9823 314.139 59.8589C313.84 59.7329 313.603 59.5383 313.427 59.2752C313.255 59.0121 313.17 58.6832 313.172 58.2885V52.1137ZM319.879 60.0645C319.246 60.0645 318.699 59.9329 318.238 59.6698C317.781 59.404 317.428 59.0285 317.182 58.5434C316.935 58.0556 316.812 57.4814 316.812 56.8209C316.812 56.1713 316.935 55.6013 317.182 55.1107C317.431 54.6174 317.779 54.2337 318.226 53.9596C318.673 53.6828 319.198 53.5444 319.801 53.5444C320.19 53.5444 320.557 53.6074 320.902 53.7335C321.25 53.8568 321.557 54.0487 321.823 54.309C322.092 54.5694 322.303 54.901 322.456 55.3039C322.61 55.704 322.686 56.1809 322.686 56.7345V57.1909H317.511V56.1878H321.26C321.257 55.9027 321.196 55.6492 321.075 55.4272C320.954 55.2025 320.786 55.0257 320.569 54.8969C320.356 54.7681 320.106 54.7037 319.821 54.7037C319.517 54.7037 319.25 54.7777 319.019 54.9257C318.789 55.0709 318.61 55.2628 318.481 55.5012C318.355 55.7369 318.29 55.9959 318.288 56.2782V57.1539C318.288 57.5211 318.355 57.8363 318.489 58.0994C318.623 58.3598 318.811 58.5599 319.052 58.6996C319.293 58.8367 319.576 58.9052 319.899 58.9052C320.116 58.9052 320.312 58.875 320.487 58.8147C320.662 58.7517 320.815 58.6599 320.943 58.5393C321.072 58.4187 321.169 58.2693 321.235 58.0912L322.625 58.2474C322.537 58.6147 322.37 58.9353 322.123 59.2094C321.879 59.4807 321.567 59.6918 321.186 59.8425C320.805 59.9905 320.369 60.0645 319.879 60.0645ZM323.945 59.9412V53.6266H325.388V54.679H325.454C325.569 54.3145 325.767 54.0336 326.046 53.8363C326.329 53.6362 326.651 53.5362 327.012 53.5362C327.095 53.5362 327.186 53.5403 327.288 53.5485C327.392 53.554 327.478 53.5636 327.547 53.5773V54.9462C327.484 54.9243 327.384 54.9051 327.247 54.8887C327.112 54.8695 326.982 54.8599 326.856 54.8599C326.585 54.8599 326.341 54.9188 326.124 55.0367C325.911 55.1518 325.742 55.3121 325.619 55.5177C325.495 55.7232 325.434 55.9603 325.434 56.2289V59.9412H323.945Z" fill="#3D5213"/>
<rect y="123.209" width="357.575" height="92.6136" rx="8" fill="white"/>
<rect x="16.5391" y="140.398" width="58.2348" height="58.2348" rx="4" fill="#D3EFFB"/>
<mask id="mask1_947_986" style="mask-type:alpha" maskUnits="userSpaceOnUse" x="34" y="157" width="25" height="25">
<rect x="34.0156" y="157.446" width="24.3532" height="24.3532" fill="#D9D9D9"/>
</mask>
<g mask="url(#mask1_947_986)">
<path d="M55.4063 160.421H37.2144C36.7757 160.421 36.3551 160.595 36.0449 160.905C35.7348 161.215 35.5605 161.636 35.5605 162.074V177.786C35.5606 177.927 35.5967 178.065 35.6654 178.188C35.7341 178.311 35.8331 178.415 35.953 178.489C36.0729 178.563 36.2098 178.605 36.3506 178.611C36.4914 178.618 36.6315 178.588 36.7575 178.525L39.6951 177.056L42.6327 178.525C42.7476 178.582 42.8742 178.612 43.0027 178.612C43.1312 178.612 43.2579 178.582 43.3728 178.525L46.3103 177.056L49.2479 178.525C49.3628 178.582 49.4895 178.612 49.618 178.612C49.7464 178.612 49.8731 178.582 49.988 178.525L52.9256 177.056L55.8632 178.525C55.9892 178.588 56.1293 178.618 56.2701 178.611C56.4109 178.605 56.5477 178.563 56.6677 178.489C56.7876 178.415 56.8866 178.311 56.9553 178.188C57.024 178.065 57.0601 177.927 57.0601 177.786V162.074C57.0601 161.636 56.8859 161.215 56.5757 160.905C56.2656 160.595 55.8449 160.421 55.4063 160.421ZM51.2718 171.17H41.3489C41.1296 171.17 40.9193 171.083 40.7642 170.928C40.6091 170.773 40.522 170.563 40.522 170.343C40.522 170.124 40.6091 169.914 40.7642 169.759C40.9193 169.604 41.1296 169.517 41.3489 169.517H51.2718C51.4911 169.517 51.7014 169.604 51.8565 169.759C52.0116 169.914 52.0987 170.124 52.0987 170.343C52.0987 170.563 52.0116 170.773 51.8565 170.928C51.7014 171.083 51.4911 171.17 51.2718 171.17ZM51.2718 167.863H41.3489C41.1296 167.863 40.9193 167.776 40.7642 167.621C40.6091 167.465 40.522 167.255 40.522 167.036C40.522 166.816 40.6091 166.606 40.7642 166.451C40.9193 166.296 41.1296 166.209 41.3489 166.209H51.2718C51.4911 166.209 51.7014 166.296 51.8565 166.451C52.0116 166.606 52.0987 166.816 52.0987 167.036C52.0987 167.255 52.0116 167.465 51.8565 167.621C51.7014 167.776 51.4911 167.863 51.2718 167.863Z" fill="#57AACC"/>
</g>
<path d="M94.5573 158.612H92.7712V147.672H96.3136C99.0077 147.672 100.496 149.056 100.496 151.244V151.483C100.496 153.671 99.0077 155.055 96.3136 155.055H94.5573V158.612ZM96.522 149.235H94.5573V153.492H96.522C97.936 153.492 98.6802 152.599 98.6802 151.364C98.6802 150.128 97.936 149.235 96.522 149.235ZM104.39 158.821C102.603 158.821 101.487 157.868 101.487 156.216C101.487 154.504 102.767 153.656 104.881 153.656H106.712V153.507C106.712 152.51 106.191 151.989 105.178 151.989C104.345 151.989 103.139 152.048 102.41 152.093V150.59C103.065 150.53 104.003 150.485 104.762 150.485C107.218 150.485 108.379 151.364 108.379 153.596V158.612H106.994V157.079C106.637 158.225 105.759 158.821 104.39 158.821ZM104.836 157.511C105.759 157.511 106.652 157.079 106.712 155.635V154.802H104.836C103.794 154.802 103.214 155.367 103.214 156.171C103.214 156.975 103.794 157.511 104.836 157.511ZM111.537 161.753H110.346V160.22H111.671C112.593 160.22 113.07 159.907 113.338 158.984L113.486 158.434H112.385L109.661 150.59H111.432L113.561 157.02H113.888L115.674 150.59H117.356L114.826 159.401C114.35 161.083 113.338 161.753 111.537 161.753ZM127.275 158.88C123.301 158.88 121.782 155.754 121.782 153.313V152.986C121.782 150.336 123.39 147.434 127.185 147.434C130.118 147.434 131.919 149.101 132.187 151.602H130.386C130.147 149.935 128.867 149.086 127.185 149.086C124.834 149.086 123.598 150.843 123.598 153.165C123.598 155.397 124.849 157.228 127.275 157.228C129.016 157.228 130.311 156.335 130.564 154.727H132.38C132.082 157.02 130.341 158.88 127.275 158.88ZM137.915 158.88C135.117 158.88 133.584 156.841 133.584 154.757V154.459C133.584 152.331 135.191 150.322 137.915 150.322C140.639 150.322 142.247 152.331 142.247 154.459V154.757C142.247 156.841 140.713 158.88 137.915 158.88ZM137.915 157.362C139.567 157.362 140.505 156.171 140.505 154.608C140.505 153.016 139.523 151.84 137.915 151.84C136.308 151.84 135.325 153.016 135.325 154.608C135.325 156.171 136.263 157.362 137.915 157.362ZM145.979 158.612H144.237V150.59H145.621V152.495C145.964 151.11 146.827 150.351 148.226 150.351H148.301C149.61 150.351 150.459 151.021 150.846 152.242C151.233 151.021 152.096 150.351 153.406 150.351H153.48C155.341 150.351 156.293 151.676 156.293 154.043V158.612H154.552V153.79C154.552 152.629 153.942 151.929 152.9 151.929C151.828 151.929 151.143 152.673 151.143 153.864V158.612H149.387V153.79C149.387 152.629 148.777 151.929 147.75 151.929C146.678 151.929 145.979 152.673 145.979 153.864V158.612ZM160.456 158.612H158.714V150.59H160.099V152.495C160.441 151.11 161.304 150.351 162.703 150.351H162.778C164.088 150.351 164.936 151.021 165.323 152.242C165.71 151.021 166.573 150.351 167.883 150.351H167.958C169.818 150.351 170.771 151.676 170.771 154.043V158.612H169.029V153.79C169.029 152.629 168.419 151.929 167.377 151.929C166.305 151.929 165.621 152.673 165.621 153.864V158.612H163.864V153.79C163.864 152.629 163.254 151.929 162.227 151.929C161.155 151.929 160.456 152.673 160.456 153.864V158.612ZM176.02 158.85H175.945C174.055 158.85 173.013 157.615 173.013 155.233V150.59H174.755V155.472C174.755 156.588 175.424 157.273 176.466 157.273C177.538 157.273 178.297 156.528 178.297 155.353V150.59H180.039V158.612H178.654V156.781C178.297 158.136 177.419 158.85 176.02 158.85ZM184.367 158.612H182.625V150.59H184.01V152.51C184.367 151.096 185.275 150.351 186.763 150.351H186.838C188.802 150.351 189.785 151.631 189.785 154.028V158.612H188.043V153.79C188.043 152.673 187.359 151.929 186.257 151.929C185.126 151.929 184.367 152.703 184.367 153.864V158.612ZM193.157 149.473C192.442 149.473 192.1 149.056 192.1 148.461C192.1 147.881 192.442 147.449 193.157 147.449C193.886 147.449 194.228 147.881 194.228 148.461C194.228 149.056 193.886 149.473 193.157 149.473ZM194.333 158.612H192.591V151.929H191.415V150.59H194.333V158.612ZM201.423 158.701H200.218C198.223 158.701 197.151 157.987 197.151 155.74V151.884H195.827V150.59H197.151V148.253H198.804V150.59H201.423V151.884H198.804V155.888C198.804 156.707 199.265 157.183 200.084 157.183H201.423V158.701ZM204.113 161.753H202.922V160.22H204.247C205.17 160.22 205.646 159.907 205.914 158.984L206.063 158.434H204.961L202.238 150.59H204.009L206.137 157.02H206.465L208.251 150.59H209.933L207.402 159.401C206.926 161.083 205.914 161.753 204.113 161.753ZM219.211 158.672H215.044V147.672H218.765C221.191 147.672 222.426 148.729 222.426 150.634V150.843C222.426 151.929 221.995 152.614 221.265 153.031C222.248 153.418 222.873 154.177 222.873 155.457V155.665C222.873 157.585 221.637 158.672 219.211 158.672ZM218.988 149.161H216.815V152.42H218.988C220.104 152.42 220.625 151.765 220.625 150.798C220.625 149.816 220.104 149.161 218.988 149.161ZM219.39 153.849H216.815V157.183H219.39C220.476 157.183 221.072 156.543 221.072 155.516C221.072 154.459 220.491 153.849 219.39 153.849ZM225.992 149.473C225.278 149.473 224.936 149.056 224.936 148.461C224.936 147.881 225.278 147.449 225.992 147.449C226.722 147.449 227.064 147.881 227.064 148.461C227.064 149.056 226.722 149.473 225.992 149.473ZM227.168 158.612H225.427V151.929H224.251V150.59H227.168V158.612ZM231.61 158.612H229.853V149.086H228.796V147.747H231.61V158.612ZM236.014 158.612H234.257V149.086H233.201V147.747H236.014V158.612ZM241.341 158.85C239.183 158.85 237.932 157.883 237.873 156.275H239.48C239.525 156.871 240.046 157.466 241.356 157.466C242.472 157.466 243.142 156.99 243.142 156.32C243.142 155.725 242.71 155.382 241.609 155.263L240.82 155.189C239.168 155.01 238.141 154.221 238.141 152.852C238.141 151.259 239.436 150.351 241.281 150.351C243.172 150.351 244.437 151.215 244.496 152.837H242.904C242.859 152.227 242.323 151.751 241.281 151.751C240.284 151.751 239.748 152.197 239.748 152.807C239.748 153.358 240.105 153.671 241.013 153.775L241.802 153.849C243.603 154.043 244.749 154.861 244.749 156.275C244.749 157.823 243.365 158.85 241.341 158.85Z" fill="black"/>
<path d="M95.8135 184.15L97.3921 174.528H98.7077L97.129 184.15H95.8135ZM91.4769 181.67L91.6978 180.354H99.1023L98.8815 181.67H91.4769ZM92.4307 184.15L94.0093 174.528H95.3249L93.7462 184.15H92.4307ZM92.036 178.324L92.2522 177.009H99.6567L99.4406 178.324H92.036ZM100.508 182.365V180.979L104.591 174.528H105.747V176.501H105.042L102.294 180.857V180.932H107.993V182.365H100.508ZM105.099 184.15V181.942L105.117 181.322V174.528H106.762V184.15H105.099ZM113.051 184.334C112.277 184.334 111.613 184.138 111.058 183.746C110.507 183.352 110.083 182.783 109.785 182.041C109.491 181.295 109.344 180.398 109.344 179.349C109.347 178.299 109.495 177.407 109.79 176.671C110.087 175.931 110.512 175.368 111.063 174.979C111.618 174.591 112.28 174.397 113.051 174.397C113.821 174.397 114.484 174.591 115.038 174.979C115.592 175.368 116.017 175.931 116.311 176.671C116.609 177.41 116.758 178.302 116.758 179.349C116.758 180.401 116.609 181.3 116.311 182.045C116.017 182.788 115.592 183.355 115.038 183.746C114.487 184.138 113.824 184.334 113.051 184.334ZM113.051 182.863C113.652 182.863 114.126 182.567 114.474 181.975C114.825 181.38 115 180.504 115 179.349C115 178.584 114.92 177.942 114.761 177.422C114.601 176.902 114.375 176.511 114.084 176.248C113.793 175.981 113.448 175.848 113.051 175.848C112.452 175.848 111.979 176.146 111.632 176.741C111.284 177.333 111.109 178.202 111.105 179.349C111.102 180.116 111.179 180.761 111.336 181.284C111.495 181.807 111.721 182.202 112.012 182.468C112.303 182.731 112.65 182.863 113.051 182.863ZM119.959 182.835L119.898 183.352C119.854 183.746 119.776 184.147 119.663 184.554C119.554 184.965 119.438 185.342 119.316 185.687C119.194 186.031 119.095 186.302 119.02 186.499H117.873C117.917 186.308 117.977 186.048 118.052 185.72C118.13 185.391 118.205 185.021 118.277 184.611C118.349 184.2 118.398 183.784 118.423 183.361L118.456 182.835H119.959ZM125.028 184.334C124.254 184.334 123.59 184.138 123.036 183.746C122.484 183.352 122.06 182.783 121.762 182.041C121.468 181.295 121.321 180.398 121.321 179.349C121.324 178.299 121.473 177.407 121.767 176.671C122.065 175.931 122.489 175.368 123.04 174.979C123.595 174.591 124.257 174.397 125.028 174.397C125.798 174.397 126.461 174.591 127.015 174.979C127.57 175.368 127.994 175.931 128.288 176.671C128.586 177.41 128.735 178.302 128.735 179.349C128.735 180.401 128.586 181.3 128.288 182.045C127.994 182.788 127.57 183.355 127.015 183.746C126.464 184.138 125.801 184.334 125.028 184.334ZM125.028 182.863C125.629 182.863 126.104 182.567 126.451 181.975C126.802 181.38 126.978 180.504 126.978 179.349C126.978 178.584 126.898 177.942 126.738 177.422C126.578 176.902 126.353 176.511 126.061 176.248C125.77 175.981 125.426 175.848 125.028 175.848C124.43 175.848 123.957 176.146 123.609 176.741C123.261 177.333 123.086 178.202 123.083 179.349C123.08 180.116 123.156 180.761 123.313 181.284C123.473 181.807 123.698 182.202 123.989 182.468C124.281 182.731 124.627 182.863 125.028 182.863ZM133.852 184.334C133.079 184.334 132.415 184.138 131.86 183.746C131.309 183.352 130.885 182.783 130.587 182.041C130.293 181.295 130.145 180.398 130.145 179.349C130.149 178.299 130.297 177.407 130.592 176.671C130.889 175.931 131.314 175.368 131.865 174.979C132.419 174.591 133.082 174.397 133.852 174.397C134.623 174.397 135.285 174.591 135.84 174.979C136.394 175.368 136.819 175.931 137.113 176.671C137.411 177.41 137.559 178.302 137.559 179.349C137.559 180.401 137.411 181.3 137.113 182.045C136.819 182.788 136.394 183.355 135.84 183.746C135.289 184.138 134.626 184.334 133.852 184.334ZM133.852 182.863C134.454 182.863 134.928 182.567 135.276 181.975C135.627 181.38 135.802 180.504 135.802 179.349C135.802 178.584 135.722 177.942 135.563 177.422C135.403 176.902 135.177 176.511 134.886 176.248C134.595 175.981 134.25 175.848 133.852 175.848C133.254 175.848 132.781 176.146 132.434 176.741C132.086 177.333 131.91 178.202 131.907 179.349C131.904 180.116 131.981 180.761 132.138 181.284C132.297 181.807 132.523 182.202 132.814 182.468C133.105 182.731 133.451 182.863 133.852 182.863ZM142.677 184.334C141.903 184.334 141.239 184.138 140.685 183.746C140.134 183.352 139.709 182.783 139.412 182.041C139.117 181.295 138.97 180.398 138.97 179.349C138.973 178.299 139.122 177.407 139.416 176.671C139.714 175.931 140.138 175.368 140.69 174.979C141.244 174.591 141.907 174.397 142.677 174.397C143.448 174.397 144.11 174.591 144.664 174.979C145.219 175.368 145.643 175.931 145.938 176.671C146.235 177.41 146.384 178.302 146.384 179.349C146.384 180.401 146.235 181.3 145.938 182.045C145.643 182.788 145.219 183.355 144.664 183.746C144.113 184.138 143.451 184.334 142.677 184.334ZM142.677 182.863C143.278 182.863 143.753 182.567 144.101 181.975C144.451 181.38 144.627 180.504 144.627 179.349C144.627 178.584 144.547 177.942 144.387 177.422C144.228 176.902 144.002 176.511 143.711 176.248C143.419 175.981 143.075 175.848 142.677 175.848C142.079 175.848 141.606 176.146 141.258 176.741C140.91 177.333 140.735 178.202 140.732 179.349C140.729 180.116 140.806 180.761 140.962 181.284C141.122 181.807 141.347 182.202 141.639 182.468C141.93 182.731 142.276 182.863 142.677 182.863Z" fill="#84C7C1"/>
<rect x="282.23" y="166.881" width="58.8072" height="24.5381" rx="12.2691" fill="#CBF07F"/>
<path d="M297.237 183.15L294.861 174.731H296.501L298.018 180.918H298.096L299.716 174.731H301.208L302.832 180.922H302.906L304.423 174.731H306.063L303.687 183.15H302.183L300.497 177.243H300.431L298.742 183.15H297.237ZM308.228 183.278C307.828 183.278 307.467 183.206 307.147 183.064C306.829 182.919 306.577 182.705 306.39 182.423C306.207 182.14 306.115 181.792 306.115 181.378C306.115 181.022 306.181 180.727 306.312 180.495C306.444 180.262 306.623 180.075 306.851 179.935C307.078 179.796 307.334 179.69 307.619 179.619C307.907 179.545 308.205 179.491 308.512 179.459C308.882 179.42 309.182 179.386 309.412 179.356C309.642 179.323 309.809 179.274 309.913 179.208C310.02 179.139 310.074 179.034 310.074 178.891V178.867C310.074 178.557 309.982 178.317 309.798 178.147C309.615 177.977 309.35 177.892 309.005 177.892C308.64 177.892 308.351 177.972 308.137 178.131C307.926 178.29 307.784 178.477 307.71 178.694L306.32 178.497C306.43 178.113 306.611 177.792 306.863 177.535C307.115 177.274 307.424 177.08 307.788 176.951C308.153 176.819 308.555 176.753 308.997 176.753C309.301 176.753 309.604 176.789 309.905 176.86C310.207 176.932 310.482 177.049 310.732 177.214C310.981 177.376 311.181 177.596 311.332 177.876C311.485 178.155 311.562 178.505 311.562 178.924V183.15H310.131V182.283H310.082C309.992 182.458 309.864 182.623 309.7 182.776C309.538 182.927 309.334 183.049 309.087 183.142C308.843 183.232 308.557 183.278 308.228 183.278ZM308.614 182.184C308.913 182.184 309.172 182.125 309.391 182.007C309.611 181.887 309.779 181.728 309.897 181.531C310.018 181.333 310.078 181.118 310.078 180.885V180.141C310.031 180.179 309.952 180.215 309.839 180.248C309.73 180.281 309.607 180.31 309.469 180.334C309.332 180.359 309.197 180.381 309.062 180.4C308.928 180.419 308.812 180.436 308.713 180.449C308.491 180.479 308.292 180.529 308.117 180.597C307.942 180.666 307.803 180.762 307.702 180.885C307.6 181.006 307.55 181.162 307.55 181.354C307.55 181.628 307.65 181.835 307.85 181.975C308.05 182.114 308.305 182.184 308.614 182.184ZM316.212 176.836V177.987H312.582V176.836H316.212ZM313.478 175.323H314.966V181.251C314.966 181.451 314.996 181.605 315.056 181.711C315.119 181.816 315.202 181.887 315.303 181.925C315.404 181.964 315.517 181.983 315.64 181.983C315.733 181.983 315.818 181.976 315.895 181.962C315.975 181.948 316.035 181.936 316.076 181.925L316.327 183.089C316.247 183.116 316.133 183.146 315.985 183.179C315.84 183.212 315.662 183.231 315.451 183.237C315.078 183.248 314.743 183.191 314.444 183.068C314.145 182.942 313.908 182.747 313.733 182.484C313.56 182.221 313.475 181.892 313.478 181.498V175.323ZM320.184 183.274C319.551 183.274 319.004 183.142 318.544 182.879C318.086 182.613 317.734 182.238 317.487 181.753C317.24 181.265 317.117 180.69 317.117 180.03C317.117 179.38 317.24 178.81 317.487 178.32C317.736 177.826 318.085 177.443 318.531 177.169C318.978 176.892 319.503 176.753 320.106 176.753C320.495 176.753 320.862 176.817 321.208 176.943C321.556 177.066 321.863 177.258 322.128 177.518C322.397 177.779 322.608 178.11 322.761 178.513C322.915 178.913 322.992 179.39 322.992 179.944V180.4H317.816V179.397H321.565C321.562 179.112 321.501 178.858 321.38 178.636C321.26 178.412 321.091 178.235 320.875 178.106C320.661 177.977 320.411 177.913 320.126 177.913C319.822 177.913 319.555 177.987 319.325 178.135C319.094 178.28 318.915 178.472 318.786 178.71C318.66 178.946 318.596 179.205 318.593 179.487V180.363C318.593 180.73 318.66 181.045 318.794 181.309C318.929 181.569 319.116 181.769 319.358 181.909C319.599 182.046 319.881 182.114 320.204 182.114C320.421 182.114 320.617 182.084 320.792 182.024C320.968 181.961 321.12 181.869 321.249 181.748C321.377 181.628 321.475 181.478 321.541 181.3L322.93 181.457C322.842 181.824 322.675 182.144 322.429 182.419C322.185 182.69 321.872 182.901 321.491 183.052C321.11 183.2 320.674 183.274 320.184 183.274ZM324.251 183.15V176.836H325.694V177.888H325.759C325.875 177.524 326.072 177.243 326.351 177.045C326.634 176.845 326.956 176.745 327.318 176.745C327.4 176.745 327.492 176.749 327.593 176.758C327.697 176.763 327.783 176.773 327.852 176.786V178.155C327.789 178.133 327.689 178.114 327.552 178.098C327.418 178.079 327.287 178.069 327.161 178.069C326.89 178.069 326.646 178.128 326.43 178.246C326.216 178.361 326.047 178.521 325.924 178.727C325.801 178.932 325.739 179.169 325.739 179.438V183.15H324.251Z" fill="#3D5213"/>
<rect y="246.418" width="357.575" height="92.6136" rx="8" fill="white"/>
<rect x="16.5391" y="263.608" width="58.2348" height="58.2348" rx="4" fill="#CBF07F"/>
<path d="M51.0003 293C51.0003 293.989 50.7071 294.956 50.1577 295.778C49.6083 296.6 48.8274 297.241 47.9137 297.619C47.0001 297.998 45.9948 298.097 45.0249 297.904C44.055 297.711 43.164 297.235 42.4648 296.536C41.7655 295.836 41.2893 294.945 41.0964 293.975C40.9035 293.006 41.0025 292 41.3809 291.087C41.7594 290.173 42.4002 289.392 43.2225 288.843C44.0447 288.293 45.0114 288 46.0003 288C47.3264 288 48.5982 288.527 49.5358 289.464C50.4735 290.402 51.0003 291.674 51.0003 293ZM56.0003 293C56.0033 290.54 55.0964 288.165 53.4541 286.334C53.3672 286.234 53.2612 286.152 53.1423 286.093C53.0234 286.034 52.894 285.999 52.7616 285.991C52.6292 285.982 52.4965 286 52.3712 286.044C52.2458 286.087 52.1303 286.155 52.0315 286.244C51.9327 286.332 51.8524 286.439 51.7954 286.559C51.7384 286.679 51.7059 286.809 51.6996 286.941C51.6933 287.074 51.7135 287.206 51.7589 287.331C51.8043 287.456 51.874 287.57 51.9641 287.668C53.2758 289.134 54.001 291.033 54.001 293.001C54.001 294.968 53.2758 296.867 51.9641 298.334C51.7921 298.532 51.7051 298.79 51.7217 299.052C51.7382 299.314 51.8571 299.559 52.0527 299.734C52.2483 299.909 52.5048 300 52.767 299.988C53.0291 299.975 53.2759 299.86 53.4541 299.668C55.0962 297.835 56.003 295.461 56.0003 293ZM40.0366 287.668C40.1266 287.57 40.1964 287.456 40.2418 287.331C40.2872 287.206 40.3073 287.074 40.301 286.941C40.2948 286.809 40.2622 286.679 40.2052 286.559C40.1482 286.439 40.068 286.332 39.9691 286.244C39.8703 286.155 39.7548 286.087 39.6295 286.044C39.5041 286 39.3714 285.982 39.239 285.991C39.1066 285.999 38.9772 286.034 38.8583 286.093C38.7394 286.152 38.6335 286.234 38.5466 286.334C36.9051 288.166 35.9974 290.54 35.9974 293.001C35.9974 295.461 36.9051 297.835 38.5466 299.668C38.7247 299.86 38.9715 299.975 39.2336 299.988C39.4958 300 39.7524 299.909 39.9479 299.734C40.1435 299.559 40.2624 299.314 40.279 299.052C40.2955 298.79 40.2085 298.532 40.0366 298.334C38.7235 296.868 37.9975 294.969 37.9975 293.001C37.9975 291.033 38.7235 289.134 40.0366 287.668ZM59.8216 287.168C59.0897 285.429 58.0353 283.846 56.7141 282.5C56.623 282.403 56.5134 282.324 56.3917 282.27C56.2699 282.216 56.1386 282.186 56.0053 282.183C55.872 282.18 55.7395 282.204 55.6155 282.253C55.4916 282.302 55.3787 282.376 55.2835 282.469C55.1884 282.563 55.1128 282.674 55.0613 282.797C55.0098 282.92 54.9834 283.052 54.9837 283.185C54.984 283.319 55.0109 283.45 55.063 283.573C55.115 283.696 55.191 283.807 55.2866 283.9C57.67 286.328 59.0053 289.595 59.0053 292.998C59.0053 296.4 57.67 299.667 55.2866 302.095C55.1943 302.189 55.1214 302.3 55.0721 302.422C55.0227 302.544 54.9978 302.674 54.9989 302.805C54.9999 302.937 55.0269 303.067 55.0781 303.188C55.1294 303.309 55.2041 303.419 55.2978 303.511C55.3915 303.604 55.5025 303.676 55.6244 303.726C55.7463 303.775 55.8768 303.8 56.0083 303.799C56.1398 303.798 56.2698 303.771 56.3909 303.72C56.512 303.668 56.6218 303.594 56.7141 303.5C58.7843 301.386 60.1838 298.707 60.7367 295.8C61.2895 292.893 60.9712 289.888 59.8216 287.161V287.168ZM34.0216 298.06C33.0224 295.698 32.7449 293.093 33.224 290.574C33.7032 288.054 34.9176 285.733 36.7141 283.903C36.9 283.713 37.0032 283.458 37.0009 283.192C36.9985 282.927 36.8909 282.673 36.7016 282.488C36.5123 282.302 36.2568 282.198 35.9915 282.201C35.7261 282.203 35.4725 282.311 35.2866 282.5C32.5343 285.302 30.9922 289.072 30.9922 293C30.9922 296.928 32.5343 300.698 35.2866 303.5C35.3776 303.597 35.4872 303.676 35.609 303.73C35.7307 303.784 35.862 303.814 35.9953 303.817C36.1286 303.82 36.2611 303.796 36.3851 303.747C36.509 303.698 36.6219 303.624 36.7171 303.531C36.8123 303.438 36.8878 303.326 36.9393 303.203C36.9908 303.08 37.0172 302.948 37.0169 302.815C37.0166 302.681 36.9897 302.55 36.9377 302.427C36.8857 302.304 36.8096 302.193 36.7141 302.1C35.5699 300.935 34.6564 299.564 34.0216 298.06Z" fill="#3D5213"/>
<path d="M96.5964 281.881H92.7712V270.881H96.5964C100.511 270.881 102.431 273.516 102.431 276.21V276.537C102.431 279.127 100.511 281.881 96.5964 281.881ZM96.7453 272.534H94.5573V280.229H96.7453C99.1565 280.229 100.615 278.592 100.615 276.374C100.615 274.067 99.1565 272.534 96.7453 272.534ZM106.555 282.03C104.769 282.03 103.653 281.077 103.653 279.425C103.653 277.713 104.933 276.865 107.047 276.865H108.877V276.716C108.877 275.719 108.356 275.198 107.344 275.198C106.511 275.198 105.305 275.257 104.576 275.302V273.799C105.231 273.739 106.168 273.695 106.927 273.695C109.383 273.695 110.544 274.573 110.544 276.805V281.821H109.16V280.288C108.803 281.434 107.925 282.03 106.555 282.03ZM107.002 280.72C107.925 280.72 108.818 280.288 108.877 278.845V278.011H107.002C105.96 278.011 105.379 278.577 105.379 279.38C105.379 280.184 105.96 280.72 107.002 280.72ZM117.466 281.911H116.261C114.266 281.911 113.195 281.196 113.195 278.949V275.094H111.87V273.799H113.195V271.462H114.847V273.799H117.466V275.094H114.847V279.098C114.847 279.916 115.308 280.393 116.127 280.393H117.466V281.911ZM121.556 282.03C119.77 282.03 118.653 281.077 118.653 279.425C118.653 277.713 119.934 276.865 122.047 276.865H123.878V276.716C123.878 275.719 123.357 275.198 122.345 275.198C121.511 275.198 120.306 275.257 119.576 275.302V273.799C120.231 273.739 121.169 273.695 121.928 273.695C124.384 273.695 125.545 274.573 125.545 276.805V281.821H124.161V280.288C123.803 281.434 122.925 282.03 121.556 282.03ZM122.002 280.72C122.925 280.72 123.818 280.288 123.878 278.845V278.011H122.002C120.961 278.011 120.38 278.577 120.38 279.38C120.38 280.184 120.961 280.72 122.002 280.72ZM134.308 282.104C131.986 282.104 130.423 280.631 130.423 278.74V278.532C130.423 277.207 131.197 276.121 132.269 275.466C131.926 274.885 131.807 274.379 131.807 273.754C131.807 271.864 132.894 270.822 135.454 270.822C136.139 270.822 137.002 270.911 137.612 270.986V272.474C137.017 272.4 135.781 272.31 135.216 272.31C133.876 272.31 133.445 272.846 133.445 273.814C133.445 274.632 133.817 275.243 134.65 276.136L137.106 278.77C137.448 278.041 137.642 277.073 137.672 275.897H136.049V274.558H140.068V275.897H139.22C139.19 277.55 138.818 278.904 138.208 279.931L139.964 281.821H137.955L137.255 281.062C136.466 281.747 135.469 282.104 134.308 282.104ZM132.075 278.592C132.075 279.886 133.028 280.631 134.353 280.631C135.067 280.631 135.707 280.407 136.228 279.976L133.593 277.148C133.4 276.939 133.236 276.761 133.087 276.567C132.477 277.029 132.075 277.758 132.075 278.592ZM145.87 281.821H144.084L147.895 270.956H150.857L154.786 281.821H152.94L151.854 278.755H146.927L145.87 281.821ZM147.463 277.207H151.303L149.621 272.489H149.085L147.463 277.207ZM157.356 272.682C156.641 272.682 156.299 272.266 156.299 271.67C156.299 271.09 156.641 270.658 157.356 270.658C158.085 270.658 158.428 271.09 158.428 271.67C158.428 272.266 158.085 272.682 157.356 272.682ZM158.532 281.821H156.79V275.138H155.614V273.799H158.532V281.821ZM162.869 281.821H161.127V273.799H162.512V276.24C162.75 274.543 163.747 273.709 165.459 273.709H165.741V275.243H165.206C163.702 275.243 162.869 276.076 162.869 277.564V281.821ZM171.945 281.911H170.74C168.745 281.911 167.674 281.196 167.674 278.949V275.094H166.349V273.799H167.674V271.462H169.326V273.799H171.945V275.094H169.326V279.098C169.326 279.916 169.787 280.393 170.606 280.393H171.945V281.911ZM174.784 272.682C174.069 272.682 173.727 272.266 173.727 271.67C173.727 271.09 174.069 270.658 174.784 270.658C175.513 270.658 175.856 271.09 175.856 271.67C175.856 272.266 175.513 272.682 174.784 272.682ZM175.96 281.821H174.218V275.138H173.042V273.799H175.96V281.821ZM180.297 281.821H178.555V273.799H179.94V275.704C180.282 274.32 181.145 273.561 182.544 273.561H182.619C183.929 273.561 184.777 274.23 185.164 275.451C185.551 274.23 186.414 273.561 187.724 273.561H187.799C189.659 273.561 190.612 274.885 190.612 277.252V281.821H188.87V276.999C188.87 275.838 188.26 275.138 187.218 275.138C186.146 275.138 185.462 275.883 185.462 277.073V281.821H183.705V276.999C183.705 275.838 183.095 275.138 182.068 275.138C180.996 275.138 180.297 275.883 180.297 277.073V281.821ZM196.531 282.089C193.732 282.089 192.467 279.991 192.467 277.951V277.669C192.467 275.585 193.777 273.531 196.441 273.531C199.031 273.531 200.326 275.451 200.326 277.505V278.205H194.134C194.253 279.619 194.983 280.616 196.531 280.616C197.647 280.616 198.391 280.065 198.555 279.395H200.177C199.835 281.062 198.451 282.089 196.531 282.089ZM196.441 275.004C195.131 275.004 194.387 275.793 194.179 277.029H198.629C198.465 275.763 197.736 275.004 196.441 275.004ZM207.469 281.821H205.683V270.881H209.225C211.919 270.881 213.408 272.266 213.408 274.454V274.692C213.408 276.88 211.919 278.264 209.225 278.264H207.469V281.821ZM209.434 272.444H207.469V276.701H209.434C210.848 276.701 211.592 275.808 211.592 274.573C211.592 273.337 210.848 272.444 209.434 272.444ZM217.998 282.06H217.924C216.034 282.06 214.992 280.824 214.992 278.443V273.799H216.733V278.681C216.733 279.797 217.403 280.482 218.445 280.482C219.516 280.482 220.276 279.738 220.276 278.562V273.799H222.017V281.821H220.633V279.991C220.276 281.345 219.397 282.06 217.998 282.06ZM226.345 281.821H224.604V273.799H225.988V276.24C226.226 274.543 227.223 273.709 228.935 273.709H229.218V275.243H228.682C227.179 275.243 226.345 276.076 226.345 277.564V281.821ZM234.177 282.089C231.423 282.089 230.129 279.976 230.129 277.951V277.684C230.129 275.6 231.483 273.531 234.162 273.531C236.216 273.531 237.734 274.766 237.853 276.657H236.172C236.038 275.749 235.338 275.064 234.162 275.064C232.614 275.064 231.87 276.225 231.87 277.818C231.87 279.365 232.599 280.556 234.177 280.556C235.383 280.556 236.142 279.872 236.246 278.919H237.943C237.839 280.839 236.246 282.089 234.177 282.089ZM241.491 281.821H239.75V270.956H241.491V275.183C241.923 274.141 242.727 273.561 243.977 273.561H244.051C245.927 273.561 246.909 274.87 246.909 277.252V281.821H245.168V276.999C245.168 275.838 244.438 275.138 243.381 275.138C242.235 275.138 241.491 275.972 241.491 277.192V281.821ZM251.561 282.03C249.775 282.03 248.659 281.077 248.659 279.425C248.659 277.713 249.939 276.865 252.052 276.865H253.883V276.716C253.883 275.719 253.362 275.198 252.35 275.198C251.517 275.198 250.311 275.257 249.582 275.302V273.799C250.237 273.739 251.174 273.695 251.933 273.695C254.389 273.695 255.55 274.573 255.55 276.805V281.821H254.166V280.288C253.809 281.434 252.931 282.03 251.561 282.03ZM252.008 280.72C252.931 280.72 253.824 280.288 253.883 278.845V278.011H252.008C250.966 278.011 250.385 278.577 250.385 279.38C250.385 280.184 250.966 280.72 252.008 280.72ZM260.746 282.06C258.587 282.06 257.337 281.092 257.278 279.485H258.885C258.93 280.08 259.451 280.675 260.761 280.675C261.877 280.675 262.547 280.199 262.547 279.529C262.547 278.934 262.115 278.592 261.014 278.472L260.225 278.398C258.573 278.219 257.546 277.431 257.546 276.061C257.546 274.469 258.84 273.561 260.686 273.561C262.576 273.561 263.842 274.424 263.901 276.046H262.309C262.264 275.436 261.728 274.96 260.686 274.96C259.689 274.96 259.153 275.406 259.153 276.017C259.153 276.567 259.51 276.88 260.418 276.984L261.207 277.058C263.008 277.252 264.154 278.071 264.154 279.485C264.154 281.033 262.77 282.06 260.746 282.06ZM269.557 282.089C266.758 282.089 265.493 279.991 265.493 277.951V277.669C265.493 275.585 266.803 273.531 269.467 273.531C272.057 273.531 273.352 275.451 273.352 277.505V278.205H267.16C267.279 279.619 268.009 280.616 269.557 280.616C270.673 280.616 271.417 280.065 271.581 279.395H273.203C272.861 281.062 271.477 282.089 269.557 282.089ZM269.467 275.004C268.158 275.004 267.413 275.793 267.205 277.029H271.655C271.492 275.763 270.762 275.004 269.467 275.004ZM277.999 282.06C275.841 282.06 274.591 281.092 274.531 279.485H276.139C276.183 280.08 276.704 280.675 278.014 280.675C279.131 280.675 279.8 280.199 279.8 279.529C279.8 278.934 279.369 278.592 278.267 278.472L277.478 278.398C275.826 278.219 274.799 277.431 274.799 276.061C274.799 274.469 276.094 273.561 277.94 273.561C279.83 273.561 281.095 274.424 281.155 276.046H279.562C279.517 275.436 278.982 274.96 277.94 274.96C276.943 274.96 276.407 275.406 276.407 276.017C276.407 276.567 276.764 276.88 277.672 276.984L278.461 277.058C280.262 277.252 281.408 278.071 281.408 279.485C281.408 281.033 280.024 282.06 277.999 282.06Z" fill="black"/>
<path d="M92.2616 297.737H94.3946L97.2512 304.71H97.364L100.221 297.737H102.354V307.359H100.681V300.749H100.592L97.9325 307.331H96.6827L94.0234 300.735H93.9342V307.359H92.2616V297.737ZM103.829 299.198V297.737H111.506V299.198H108.532V307.359H106.803V299.198H103.829ZM120.893 297.737V307.359H119.343L114.809 300.805H114.729V307.359H112.986V297.737H114.546L119.075 304.296H119.16V297.737H120.893ZM124.714 306.044L124.653 306.561C124.609 306.955 124.531 307.356 124.418 307.764C124.309 308.174 124.193 308.551 124.07 308.896C123.948 309.24 123.85 309.511 123.774 309.709H122.628C122.672 309.518 122.731 309.258 122.807 308.929C122.885 308.6 122.96 308.23 123.032 307.82C123.104 307.41 123.153 306.993 123.178 306.57L123.211 306.044H124.714ZM130.915 307.359H129.054L132.442 297.737H134.594L137.986 307.359H136.125L133.555 299.711H133.48L130.915 307.359ZM130.976 303.587H136.05V304.987H130.976V303.587ZM139.23 307.359V300.143H140.93V307.359H139.23ZM140.085 299.119C139.815 299.119 139.584 299.029 139.389 298.851C139.195 298.669 139.098 298.451 139.098 298.198C139.098 297.941 139.195 297.723 139.389 297.545C139.584 297.363 139.815 297.272 140.085 297.272C140.357 297.272 140.589 297.363 140.78 297.545C140.974 297.723 141.071 297.941 141.071 298.198C141.071 298.451 140.974 298.669 140.78 298.851C140.589 299.029 140.357 299.119 140.085 299.119ZM142.679 307.359V300.143H144.329V301.346H144.404C144.535 300.929 144.761 300.608 145.08 300.382C145.403 300.154 145.771 300.039 146.184 300.039C146.278 300.039 146.383 300.044 146.499 300.054C146.618 300.06 146.717 300.071 146.795 300.086V301.651C146.723 301.626 146.609 301.604 146.452 301.585C146.299 301.563 146.15 301.552 146.006 301.552C145.696 301.552 145.417 301.62 145.17 301.754C144.925 301.886 144.733 302.069 144.592 302.304C144.451 302.539 144.38 302.81 144.38 303.117V307.359H142.679ZM151.916 300.143V301.458H147.768V300.143H151.916ZM148.792 298.414H150.493V305.189C150.493 305.418 150.527 305.593 150.596 305.715C150.668 305.834 150.762 305.916 150.878 305.959C150.994 306.003 151.122 306.025 151.263 306.025C151.37 306.025 151.467 306.017 151.555 306.002C151.645 305.986 151.714 305.972 151.761 305.959L152.048 307.289C151.957 307.32 151.827 307.355 151.658 307.392C151.492 307.43 151.288 307.452 151.047 307.458C150.621 307.471 150.237 307.406 149.896 307.266C149.555 307.121 149.284 306.899 149.083 306.598C148.886 306.298 148.789 305.922 148.792 305.471V298.414ZM156.456 307.5C155.733 307.5 155.108 307.35 154.581 307.049C154.058 306.746 153.656 306.316 153.374 305.762C153.092 305.205 152.951 304.548 152.951 303.793C152.951 303.051 153.092 302.4 153.374 301.839C153.659 301.275 154.057 300.837 154.567 300.523C155.078 300.207 155.678 300.049 156.367 300.049C156.812 300.049 157.231 300.121 157.626 300.265C158.024 300.406 158.375 300.625 158.678 300.923C158.985 301.22 159.227 301.599 159.402 302.06C159.577 302.517 159.665 303.062 159.665 303.695V304.216H153.75V303.07H158.035C158.032 302.744 157.961 302.454 157.823 302.201C157.685 301.944 157.493 301.742 157.245 301.595C157.001 301.447 156.716 301.374 156.39 301.374C156.043 301.374 155.737 301.458 155.474 301.628C155.211 301.794 155.006 302.013 154.859 302.285C154.715 302.555 154.641 302.851 154.638 303.173V304.174C154.638 304.594 154.715 304.954 154.868 305.255C155.022 305.552 155.236 305.781 155.512 305.941C155.787 306.097 156.11 306.176 156.48 306.176C156.727 306.176 156.951 306.141 157.151 306.072C157.352 306 157.526 305.895 157.673 305.757C157.82 305.62 157.931 305.449 158.007 305.245L159.595 305.424C159.494 305.844 159.303 306.21 159.021 306.523C158.743 306.833 158.386 307.074 157.95 307.247C157.515 307.416 157.017 307.5 156.456 307.5ZM162.805 297.737V307.359H161.104V297.737H162.805ZM170.983 307.5C170.279 307.5 169.668 307.345 169.151 307.035C168.634 306.725 168.233 306.291 167.948 305.734C167.666 305.176 167.525 304.525 167.525 303.779C167.525 303.034 167.666 302.381 167.948 301.82C168.233 301.259 168.634 300.824 169.151 300.514C169.668 300.204 170.279 300.049 170.983 300.049C171.688 300.049 172.299 300.204 172.816 300.514C173.333 300.824 173.732 301.259 174.014 301.82C174.299 302.381 174.441 303.034 174.441 303.779C174.441 304.525 174.299 305.176 174.014 305.734C173.732 306.291 173.333 306.725 172.816 307.035C172.299 307.345 171.688 307.5 170.983 307.5ZM170.993 306.138C171.375 306.138 171.694 306.033 171.951 305.823C172.208 305.61 172.399 305.325 172.524 304.968C172.653 304.611 172.717 304.213 172.717 303.775C172.717 303.333 172.653 302.934 172.524 302.577C172.399 302.216 172.208 301.93 171.951 301.717C171.694 301.504 171.375 301.397 170.993 301.397C170.601 301.397 170.275 301.504 170.015 301.717C169.759 301.93 169.566 302.216 169.438 302.577C169.312 302.934 169.25 303.333 169.25 303.775C169.25 304.213 169.312 304.611 169.438 304.968C169.566 305.325 169.759 305.61 170.015 305.823C170.275 306.033 170.601 306.138 170.993 306.138ZM175.885 307.359V300.143H177.534V301.346H177.609C177.741 300.929 177.966 300.608 178.286 300.382C178.608 300.154 178.976 300.039 179.39 300.039C179.484 300.039 179.589 300.044 179.705 300.054C179.824 300.06 179.922 300.071 180.001 300.086V301.651C179.929 301.626 179.814 301.604 179.658 301.585C179.504 301.563 179.355 301.552 179.211 301.552C178.901 301.552 178.622 301.62 178.375 301.754C178.131 301.886 177.938 302.069 177.797 302.304C177.656 302.539 177.586 302.81 177.586 303.117V307.359H175.885ZM190.934 300.81C190.855 300.556 190.747 300.329 190.609 300.129C190.475 299.925 190.312 299.751 190.121 299.607C189.933 299.463 189.717 299.355 189.472 299.283C189.228 299.208 188.962 299.17 188.674 299.17C188.157 299.17 187.697 299.3 187.292 299.56C186.888 299.82 186.57 300.202 186.339 300.707C186.11 301.208 185.996 301.819 185.996 302.539C185.996 303.266 186.11 303.881 186.339 304.385C186.567 304.89 186.885 305.273 187.292 305.537C187.7 305.797 188.173 305.927 188.711 305.927C189.2 305.927 189.623 305.833 189.98 305.645C190.34 305.457 190.617 305.19 190.812 304.846C191.006 304.498 191.103 304.091 191.103 303.624L191.497 303.685H188.885V302.323H192.79V303.479C192.79 304.302 192.614 305.015 192.263 305.616C191.912 306.218 191.43 306.681 190.816 307.007C190.202 307.33 189.498 307.491 188.702 307.491C187.816 307.491 187.037 307.292 186.367 306.894C185.7 306.493 185.178 305.925 184.802 305.189C184.43 304.45 184.243 303.573 184.243 302.558C184.243 301.781 184.353 301.087 184.572 300.476C184.795 299.866 185.105 299.347 185.502 298.921C185.9 298.492 186.367 298.166 186.902 297.944C187.438 297.719 188.021 297.606 188.65 297.606C189.183 297.606 189.679 297.684 190.14 297.841C190.6 297.994 191.009 298.213 191.366 298.498C191.726 298.783 192.022 299.122 192.254 299.513C192.486 299.905 192.638 300.337 192.71 300.81H190.934ZM196.101 297.737V307.359H194.4V297.737H196.101ZM200.997 307.5C200.293 307.5 199.682 307.345 199.165 307.035C198.648 306.725 198.247 306.291 197.962 305.734C197.68 305.176 197.54 304.525 197.54 303.779C197.54 303.034 197.68 302.381 197.962 301.82C198.247 301.259 198.648 300.824 199.165 300.514C199.682 300.204 200.293 300.049 200.997 300.049C201.702 300.049 202.313 300.204 202.83 300.514C203.347 300.824 203.746 301.259 204.028 301.82C204.313 302.381 204.455 303.034 204.455 303.779C204.455 304.525 204.313 305.176 204.028 305.734C203.746 306.291 203.347 306.725 202.83 307.035C202.313 307.345 201.702 307.5 200.997 307.5ZM201.007 306.138C201.389 306.138 201.709 306.033 201.965 305.823C202.222 305.61 202.413 305.325 202.539 304.968C202.667 304.611 202.731 304.213 202.731 303.775C202.731 303.333 202.667 302.934 202.539 302.577C202.413 302.216 202.222 301.93 201.965 301.717C201.709 301.504 201.389 301.397 201.007 301.397C200.615 301.397 200.29 301.504 200.03 301.717C199.773 301.93 199.58 302.216 199.452 302.577C199.326 302.934 199.264 303.333 199.264 303.775C199.264 304.213 199.326 304.611 199.452 304.968C199.58 305.325 199.773 305.61 200.03 305.823C200.29 306.033 200.615 306.138 201.007 306.138Z" fill="#84C7C1"/>
</svg>
