<svg width="370" height="421" viewBox="0 0 370 421" fill="none" xmlns="http://www.w3.org/2000/svg">
<g filter="url(#filter0_d_947_1066)">
<rect x="23" y="20" width="323.895" height="175.595" rx="8" fill="white"/>
</g>
<path d="M51.8511 53.1034H45.3004V42.4767H51.7346V44.2236H47.3238V46.8293H51.4726V48.5761H47.3238V51.3565H51.8511V53.1034ZM55.9373 53.1034H53.9138V43.9907H52.924V42.4767H55.9373V53.1034ZM61.7847 53.38C59.0625 53.38 57.7232 51.3129 57.7232 49.2894V49.0129C57.7232 46.9166 59.0916 44.9223 61.6973 44.9223C64.2448 44.9223 65.5841 46.8293 65.5841 48.911V49.6388H59.6448C59.7758 50.8762 60.4454 51.7059 61.7847 51.7059C62.76 51.7059 63.4151 51.2546 63.5897 50.6724H65.453C65.1037 52.3028 63.7353 53.38 61.7847 53.38ZM61.6973 46.5964C60.5619 46.5964 59.8777 47.266 59.6739 48.4015H63.648C63.4878 47.2514 62.8328 46.5964 61.6973 46.5964ZM70.7826 53.38C68.0605 53.38 66.7503 51.3274 66.7503 49.304V49.0274C66.7503 46.9166 68.1187 44.9223 70.7681 44.9223C72.8352 44.9223 74.3346 46.2033 74.4656 48.0958H72.5004C72.3985 47.2806 71.8016 46.6692 70.7681 46.6692C69.4143 46.6692 68.7738 47.7027 68.7738 49.1584C68.7738 50.5705 69.3706 51.6331 70.7826 51.6331C71.8308 51.6331 72.4713 51.0217 72.5732 50.1629H74.5384C74.4219 52.099 72.8643 53.38 70.7826 53.38ZM80.7302 53.2053H79.5948C77.4112 53.2053 76.3922 52.4483 76.3922 50.1338V46.6837H75.1403V45.1989H76.4068V42.9717H78.2992V45.1989H80.7302V46.6837H78.2847V50.2648C78.2847 51.0363 78.7214 51.473 79.4929 51.473H80.7302V53.2053ZM84.452 53.1034H82.4285V45.1989H84.0298V47.7755C84.2336 46.0141 85.2089 45.097 86.8539 45.097H87.145V46.8584H86.5919C85.2235 46.8584 84.452 47.6154 84.452 48.9837V53.1034ZM89.6196 44.2527C88.819 44.2527 88.455 43.7869 88.455 43.1464C88.455 42.5058 88.819 42.0546 89.6196 42.0546C90.4057 42.0546 90.7696 42.5058 90.7696 43.1464C90.7696 43.7869 90.4057 44.2527 89.6196 44.2527ZM90.9006 53.1034H88.8772V46.7128H87.7709V45.1989H90.9006V53.1034ZM96.7409 53.38C94.0187 53.38 92.7086 51.3274 92.7086 49.304V49.0274C92.7086 46.9166 94.0769 44.9223 96.7263 44.9223C98.7934 44.9223 100.293 46.2033 100.424 48.0958H98.4586C98.3567 47.2806 97.7599 46.6692 96.7263 46.6692C95.3725 46.6692 94.732 47.7027 94.732 49.1584C94.732 50.5705 95.3288 51.6331 96.7409 51.6331C97.789 51.6331 98.4295 51.0217 98.5314 50.1629H100.497C100.38 52.099 98.8225 53.38 96.7409 53.38ZM103.238 44.2527C102.438 44.2527 102.074 43.7869 102.074 43.1464C102.074 42.5058 102.438 42.0546 103.238 42.0546C104.025 42.0546 104.388 42.5058 104.388 43.1464C104.388 43.7869 104.025 44.2527 103.238 44.2527ZM104.519 53.1034H102.496V46.7128H101.39V45.1989H104.519V53.1034ZM111.422 53.2053H110.287C108.103 53.2053 107.084 52.4483 107.084 50.1338V46.6837H105.832V45.1989H107.099V42.9717H108.991V45.1989H111.422V46.6837H108.977V50.2648C108.977 51.0363 109.413 51.473 110.185 51.473H111.422V53.2053ZM114.183 56.2186H112.888V54.4863H114.373C115.202 54.4863 115.624 54.2097 115.843 53.3654L115.959 52.9287H114.664L112.102 45.1989H114.14L116.061 51.3274H116.367L117.968 45.1989H119.904L117.561 53.8021C117.08 55.5635 116.134 56.2186 114.183 56.2186ZM129.925 49.9008H124.029V48.1249H129.925V49.9008ZM141.667 53.1034H135.116V42.4767H141.551V44.2236H137.14V46.8293H141.289V48.5761H137.14V51.3565H141.667V53.1034ZM145.855 53.1034H143.788V42.4767H145.855V47.4407L149.902 42.4767H152.275L148.49 47.1059L153.192 53.1034H150.674L146.787 48.1394H145.855V53.1034ZM158.222 53.1616H154.379V42.4039H158.222C162.05 42.4039 163.957 44.9078 163.957 47.6008V47.9211C163.957 50.4831 162.05 53.1616 158.222 53.1616ZM158.353 44.3255H156.446V51.2401H158.353C160.551 51.2401 161.861 49.7989 161.861 47.7609C161.861 45.6356 160.551 44.3255 158.353 44.3255ZM170.598 53.38C166.74 53.38 165.183 50.3084 165.183 47.9211V47.6008C165.183 44.9805 166.813 42.171 170.525 42.171C173.393 42.171 175.256 43.8305 175.518 46.3344H173.436C173.203 44.8786 172.053 44.0926 170.525 44.0926C168.414 44.0926 167.279 45.6356 167.279 47.7755C167.279 49.8717 168.443 51.4584 170.598 51.4584C172.184 51.4584 173.378 50.6287 173.611 49.2167H175.693C175.416 51.5021 173.626 53.38 170.598 53.38Z" fill="#313A4E"/>
<rect x="226.156" y="34.5308" width="99.5692" height="27.1453" rx="13.5727" fill="#F8F6FE"/>
<path d="M239.04 51.6034V44.5582H240.103V50.6883H243.295V51.6034H239.04ZM245.963 51.7204C245.628 51.7204 245.325 51.6584 245.055 51.5346C244.784 51.4085 244.57 51.2261 244.411 50.9876C244.255 50.7491 244.177 50.4567 244.177 50.1104C244.177 49.8123 244.235 49.5669 244.349 49.3742C244.464 49.1816 244.619 49.0291 244.814 48.9167C245.009 48.8043 245.227 48.7195 245.467 48.6621C245.708 48.6048 245.954 48.5612 246.204 48.5314C246.52 48.4947 246.777 48.4649 246.974 48.442C247.171 48.4168 247.315 48.3766 247.404 48.3216C247.494 48.2665 247.538 48.1771 247.538 48.0533V48.0292C247.538 47.7287 247.453 47.496 247.284 47.3308C247.116 47.1657 246.866 47.0832 246.534 47.0832C246.187 47.0832 245.915 47.16 245.715 47.3136C245.518 47.465 245.381 47.6336 245.306 47.8193L244.339 47.5992C244.454 47.2781 244.621 47.019 244.841 46.8217C245.064 46.6222 245.319 46.4777 245.608 46.3883C245.897 46.2965 246.201 46.2507 246.52 46.2507C246.731 46.2507 246.955 46.2759 247.191 46.3264C247.429 46.3745 247.652 46.464 247.858 46.5947C248.067 46.7254 248.238 46.9123 248.371 47.1554C248.504 47.3962 248.57 47.7093 248.57 48.0945V51.6034H247.566V50.881H247.525C247.458 51.014 247.358 51.1447 247.225 51.2731C247.092 51.4016 246.921 51.5082 246.713 51.5931C246.504 51.6779 246.254 51.7204 245.963 51.7204ZM246.186 50.8947C246.471 50.8947 246.714 50.8386 246.916 50.7262C247.12 50.6138 247.275 50.467 247.38 50.2859C247.488 50.1024 247.542 49.9063 247.542 49.6976V49.0165C247.505 49.0532 247.434 49.0876 247.328 49.1197C247.225 49.1495 247.107 49.1759 246.974 49.1988C246.841 49.2194 246.712 49.2389 246.585 49.2573C246.459 49.2733 246.354 49.2871 246.269 49.2986C246.069 49.3238 245.887 49.3662 245.722 49.4258C245.559 49.4855 245.428 49.5715 245.33 49.6838C245.233 49.7939 245.185 49.9407 245.185 50.1242C245.185 50.3787 245.279 50.5714 245.467 50.7021C245.655 50.8305 245.895 50.8947 246.186 50.8947ZM253.9 47.6095L252.968 47.7746C252.929 47.6554 252.867 47.5418 252.782 47.434C252.699 47.3263 252.587 47.238 252.445 47.1692C252.302 47.1004 252.125 47.066 251.911 47.066C251.62 47.066 251.377 47.1313 251.182 47.262C250.987 47.3905 250.89 47.5567 250.89 47.7609C250.89 47.9374 250.955 48.0796 251.086 48.1874C251.217 48.2952 251.428 48.3835 251.719 48.4523L252.558 48.6449C253.044 48.7573 253.407 48.9305 253.645 49.1644C253.884 49.3983 254.003 49.7022 254.003 50.076C254.003 50.3925 253.911 50.6746 253.728 50.9223C253.547 51.1677 253.293 51.3603 252.968 51.5002C252.644 51.6401 252.269 51.71 251.843 51.71C251.251 51.71 250.768 51.5839 250.394 51.3316C250.021 51.0771 249.791 50.7159 249.706 50.248L250.701 50.0967C250.762 50.3558 250.89 50.5519 251.082 50.6849C251.275 50.8156 251.526 50.881 251.836 50.881C252.173 50.881 252.442 50.811 252.644 50.6711C252.846 50.529 252.947 50.3558 252.947 50.1517C252.947 49.9866 252.885 49.8478 252.761 49.7354C252.64 49.6231 252.453 49.5382 252.2 49.4809L251.306 49.2848C250.813 49.1724 250.448 48.9935 250.212 48.7481C249.978 48.5028 249.861 48.192 249.861 47.8159C249.861 47.504 249.948 47.2311 250.123 46.9972C250.297 46.7632 250.538 46.5809 250.845 46.4502C251.152 46.3172 251.504 46.2507 251.901 46.2507C252.472 46.2507 252.922 46.3745 253.25 46.6222C253.578 46.8676 253.794 47.1967 253.9 47.6095ZM257.6 46.3195V47.1451H254.714V46.3195H257.6ZM255.488 45.0535H256.517V50.0519C256.517 50.2515 256.547 50.4017 256.606 50.5026C256.666 50.6012 256.743 50.6688 256.837 50.7055C256.933 50.7399 257.037 50.7571 257.15 50.7571C257.232 50.7571 257.305 50.7514 257.367 50.7399C257.428 50.7285 257.477 50.7193 257.511 50.7124L257.697 51.5621C257.637 51.585 257.552 51.608 257.442 51.6309C257.332 51.6561 257.195 51.6699 257.029 51.6722C256.759 51.6768 256.507 51.6286 256.273 51.5277C256.039 51.4268 255.849 51.2709 255.705 51.0599C255.56 50.8489 255.488 50.584 255.488 50.2652V45.0535ZM263.741 51.6997C263.269 51.6997 262.847 51.6183 262.475 51.4555C262.106 51.2926 261.813 51.0667 261.598 50.7778C261.384 50.4865 261.27 50.1494 261.254 49.7664H262.334C262.348 49.9751 262.418 50.1563 262.544 50.3099C262.672 50.4613 262.84 50.5783 263.046 50.6608C263.252 50.7434 263.482 50.7847 263.734 50.7847C264.012 50.7847 264.257 50.7365 264.47 50.6402C264.686 50.5439 264.854 50.4097 264.976 50.2377C265.097 50.0634 265.158 49.8627 265.158 49.6357C265.158 49.3995 265.097 49.1919 264.976 49.013C264.857 48.8319 264.681 48.6897 264.45 48.5865C264.22 48.4833 263.943 48.4317 263.617 48.4317H263.022V47.5648H263.617C263.879 47.5648 264.108 47.5178 264.305 47.4237C264.505 47.3297 264.661 47.199 264.773 47.0316C264.885 46.8619 264.942 46.6635 264.942 46.4364C264.942 46.2186 264.892 46.0294 264.794 45.8688C264.697 45.706 264.56 45.5787 264.381 45.487C264.204 45.3952 263.995 45.3494 263.755 45.3494C263.525 45.3494 263.311 45.3918 263.111 45.4767C262.914 45.5592 262.754 45.6785 262.63 45.8344C262.506 45.9881 262.439 46.1727 262.43 46.3883H261.402C261.413 46.0076 261.526 45.6727 261.739 45.3838C261.954 45.0948 262.239 44.8689 262.592 44.7061C262.945 44.5433 263.337 44.4618 263.768 44.4618C264.22 44.4618 264.61 44.5501 264.938 44.7267C265.268 44.901 265.523 45.1338 265.702 45.4251C265.883 45.7163 265.972 46.0351 265.97 46.3814C265.972 46.7759 265.862 47.1107 265.64 47.3859C265.42 47.6611 265.126 47.8457 264.759 47.9397V47.9948C265.227 48.0659 265.589 48.2516 265.846 48.5521C266.105 48.8525 266.234 49.2252 266.232 49.6701C266.234 50.0577 266.126 50.4051 265.908 50.7124C265.693 51.0197 265.398 51.2617 265.024 51.4383C264.65 51.6126 264.223 51.6997 263.741 51.6997ZM269.985 51.7204C269.441 51.7181 268.977 51.5747 268.591 51.2903C268.206 51.006 267.911 50.592 267.707 50.0485C267.503 49.505 267.401 48.8502 267.401 48.0842C267.401 47.3205 267.503 46.6681 267.707 46.1268C267.914 45.5856 268.21 45.1728 268.595 44.8884C268.982 44.604 269.446 44.4618 269.985 44.4618C270.524 44.4618 270.986 44.6052 271.371 44.8919C271.756 45.1762 272.051 45.589 272.255 46.1303C272.461 46.6692 272.565 47.3205 272.565 48.0842C272.565 48.8525 272.463 49.5084 272.259 50.0519C272.054 50.5932 271.76 51.0071 271.374 51.2938C270.989 51.5782 270.526 51.7204 269.985 51.7204ZM269.985 50.8019C270.462 50.8019 270.834 50.5691 271.103 50.1035C271.373 49.638 271.509 48.9649 271.509 48.0842C271.509 47.4994 271.447 47.0052 271.323 46.6016C271.201 46.1956 271.026 45.8883 270.796 45.6796C270.569 45.4686 270.299 45.3631 269.985 45.3631C269.51 45.3631 269.137 45.5971 268.867 46.0649C268.596 46.5328 268.46 47.2059 268.457 48.0842C268.457 48.6713 268.518 49.1678 268.64 49.5738C268.763 49.9774 268.939 50.2836 269.166 50.4923C269.393 50.6987 269.666 50.8019 269.985 50.8019ZM278.341 51.7066C277.914 51.7066 277.533 51.5977 277.198 51.3798C276.866 51.1596 276.604 50.8466 276.414 50.4407C276.226 50.0324 276.132 49.5428 276.132 48.9718C276.132 48.4007 276.227 47.9122 276.418 47.5063C276.61 47.1004 276.874 46.7896 277.209 46.574C277.544 46.3585 277.923 46.2507 278.347 46.2507C278.675 46.2507 278.939 46.3057 279.139 46.4158C279.34 46.5236 279.496 46.6497 279.606 46.7942C279.719 46.9387 279.806 47.066 279.868 47.176H279.93V44.5582H280.958V51.6034H279.954V50.7812H279.868C279.806 50.8936 279.717 51.022 279.6 51.1665C279.485 51.311 279.327 51.4371 279.125 51.5449C278.923 51.6527 278.662 51.7066 278.341 51.7066ZM278.568 50.8294C278.863 50.8294 279.113 50.7514 279.317 50.5955C279.524 50.4372 279.68 50.2182 279.785 49.9384C279.893 49.6586 279.947 49.333 279.947 48.9614C279.947 48.5945 279.894 48.2734 279.789 47.9982C279.683 47.723 279.528 47.5086 279.324 47.3549C279.12 47.2013 278.868 47.1244 278.568 47.1244C278.258 47.1244 278 47.2047 277.794 47.3652C277.587 47.5258 277.431 47.7448 277.326 48.0223C277.222 48.2998 277.171 48.6128 277.171 48.9614C277.171 49.3146 277.224 49.6322 277.329 49.9143C277.435 50.1964 277.591 50.42 277.797 50.5851C278.006 50.748 278.263 50.8294 278.568 50.8294ZM283.964 51.7204C283.629 51.7204 283.327 51.6584 283.056 51.5346C282.785 51.4085 282.571 51.2261 282.413 50.9876C282.257 50.7491 282.179 50.4567 282.179 50.1104C282.179 49.8123 282.236 49.5669 282.351 49.3742C282.465 49.1816 282.62 49.0291 282.815 48.9167C283.01 48.8043 283.228 48.7195 283.469 48.6621C283.71 48.6048 283.955 48.5612 284.205 48.5314C284.521 48.4947 284.778 48.4649 284.976 48.442C285.173 48.4168 285.316 48.3766 285.406 48.3216C285.495 48.2665 285.54 48.1771 285.54 48.0533V48.0292C285.54 47.7287 285.455 47.496 285.285 47.3308C285.118 47.1657 284.868 47.0832 284.535 47.0832C284.189 47.0832 283.916 47.16 283.716 47.3136C283.519 47.465 283.383 47.6336 283.307 47.8193L282.34 47.5992C282.455 47.2781 282.623 47.019 282.843 46.8217C283.065 46.6222 283.321 46.4777 283.61 46.3883C283.899 46.2965 284.203 46.2507 284.521 46.2507C284.732 46.2507 284.956 46.2759 285.192 46.3264C285.431 46.3745 285.653 46.464 285.86 46.5947C286.068 46.7254 286.239 46.9123 286.372 47.1554C286.505 47.3962 286.572 47.7093 286.572 48.0945V51.6034H285.567V50.881H285.526C285.459 51.014 285.36 51.1447 285.227 51.2731C285.094 51.4016 284.923 51.5082 284.714 51.5931C284.505 51.6779 284.255 51.7204 283.964 51.7204ZM284.188 50.8947C284.472 50.8947 284.715 50.8386 284.917 50.7262C285.121 50.6138 285.276 50.467 285.381 50.2859C285.489 50.1024 285.543 49.9063 285.543 49.6976V49.0165C285.506 49.0532 285.435 49.0876 285.33 49.1197C285.227 49.1495 285.109 49.1759 284.976 49.1988C284.843 49.2194 284.713 49.2389 284.587 49.2573C284.461 49.2733 284.355 49.2871 284.27 49.2986C284.071 49.3238 283.888 49.3662 283.723 49.4258C283.561 49.4855 283.43 49.5715 283.331 49.6838C283.235 49.7939 283.187 49.9407 283.187 50.1242C283.187 50.3787 283.281 50.5714 283.469 50.7021C283.657 50.8305 283.896 50.8947 284.188 50.8947ZM288.403 53.5849C288.249 53.5849 288.109 53.5723 287.983 53.547C287.857 53.5241 287.763 53.4989 287.701 53.4713L287.949 52.6285C288.137 52.679 288.304 52.7008 288.451 52.6939C288.598 52.687 288.727 52.632 288.84 52.5288C288.954 52.4256 289.055 52.257 289.142 52.0231L289.27 51.6722L287.336 46.3195H288.437L289.775 50.42H289.83L291.168 46.3195H292.273L290.095 52.3086C289.994 52.5838 289.866 52.8166 289.71 53.0069C289.554 53.1996 289.368 53.3441 289.153 53.4404C288.937 53.5367 288.687 53.5849 288.403 53.5849ZM297.199 47.6095L296.267 47.7746C296.228 47.6554 296.166 47.5418 296.081 47.434C295.998 47.3263 295.886 47.238 295.744 47.1692C295.602 47.1004 295.424 47.066 295.211 47.066C294.919 47.066 294.676 47.1313 294.481 47.262C294.286 47.3905 294.189 47.5567 294.189 47.7609C294.189 47.9374 294.254 48.0796 294.385 48.1874C294.516 48.2952 294.727 48.3835 295.018 48.4523L295.857 48.6449C296.343 48.7573 296.706 48.9305 296.944 49.1644C297.183 49.3983 297.302 49.7022 297.302 50.076C297.302 50.3925 297.21 50.6746 297.027 50.9223C296.846 51.1677 296.592 51.3603 296.267 51.5002C295.943 51.6401 295.568 51.71 295.142 51.71C294.55 51.71 294.067 51.5839 293.693 51.3316C293.32 51.0771 293.09 50.7159 293.005 50.248L294 50.0967C294.062 50.3558 294.189 50.5519 294.381 50.6849C294.574 50.8156 294.825 50.881 295.135 50.881C295.472 50.881 295.741 50.811 295.943 50.6711C296.145 50.529 296.246 50.3558 296.246 50.1517C296.246 49.9866 296.184 49.8478 296.06 49.7354C295.939 49.6231 295.752 49.5382 295.5 49.4809L294.605 49.2848C294.112 49.1724 293.747 48.9935 293.511 48.7481C293.277 48.5028 293.16 48.192 293.16 47.8159C293.16 47.504 293.247 47.2311 293.422 46.9972C293.596 46.7632 293.837 46.5809 294.144 46.4502C294.451 46.3172 294.803 46.2507 295.2 46.2507C295.771 46.2507 296.221 46.3745 296.549 46.6222C296.877 46.8676 297.093 47.1967 297.199 47.6095Z" fill="#313A4E"/>
<path d="M313.616 46.2838L309.977 49.923L306.338 46.2838" stroke="#474C58" stroke-width="0.909817" stroke-linecap="round" stroke-linejoin="round"/>
<path d="M158.791 123.33C158.791 116.349 156.981 109.488 153.537 103.416C150.093 97.3442 145.133 92.2693 139.141 88.6869C133.15 85.1046 126.332 83.1374 119.353 82.9773C112.374 82.8172 105.473 84.4698 99.3241 87.7737C93.1749 91.0776 87.9875 95.9198 84.2688 101.827C80.55 107.735 78.4269 114.506 78.1069 121.479C77.7869 128.453 79.2808 135.39 82.4428 141.613C85.6048 147.837 90.3268 153.134 96.1476 156.987L104.787 143.936C101.223 141.577 98.3321 138.334 96.3962 134.524C94.4602 130.714 93.5456 126.466 93.7415 122.197C93.9375 117.928 95.2373 113.782 97.5141 110.165C99.7909 106.548 102.967 103.584 106.732 101.561C110.497 99.538 114.722 98.5262 118.994 98.6242C123.267 98.7222 127.441 99.9267 131.11 102.12C134.778 104.313 137.814 107.42 139.923 111.138C142.032 114.855 143.14 119.056 143.14 123.33H158.791Z" fill="#2B524E"/>
<path d="M96.1484 156.987C102.231 161.013 109.291 163.316 116.578 163.651C123.865 163.985 131.106 162.339 137.532 158.886C143.958 155.434 149.328 150.304 153.072 144.044C156.815 137.783 158.792 130.625 158.792 123.33H143.141C143.141 127.796 141.93 132.179 139.639 136.012C137.347 139.845 134.059 142.985 130.125 145.099C126.19 147.213 121.757 148.221 117.296 148.016C112.834 147.811 108.512 146.401 104.788 143.936L96.1484 156.987Z" fill="#CBF07F"/>
<rect x="191.082" y="99.1376" width="9.09817" height="9.09817" rx="4.54909" fill="#2B524E"/>
<path d="M210.231 98.322H209.486L211.641 92.4509H212.375L214.531 98.322H213.786L212.031 93.3798H211.985L210.231 98.322ZM210.506 96.0286H213.511V96.6593H210.506V96.0286ZM218.403 93.9187L216.774 98.322H216.086L214.458 93.9187H215.192L216.407 97.4275H216.453L217.669 93.9187H218.403ZM220.457 98.4252C220.178 98.4252 219.925 98.3726 219.698 98.2675C219.47 98.1605 219.29 98.0066 219.156 97.806C219.022 97.6034 218.955 97.3587 218.955 97.0721C218.955 96.8198 219.005 96.6153 219.104 96.4586C219.204 96.3 219.336 96.1757 219.503 96.0859C219.669 95.9961 219.852 95.9292 220.053 95.8853C220.256 95.8394 220.459 95.8031 220.664 95.7763C220.931 95.7419 221.148 95.7161 221.314 95.6989C221.483 95.6798 221.605 95.6483 221.681 95.6043C221.76 95.5604 221.799 95.4839 221.799 95.375V95.352C221.799 95.0692 221.722 94.8494 221.567 94.6927C221.414 94.536 221.182 94.4576 220.87 94.4576C220.547 94.4576 220.294 94.5283 220.11 94.6698C219.927 94.8112 219.798 94.9622 219.723 95.1227L219.081 94.8934C219.196 94.6258 219.349 94.4175 219.54 94.2684C219.733 94.1175 219.943 94.0123 220.171 93.9531C220.4 93.8919 220.625 93.8614 220.847 93.8614C220.989 93.8614 221.151 93.8786 221.335 93.913C221.52 93.9454 221.699 94.0133 221.871 94.1165C222.045 94.2197 222.189 94.3755 222.303 94.5838C222.418 94.7921 222.475 95.0711 222.475 95.4208V98.322H221.799V97.7257H221.765C221.719 97.8212 221.642 97.9235 221.535 98.0324C221.428 98.1414 221.286 98.234 221.108 98.3105C220.93 98.3869 220.713 98.4252 220.457 98.4252ZM220.561 97.8174C220.828 97.8174 221.054 97.7649 221.237 97.6598C221.422 97.5546 221.562 97.4189 221.656 97.2527C221.751 97.0864 221.799 96.9115 221.799 96.7281V96.1089C221.77 96.1433 221.707 96.1748 221.61 96.2035C221.514 96.2302 221.403 96.2541 221.277 96.2751C221.153 96.2942 221.032 96.3114 220.913 96.3267C220.797 96.3401 220.702 96.3516 220.629 96.3611C220.453 96.3841 220.289 96.4213 220.136 96.4729C219.985 96.5226 219.863 96.5981 219.769 96.6994C219.678 96.7988 219.632 96.9345 219.632 97.1065C219.632 97.3415 219.719 97.5193 219.893 97.6397C220.068 97.7582 220.291 97.8174 220.561 97.8174ZM223.71 98.322V93.9187H224.387V98.322H223.71ZM224.054 93.1848C223.922 93.1848 223.809 93.1399 223.713 93.0501C223.62 92.9603 223.573 92.8523 223.573 92.7261C223.573 92.6 223.62 92.492 223.713 92.4022C223.809 92.3124 223.922 92.2675 224.054 92.2675C224.186 92.2675 224.299 92.3124 224.393 92.4022C224.488 92.492 224.536 92.6 224.536 92.7261C224.536 92.8523 224.488 92.9603 224.393 93.0501C224.299 93.1399 224.186 93.1848 224.054 93.1848ZM226.303 92.4509V98.322H225.626V92.4509H226.303ZM228.837 98.4252C228.558 98.4252 228.305 98.3726 228.078 98.2675C227.85 98.1605 227.67 98.0066 227.536 97.806C227.402 97.6034 227.335 97.3587 227.335 97.0721C227.335 96.8198 227.385 96.6153 227.484 96.4586C227.584 96.3 227.717 96.1757 227.883 96.0859C228.049 95.9961 228.233 95.9292 228.433 95.8853C228.636 95.8394 228.839 95.8031 229.044 95.7763C229.311 95.7419 229.528 95.7161 229.695 95.6989C229.863 95.6798 229.985 95.6483 230.062 95.6043C230.14 95.5604 230.179 95.4839 230.179 95.375V95.352C230.179 95.0692 230.102 94.8494 229.947 94.6927C229.794 94.536 229.562 94.4576 229.25 94.4576C228.927 94.4576 228.674 94.5283 228.491 94.6698C228.307 94.8112 228.178 94.9622 228.104 95.1227L227.461 94.8934C227.576 94.6258 227.729 94.4175 227.92 94.2684C228.113 94.1175 228.323 94.0123 228.551 93.9531C228.78 93.8919 229.006 93.8614 229.227 93.8614C229.369 93.8614 229.531 93.8786 229.715 93.913C229.9 93.9454 230.079 94.0133 230.251 94.1165C230.425 94.2197 230.569 94.3755 230.684 94.5838C230.798 94.7921 230.856 95.0711 230.856 95.4208V98.322H230.179V97.7257H230.145C230.099 97.8212 230.022 97.9235 229.915 98.0324C229.808 98.1414 229.666 98.234 229.488 98.3105C229.31 98.3869 229.094 98.4252 228.837 98.4252ZM228.941 97.8174C229.208 97.8174 229.434 97.7649 229.617 97.6598C229.803 97.5546 229.942 97.4189 230.036 97.2527C230.131 97.0864 230.179 96.9115 230.179 96.7281V96.1089C230.15 96.1433 230.087 96.1748 229.99 96.2035C229.894 96.2302 229.783 96.2541 229.657 96.2751C229.533 96.2942 229.412 96.3114 229.293 96.3267C229.177 96.3401 229.082 96.3516 229.009 96.3611C228.834 96.3841 228.669 96.4213 228.516 96.4729C228.365 96.5226 228.243 96.5981 228.149 96.6994C228.058 96.7988 228.012 96.9345 228.012 97.1065C228.012 97.3415 228.099 97.5193 228.273 97.6397C228.449 97.7582 228.671 97.8174 228.941 97.8174ZM232.182 98.322V92.4509H232.859V94.6182H232.916C232.966 94.5417 233.035 94.4443 233.122 94.3258C233.212 94.2054 233.34 94.0983 233.507 94.0047C233.675 93.9091 233.902 93.8614 234.189 93.8614C234.56 93.8614 234.886 93.954 235.169 94.1394C235.452 94.3248 235.673 94.5876 235.831 94.9278C235.99 95.268 236.069 95.6693 236.069 96.1318C236.069 96.5981 235.99 97.0023 235.831 97.3444C235.673 97.6846 235.453 97.9483 235.172 98.1356C234.891 98.321 234.567 98.4137 234.2 98.4137C233.917 98.4137 233.691 98.3669 233.521 98.2732C233.351 98.1777 233.22 98.0697 233.128 97.9493C233.036 97.827 232.966 97.7257 232.916 97.6454H232.836V98.322H232.182ZM232.847 96.1203C232.847 96.4529 232.896 96.7462 232.993 97.0004C233.091 97.2527 233.233 97.4505 233.421 97.5938C233.608 97.7352 233.837 97.806 234.109 97.806C234.391 97.806 234.627 97.7314 234.817 97.5823C235.008 97.4314 235.151 97.2288 235.247 96.9746C235.344 96.7185 235.393 96.4338 235.393 96.1203C235.393 95.8107 235.345 95.5317 235.25 95.2832C235.156 95.0329 235.014 94.8351 234.822 94.6898C234.633 94.5427 234.395 94.4691 234.109 94.4691C233.833 94.4691 233.602 94.5389 233.415 94.6784C233.228 94.816 233.086 95.009 232.991 95.2574C232.895 95.504 232.847 95.7916 232.847 96.1203ZM237.781 92.4509V98.322H237.104V92.4509H237.781ZM240.866 98.4137C240.442 98.4137 240.076 98.32 239.768 98.1328C239.462 97.9436 239.226 97.6798 239.06 97.3415C238.896 97.0014 238.814 96.6058 238.814 96.1547C238.814 95.7037 238.896 95.3062 239.06 94.9622C239.226 94.6163 239.458 94.3468 239.754 94.1538C240.052 93.9588 240.4 93.8614 240.797 93.8614C241.027 93.8614 241.253 93.8996 241.477 93.976C241.7 94.0525 241.904 94.1767 242.087 94.3487C242.271 94.5188 242.417 94.7443 242.526 95.0252C242.635 95.3062 242.689 95.6521 242.689 96.063V96.3497H239.295V95.7649H242.001C242.001 95.5164 241.952 95.2947 241.852 95.0998C241.755 94.9048 241.615 94.751 241.434 94.6382C241.254 94.5255 241.042 94.4691 240.797 94.4691C240.528 94.4691 240.295 94.536 240.098 94.6698C239.903 94.8016 239.753 94.9736 239.648 95.1858C239.543 95.3979 239.49 95.6253 239.49 95.8681V96.2579C239.49 96.5905 239.547 96.8724 239.662 97.1036C239.779 97.3329 239.94 97.5078 240.147 97.6282C240.353 97.7467 240.593 97.806 240.866 97.806C241.044 97.806 241.204 97.7811 241.348 97.7314C241.493 97.6798 241.618 97.6034 241.723 97.5021C241.828 97.3989 241.91 97.2708 241.967 97.1179L242.621 97.3014C242.552 97.5231 242.436 97.718 242.274 97.8862C242.111 98.0525 241.911 98.1824 241.672 98.2761C241.433 98.3678 241.164 98.4137 240.866 98.4137ZM247.904 93.9187V94.492H245.622V93.9187H247.904ZM246.287 92.8637H246.964V97.0606C246.964 97.2517 246.991 97.3951 247.047 97.4906C247.104 97.5843 247.177 97.6473 247.265 97.6798C247.354 97.7104 247.449 97.7257 247.548 97.7257C247.623 97.7257 247.684 97.7219 247.732 97.7142C247.78 97.7047 247.818 97.697 247.847 97.6913L247.984 98.299C247.938 98.3162 247.874 98.3334 247.792 98.3506C247.71 98.3697 247.606 98.3793 247.48 98.3793C247.289 98.3793 247.101 98.3382 246.918 98.256C246.736 98.1738 246.585 98.0487 246.465 97.8805C246.346 97.7123 246.287 97.5002 246.287 97.2441V92.8637ZM250.663 98.4137C250.266 98.4137 249.917 98.3191 249.617 98.1299C249.319 97.9407 249.085 97.676 248.917 97.3358C248.751 96.9956 248.668 96.5981 248.668 96.1433C248.668 95.6846 248.751 95.2842 248.917 94.9421C249.085 94.6 249.319 94.3344 249.617 94.1452C249.917 93.956 250.266 93.8614 250.663 93.8614C251.061 93.8614 251.408 93.956 251.707 94.1452C252.007 94.3344 252.24 94.6 252.406 94.9421C252.574 95.2842 252.658 95.6846 252.658 96.1433C252.658 96.5981 252.574 96.9956 252.406 97.3358C252.24 97.676 252.007 97.9407 251.707 98.1299C251.408 98.3191 251.061 98.4137 250.663 98.4137ZM250.663 97.806C250.965 97.806 251.214 97.7286 251.408 97.5737C251.603 97.4189 251.748 97.2154 251.841 96.9631C251.935 96.7109 251.982 96.4376 251.982 96.1433C251.982 95.8489 251.935 95.5747 251.841 95.3205C251.748 95.0663 251.603 94.8609 251.408 94.7042C251.214 94.5475 250.965 94.4691 250.663 94.4691C250.361 94.4691 250.113 94.5475 249.918 94.7042C249.723 94.8609 249.579 95.0663 249.485 95.3205C249.391 95.5747 249.344 95.8489 249.344 96.1433C249.344 96.4376 249.391 96.7109 249.485 96.9631C249.579 97.2154 249.723 97.4189 249.918 97.5737C250.113 97.7286 250.361 97.806 250.663 97.806ZM255.962 99.9732V93.9187H256.615V94.6182H256.695C256.745 94.5417 256.814 94.4443 256.902 94.3258C256.992 94.2054 257.12 94.0983 257.286 94.0047C257.454 93.9091 257.682 93.8614 257.968 93.8614C258.339 93.8614 258.666 93.954 258.949 94.1394C259.231 94.3248 259.452 94.5876 259.611 94.9278C259.769 95.268 259.849 95.6693 259.849 96.1318C259.849 96.5981 259.769 97.0023 259.611 97.3444C259.452 97.6846 259.232 97.9483 258.952 98.1356C258.671 98.321 258.347 98.4137 257.98 98.4137C257.697 98.4137 257.47 98.3669 257.3 98.2732C257.13 98.1777 256.999 98.0697 256.908 97.9493C256.816 97.827 256.745 97.7257 256.695 97.6454H256.638V99.9732H255.962ZM256.627 96.1203C256.627 96.4529 256.675 96.7462 256.773 97.0004C256.87 97.2527 257.013 97.4505 257.2 97.5938C257.387 97.7352 257.617 97.806 257.888 97.806C258.171 97.806 258.407 97.7314 258.596 97.5823C258.787 97.4314 258.93 97.2288 259.026 96.9746C259.124 96.7185 259.172 96.4338 259.172 96.1203C259.172 95.8107 259.124 95.5317 259.029 95.2832C258.935 95.0329 258.793 94.8351 258.602 94.6898C258.413 94.5427 258.175 94.4691 257.888 94.4691C257.613 94.4691 257.382 94.5389 257.194 94.6784C257.007 94.816 256.865 95.009 256.77 95.2574C256.674 95.504 256.627 95.7916 256.627 96.1203ZM263.656 96.5217V93.9187H264.332V98.322H263.656V97.5766H263.61C263.507 97.8002 263.346 97.9904 263.128 98.1471C262.91 98.3019 262.635 98.3793 262.303 98.3793C262.027 98.3793 261.783 98.3191 261.569 98.1987C261.355 98.0764 261.187 97.8929 261.064 97.6483C260.942 97.4017 260.881 97.0912 260.881 96.7166V93.9187H261.557V96.6707C261.557 96.9918 261.647 97.2479 261.827 97.439C262.008 97.6301 262.24 97.7257 262.521 97.7257C262.689 97.7257 262.86 97.6827 263.034 97.5967C263.21 97.5107 263.357 97.3788 263.475 97.2011C263.596 97.0233 263.656 96.7969 263.656 96.5217ZM265.571 98.322V93.9187H266.225V94.5838H266.271C266.351 94.3659 266.496 94.1891 266.707 94.0534C266.917 93.9177 267.154 93.8499 267.418 93.8499C267.467 93.8499 267.529 93.8508 267.604 93.8528C267.678 93.8547 267.735 93.8575 267.773 93.8614V94.5494C267.75 94.5436 267.698 94.535 267.615 94.5236C267.535 94.5102 267.45 94.5035 267.36 94.5035C267.146 94.5035 266.955 94.5484 266.787 94.6382C266.621 94.7261 266.489 94.8485 266.391 95.0052C266.296 95.16 266.248 95.3368 266.248 95.5355V98.322H265.571ZM270.23 98.4137C269.817 98.4137 269.462 98.3162 269.163 98.1213C268.865 97.9264 268.636 97.6578 268.475 97.3157C268.315 96.9737 268.235 96.5828 268.235 96.1433C268.235 95.6961 268.317 95.3014 268.481 94.9593C268.647 94.6153 268.879 94.3468 269.175 94.1538C269.473 93.9588 269.821 93.8614 270.218 93.8614C270.528 93.8614 270.807 93.9187 271.055 94.0334C271.304 94.148 271.507 94.3086 271.666 94.515C271.825 94.7214 271.923 94.9622 271.961 95.2374H271.285C271.233 95.0367 271.119 94.859 270.941 94.7042C270.765 94.5475 270.528 94.4691 270.23 94.4691C269.966 94.4691 269.735 94.5379 269.536 94.6755C269.339 94.8112 269.185 95.0033 269.075 95.2517C268.966 95.4983 268.911 95.7878 268.911 96.1203C268.911 96.4605 268.965 96.7567 269.072 97.009C269.181 97.2613 269.334 97.4572 269.53 97.5967C269.729 97.7362 269.962 97.806 270.23 97.806C270.406 97.806 270.565 97.7754 270.709 97.7142C270.852 97.6531 270.973 97.5651 271.073 97.4505C271.172 97.3358 271.243 97.1982 271.285 97.0377H271.961C271.923 97.2976 271.829 97.5317 271.678 97.74C271.528 97.9464 271.331 98.1108 271.084 98.2331C270.84 98.3535 270.555 98.4137 270.23 98.4137ZM273.627 95.6731V98.322H272.95V92.4509H273.627V94.6067H273.684C273.787 94.3793 273.942 94.1987 274.149 94.0649C274.357 93.9292 274.634 93.8614 274.98 93.8614C275.28 93.8614 275.543 93.9216 275.768 94.042C275.994 94.1605 276.169 94.343 276.293 94.5895C276.419 94.8341 276.482 95.1456 276.482 95.5241V98.322H275.806V95.5699C275.806 95.2202 275.715 94.9498 275.533 94.7586C275.354 94.5656 275.104 94.4691 274.785 94.4691C274.563 94.4691 274.365 94.5159 274.189 94.6096C274.015 94.7032 273.877 94.8399 273.776 95.0195C273.677 95.1992 273.627 95.417 273.627 95.6731ZM279.016 98.4252C278.737 98.4252 278.483 98.3726 278.256 98.2675C278.029 98.1605 277.848 98.0066 277.714 97.806C277.58 97.6034 277.513 97.3587 277.513 97.0721C277.513 96.8198 277.563 96.6153 277.663 96.4586C277.762 96.3 277.895 96.1757 278.061 96.0859C278.227 95.9961 278.411 95.9292 278.611 95.8853C278.814 95.8394 279.018 95.8031 279.222 95.7763C279.49 95.7419 279.706 95.7161 279.873 95.6989C280.041 95.6798 280.163 95.6483 280.24 95.6043C280.318 95.5604 280.357 95.4839 280.357 95.375V95.352C280.357 95.0692 280.28 94.8494 280.125 94.6927C279.972 94.536 279.74 94.4576 279.428 94.4576C279.105 94.4576 278.852 94.5283 278.669 94.6698C278.485 94.8112 278.356 94.9622 278.282 95.1227L277.64 94.8934C277.754 94.6258 277.907 94.4175 278.098 94.2684C278.291 94.1175 278.502 94.0123 278.729 93.9531C278.958 93.8919 279.184 93.8614 279.405 93.8614C279.547 93.8614 279.709 93.8786 279.893 93.913C280.078 93.9454 280.257 94.0133 280.429 94.1165C280.603 94.2197 280.747 94.3755 280.862 94.5838C280.976 94.7921 281.034 95.0711 281.034 95.4208V98.322H280.357V97.7257H280.323C280.277 97.8212 280.201 97.9235 280.093 98.0324C279.986 98.1414 279.844 98.234 279.666 98.3105C279.489 98.3869 279.272 98.4252 279.016 98.4252ZM279.119 97.8174C279.386 97.8174 279.612 97.7649 279.795 97.6598C279.981 97.5546 280.12 97.4189 280.214 97.2527C280.309 97.0864 280.357 96.9115 280.357 96.7281V96.1089C280.329 96.1433 280.265 96.1748 280.168 96.2035C280.072 96.2302 279.962 96.2541 279.835 96.2751C279.711 96.2942 279.59 96.3114 279.471 96.3267C279.355 96.3401 279.26 96.3516 279.188 96.3611C279.012 96.3841 278.847 96.4213 278.695 96.4729C278.544 96.5226 278.421 96.5981 278.328 96.6994C278.236 96.7988 278.19 96.9345 278.19 97.1065C278.19 97.3415 278.277 97.5193 278.451 97.6397C278.627 97.7582 278.849 97.8174 279.119 97.8174ZM285.388 94.9048L284.78 95.0768C284.742 94.9756 284.685 94.8771 284.611 94.7816C284.538 94.6841 284.439 94.6038 284.313 94.5408C284.186 94.4777 284.025 94.4462 283.828 94.4462C283.559 94.4462 283.334 94.5083 283.154 94.6325C282.977 94.7548 282.888 94.9106 282.888 95.0998C282.888 95.268 282.949 95.4008 283.071 95.4983C283.194 95.5957 283.385 95.6769 283.645 95.7419L284.298 95.9025C284.692 95.998 284.985 96.1442 285.178 96.3411C285.371 96.536 285.468 96.7873 285.468 97.095C285.468 97.3473 285.395 97.5728 285.25 97.7716C285.107 97.9703 284.906 98.127 284.648 98.2417C284.39 98.3564 284.09 98.4137 283.748 98.4137C283.299 98.4137 282.927 98.3162 282.633 98.1213C282.338 97.9264 282.152 97.6416 282.074 97.267L282.716 97.1065C282.777 97.3435 282.893 97.5212 283.063 97.6397C283.235 97.7582 283.459 97.8174 283.736 97.8174C284.052 97.8174 284.302 97.7505 284.487 97.6167C284.675 97.4811 284.768 97.3186 284.768 97.1294C284.768 96.9765 284.715 96.8485 284.608 96.7453C284.501 96.6402 284.336 96.5618 284.115 96.5102L283.381 96.3382C282.978 96.2426 282.681 96.0945 282.492 95.8939C282.305 95.6913 282.211 95.438 282.211 95.1342C282.211 94.8857 282.281 94.6659 282.421 94.4748C282.562 94.2837 282.754 94.1337 282.997 94.0248C283.241 93.9158 283.518 93.8614 283.828 93.8614C284.264 93.8614 284.606 93.9569 284.854 94.148C285.105 94.3391 285.282 94.5914 285.388 94.9048ZM288.332 98.4137C287.908 98.4137 287.542 98.32 287.234 98.1328C286.929 97.9436 286.693 97.6798 286.526 97.3415C286.362 97.0014 286.28 96.6058 286.28 96.1547C286.28 95.7037 286.362 95.3062 286.526 94.9622C286.693 94.6163 286.924 94.3468 287.22 94.1538C287.518 93.9588 287.866 93.8614 288.264 93.8614C288.493 93.8614 288.719 93.8996 288.943 93.976C289.167 94.0525 289.37 94.1767 289.554 94.3487C289.737 94.5188 289.883 94.7443 289.992 95.0252C290.101 95.3062 290.156 95.6521 290.156 96.063V96.3497H286.761V95.7649H289.468C289.468 95.5164 289.418 95.2947 289.319 95.0998C289.221 94.9048 289.082 94.751 288.9 94.6382C288.72 94.5255 288.508 94.4691 288.264 94.4691C287.994 94.4691 287.761 94.536 287.564 94.6698C287.369 94.8016 287.219 94.9736 287.114 95.1858C287.009 95.3979 286.956 95.6253 286.956 95.8681V96.2579C286.956 96.5905 287.014 96.8724 287.128 97.1036C287.245 97.3329 287.406 97.5078 287.613 97.6282C287.819 97.7467 288.059 97.806 288.332 97.806C288.51 97.806 288.671 97.7811 288.814 97.7314C288.959 97.6798 289.084 97.6034 289.19 97.5021C289.295 97.3989 289.376 97.2708 289.433 97.1179L290.087 97.3014C290.018 97.5231 289.902 97.718 289.74 97.8862C289.578 98.0525 289.377 98.1824 289.138 98.2761C288.899 98.3678 288.631 98.4137 288.332 98.4137Z" fill="#868FA0"/>
<path d="M217.723 108.834V109.637H209.536V108.834H217.723ZM217.723 110.568V111.37H209.536V110.568H217.723ZM216.889 105.832V114.051H215.925L211.447 107.598H211.366V114.051H210.371V105.832H211.334L215.829 112.302H215.909V105.832H216.889ZM222.05 105.832V114.051H220.561V107.281H220.513L218.59 108.509V107.144L220.633 105.832H222.05ZM225.406 112.928L225.354 113.369C225.316 113.706 225.25 114.049 225.153 114.397C225.06 114.747 224.961 115.069 224.856 115.364C224.752 115.658 224.668 115.89 224.603 116.058H223.624C223.662 115.895 223.712 115.673 223.777 115.392C223.844 115.111 223.908 114.795 223.969 114.445C224.031 114.094 224.072 113.738 224.094 113.377L224.122 112.928H225.406ZM229.75 105.72C230.143 105.722 230.526 105.792 230.897 105.928C231.272 106.062 231.609 106.281 231.909 106.586C232.208 106.889 232.447 107.294 232.623 107.803C232.8 108.311 232.888 108.94 232.888 109.689C232.891 110.395 232.816 111.027 232.663 111.583C232.514 112.137 232.298 112.605 232.017 112.988C231.736 113.37 231.398 113.662 231.002 113.863C230.606 114.063 230.16 114.164 229.665 114.164C229.146 114.164 228.686 114.062 228.285 113.859C227.886 113.655 227.564 113.377 227.317 113.024C227.071 112.671 226.92 112.267 226.864 111.812H228.329C228.404 112.138 228.556 112.398 228.786 112.591C229.019 112.78 229.312 112.875 229.665 112.875C230.235 112.875 230.674 112.628 230.982 112.133C231.289 111.638 231.443 110.95 231.443 110.07H231.387C231.256 110.306 231.086 110.509 230.877 110.68C230.669 110.849 230.432 110.978 230.167 111.069C229.905 111.16 229.627 111.206 229.332 111.206C228.851 111.206 228.417 111.091 228.032 110.861C227.649 110.631 227.346 110.315 227.121 109.914C226.899 109.512 226.786 109.053 226.784 108.537C226.784 108.002 226.907 107.522 227.153 107.096C227.402 106.668 227.748 106.331 228.192 106.085C228.637 105.836 229.156 105.714 229.75 105.72ZM229.754 106.924C229.465 106.924 229.204 106.995 228.971 107.136C228.741 107.275 228.559 107.465 228.425 107.706C228.294 107.944 228.229 108.211 228.229 108.505C228.231 108.797 228.297 109.061 228.425 109.3C228.556 109.538 228.734 109.726 228.959 109.865C229.186 110.005 229.446 110.074 229.738 110.074C229.954 110.074 230.156 110.033 230.344 109.95C230.531 109.867 230.694 109.752 230.833 109.605C230.975 109.455 231.085 109.285 231.162 109.095C231.243 108.905 231.281 108.704 231.279 108.493C231.279 108.212 231.212 107.952 231.078 107.714C230.947 107.476 230.766 107.285 230.536 107.14C230.309 106.996 230.048 106.924 229.754 106.924ZM237.146 114.164C236.55 114.164 236.02 114.063 235.557 113.863C235.097 113.662 234.736 113.388 234.473 113.04C234.214 112.69 234.085 112.292 234.088 111.848C234.085 111.503 234.16 111.186 234.313 110.897C234.465 110.608 234.671 110.367 234.931 110.174C235.193 109.979 235.485 109.855 235.806 109.801V109.745C235.383 109.651 235.041 109.436 234.778 109.099C234.519 108.759 234.39 108.367 234.393 107.923C234.39 107.5 234.508 107.123 234.746 106.791C234.984 106.459 235.311 106.199 235.726 106.009C236.14 105.816 236.614 105.72 237.146 105.72C237.673 105.72 238.143 105.816 238.555 106.009C238.97 106.199 239.296 106.459 239.534 106.791C239.775 107.123 239.895 107.5 239.895 107.923C239.895 108.367 239.763 108.759 239.498 109.099C239.236 109.436 238.897 109.651 238.483 109.745V109.801C238.804 109.855 239.093 109.979 239.35 110.174C239.609 110.367 239.815 110.608 239.968 110.897C240.123 111.186 240.2 111.503 240.2 111.848C240.2 112.292 240.069 112.69 239.807 113.04C239.545 113.388 239.184 113.662 238.724 113.863C238.266 114.063 237.74 114.164 237.146 114.164ZM237.146 113.016C237.454 113.016 237.722 112.964 237.949 112.859C238.176 112.752 238.353 112.603 238.479 112.41C238.605 112.217 238.669 111.995 238.671 111.744C238.669 111.481 238.6 111.25 238.467 111.049C238.336 110.846 238.155 110.687 237.925 110.572C237.697 110.457 237.438 110.399 237.146 110.399C236.852 110.399 236.59 110.457 236.36 110.572C236.13 110.687 235.948 110.846 235.814 111.049C235.683 111.25 235.619 111.481 235.621 111.744C235.619 111.995 235.68 112.217 235.806 112.41C235.932 112.6 236.108 112.748 236.336 112.855C236.566 112.962 236.836 113.016 237.146 113.016ZM237.146 109.271C237.398 109.271 237.62 109.221 237.813 109.119C238.008 109.017 238.162 108.875 238.274 108.694C238.386 108.512 238.444 108.302 238.447 108.063C238.444 107.828 238.388 107.622 238.278 107.445C238.168 107.266 238.016 107.128 237.821 107.032C237.625 106.933 237.4 106.883 237.146 106.883C236.887 106.883 236.658 106.933 236.46 107.032C236.265 107.128 236.112 107.266 236.002 107.445C235.895 107.622 235.843 107.828 235.846 108.063C235.843 108.302 235.897 108.512 236.006 108.694C236.119 108.873 236.273 109.015 236.468 109.119C236.666 109.221 236.892 109.271 237.146 109.271ZM244.558 114.208C243.897 114.208 243.33 114.041 242.856 113.706C242.385 113.369 242.023 112.883 241.769 112.249C241.517 111.613 241.391 110.846 241.391 109.95C241.394 109.053 241.521 108.291 241.773 107.662C242.027 107.031 242.389 106.549 242.86 106.217C243.334 105.885 243.9 105.72 244.558 105.72C245.216 105.72 245.782 105.885 246.256 106.217C246.729 106.549 247.092 107.031 247.343 107.662C247.598 108.294 247.725 109.056 247.725 109.95C247.725 110.849 247.598 111.617 247.343 112.253C247.092 112.888 246.729 113.372 246.256 113.706C245.785 114.041 245.219 114.208 244.558 114.208ZM244.558 112.952C245.072 112.952 245.477 112.699 245.774 112.193C246.074 111.685 246.224 110.937 246.224 109.95C246.224 109.297 246.155 108.748 246.019 108.304C245.882 107.86 245.69 107.526 245.441 107.301C245.192 107.073 244.898 106.96 244.558 106.96C244.047 106.96 243.643 107.214 243.346 107.722C243.049 108.228 242.899 108.97 242.896 109.95C242.894 110.605 242.959 111.156 243.093 111.603C243.23 112.05 243.422 112.387 243.671 112.615C243.92 112.839 244.216 112.952 244.558 112.952ZM250.46 112.928L250.408 113.369C250.37 113.706 250.303 114.049 250.207 114.397C250.113 114.747 250.014 115.069 249.91 115.364C249.806 115.658 249.721 115.89 249.657 116.058H248.678C248.715 115.895 248.766 115.673 248.83 115.392C248.897 115.111 248.961 114.795 249.023 114.445C249.084 114.094 249.126 113.738 249.147 113.377L249.175 112.928H250.46ZM254.684 114.164C254.087 114.164 253.557 114.063 253.095 113.863C252.634 113.662 252.273 113.388 252.011 113.04C251.751 112.69 251.623 112.292 251.626 111.848C251.623 111.503 251.698 111.186 251.85 110.897C252.003 110.608 252.209 110.367 252.468 110.174C252.731 109.979 253.022 109.855 253.343 109.801V109.745C252.921 109.651 252.578 109.436 252.316 109.099C252.056 108.759 251.928 108.367 251.931 107.923C251.928 107.5 252.046 107.123 252.284 106.791C252.522 106.459 252.848 106.199 253.263 106.009C253.678 105.816 254.151 105.72 254.684 105.72C255.211 105.72 255.68 105.816 256.093 106.009C256.507 106.199 256.834 106.459 257.072 106.791C257.313 107.123 257.433 107.5 257.433 107.923C257.433 108.367 257.301 108.759 257.036 109.099C256.773 109.436 256.435 109.651 256.02 109.745V109.801C256.341 109.855 256.63 109.979 256.887 110.174C257.147 110.367 257.353 110.608 257.505 110.897C257.66 111.186 257.738 111.503 257.738 111.848C257.738 112.292 257.607 112.69 257.345 113.04C257.083 113.388 256.721 113.662 256.261 113.863C255.804 114.063 255.278 114.164 254.684 114.164ZM254.684 113.016C254.992 113.016 255.259 112.964 255.487 112.859C255.714 112.752 255.891 112.603 256.016 112.41C256.142 112.217 256.206 111.995 256.209 111.744C256.206 111.481 256.138 111.25 256.004 111.049C255.873 110.846 255.693 110.687 255.462 110.572C255.235 110.457 254.975 110.399 254.684 110.399C254.39 110.399 254.127 110.457 253.897 110.572C253.667 110.687 253.485 110.846 253.351 111.049C253.22 111.25 253.156 111.481 253.159 111.744C253.156 111.995 253.218 112.217 253.343 112.41C253.469 112.6 253.646 112.748 253.873 112.855C254.103 112.962 254.373 113.016 254.684 113.016ZM254.684 109.271C254.935 109.271 255.157 109.221 255.35 109.119C255.545 109.017 255.699 108.875 255.812 108.694C255.924 108.512 255.982 108.302 255.984 108.063C255.982 107.828 255.925 107.622 255.816 107.445C255.706 107.266 255.553 107.128 255.358 107.032C255.163 106.933 254.938 106.883 254.684 106.883C254.424 106.883 254.196 106.933 253.998 107.032C253.802 107.128 253.65 107.266 253.54 107.445C253.433 107.622 253.381 107.828 253.383 108.063C253.381 108.302 253.434 108.512 253.544 108.694C253.656 108.873 253.81 109.015 254.006 109.119C254.204 109.221 254.43 109.271 254.684 109.271ZM259.358 114.051L262.854 107.132V107.076H258.797V105.832H264.395V107.104L260.904 114.051H259.358ZM268.524 114.164C268.131 114.161 267.747 114.093 267.372 113.959C266.998 113.823 266.66 113.602 266.361 113.297C266.061 112.989 265.823 112.581 265.646 112.073C265.47 111.562 265.383 110.929 265.386 110.174C265.386 109.471 265.46 108.843 265.61 108.292C265.76 107.741 265.976 107.275 266.256 106.896C266.537 106.513 266.876 106.221 267.272 106.021C267.671 105.82 268.116 105.72 268.608 105.72C269.125 105.72 269.582 105.821 269.981 106.025C270.382 106.228 270.706 106.506 270.952 106.859C271.198 107.21 271.351 107.606 271.41 108.047H269.945C269.87 107.732 269.716 107.48 269.483 107.293C269.253 107.103 268.961 107.008 268.608 107.008C268.038 107.008 267.6 107.255 267.292 107.75C266.987 108.245 266.833 108.925 266.83 109.789H266.887C267.018 109.554 267.188 109.352 267.396 109.183C267.605 109.015 267.84 108.885 268.103 108.794C268.368 108.7 268.647 108.653 268.941 108.653C269.423 108.653 269.855 108.768 270.238 108.999C270.623 109.229 270.928 109.546 271.153 109.95C271.378 110.351 271.489 110.811 271.486 111.33C271.489 111.871 271.366 112.356 271.117 112.787C270.868 113.215 270.521 113.552 270.077 113.799C269.633 114.045 269.115 114.166 268.524 114.164ZM268.516 112.96C268.808 112.96 269.069 112.889 269.299 112.747C269.529 112.605 269.711 112.414 269.844 112.173C269.978 111.932 270.044 111.662 270.041 111.362C270.044 111.068 269.98 110.802 269.848 110.564C269.72 110.326 269.542 110.137 269.315 109.998C269.087 109.859 268.828 109.789 268.536 109.789C268.319 109.789 268.117 109.831 267.93 109.914C267.743 109.997 267.58 110.112 267.44 110.259C267.301 110.403 267.192 110.572 267.111 110.764C267.034 110.954 266.994 111.158 266.991 111.374C266.994 111.661 267.06 111.924 267.192 112.165C267.323 112.406 267.503 112.599 267.733 112.743C267.963 112.888 268.224 112.96 268.516 112.96ZM273.4 114.14C273.157 114.14 272.948 114.054 272.774 113.883C272.6 113.712 272.515 113.503 272.517 113.257C272.515 113.016 272.6 112.81 272.774 112.639C272.948 112.467 273.157 112.382 273.4 112.382C273.636 112.382 273.84 112.467 274.014 112.639C274.191 112.81 274.281 113.016 274.283 113.257C274.281 113.42 274.238 113.568 274.155 113.702C274.075 113.836 273.968 113.943 273.834 114.023C273.703 114.101 273.558 114.14 273.4 114.14ZM278.485 114.208C277.824 114.208 277.257 114.041 276.784 113.706C276.313 113.369 275.95 112.883 275.696 112.249C275.444 111.613 275.319 110.846 275.319 109.95C275.321 109.053 275.448 108.291 275.7 107.662C275.954 107.031 276.317 106.549 276.788 106.217C277.261 105.885 277.827 105.72 278.485 105.72C279.143 105.72 279.709 105.885 280.183 106.217C280.657 106.549 281.019 107.031 281.271 107.662C281.525 108.294 281.652 109.056 281.652 109.95C281.652 110.849 281.525 111.617 281.271 112.253C281.019 112.888 280.657 113.372 280.183 113.706C279.712 114.041 279.146 114.208 278.485 114.208ZM278.485 112.952C278.999 112.952 279.404 112.699 279.701 112.193C280.001 111.685 280.151 110.937 280.151 109.95C280.151 109.297 280.083 108.748 279.946 108.304C279.81 107.86 279.617 107.526 279.368 107.301C279.119 107.073 278.825 106.96 278.485 106.96C277.974 106.96 277.57 107.214 277.273 107.722C276.976 108.228 276.826 108.97 276.824 109.95C276.821 110.605 276.887 111.156 277.02 111.603C277.157 112.05 277.349 112.387 277.598 112.615C277.847 112.839 278.143 112.952 278.485 112.952ZM286.023 114.208C285.363 114.208 284.795 114.041 284.322 113.706C283.851 113.369 283.488 112.883 283.234 112.249C282.983 111.613 282.857 110.846 282.857 109.95C282.86 109.053 282.987 108.291 283.238 107.662C283.492 107.031 283.855 106.549 284.326 106.217C284.799 105.885 285.365 105.72 286.023 105.72C286.682 105.72 287.248 105.885 287.721 106.217C288.195 106.549 288.557 107.031 288.809 107.662C289.063 108.294 289.19 109.056 289.19 109.95C289.19 110.849 289.063 111.617 288.809 112.253C288.557 112.888 288.195 113.372 287.721 113.706C287.25 114.041 286.684 114.208 286.023 114.208ZM286.023 112.952C286.537 112.952 286.942 112.699 287.239 112.193C287.539 111.685 287.689 110.937 287.689 109.95C287.689 109.297 287.621 108.748 287.484 108.304C287.348 107.86 287.155 107.526 286.906 107.301C286.658 107.073 286.363 106.96 286.023 106.96C285.512 106.96 285.108 107.214 284.811 107.722C284.514 108.228 284.365 108.97 284.362 109.95C284.359 110.605 284.425 111.156 284.559 111.603C284.695 112.05 284.888 112.387 285.136 112.615C285.385 112.839 285.681 112.952 286.023 112.952Z" fill="#313A4E"/>
<rect x="191.082" y="138.424" width="9.09817" height="9.09817" rx="4.54909" fill="#CBF07F"/>
<path d="M209.669 132.368V131.737H214.072V132.368H212.226V137.608H211.515V132.368H209.669ZM216.228 137.7C215.831 137.7 215.482 137.606 215.182 137.416C214.884 137.227 214.651 136.962 214.482 136.622C214.316 136.282 214.233 135.885 214.233 135.43C214.233 134.971 214.316 134.571 214.482 134.229C214.651 133.887 214.884 133.621 215.182 133.432C215.482 133.242 215.831 133.148 216.228 133.148C216.626 133.148 216.974 133.242 217.272 133.432C217.572 133.621 217.805 133.887 217.971 134.229C218.139 134.571 218.223 134.971 218.223 135.43C218.223 135.885 218.139 136.282 217.971 136.622C217.805 136.962 217.572 137.227 217.272 137.416C216.974 137.606 216.626 137.7 216.228 137.7ZM216.228 137.092C216.53 137.092 216.779 137.015 216.974 136.86C217.168 136.705 217.313 136.502 217.406 136.25C217.5 135.997 217.547 135.724 217.547 135.43C217.547 135.135 217.5 134.861 217.406 134.607C217.313 134.353 217.168 134.147 216.974 133.991C216.779 133.834 216.53 133.756 216.228 133.756C215.926 133.756 215.678 133.834 215.483 133.991C215.288 134.147 215.144 134.353 215.05 134.607C214.956 134.861 214.91 135.135 214.91 135.43C214.91 135.724 214.956 135.997 215.05 136.25C215.144 136.502 215.288 136.705 215.483 136.86C215.678 137.015 215.926 137.092 216.228 137.092ZM221.171 133.205V133.779H218.889V133.205H221.171ZM219.554 132.15H220.231V136.347C220.231 136.538 220.259 136.682 220.314 136.777C220.371 136.871 220.444 136.934 220.532 136.966C220.622 136.997 220.716 137.012 220.816 137.012C220.89 137.012 220.951 137.008 220.999 137.001C221.047 136.991 221.085 136.984 221.114 136.978L221.251 137.586C221.206 137.603 221.142 137.62 221.059 137.637C220.977 137.656 220.873 137.666 220.747 137.666C220.556 137.666 220.368 137.625 220.185 137.543C220.003 137.46 219.852 137.335 219.732 137.167C219.614 136.999 219.554 136.787 219.554 136.531V132.15ZM223.485 137.712C223.206 137.712 222.952 137.659 222.725 137.554C222.497 137.447 222.317 137.293 222.183 137.092C222.049 136.89 221.982 136.645 221.982 136.359C221.982 136.106 222.032 135.902 222.131 135.745C222.231 135.586 222.364 135.462 222.53 135.372C222.696 135.283 222.88 135.216 223.08 135.172C223.283 135.126 223.486 135.09 223.691 135.063C223.959 135.028 224.175 135.003 224.342 134.985C224.51 134.966 224.632 134.935 224.709 134.891C224.787 134.847 224.826 134.77 224.826 134.661V134.639C224.826 134.356 224.749 134.136 224.594 133.979C224.441 133.822 224.209 133.744 223.897 133.744C223.574 133.744 223.321 133.815 223.138 133.956C222.954 134.098 222.825 134.249 222.751 134.409L222.109 134.18C222.223 133.912 222.376 133.704 222.567 133.555C222.76 133.404 222.97 133.299 223.198 133.24C223.427 133.178 223.653 133.148 223.874 133.148C224.016 133.148 224.178 133.165 224.362 133.199C224.547 133.232 224.726 133.3 224.898 133.403C225.072 133.506 225.216 133.662 225.331 133.87C225.445 134.079 225.503 134.358 225.503 134.707V137.608H224.826V137.012H224.792C224.746 137.108 224.669 137.21 224.562 137.319C224.455 137.428 224.313 137.521 224.135 137.597C223.958 137.673 223.741 137.712 223.485 137.712ZM223.588 137.104C223.855 137.104 224.081 137.051 224.264 136.946C224.45 136.841 224.589 136.705 224.683 136.539C224.778 136.373 224.826 136.198 224.826 136.015V135.395C224.798 135.43 224.734 135.461 224.637 135.49C224.541 135.517 224.431 135.541 224.304 135.562C224.18 135.581 224.059 135.598 223.94 135.613C223.824 135.627 223.729 135.638 223.657 135.648C223.481 135.671 223.316 135.708 223.163 135.759C223.013 135.809 222.89 135.885 222.797 135.986C222.705 136.085 222.659 136.221 222.659 136.393C222.659 136.628 222.746 136.806 222.92 136.926C223.096 137.045 223.318 137.104 223.588 137.104ZM227.414 131.737V137.608H226.738V131.737H227.414ZM230.924 139.26V133.205H231.577V133.905H231.658C231.707 133.828 231.776 133.731 231.864 133.612C231.954 133.492 232.082 133.385 232.248 133.291C232.416 133.196 232.644 133.148 232.93 133.148C233.301 133.148 233.628 133.241 233.911 133.426C234.194 133.611 234.414 133.874 234.573 134.214C234.732 134.554 234.811 134.956 234.811 135.418C234.811 135.885 234.732 136.289 234.573 136.631C234.414 136.971 234.195 137.235 233.914 137.422C233.633 137.608 233.309 137.7 232.942 137.7C232.659 137.7 232.433 137.653 232.262 137.56C232.092 137.464 231.961 137.356 231.87 137.236C231.778 137.113 231.707 137.012 231.658 136.932H231.6V139.26H230.924ZM231.589 135.407C231.589 135.739 231.637 136.033 231.735 136.287C231.832 136.539 231.975 136.737 232.162 136.88C232.349 137.022 232.579 137.092 232.85 137.092C233.133 137.092 233.369 137.018 233.558 136.869C233.749 136.718 233.893 136.515 233.988 136.261C234.086 136.005 234.134 135.72 234.134 135.407C234.134 135.097 234.087 134.818 233.991 134.57C233.897 134.319 233.755 134.122 233.564 133.976C233.375 133.829 233.137 133.756 232.85 133.756C232.575 133.756 232.344 133.825 232.156 133.965C231.969 134.102 231.828 134.295 231.732 134.544C231.637 134.79 231.589 135.078 231.589 135.407ZM238.618 135.808V133.205H239.294V137.608H238.618V136.863H238.572C238.469 137.087 238.308 137.277 238.09 137.434C237.873 137.588 237.597 137.666 237.265 137.666C236.99 137.666 236.745 137.606 236.531 137.485C236.317 137.363 236.149 137.179 236.026 136.935C235.904 136.688 235.843 136.378 235.843 136.003V133.205H236.519V135.957C236.519 136.278 236.609 136.534 236.789 136.726C236.971 136.917 237.202 137.012 237.483 137.012C237.651 137.012 237.822 136.969 237.996 136.883C238.172 136.797 238.319 136.665 238.437 136.488C238.558 136.31 238.618 136.083 238.618 135.808ZM240.534 137.608V133.205H241.187V133.87H241.233C241.313 133.652 241.459 133.476 241.669 133.34C241.879 133.204 242.116 133.136 242.38 133.136C242.429 133.136 242.492 133.137 242.566 133.139C242.641 133.141 242.697 133.144 242.735 133.148V133.836C242.712 133.83 242.66 133.822 242.578 133.81C242.497 133.797 242.412 133.79 242.322 133.79C242.108 133.79 241.917 133.835 241.749 133.925C241.583 134.013 241.451 134.135 241.353 134.292C241.258 134.446 241.21 134.623 241.21 134.822V137.608H240.534ZM245.192 137.7C244.779 137.7 244.424 137.603 244.126 137.408C243.827 137.213 243.598 136.944 243.438 136.602C243.277 136.26 243.197 135.869 243.197 135.43C243.197 134.983 243.279 134.588 243.443 134.246C243.61 133.902 243.841 133.633 244.137 133.44C244.435 133.245 244.783 133.148 245.181 133.148C245.49 133.148 245.769 133.205 246.018 133.32C246.266 133.435 246.47 133.595 246.628 133.801C246.787 134.008 246.885 134.249 246.924 134.524H246.247C246.195 134.323 246.081 134.145 245.903 133.991C245.727 133.834 245.49 133.756 245.192 133.756C244.928 133.756 244.697 133.824 244.498 133.962C244.301 134.098 244.148 134.29 244.037 134.538C243.928 134.785 243.873 135.074 243.873 135.407C243.873 135.747 243.927 136.043 244.034 136.296C244.143 136.548 244.296 136.744 244.493 136.883C244.691 137.023 244.924 137.092 245.192 137.092C245.368 137.092 245.527 137.062 245.671 137.001C245.814 136.94 245.935 136.852 246.035 136.737C246.134 136.622 246.205 136.485 246.247 136.324H246.924C246.885 136.584 246.791 136.818 246.64 137.027C246.491 137.233 246.293 137.397 246.046 137.52C245.802 137.64 245.517 137.7 245.192 137.7ZM248.589 134.96V137.608H247.913V131.737H248.589V133.893H248.646C248.75 133.666 248.904 133.485 249.111 133.351C249.319 133.216 249.596 133.148 249.942 133.148C250.242 133.148 250.505 133.208 250.73 133.328C250.956 133.447 251.131 133.629 251.255 133.876C251.381 134.121 251.444 134.432 251.444 134.811V137.608H250.768V134.856C250.768 134.507 250.677 134.236 250.495 134.045C250.316 133.852 250.066 133.756 249.747 133.756C249.526 133.756 249.327 133.802 249.151 133.896C248.977 133.99 248.839 134.126 248.738 134.306C248.639 134.486 248.589 134.704 248.589 134.96ZM253.978 137.712C253.699 137.712 253.446 137.659 253.218 137.554C252.991 137.447 252.81 137.293 252.676 137.092C252.542 136.89 252.476 136.645 252.476 136.359C252.476 136.106 252.525 135.902 252.625 135.745C252.724 135.586 252.857 135.462 253.023 135.372C253.189 135.283 253.373 135.216 253.574 135.172C253.776 135.126 253.98 135.09 254.184 135.063C254.452 135.028 254.669 135.003 254.835 134.985C255.003 134.966 255.125 134.935 255.202 134.891C255.28 134.847 255.319 134.77 255.319 134.661V134.639C255.319 134.356 255.242 134.136 255.087 133.979C254.934 133.822 254.702 133.744 254.391 133.744C254.068 133.744 253.814 133.815 253.631 133.956C253.447 134.098 253.318 134.249 253.244 134.409L252.602 134.18C252.716 133.912 252.869 133.704 253.06 133.555C253.253 133.404 253.464 133.299 253.691 133.24C253.92 133.178 254.146 133.148 254.368 133.148C254.509 133.148 254.672 133.165 254.855 133.199C255.04 133.232 255.219 133.3 255.391 133.403C255.565 133.506 255.709 133.662 255.824 133.87C255.939 134.079 255.996 134.358 255.996 134.707V137.608H255.319V137.012H255.285C255.239 137.108 255.163 137.21 255.056 137.319C254.949 137.428 254.806 137.521 254.629 137.597C254.451 137.673 254.234 137.712 253.978 137.712ZM254.081 137.104C254.349 137.104 254.574 137.051 254.758 136.946C254.943 136.841 255.082 136.705 255.176 136.539C255.272 136.373 255.319 136.198 255.319 136.015V135.395C255.291 135.43 255.228 135.461 255.13 135.49C255.035 135.517 254.924 135.541 254.798 135.562C254.673 135.581 254.552 135.598 254.434 135.613C254.317 135.627 254.222 135.638 254.15 135.648C253.974 135.671 253.81 135.708 253.657 135.759C253.506 135.809 253.383 135.885 253.29 135.986C253.198 136.085 253.152 136.221 253.152 136.393C253.152 136.628 253.239 136.806 253.413 136.926C253.589 137.045 253.811 137.104 254.081 137.104ZM260.35 134.191L259.742 134.363C259.704 134.262 259.647 134.164 259.573 134.068C259.5 133.971 259.401 133.89 259.275 133.827C259.149 133.764 258.987 133.733 258.79 133.733C258.521 133.733 258.296 133.795 258.117 133.919C257.939 134.041 257.85 134.197 257.85 134.386C257.85 134.554 257.911 134.687 258.033 134.785C258.156 134.882 258.347 134.963 258.607 135.028L259.26 135.189C259.654 135.285 259.947 135.431 260.14 135.628C260.333 135.822 260.43 136.074 260.43 136.382C260.43 136.634 260.357 136.859 260.212 137.058C260.069 137.257 259.868 137.414 259.61 137.528C259.352 137.643 259.052 137.7 258.71 137.7C258.261 137.7 257.889 137.603 257.595 137.408C257.301 137.213 257.114 136.928 257.036 136.554L257.678 136.393C257.739 136.63 257.855 136.808 258.025 136.926C258.197 137.045 258.421 137.104 258.699 137.104C259.014 137.104 259.264 137.037 259.45 136.903C259.637 136.768 259.731 136.605 259.731 136.416C259.731 136.263 259.677 136.135 259.57 136.032C259.463 135.927 259.299 135.848 259.077 135.797L258.343 135.625C257.94 135.529 257.644 135.381 257.454 135.18C257.267 134.978 257.173 134.725 257.173 134.421C257.173 134.172 257.243 133.952 257.383 133.761C257.524 133.57 257.716 133.42 257.959 133.311C258.204 133.202 258.481 133.148 258.79 133.148C259.226 133.148 259.568 133.243 259.817 133.435C260.067 133.626 260.245 133.878 260.35 134.191ZM263.295 137.7C262.87 137.7 262.504 137.607 262.197 137.419C261.891 137.23 261.655 136.966 261.489 136.628C261.324 136.288 261.242 135.892 261.242 135.441C261.242 134.99 261.324 134.593 261.489 134.249C261.655 133.903 261.886 133.633 262.182 133.44C262.48 133.245 262.828 133.148 263.226 133.148C263.455 133.148 263.682 133.186 263.905 133.263C264.129 133.339 264.332 133.463 264.516 133.635C264.699 133.805 264.845 134.031 264.954 134.312C265.063 134.593 265.118 134.939 265.118 135.349V135.636H261.724V135.051H264.43C264.43 134.803 264.38 134.581 264.281 134.386C264.183 134.191 264.044 134.037 263.862 133.925C263.683 133.812 263.47 133.756 263.226 133.756C262.956 133.756 262.723 133.822 262.526 133.956C262.331 134.088 262.181 134.26 262.076 134.472C261.971 134.684 261.919 134.912 261.919 135.155V135.544C261.919 135.877 261.976 136.159 262.091 136.39C262.207 136.619 262.369 136.794 262.575 136.915C262.781 137.033 263.021 137.092 263.295 137.092C263.472 137.092 263.633 137.068 263.776 137.018C263.921 136.966 264.047 136.89 264.152 136.789C264.257 136.685 264.338 136.557 264.395 136.404L265.049 136.588C264.98 136.81 264.865 137.005 264.702 137.173C264.54 137.339 264.339 137.469 264.1 137.563C263.861 137.654 263.593 137.7 263.295 137.7ZM267.81 137.7C267.443 137.7 267.119 137.608 266.838 137.422C266.557 137.235 266.337 136.971 266.178 136.631C266.02 136.289 265.941 135.885 265.941 135.418C265.941 134.956 266.02 134.554 266.178 134.214C266.337 133.874 266.558 133.611 266.841 133.426C267.124 133.241 267.45 133.148 267.821 133.148C268.108 133.148 268.334 133.196 268.501 133.291C268.669 133.385 268.797 133.492 268.885 133.612C268.974 133.731 269.044 133.828 269.094 133.905H269.151V131.737H269.828V137.608H269.174V136.932H269.094C269.044 137.012 268.974 137.113 268.882 137.236C268.79 137.356 268.659 137.464 268.489 137.56C268.319 137.653 268.092 137.7 267.81 137.7ZM267.901 137.092C268.173 137.092 268.402 137.022 268.589 136.88C268.777 136.737 268.919 136.539 269.017 136.287C269.114 136.033 269.163 135.739 269.163 135.407C269.163 135.078 269.115 134.79 269.019 134.544C268.924 134.295 268.782 134.102 268.595 133.965C268.408 133.825 268.177 133.756 267.901 133.756C267.615 133.756 267.376 133.829 267.185 133.976C266.995 134.122 266.853 134.319 266.758 134.57C266.664 134.818 266.617 135.097 266.617 135.407C266.617 135.72 266.665 136.005 266.76 136.261C266.858 136.515 267.001 136.718 267.19 136.869C267.382 137.018 267.619 137.092 267.901 137.092Z" fill="#868FA0"/>
<path d="M217.723 148.12V148.923H209.536V148.12H217.723ZM217.723 149.854V150.657H209.536V149.854H217.723ZM216.889 145.118V153.338H215.925L211.447 146.884H211.366V153.338H210.371V145.118H211.334L215.829 151.588H215.909V145.118H216.889ZM218.707 153.338V152.262L221.56 149.465C221.833 149.189 222.061 148.945 222.243 148.731C222.425 148.516 222.561 148.309 222.652 148.108C222.743 147.908 222.788 147.694 222.788 147.466C222.788 147.207 222.73 146.985 222.612 146.8C222.494 146.613 222.332 146.468 222.126 146.367C221.92 146.265 221.686 146.214 221.424 146.214C221.154 146.214 220.917 146.27 220.713 146.383C220.51 146.492 220.352 146.649 220.24 146.852C220.13 147.056 220.075 147.298 220.075 147.579H218.659C218.659 147.057 218.778 146.603 219.016 146.218C219.254 145.833 219.582 145.535 219.999 145.323C220.419 145.112 220.901 145.006 221.444 145.006C221.995 145.006 222.479 145.109 222.897 145.315C223.314 145.521 223.638 145.803 223.868 146.162C224.101 146.52 224.217 146.93 224.217 147.39C224.217 147.698 224.158 148 224.041 148.297C223.923 148.594 223.715 148.923 223.418 149.284C223.124 149.646 222.711 150.083 222.178 150.597L220.762 152.038V152.094H224.342V153.338H218.707ZM228.764 153.494C228.103 153.494 227.536 153.327 227.063 152.993C226.592 152.656 226.229 152.17 225.975 151.536C225.724 150.899 225.598 150.133 225.598 149.236C225.6 148.34 225.728 147.577 225.979 146.949C226.233 146.317 226.596 145.836 227.067 145.504C227.54 145.172 228.106 145.006 228.764 145.006C229.423 145.006 229.988 145.172 230.462 145.504C230.936 145.836 231.298 146.317 231.55 146.949C231.804 147.58 231.931 148.343 231.931 149.236C231.931 150.135 231.804 150.903 231.55 151.54C231.298 152.174 230.936 152.658 230.462 152.993C229.991 153.327 229.425 153.494 228.764 153.494ZM228.764 152.238C229.278 152.238 229.683 151.985 229.98 151.48C230.28 150.971 230.43 150.223 230.43 149.236C230.43 148.583 230.362 148.035 230.225 147.591C230.089 147.147 229.896 146.812 229.647 146.587C229.398 146.36 229.104 146.246 228.764 146.246C228.253 146.246 227.849 146.5 227.552 147.009C227.255 147.514 227.105 148.257 227.103 149.236C227.1 149.892 227.166 150.443 227.299 150.89C227.436 151.337 227.629 151.674 227.877 151.901C228.126 152.126 228.422 152.238 228.764 152.238ZM236.302 153.494C235.642 153.494 235.074 153.327 234.601 152.993C234.13 152.656 233.767 152.17 233.513 151.536C233.262 150.899 233.136 150.133 233.136 149.236C233.139 148.34 233.266 147.577 233.517 146.949C233.771 146.317 234.134 145.836 234.605 145.504C235.078 145.172 235.644 145.006 236.302 145.006C236.961 145.006 237.527 145.172 238 145.504C238.474 145.836 238.836 146.317 239.088 146.949C239.342 147.58 239.469 148.343 239.469 149.236C239.469 150.135 239.342 150.903 239.088 151.54C238.836 152.174 238.474 152.658 238 152.993C237.529 153.327 236.963 153.494 236.302 153.494ZM236.302 152.238C236.816 152.238 237.222 151.985 237.519 151.48C237.818 150.971 237.968 150.223 237.968 149.236C237.968 148.583 237.9 148.035 237.763 147.591C237.627 147.147 237.434 146.812 237.185 146.587C236.937 146.36 236.642 146.246 236.302 146.246C235.791 146.246 235.387 146.5 235.09 147.009C234.793 147.514 234.644 148.257 234.641 149.236C234.638 149.892 234.704 150.443 234.838 150.89C234.974 151.337 235.167 151.674 235.416 151.901C235.664 152.126 235.96 152.238 236.302 152.238ZM242.204 152.214L242.152 152.656C242.115 152.993 242.048 153.335 241.951 153.683C241.858 154.034 241.759 154.356 241.654 154.65C241.55 154.945 241.466 155.176 241.402 155.345H240.422C240.46 155.181 240.511 154.959 240.575 154.678C240.642 154.397 240.706 154.082 240.767 153.731C240.829 153.381 240.87 153.025 240.892 152.664L240.92 152.214H242.204ZM246.489 153.45C245.912 153.45 245.398 153.351 244.948 153.153C244.502 152.955 244.148 152.68 243.889 152.327C243.629 151.973 243.491 151.565 243.475 151.102H244.984C244.998 151.325 245.071 151.518 245.205 151.684C245.339 151.848 245.517 151.975 245.739 152.066C245.961 152.157 246.21 152.202 246.485 152.202C246.78 152.202 247.041 152.151 247.268 152.05C247.496 151.945 247.673 151.801 247.802 151.616C247.93 151.432 247.993 151.219 247.99 150.978C247.993 150.729 247.929 150.51 247.798 150.32C247.667 150.13 247.477 149.981 247.228 149.874C246.982 149.767 246.685 149.714 246.337 149.714H245.611V148.566H246.337C246.623 148.566 246.873 148.516 247.087 148.417C247.304 148.318 247.474 148.179 247.597 148C247.72 147.818 247.78 147.608 247.778 147.37C247.78 147.137 247.728 146.935 247.621 146.764C247.517 146.59 247.368 146.455 247.176 146.359C246.986 146.262 246.762 146.214 246.506 146.214C246.254 146.214 246.021 146.26 245.807 146.351C245.593 146.442 245.421 146.571 245.289 146.74C245.158 146.906 245.089 147.104 245.081 147.334H243.648C243.659 146.874 243.791 146.47 244.045 146.122C244.302 145.771 244.645 145.498 245.073 145.303C245.501 145.105 245.981 145.006 246.514 145.006C247.062 145.006 247.538 145.109 247.942 145.315C248.349 145.518 248.663 145.793 248.885 146.138C249.108 146.483 249.219 146.864 249.219 147.282C249.221 147.745 249.085 148.133 248.809 148.446C248.536 148.759 248.178 148.963 247.734 149.06V149.124C248.312 149.204 248.754 149.418 249.062 149.766C249.372 150.111 249.526 150.541 249.524 151.054C249.524 151.514 249.393 151.927 249.13 152.29C248.871 152.652 248.512 152.935 248.055 153.141C247.6 153.347 247.078 153.45 246.489 153.45ZM250.753 151.813V150.629L254.24 145.118H255.228V146.804H254.626L252.278 150.525V150.589H257.146V151.813H250.753ZM254.674 153.338V151.452L254.69 150.922V145.118H256.095V153.338H254.674ZM261.286 153.45C260.751 153.45 260.272 153.35 259.849 153.149C259.426 152.946 259.091 152.668 258.842 152.314C258.596 151.961 258.464 151.557 258.448 151.102H259.893C259.92 151.44 260.066 151.715 260.331 151.929C260.596 152.141 260.914 152.246 261.286 152.246C261.578 152.246 261.837 152.179 262.064 152.046C262.292 151.912 262.471 151.726 262.602 151.488C262.733 151.25 262.798 150.978 262.795 150.673C262.798 150.363 262.732 150.087 262.598 149.846C262.464 149.605 262.281 149.417 262.048 149.28C261.816 149.141 261.548 149.072 261.246 149.072C261 149.069 260.757 149.114 260.519 149.208C260.281 149.302 260.093 149.425 259.953 149.577L258.609 149.357L259.038 145.118H263.806V146.363H260.27L260.034 148.542H260.082C260.234 148.363 260.45 148.214 260.728 148.096C261.006 147.976 261.311 147.916 261.643 147.916C262.141 147.916 262.585 148.034 262.976 148.269C263.366 148.502 263.674 148.823 263.899 149.232C264.123 149.642 264.236 150.11 264.236 150.637C264.236 151.18 264.11 151.664 263.858 152.09C263.61 152.512 263.263 152.846 262.819 153.089C262.378 153.33 261.866 153.45 261.286 153.45ZM266.215 153.426C265.972 153.426 265.763 153.341 265.589 153.169C265.415 152.998 265.33 152.789 265.332 152.543C265.33 152.302 265.415 152.096 265.589 151.925C265.763 151.754 265.972 151.668 266.215 151.668C266.451 151.668 266.655 151.754 266.829 151.925C267.006 152.096 267.096 152.302 267.098 152.543C267.096 152.706 267.053 152.855 266.97 152.989C266.89 153.123 266.783 153.23 266.649 153.31C266.518 153.387 266.373 153.426 266.215 153.426ZM271.3 153.494C270.639 153.494 270.072 153.327 269.599 152.993C269.128 152.656 268.765 152.17 268.511 151.536C268.259 150.899 268.134 150.133 268.134 149.236C268.136 148.34 268.263 147.577 268.515 146.949C268.769 146.317 269.132 145.836 269.603 145.504C270.076 145.172 270.642 145.006 271.3 145.006C271.958 145.006 272.524 145.172 272.998 145.504C273.472 145.836 273.834 146.317 274.086 146.949C274.34 147.58 274.467 148.343 274.467 149.236C274.467 150.135 274.34 150.903 274.086 151.54C273.834 152.174 273.472 152.658 272.998 152.993C272.527 153.327 271.961 153.494 271.3 153.494ZM271.3 152.238C271.814 152.238 272.219 151.985 272.516 151.48C272.816 150.971 272.966 150.223 272.966 149.236C272.966 148.583 272.898 148.035 272.761 147.591C272.625 147.147 272.432 146.812 272.183 146.587C271.934 146.36 271.64 146.246 271.3 146.246C270.789 146.246 270.385 146.5 270.088 147.009C269.791 147.514 269.641 148.257 269.639 149.236C269.636 149.892 269.702 150.443 269.835 150.89C269.972 151.337 270.165 151.674 270.413 151.901C270.662 152.126 270.958 152.238 271.3 152.238ZM278.838 153.494C278.178 153.494 277.61 153.327 277.137 152.993C276.666 152.656 276.303 152.17 276.049 151.536C275.798 150.899 275.672 150.133 275.672 149.236C275.675 148.34 275.802 147.577 276.053 146.949C276.307 146.317 276.67 145.836 277.141 145.504C277.614 145.172 278.18 145.006 278.838 145.006C279.497 145.006 280.063 145.172 280.536 145.504C281.01 145.836 281.372 146.317 281.624 146.949C281.878 147.58 282.005 148.343 282.005 149.236C282.005 150.135 281.878 150.903 281.624 151.54C281.372 152.174 281.01 152.658 280.536 152.993C280.065 153.327 279.499 153.494 278.838 153.494ZM278.838 152.238C279.352 152.238 279.758 151.985 280.055 151.48C280.354 150.971 280.504 150.223 280.504 149.236C280.504 148.583 280.436 148.035 280.299 147.591C280.163 147.147 279.97 146.812 279.721 146.587C279.473 146.36 279.178 146.246 278.838 146.246C278.327 146.246 277.923 146.5 277.626 147.009C277.329 147.514 277.18 148.257 277.177 149.236C277.174 149.892 277.24 150.443 277.374 150.89C277.51 151.337 277.703 151.674 277.951 151.901C278.2 152.126 278.496 152.238 278.838 152.238Z" fill="#313A4E"/>
<g filter="url(#filter1_d_947_1066)">
<rect x="23" y="225.595" width="323.895" height="273.855" rx="8" fill="white"/>
</g>
<rect x="37.5176" y="240.953" width="86.5692" height="27.1453" rx="13.5727" fill="#F8F6FE"/>
<path d="M54.2435 252.832C54.2068 252.506 54.0554 252.254 53.7894 252.075C53.5234 251.894 53.1886 251.803 52.7849 251.803C52.496 251.803 52.246 251.849 52.035 251.941C51.824 252.03 51.66 252.154 51.5431 252.312C51.4284 252.468 51.3711 252.646 51.3711 252.845C51.3711 253.013 51.41 253.157 51.488 253.279C51.5683 253.4 51.6726 253.502 51.8011 253.585C51.9318 253.665 52.0717 253.733 52.2208 253.788C52.3698 253.841 52.5132 253.884 52.6508 253.919L53.3388 254.098C53.5635 254.153 53.794 254.227 54.0302 254.321C54.2664 254.415 54.4855 254.539 54.6873 254.693C54.8891 254.846 55.0519 255.037 55.1758 255.264C55.3019 255.491 55.365 255.763 55.365 256.079C55.365 256.478 55.2618 256.832 55.0554 257.142C54.8512 257.452 54.5543 257.696 54.1644 257.875C53.7768 258.054 53.3078 258.143 52.7574 258.143C52.2299 258.143 51.7735 258.059 51.3883 257.892C51.003 257.725 50.7014 257.487 50.4835 257.18C50.2657 256.87 50.1453 256.503 50.1223 256.079H51.1887C51.2094 256.334 51.2919 256.546 51.4364 256.715C51.5832 256.883 51.7701 257.008 51.9971 257.09C52.2265 257.171 52.4776 257.211 52.7505 257.211C53.051 257.211 53.3181 257.164 53.5521 257.07C53.7883 256.973 53.974 256.84 54.1093 256.671C54.2447 256.499 54.3123 256.298 54.3123 256.069C54.3123 255.86 54.2527 255.689 54.1334 255.556C54.0165 255.423 53.8571 255.313 53.6553 255.226C53.4557 255.139 53.2298 255.062 52.9776 254.995L52.1451 254.768C51.5809 254.615 51.1337 254.389 50.8035 254.091C50.4755 253.793 50.3115 253.398 50.3115 252.907C50.3115 252.501 50.4216 252.147 50.6418 251.844C50.8619 251.542 51.1601 251.307 51.5362 251.139C51.9123 250.969 52.3366 250.885 52.809 250.885C53.286 250.885 53.7069 250.968 54.0715 251.136C54.4384 251.303 54.7274 251.534 54.9384 251.827C55.1494 252.118 55.2595 252.453 55.2686 252.832H54.2435ZM58.83 258.133C58.3094 258.133 57.861 258.022 57.4849 257.799C57.1111 257.574 56.8221 257.259 56.618 256.853C56.4162 256.445 56.3153 255.967 56.3153 255.419C56.3153 254.877 56.4162 254.4 56.618 253.988C56.8221 253.575 57.1065 253.253 57.4711 253.021C57.8381 252.789 58.2669 252.673 58.7577 252.673C59.0559 252.673 59.3448 252.723 59.6246 252.821C59.9044 252.92 60.1555 253.075 60.378 253.286C60.6004 253.497 60.7759 253.771 60.9043 254.108C61.0327 254.443 61.0969 254.85 61.0969 255.329V255.694H56.8966V254.923H60.089C60.089 254.653 60.034 254.413 59.9239 254.204C59.8138 253.993 59.659 253.827 59.4595 253.705C59.2623 253.584 59.0306 253.523 58.7646 253.523C58.4756 253.523 58.2234 253.594 58.0078 253.736C57.7945 253.876 57.6294 254.06 57.5124 254.287C57.3977 254.512 57.3404 254.756 57.3404 255.02V255.622C57.3404 255.975 57.4023 256.275 57.5262 256.523C57.6523 256.771 57.8278 256.96 58.0525 257.09C58.2773 257.219 58.5398 257.283 58.8403 257.283C59.0352 257.283 59.2129 257.256 59.3735 257.201C59.534 257.143 59.6728 257.058 59.7897 256.946C59.9067 256.834 59.9961 256.695 60.0581 256.53L61.0316 256.705C60.9536 256.992 60.8137 257.243 60.6119 257.459C60.4124 257.672 60.1613 257.838 59.8585 257.957C59.5581 258.074 59.2152 258.133 58.83 258.133ZM62.2382 260.008V252.742H63.2427V253.599H63.3287C63.3883 253.489 63.4743 253.361 63.5867 253.217C63.6991 253.072 63.855 252.946 64.0545 252.839C64.2541 252.728 64.5178 252.673 64.8457 252.673C65.2723 252.673 65.653 252.781 65.9878 252.997C66.3227 253.212 66.5853 253.523 66.7756 253.929C66.9683 254.335 67.0646 254.823 67.0646 255.395C67.0646 255.966 66.9694 256.455 66.7791 256.863C66.5887 257.269 66.3273 257.582 65.9947 257.803C65.6622 258.02 65.2826 258.129 64.8561 258.129C64.535 258.129 64.2724 258.075 64.0683 257.968C63.8665 257.86 63.7082 257.734 63.5936 257.589C63.4789 257.445 63.3906 257.316 63.3287 257.204H63.2668V260.008H62.2382ZM63.2461 255.384C63.2461 255.756 63.3 256.081 63.4078 256.361C63.5156 256.641 63.6715 256.86 63.8757 257.018C64.0798 257.174 64.3297 257.252 64.6256 257.252C64.9329 257.252 65.1898 257.171 65.3962 257.008C65.6026 256.843 65.7585 256.619 65.864 256.337C65.9718 256.055 66.0257 255.737 66.0257 255.384C66.0257 255.036 65.9729 254.723 65.8674 254.445C65.7642 254.168 65.6083 253.949 65.3996 253.788C65.1932 253.627 64.9352 253.547 64.6256 253.547C64.3274 253.547 64.0752 253.624 63.8688 253.778C63.6647 253.931 63.5099 254.146 63.4044 254.421C63.2989 254.696 63.2461 255.017 63.2461 255.384ZM70.6835 252.742V253.568H67.7973V252.742H70.6835ZM68.5713 251.476H69.5999V256.475C69.5999 256.674 69.6297 256.824 69.6893 256.925C69.749 257.024 69.8258 257.092 69.9198 257.128C70.0161 257.163 70.1205 257.18 70.2329 257.18C70.3154 257.18 70.3877 257.174 70.4496 257.163C70.5115 257.151 70.5597 257.142 70.5941 257.135L70.7798 257.985C70.7202 258.008 70.6354 258.031 70.5253 258.054C70.4152 258.079 70.2776 258.093 70.1125 258.095C69.8418 258.1 69.5896 258.051 69.3557 257.95C69.1217 257.85 68.9325 257.694 68.788 257.483C68.6436 257.272 68.5713 257.007 68.5713 256.688V251.476ZM74.3713 258.026V257.256L76.7552 254.786C77.0098 254.517 77.2196 254.282 77.3847 254.08C77.5522 253.876 77.6771 253.683 77.7597 253.499C77.8423 253.316 77.8835 253.121 77.8835 252.914C77.8835 252.68 77.8285 252.478 77.7184 252.309C77.6083 252.137 77.4581 252.005 77.2678 251.913C77.0774 251.819 76.863 251.772 76.6245 251.772C76.3722 251.772 76.1521 251.824 75.964 251.927C75.7759 252.03 75.6315 252.176 75.5305 252.364C75.4296 252.552 75.3792 252.772 75.3792 253.024H74.3644C74.3644 252.595 74.463 252.22 74.6602 251.899C74.8574 251.578 75.1281 251.33 75.4721 251.153C75.8161 250.974 76.2071 250.885 76.6451 250.885C77.0877 250.885 77.4776 250.973 77.8147 251.149C78.1542 251.324 78.419 251.562 78.6094 251.865C78.7997 252.165 78.8949 252.505 78.8949 252.883C78.8949 253.145 78.8456 253.4 78.747 253.65C78.6507 253.9 78.4821 254.179 78.2413 254.486C78.0005 254.791 77.6657 255.162 77.2368 255.597L75.8367 257.063V257.115H79.0084V258.026H74.3713ZM82.765 258.143C82.2215 258.141 81.757 257.997 81.3718 257.713C80.9865 257.429 80.6918 257.015 80.4877 256.471C80.2836 255.928 80.1815 255.273 80.1815 254.507C80.1815 253.743 80.2836 253.091 80.4877 252.55C80.6941 252.008 80.9899 251.596 81.3752 251.311C81.7628 251.027 82.226 250.885 82.765 250.885C83.3039 250.885 83.766 251.028 84.1513 251.315C84.5366 251.599 84.8313 252.012 85.0354 252.553C85.2418 253.092 85.345 253.743 85.345 254.507C85.345 255.275 85.243 255.931 85.0389 256.475C84.8347 257.016 84.54 257.43 84.1548 257.717C83.7695 258.001 83.3062 258.143 82.765 258.143ZM82.765 257.225C83.242 257.225 83.6147 256.992 83.883 256.526C84.1536 256.061 84.2889 255.388 84.2889 254.507C84.2889 253.922 84.227 253.428 84.1032 253.024C83.9816 252.618 83.8062 252.311 83.5768 252.102C83.3498 251.891 83.0792 251.786 82.765 251.786C82.2903 251.786 81.9176 252.02 81.647 252.488C81.3763 252.956 81.2399 253.629 81.2376 254.507C81.2376 255.094 81.2984 255.591 81.4199 255.997C81.5438 256.4 81.7192 256.706 81.9462 256.915C82.1733 257.121 82.4462 257.225 82.765 257.225ZM86.5654 258.026V257.256L88.9493 254.786C89.2039 254.517 89.4137 254.282 89.5789 254.08C89.7463 253.876 89.8713 253.683 89.9538 253.499C90.0364 253.316 90.0777 253.121 90.0777 252.914C90.0777 252.68 90.0226 252.478 89.9125 252.309C89.8025 252.137 89.6523 252.005 89.4619 251.913C89.2716 251.819 89.0571 251.772 88.8186 251.772C88.5663 251.772 88.3462 251.824 88.1581 251.927C87.9701 252.03 87.8256 252.176 87.7247 252.364C87.6238 252.552 87.5733 252.772 87.5733 253.024H86.5585C86.5585 252.595 86.6571 252.22 86.8543 251.899C87.0516 251.578 87.3222 251.33 87.6662 251.153C88.0102 250.974 88.4012 250.885 88.8393 250.885C89.2819 250.885 89.6717 250.973 90.0089 251.149C90.3483 251.324 90.6132 251.562 90.8035 251.865C90.9939 252.165 91.089 252.505 91.089 252.883C91.089 253.145 91.0397 253.4 90.9411 253.65C90.8448 253.9 90.6762 254.179 90.4354 254.486C90.1946 254.791 89.8598 255.162 89.4309 255.597L88.0308 257.063V257.115H91.2026V258.026H86.5654ZM95.1793 250.981V258.026H94.1129V252.047H94.0716L92.3859 253.148V252.13L94.1438 250.981H95.1793Z" fill="#313A4E"/>
<path d="M111.978 252.707L108.338 256.346L104.699 252.707" stroke="#474C58" stroke-width="0.909817" stroke-linecap="round" stroke-linejoin="round"/>
<path d="M50.243 311.15C48.6718 311.15 47.5609 310.25 47.5609 308.928C47.5609 308.058 48.1113 307.407 48.882 307.117V307.017C48.2715 306.757 47.8011 306.226 47.8011 305.466C47.8011 304.215 48.912 303.484 50.243 303.484C51.5841 303.484 52.685 304.215 52.685 305.466C52.685 306.226 52.2246 306.757 51.6041 307.017V307.117C52.3848 307.407 52.9352 308.068 52.9352 308.928C52.9352 310.26 51.8143 311.15 50.243 311.15ZM50.243 306.697C51.1438 306.697 51.7442 306.316 51.7442 305.496C51.7442 304.675 51.1338 304.305 50.243 304.305C49.3423 304.305 48.7418 304.685 48.7418 305.496C48.7418 306.316 49.3523 306.697 50.243 306.697ZM50.243 310.33C51.3439 310.33 51.9944 309.779 51.9944 308.888C51.9944 308.008 51.3539 307.457 50.243 307.457C49.1422 307.457 48.5017 308.008 48.5017 308.888C48.5017 309.779 49.1422 310.33 50.243 310.33ZM55.4744 310.97H54.4936V303.664H55.4744V307.077L58.4468 303.664H59.5677L56.7454 306.897L60.3183 310.97H59.0973L56.1249 307.557H55.4744V310.97Z" fill="#868FA0"/>
<path d="M50.3285 341.23C48.1868 341.23 47.5563 339.598 47.5563 337.747V337.267C47.5563 334.965 48.7372 333.664 50.909 333.664C51.4294 333.664 51.7296 333.694 52.16 333.744V334.564C51.7196 334.514 51.3994 334.484 50.8689 334.484C49.0475 334.484 48.437 335.545 48.437 337.337V337.507C48.7973 336.716 49.5479 336.326 50.4986 336.326C52.0599 336.326 52.9106 337.357 52.9106 338.758C52.9106 340.179 52.0299 341.23 50.3285 341.23ZM50.3285 340.389C51.4294 340.389 51.9898 339.718 51.9898 338.758C51.9898 337.797 51.4394 337.126 50.3986 337.126C49.3777 337.126 48.6171 337.707 48.6171 338.768C48.6171 339.648 49.1476 340.389 50.3285 340.389ZM55.4744 341.03H54.4936V333.724H55.4744V337.136L58.4468 333.724H59.5677L56.7454 336.956L60.3183 341.03H59.0973L56.1249 337.617H55.4744V341.03Z" fill="#868FA0"/>
<path d="M52.2058 371.089H51.3051V369.358H47.492V368.177L50.5244 363.603L51.195 364.133L48.3627 368.417L48.4528 368.597H51.3051V365.915H52.2058V368.597H53.1766V369.358H52.2058V371.089ZM55.4744 371.089H54.4936V363.783H55.4744V367.196L58.4468 363.783H59.5677L56.7454 367.016L60.3183 371.089H59.0973L56.1249 367.676H55.4744V371.089Z" fill="#868FA0"/>
<path d="M52.8907 401.149H48.0068V399.948C48.0068 399.077 48.3371 398.627 49.4079 398.136L50.779 397.506C51.4395 397.205 51.8599 396.735 51.8599 395.964C51.8599 395.034 51.3094 394.483 50.3687 394.483C49.4379 394.483 48.8675 395.034 48.8675 395.964H47.9267C47.9267 394.703 48.7074 393.643 50.3687 393.643C52.02 393.643 52.8006 394.703 52.8006 395.894V396.035C52.8006 397.095 52.1401 397.786 51.1193 398.256L49.7482 398.887C49.1277 399.167 48.9676 399.397 48.9676 399.868V400.328H52.8907V401.149ZM55.4744 401.149H54.4936V393.843H55.4744V397.255L58.4468 393.843H59.5677L56.7454 397.075L60.3183 401.149H59.0973L56.1249 397.736H55.4744V401.149Z" fill="#868FA0"/>
<rect opacity="0.1" x="64.5041" y="305.672" width="247.802" height="0.187871" stroke="black" stroke-width="0.187871"/>
<rect opacity="0.1" x="64.5041" y="335.356" width="247.802" height="0.187871" stroke="black" stroke-width="0.187871"/>
<rect opacity="0.1" x="64.5041" y="365.415" width="247.802" height="0.187871" stroke="black" stroke-width="0.187871"/>
<rect opacity="0.1" x="64.5041" y="395.475" width="247.802" height="0.187871" stroke="black" stroke-width="0.187871"/>
<path d="M296.337 409.469C294.681 409.469 293.725 408.578 293.725 407.349H294.617C294.617 407.959 295.045 408.651 296.337 408.651C297.537 408.651 298.065 408.059 298.065 407.386C298.065 406.84 297.583 406.458 296.673 406.376L295.936 406.312C294.763 406.212 293.998 405.548 293.998 404.52C293.998 403.31 294.944 402.482 296.346 402.482C297.729 402.482 298.684 403.283 298.684 404.547H297.792C297.792 403.919 297.356 403.301 296.346 403.301C295.354 403.301 294.89 403.892 294.89 404.52C294.89 405.011 295.263 405.43 296.009 405.493L296.746 405.557C298.102 405.675 298.957 406.321 298.957 407.386C298.957 408.614 297.901 409.469 296.337 409.469ZM302.391 409.469C300.68 409.469 299.962 408.187 299.962 406.958V406.795C299.962 405.539 300.708 404.283 302.336 404.283C303.91 404.283 304.656 405.439 304.656 406.649V407.04H300.799C300.853 407.995 301.345 408.705 302.391 408.705C303.155 408.705 303.656 408.314 303.756 407.859H304.574C304.365 408.869 303.537 409.469 302.391 409.469ZM302.336 405.048C301.463 405.048 300.972 405.584 300.835 406.385H303.801C303.692 405.557 303.21 405.048 302.336 405.048ZM306.77 411.125H305.896V404.447H306.588V405.639C306.906 404.711 307.652 404.283 308.517 404.283C309.927 404.283 310.855 405.43 310.855 406.795V406.958C310.855 408.323 309.881 409.469 308.499 409.469C307.834 409.469 307.17 409.206 306.77 408.578V411.125ZM308.362 408.705C309.336 408.705 309.982 407.959 309.982 406.876C309.982 405.794 309.336 405.048 308.362 405.048C307.48 405.048 306.734 405.666 306.734 406.694V407.113C306.734 408.114 307.498 408.705 308.362 408.705ZM314.808 409.36H314.062C312.979 409.36 312.297 408.951 312.297 407.65V405.102H311.46V404.447H312.297V402.973H313.134V404.447H314.808V405.102H313.134V407.759C313.134 408.278 313.434 408.578 313.952 408.578H314.808V409.36Z" fill="#868FA0"/>
<path d="M267.186 409.469C265.885 409.469 264.875 408.651 264.875 407.049V406.822H265.767V407.213C265.767 408.123 266.358 408.651 267.186 408.651C268.014 408.651 268.606 408.123 268.606 407.213V403.465H265.749V402.664H269.497V407.049C269.497 408.651 268.496 409.469 267.186 409.469ZM272.906 409.451H272.87C271.714 409.451 271.077 408.678 271.077 407.259V404.438H271.951V407.431C271.951 408.196 272.396 408.651 273.097 408.651C273.825 408.651 274.334 408.15 274.334 407.34V404.438H275.208V409.306H274.516V408.187C274.298 409.014 273.77 409.451 272.906 409.451ZM277.827 409.306H276.954V403.355H276.281V402.664H277.827V409.306Z" fill="#868FA0"/>
<path d="M233.414 409.469C232.113 409.469 231.103 408.651 231.103 407.049V406.822H231.995V407.213C231.995 408.123 232.586 408.651 233.414 408.651C234.242 408.651 234.833 408.123 234.833 407.213V403.465H231.977V402.664H235.725V407.049C235.725 408.651 234.724 409.469 233.414 409.469ZM239.134 409.451H239.097C237.942 409.451 237.305 408.678 237.305 407.259V404.438H238.178V407.431C238.178 408.196 238.624 408.651 239.325 408.651C240.053 408.651 240.562 408.15 240.562 407.34V404.438H241.436V409.306H240.744V408.187C240.526 409.014 239.998 409.451 239.134 409.451ZM244.001 409.306H243.127V404.447H243.819V405.575C244.037 404.747 244.592 404.302 245.511 404.302H245.547C246.766 404.302 247.349 405.093 247.349 406.531V409.306H246.475V406.349C246.475 405.594 246.02 405.102 245.283 405.102C244.519 405.102 244.001 405.621 244.001 406.403V409.306Z" fill="#868FA0"/>
<path d="M203.323 409.306H202.504V402.664H203.687L205.652 407.095H205.798L207.754 402.664H208.946V409.306H208.054V403.801L206.235 407.932H205.143L203.323 403.819V409.306ZM212.093 409.433C210.992 409.433 210.328 408.86 210.328 407.85C210.328 406.822 211.047 406.285 212.312 406.285H213.54V406.167C213.54 405.503 213.185 405.157 212.521 405.157C211.957 405.157 211.293 405.184 210.892 405.211V404.447C211.283 404.411 211.793 404.393 212.23 404.393C213.722 404.393 214.377 404.875 214.377 406.23V409.306H213.685V408.341C213.476 409.06 212.939 409.433 212.093 409.433ZM212.275 408.742C212.885 408.742 213.503 408.45 213.54 407.504V406.94H212.275C211.575 406.94 211.183 407.313 211.183 407.85C211.183 408.387 211.575 408.742 212.275 408.742ZM216.281 411.198H215.635V410.416H216.335C216.945 410.416 217.263 410.206 217.445 409.597L217.563 409.196H217.027L215.289 404.447H216.18L217.591 408.469H217.782L218.974 404.447H219.829L218.209 409.824C217.918 410.789 217.272 411.198 216.281 411.198Z" fill="#868FA0"/>
<path d="M168.864 409.306H167.972L170.365 402.664H171.875L174.341 409.306H173.422L172.694 407.322H169.574L168.864 409.306ZM169.856 406.522H172.394L171.275 403.465H170.938L169.856 406.522ZM176.305 411.125H175.431V404.447H176.123V405.639C176.441 404.711 177.187 404.283 178.052 404.283C179.462 404.283 180.39 405.43 180.39 406.795V406.958C180.39 408.323 179.416 409.469 178.034 409.469C177.369 409.469 176.705 409.206 176.305 408.578V411.125ZM177.897 408.705C178.871 408.705 179.517 407.959 179.517 406.876C179.517 405.794 178.871 405.048 177.897 405.048C177.015 405.048 176.269 405.666 176.269 406.694V407.113C176.269 408.114 177.033 408.705 177.897 408.705ZM182.578 409.306H181.704V404.447H182.396V405.903C182.55 404.866 183.16 404.393 184.234 404.393H184.397V405.175H184.088C183.114 405.175 182.578 405.712 182.578 406.676V409.306Z" fill="#868FA0"/>
<path d="M137.928 409.306H137.11V402.664H138.292L140.258 407.095H140.403L142.359 402.664H143.551V409.306H142.66V403.801L140.84 407.932H139.748L137.928 403.819V409.306ZM146.698 409.433C145.598 409.433 144.933 408.86 144.933 407.85C144.933 406.822 145.652 406.285 146.917 406.285H148.145V406.167C148.145 405.503 147.79 405.157 147.126 405.157C146.562 405.157 145.898 405.184 145.497 405.211V404.447C145.889 404.411 146.398 404.393 146.835 404.393C148.327 404.393 148.982 404.875 148.982 406.23V409.306H148.291V408.341C148.081 409.06 147.545 409.433 146.698 409.433ZM146.88 408.742C147.49 408.742 148.109 408.45 148.145 407.504V406.94H146.88C146.18 406.94 145.789 407.313 145.789 407.85C145.789 408.387 146.18 408.742 146.88 408.742ZM151.459 409.306H150.585V404.447H151.277V405.903C151.431 404.866 152.041 404.393 153.114 404.393H153.278V405.175H152.969C151.995 405.175 151.459 405.712 151.459 406.676V409.306Z" fill="#868FA0"/>
<path d="M107.722 409.306H106.831V402.664H110.543V403.465H107.722V405.548L110.388 405.539V406.34L107.722 406.349V409.306ZM113.771 409.469C112.06 409.469 111.341 408.187 111.341 406.958V406.795C111.341 405.539 112.088 404.283 113.716 404.283C115.29 404.283 116.036 405.439 116.036 406.649V407.04H112.179C112.233 407.995 112.724 408.705 113.771 408.705C114.535 408.705 115.035 408.314 115.135 407.859H115.954C115.745 408.869 114.917 409.469 113.771 409.469ZM113.716 405.048C112.843 405.048 112.351 405.584 112.215 406.385H115.181C115.072 405.557 114.59 405.048 113.716 405.048ZM119.842 409.469C118.987 409.469 118.304 409.06 117.968 408.305V409.306H117.276V402.664H118.15V405.284C118.514 404.602 119.169 404.283 119.915 404.283C121.307 404.283 122.235 405.402 122.235 406.776V406.94C122.235 408.314 121.279 409.469 119.842 409.469ZM119.742 408.705C120.715 408.705 121.361 407.95 121.361 406.858C121.361 405.766 120.706 405.048 119.742 405.048C118.859 405.048 118.113 405.666 118.113 406.694V407.113C118.113 408.114 118.878 408.705 119.742 408.705Z" fill="#868FA0"/>
<path d="M72.9626 409.469C71.6616 409.469 70.6517 408.651 70.6517 407.049V406.822H71.5433V407.213C71.5433 408.123 72.1347 408.651 72.9626 408.651C73.7905 408.651 74.3819 408.123 74.3819 407.213V403.465H71.5251V402.664H75.2735V407.049C75.2735 408.651 74.2727 409.469 72.9626 409.469ZM78.3091 409.433C77.2083 409.433 76.5441 408.86 76.5441 407.85C76.5441 406.822 77.2628 406.285 78.5275 406.285H79.7557V406.167C79.7557 405.503 79.4009 405.157 78.7367 405.157C78.1727 405.157 77.5085 405.184 77.1082 405.211V404.447C77.4994 404.411 78.0089 404.393 78.4456 404.393C79.9377 404.393 80.5928 404.875 80.5928 406.23V409.306H79.9013V408.341C79.6921 409.06 79.1553 409.433 78.3091 409.433ZM78.4911 408.742C79.1007 408.742 79.7194 408.45 79.7557 407.504V406.94H78.4911C77.7905 406.94 77.3993 407.313 77.3993 407.85C77.3993 408.387 77.7905 408.742 78.4911 408.742ZM83.0693 409.306H82.1958V404.447H82.8873V405.575C83.1056 404.747 83.6606 404.302 84.5796 404.302H84.6159C85.8351 404.302 86.4174 405.093 86.4174 406.531V409.306H85.544V406.349C85.544 405.594 85.0891 405.102 84.3521 405.102C83.5879 405.102 83.0693 405.621 83.0693 406.403V409.306Z" fill="#868FA0"/>
<rect x="73.0371" y="357.518" width="18.1963" height="38.2123" fill="#ABCD67"/>
<rect x="104.881" y="342.051" width="18.1963" height="53.6792" fill="#ABCD67"/>
<rect x="136.725" y="301.109" width="18.1963" height="94.621" fill="#ABCD67"/>
<rect x="168.568" y="328.404" width="18.1963" height="67.3265" fill="#ABCD67"/>
<rect x="200.412" y="321.125" width="18.1963" height="74.605" fill="#ABCD67"/>
<rect x="232.256" y="292.921" width="18.1963" height="102.809" fill="#ABCD67"/>
<rect x="264.1" y="323.855" width="18.1963" height="71.8756" fill="#ABCD67"/>
<rect x="295.941" y="350.24" width="18.1963" height="45.4909" fill="#ABCD67"/>
<defs>
<filter id="filter0_d_947_1066" x="0.254574" y="0.893842" width="369.385" height="221.086" filterUnits="userSpaceOnUse" color-interpolation-filters="sRGB">
<feFlood flood-opacity="0" result="BackgroundImageFix"/>
<feColorMatrix in="SourceAlpha" type="matrix" values="0 0 0 0 0 0 0 0 0 0 0 0 0 0 0 0 0 0 127 0" result="hardAlpha"/>
<feOffset dy="3.63927"/>
<feGaussianBlur stdDeviation="11.3727"/>
<feComposite in2="hardAlpha" operator="out"/>
<feColorMatrix type="matrix" values="0 0 0 0 0.147222 0 0 0 0 0.165498 0 0 0 0 0.166667 0 0 0 0.04 0"/>
<feBlend mode="normal" in2="BackgroundImageFix" result="effect1_dropShadow_947_1066"/>
<feBlend mode="normal" in="SourceGraphic" in2="effect1_dropShadow_947_1066" result="shape"/>
</filter>
<filter id="filter1_d_947_1066" x="0.254574" y="206.489" width="369.385" height="319.346" filterUnits="userSpaceOnUse" color-interpolation-filters="sRGB">
<feFlood flood-opacity="0" result="BackgroundImageFix"/>
<feColorMatrix in="SourceAlpha" type="matrix" values="0 0 0 0 0 0 0 0 0 0 0 0 0 0 0 0 0 0 127 0" result="hardAlpha"/>
<feOffset dy="3.63927"/>
<feGaussianBlur stdDeviation="11.3727"/>
<feComposite in2="hardAlpha" operator="out"/>
<feColorMatrix type="matrix" values="0 0 0 0 0.147222 0 0 0 0 0.165498 0 0 0 0 0.166667 0 0 0 0.04 0"/>
<feBlend mode="normal" in2="BackgroundImageFix" result="effect1_dropShadow_947_1066"/>
<feBlend mode="normal" in="SourceGraphic" in2="effect1_dropShadow_947_1066" result="shape"/>
</filter>
</defs>
</svg>
