<svg width="379" height="477" viewBox="0 0 379 477" fill="none" xmlns="http://www.w3.org/2000/svg">
<rect width="378.677" height="97.5206" rx="8" fill="white"/>
<rect x="20" y="20" width="57.5206" height="57.5206" rx="4" fill="#FFCD99"/>
<path d="M59.6248 53.9621L50.8919 38.7961C50.6737 38.4245 50.3621 38.1164 49.9882 37.9024C49.6142 37.6883 49.1908 37.5757 48.7598 37.5757C48.3289 37.5757 47.9055 37.6883 47.5315 37.9024C47.1576 38.1164 46.846 38.4245 46.6278 38.7961L37.8948 53.9621C37.6849 54.3215 37.5742 54.7303 37.5742 55.1465C37.5742 55.5627 37.6849 55.9715 37.8948 56.3309C38.1103 56.7047 38.4213 57.0144 38.796 57.2283C39.1706 57.4423 39.5955 57.5527 40.0269 57.5482H57.4928C57.9239 57.5523 58.3483 57.4417 58.7226 57.2278C59.0969 57.0139 59.4076 56.7044 59.6229 56.3309C59.8331 55.9716 59.9441 55.563 59.9445 55.1468C59.9448 54.7305 59.8345 54.3217 59.6248 53.9621ZM47.961 45.5647C47.961 45.3528 48.0451 45.1496 48.1949 44.9998C48.3448 44.85 48.548 44.7658 48.7598 44.7658C48.9717 44.7658 49.1749 44.85 49.3248 44.9998C49.4746 45.1496 49.5587 45.3528 49.5587 45.5647V49.5592C49.5587 49.7711 49.4746 49.9743 49.3248 50.1241C49.1749 50.2739 48.9717 50.3581 48.7598 50.3581C48.548 50.3581 48.3448 50.2739 48.1949 50.1241C48.0451 49.9743 47.961 49.7711 47.961 49.5592V45.5647ZM48.7598 54.3526C48.5228 54.3526 48.2912 54.2823 48.0941 54.1506C47.897 54.019 47.7434 53.8318 47.6527 53.6128C47.562 53.3939 47.5383 53.1529 47.5845 52.9205C47.6308 52.688 47.7449 52.4745 47.9125 52.3069C48.0801 52.1393 48.2936 52.0252 48.5261 51.9789C48.7585 51.9327 48.9995 51.9564 49.2184 52.0471C49.4374 52.1378 49.6246 52.2914 49.7562 52.4885C49.8879 52.6855 49.9582 52.9172 49.9582 53.1542C49.9582 53.4721 49.8319 53.7769 49.6072 54.0016C49.3825 54.2263 49.0777 54.3526 48.7598 54.3526Z" fill="black"/>
<path d="M101.005 41.7603H99.0873V30.0165H103.162C105.846 30.0165 107.572 31.1989 107.572 33.7394V33.995C107.572 35.7846 106.709 36.887 105.271 37.3824L108.53 41.7603H106.245L103.305 37.7019C103.258 37.7019 103.21 37.7019 103.162 37.7019H101.005V41.7603ZM103.417 31.6782H101.005V36.0881H103.417C104.775 36.0881 105.622 35.1774 105.622 33.8832C105.622 32.605 104.775 31.6782 103.417 31.6782ZM113.838 42.0479C110.834 42.0479 109.476 39.795 109.476 37.6061V37.3025C109.476 35.0656 110.882 32.8606 113.742 32.8606C116.522 32.8606 117.912 34.9218 117.912 37.1267V37.8777H111.266C111.393 39.3956 112.176 40.4661 113.838 40.4661C115.036 40.4661 115.835 39.8749 116.011 39.1559H117.753C117.385 40.9454 115.899 42.0479 113.838 42.0479ZM113.742 34.4424C112.336 34.4424 111.537 35.2892 111.314 36.6154H116.091C115.915 35.2573 115.132 34.4424 113.742 34.4424ZM121.798 44.9559H119.929V33.1482H121.415V35.2573C121.974 33.6435 123.268 32.8766 124.802 32.8766C127.263 32.8766 128.877 34.8578 128.877 37.3025V37.6061C128.877 40.0507 127.247 42.0479 124.786 42.0479C123.588 42.0479 122.486 41.5846 121.798 40.546V44.9559ZM124.387 40.4341C125.953 40.4341 127.007 39.2198 127.007 37.4463C127.007 35.6887 125.953 34.4744 124.387 34.4744C122.965 34.4744 121.735 35.481 121.735 37.1587V37.8457C121.735 39.4755 122.997 40.4341 124.387 40.4341ZM135.066 42.0479C132.062 42.0479 130.416 39.8589 130.416 37.622V37.3025C130.416 35.0176 132.142 32.8606 135.066 32.8606C137.989 32.8606 139.715 35.0176 139.715 37.3025V37.622C139.715 39.8589 138.069 42.0479 135.066 42.0479ZM135.066 40.4182C136.839 40.4182 137.846 39.1399 137.846 37.4622C137.846 35.7526 136.791 34.4904 135.066 34.4904C133.34 34.4904 132.285 35.7526 132.285 37.4622C132.285 39.1399 133.292 40.4182 135.066 40.4182ZM143.721 41.7603H141.852V33.1482H143.338V35.7686C143.594 33.9471 144.664 33.0523 146.501 33.0523H146.805V34.6981H146.23C144.616 34.6981 143.721 35.5928 143.721 37.1906V41.7603ZM153.465 41.8562H152.171C150.029 41.8562 148.879 41.0892 148.879 38.6766V34.5383H147.457V33.1482H148.879V30.6397H150.653V33.1482H153.465V34.5383H150.653V38.8364C150.653 39.7151 151.148 40.2264 152.027 40.2264H153.465V41.8562ZM161.428 41.984C159.511 41.984 158.312 40.9614 158.312 39.1879C158.312 37.3504 159.686 36.4397 161.955 36.4397H163.921V36.2799C163.921 35.2094 163.361 34.6501 162.275 34.6501C161.38 34.6501 160.086 34.714 159.303 34.762V33.1482C160.006 33.0843 161.013 33.0364 161.827 33.0364C164.464 33.0364 165.71 33.9791 165.71 36.3757V41.7603H164.224V40.1146C163.841 41.3449 162.898 41.984 161.428 41.984ZM161.907 40.5779C162.898 40.5779 163.857 40.1146 163.921 38.5647V37.67H161.907C160.789 37.67 160.166 38.2771 160.166 39.1399C160.166 40.0027 160.789 40.5779 161.907 40.5779ZM170.185 41.7603H168.315V33.1482H169.801V35.2094C170.185 33.6915 171.159 32.8926 172.757 32.8926H172.837C174.946 32.8926 176.001 34.2667 176.001 36.8391V41.7603H174.131V36.5835C174.131 35.3851 173.396 34.5862 172.214 34.5862C171 34.5862 170.185 35.4171 170.185 36.6634V41.7603ZM183.163 31.9499C182.396 31.9499 182.028 31.5025 182.028 30.8634C182.028 30.2402 182.396 29.7769 183.163 29.7769C183.946 29.7769 184.313 30.2402 184.313 30.8634C184.313 31.5025 183.946 31.9499 183.163 31.9499ZM184.425 41.7603H182.555V34.5862H181.293V33.1482H184.425V41.7603ZM190.183 42.016C187.866 42.016 186.524 40.9774 186.46 39.2518H188.186C188.234 39.8909 188.793 40.53 190.199 40.53C191.397 40.53 192.116 40.0187 192.116 39.2997C192.116 38.6606 191.653 38.2931 190.471 38.1653L189.624 38.0854C187.85 37.8937 186.748 37.0468 186.748 35.5769C186.748 33.8672 188.138 32.8926 190.119 32.8926C192.148 32.8926 193.506 33.8193 193.57 35.5609H191.861C191.813 34.9058 191.238 34.3945 190.119 34.3945C189.049 34.3945 188.473 34.8738 188.473 35.5289C188.473 36.1201 188.857 36.4556 189.832 36.5675L190.678 36.6474C192.612 36.8551 193.842 37.7339 193.842 39.2518C193.842 40.9135 192.356 42.016 190.183 42.016ZM198.859 42.016C196.542 42.016 195.2 40.9774 195.136 39.2518H196.861C196.909 39.8909 197.468 40.53 198.875 40.53C200.073 40.53 200.792 40.0187 200.792 39.2997C200.792 38.6606 200.329 38.2931 199.146 38.1653L198.299 38.0854C196.526 37.8937 195.423 37.0468 195.423 35.5769C195.423 33.8672 196.813 32.8926 198.795 32.8926C200.824 32.8926 202.182 33.8193 202.246 35.5609H200.536C200.488 34.9058 199.913 34.3945 198.795 34.3945C197.724 34.3945 197.149 34.8738 197.149 35.5289C197.149 36.1201 197.532 36.4556 198.507 36.5675L199.354 36.6474C201.287 36.8551 202.518 37.7339 202.518 39.2518C202.518 40.9135 201.032 42.016 198.859 42.016ZM207.598 42.016H207.518C205.489 42.016 204.37 40.6898 204.37 38.1333V33.1482H206.24V38.389C206.24 39.5873 206.959 40.3223 208.077 40.3223C209.228 40.3223 210.043 39.5234 210.043 38.2611V33.1482H211.912V41.7603H210.426V39.795C210.043 41.249 209.1 42.016 207.598 42.016ZM218.444 42.0479C215.44 42.0479 214.082 39.795 214.082 37.6061V37.3025C214.082 35.0656 215.488 32.8606 218.348 32.8606C221.128 32.8606 222.518 34.9218 222.518 37.1267V37.8777H215.871C215.999 39.3956 216.782 40.4661 218.444 40.4661C219.642 40.4661 220.441 39.8749 220.617 39.1559H222.358C221.991 40.9454 220.505 42.0479 218.444 42.0479ZM218.348 34.4424C216.942 34.4424 216.143 35.2892 215.919 36.6154H220.697C220.521 35.2573 219.738 34.4424 218.348 34.4424Z" fill="black"/>
<path d="M98.9286 67.7603V56.14H102.855C103.763 56.14 104.508 56.2951 105.091 56.6053C105.673 56.9117 106.104 57.3334 106.384 57.8706C106.664 58.4077 106.804 59.0186 106.804 59.7033C106.804 60.3879 106.664 60.995 106.384 61.5246C106.104 62.0542 105.675 62.4703 105.096 62.7729C104.518 63.0717 103.778 63.2211 102.878 63.2211H99.7003V61.9502H102.832C103.453 61.9502 103.952 61.8594 104.33 61.6778C104.712 61.4962 104.988 61.239 105.159 60.9061C105.333 60.5695 105.42 60.1685 105.42 59.7033C105.42 59.238 105.333 58.8314 105.159 58.4834C104.985 58.1353 104.707 57.8668 104.325 57.6776C103.943 57.4847 103.438 57.3883 102.81 57.3883H100.336V67.7603H98.9286ZM104.398 62.5402L107.258 67.7603H105.624L102.81 62.5402H104.398ZM111.532 67.9646C110.98 67.9646 110.479 67.8606 110.028 67.6525C109.578 67.4407 109.221 67.1362 108.956 66.739C108.691 66.338 108.559 65.8539 108.559 65.2865C108.559 64.7871 108.657 64.3824 108.854 64.0722C109.051 63.7583 109.313 63.5124 109.643 63.3346C109.972 63.1568 110.335 63.0244 110.732 62.9374C111.133 62.8466 111.536 62.7748 111.94 62.7218C112.47 62.6537 112.899 62.6027 113.228 62.5686C113.561 62.5308 113.803 62.4684 113.955 62.3814C114.11 62.2944 114.187 62.1431 114.187 61.9275V61.8821C114.187 61.3222 114.034 60.8872 113.728 60.5771C113.425 60.2669 112.966 60.1118 112.349 60.1118C111.71 60.1118 111.209 60.2517 110.845 60.5317C110.482 60.8116 110.227 61.1104 110.079 61.4281L108.808 60.9742C109.035 60.4447 109.338 60.0323 109.716 59.7373C110.098 59.4385 110.514 59.2304 110.965 59.1132C111.418 58.9921 111.865 58.9316 112.304 58.9316C112.584 58.9316 112.905 58.9656 113.268 59.0337C113.635 59.098 113.989 59.2323 114.329 59.4366C114.673 59.6408 114.959 59.9491 115.186 60.3614C115.413 60.7737 115.526 61.326 115.526 62.0182V67.7603H114.187V66.5801H114.119C114.029 66.7693 113.877 66.9716 113.665 67.1872C113.454 67.4029 113.172 67.5863 112.82 67.7376C112.468 67.8889 112.039 67.9646 111.532 67.9646ZM111.736 66.7617C112.266 66.7617 112.712 66.6577 113.075 66.4496C113.442 66.2416 113.718 65.973 113.904 65.6439C114.093 65.3148 114.187 64.9687 114.187 64.6056V63.38C114.131 63.4481 114.006 63.5105 113.813 63.5672C113.624 63.6202 113.404 63.6675 113.155 63.7091C112.909 63.7469 112.669 63.781 112.434 63.8112C112.203 63.8377 112.016 63.8604 111.872 63.8793C111.524 63.9247 111.199 63.9985 110.896 64.1006C110.598 64.1989 110.356 64.3484 110.17 64.5488C109.989 64.7455 109.898 65.0141 109.898 65.3545C109.898 65.8198 110.07 66.1716 110.414 66.4099C110.762 66.6444 111.203 66.7617 111.736 66.7617ZM117.971 67.7603V59.0451H119.31V67.7603H117.971ZM118.651 57.5925C118.39 57.5925 118.165 57.5036 117.976 57.3259C117.791 57.1481 117.698 56.9344 117.698 56.6847C117.698 56.435 117.791 56.2213 117.976 56.0435C118.165 55.8658 118.39 55.7769 118.651 55.7769C118.912 55.7769 119.136 55.8658 119.321 56.0435C119.51 56.2213 119.605 56.435 119.605 56.6847C119.605 56.9344 119.51 57.1481 119.321 57.3259C119.136 57.5036 118.912 57.5925 118.651 57.5925ZM127.935 60.9969L126.733 61.3374C126.657 61.1369 126.545 60.9421 126.398 60.7529C126.254 60.56 126.057 60.4012 125.808 60.2763C125.558 60.1515 125.238 60.0891 124.849 60.0891C124.315 60.0891 123.871 60.212 123.515 60.4579C123.164 60.7 122.988 61.0083 122.988 61.3828C122.988 61.7156 123.109 61.9785 123.351 62.1714C123.593 62.3644 123.971 62.5251 124.486 62.6537L125.779 62.9715C126.559 63.1606 127.139 63.45 127.521 63.8396C127.903 64.2254 128.094 64.7228 128.094 65.3318C128.094 65.8312 127.951 66.2775 127.663 66.6709C127.379 67.0643 126.982 67.3745 126.472 67.6014C125.961 67.8284 125.367 67.9419 124.69 67.9419C123.801 67.9419 123.065 67.749 122.483 67.3631C121.9 66.9773 121.531 66.4137 121.376 65.6723L122.647 65.3545C122.768 65.8236 122.997 66.1754 123.334 66.4099C123.674 66.6444 124.119 66.7617 124.667 66.7617C125.291 66.7617 125.787 66.6293 126.154 66.3645C126.525 66.0959 126.71 65.7744 126.71 65.3999C126.71 65.0973 126.604 64.8439 126.392 64.6396C126.18 64.4316 125.855 64.2765 125.416 64.1744L123.964 63.8339C123.166 63.6448 122.579 63.3516 122.205 62.9545C121.834 62.5535 121.649 62.0523 121.649 61.4508C121.649 60.9591 121.787 60.5241 122.063 60.1458C122.343 59.7676 122.723 59.4706 123.203 59.255C123.688 59.0394 124.236 58.9316 124.849 58.9316C125.711 58.9316 126.388 59.1207 126.88 59.499C127.376 59.8773 127.727 60.3766 127.935 60.9969ZM133.764 67.9419C132.924 67.9419 132.2 67.7565 131.591 67.3858C130.986 67.0113 130.519 66.4893 130.189 65.8198C129.864 65.1465 129.701 64.3635 129.701 63.4708C129.701 62.5781 129.864 61.7913 130.189 61.1104C130.519 60.4257 130.976 59.8924 131.563 59.5103C132.153 59.1245 132.841 58.9316 133.628 58.9316C134.082 58.9316 134.53 59.0072 134.973 59.1586C135.415 59.3099 135.818 59.5557 136.181 59.8962C136.544 60.2328 136.834 60.6792 137.049 61.2352C137.265 61.7913 137.373 62.4759 137.373 63.2892V63.8566H130.655V62.6991H136.011C136.011 62.2074 135.913 61.7686 135.716 61.3828C135.523 60.9969 135.247 60.6924 134.888 60.4692C134.532 60.2461 134.112 60.1345 133.628 60.1345C133.095 60.1345 132.633 60.2669 132.243 60.5317C131.858 60.7927 131.561 61.1331 131.353 61.553C131.145 61.9729 131.041 62.423 131.041 62.9034V63.675C131.041 64.3332 131.154 64.8912 131.381 65.3489C131.612 65.8028 131.931 66.1489 132.34 66.3872C132.748 66.6217 133.223 66.739 133.764 66.739C134.116 66.739 134.434 66.6898 134.717 66.5915C135.005 66.4893 135.253 66.338 135.461 66.1376C135.669 65.9333 135.829 65.6799 135.943 65.3772L137.237 65.7404C137.1 66.1792 136.872 66.565 136.55 66.8979C136.228 67.227 135.831 67.4842 135.358 67.6695C134.886 67.8511 134.354 67.9419 133.764 67.9419ZM146.468 67.9646C145.916 67.9646 145.415 67.8606 144.965 67.6525C144.514 67.4407 144.157 67.1362 143.892 66.739C143.627 66.338 143.495 65.8539 143.495 65.2865C143.495 64.7871 143.593 64.3824 143.79 64.0722C143.987 63.7583 144.25 63.5124 144.579 63.3346C144.908 63.1568 145.271 63.0244 145.668 62.9374C146.069 62.8466 146.472 62.7748 146.877 62.7218C147.406 62.6537 147.836 62.6027 148.165 62.5686C148.498 62.5308 148.74 62.4684 148.891 62.3814C149.046 62.2944 149.124 62.1431 149.124 61.9275V61.8821C149.124 61.3222 148.97 60.8872 148.664 60.5771C148.361 60.2669 147.902 60.1118 147.285 60.1118C146.646 60.1118 146.145 60.2517 145.782 60.5317C145.418 60.8116 145.163 61.1104 145.016 61.4281L143.745 60.9742C143.972 60.4447 144.274 60.0323 144.652 59.7373C145.034 59.4385 145.451 59.2304 145.901 59.1132C146.355 58.9921 146.801 58.9316 147.24 58.9316C147.52 58.9316 147.841 58.9656 148.204 59.0337C148.571 59.098 148.925 59.2323 149.265 59.4366C149.61 59.6408 149.895 59.9491 150.122 60.3614C150.349 60.7737 150.463 61.326 150.463 62.0182V67.7603H149.124V66.5801H149.055C148.965 66.7693 148.813 66.9716 148.602 67.1872C148.39 67.4029 148.108 67.5863 147.756 67.7376C147.404 67.8889 146.975 67.9646 146.468 67.9646ZM146.672 66.7617C147.202 66.7617 147.648 66.6577 148.011 66.4496C148.378 66.2416 148.654 65.973 148.84 65.6439C149.029 65.3148 149.124 64.9687 149.124 64.6056V63.38C149.067 63.4481 148.942 63.5105 148.749 63.5672C148.56 63.6202 148.341 63.6675 148.091 63.7091C147.845 63.7469 147.605 63.781 147.37 63.8112C147.14 63.8377 146.952 63.8604 146.809 63.8793C146.461 63.9247 146.135 63.9985 145.833 64.1006C145.534 64.1989 145.292 64.3484 145.106 64.5488C144.925 64.7455 144.834 65.0141 144.834 65.3545C144.834 65.8198 145.006 66.1716 145.35 66.4099C145.698 66.6444 146.139 66.7617 146.672 66.7617ZM154.246 62.5176V67.7603H152.907V59.0451H154.2V60.4068H154.314C154.518 59.9643 154.828 59.6087 155.244 59.3401C155.66 59.0678 156.198 58.9316 156.856 58.9316C157.446 58.9316 157.962 59.0526 158.405 59.2947C158.847 59.533 159.192 59.8962 159.437 60.3841C159.683 60.8683 159.806 61.4811 159.806 62.2225V67.7603H158.467V62.3133C158.467 61.6286 158.289 61.0953 157.934 60.7132C157.578 60.3274 157.09 60.1345 156.47 60.1345C156.042 60.1345 155.66 60.2272 155.324 60.4125C154.991 60.5979 154.728 60.8683 154.535 61.2239C154.342 61.5795 154.246 62.0107 154.246 62.5176ZM169.312 67.9646C168.759 67.9646 168.258 67.8606 167.808 67.6525C167.358 67.4407 167 67.1362 166.736 66.739C166.471 66.338 166.338 65.8539 166.338 65.2865C166.338 64.7871 166.437 64.3824 166.633 64.0722C166.83 63.7583 167.093 63.5124 167.422 63.3346C167.751 63.1568 168.114 63.0244 168.512 62.9374C168.912 62.8466 169.315 62.7748 169.72 62.7218C170.25 62.6537 170.679 62.6027 171.008 62.5686C171.341 62.5308 171.583 62.4684 171.734 62.3814C171.889 62.2944 171.967 62.1431 171.967 61.9275V61.8821C171.967 61.3222 171.814 60.8872 171.507 60.5771C171.205 60.2669 170.745 60.1118 170.129 60.1118C169.489 60.1118 168.988 60.2517 168.625 60.5317C168.262 60.8116 168.007 61.1104 167.859 61.4281L166.588 60.9742C166.815 60.4447 167.118 60.0323 167.496 59.7373C167.878 59.4385 168.294 59.2304 168.744 59.1132C169.198 58.9921 169.644 58.9316 170.083 58.9316C170.363 58.9316 170.685 58.9656 171.048 59.0337C171.415 59.098 171.768 59.2323 172.109 59.4366C172.453 59.6408 172.739 59.9491 172.966 60.3614C173.193 60.7737 173.306 61.326 173.306 62.0182V67.7603H171.967V66.5801H171.899C171.808 66.7693 171.657 66.9716 171.445 67.1872C171.233 67.4029 170.951 67.5863 170.6 67.7376C170.248 67.8889 169.818 67.9646 169.312 67.9646ZM169.516 66.7617C170.045 66.7617 170.492 66.6577 170.855 66.4496C171.222 66.2416 171.498 65.973 171.683 65.6439C171.872 65.3148 171.967 64.9687 171.967 64.6056V63.38C171.91 63.4481 171.785 63.5105 171.593 63.5672C171.403 63.6202 171.184 63.6675 170.934 63.7091C170.688 63.7469 170.448 63.781 170.214 63.8112C169.983 63.8377 169.796 63.8604 169.652 63.8793C169.304 63.9247 168.979 63.9985 168.676 64.1006C168.377 64.1989 168.135 64.3484 167.95 64.5488C167.768 64.7455 167.677 65.0141 167.677 65.3545C167.677 65.8198 167.85 66.1716 168.194 66.4099C168.542 66.6444 168.982 66.7617 169.516 66.7617ZM177.089 56.14V67.7603H175.75V56.14H177.089ZM182.106 67.9646C181.554 67.9646 181.053 67.8606 180.603 67.6525C180.153 67.4407 179.795 67.1362 179.53 66.739C179.266 66.338 179.133 65.8539 179.133 65.2865C179.133 64.7871 179.232 64.3824 179.428 64.0722C179.625 63.7583 179.888 63.5124 180.217 63.3346C180.546 63.1568 180.909 63.0244 181.306 62.9374C181.707 62.8466 182.11 62.7748 182.515 62.7218C183.045 62.6537 183.474 62.6027 183.803 62.5686C184.136 62.5308 184.378 62.4684 184.529 62.3814C184.684 62.2944 184.762 62.1431 184.762 61.9275V61.8821C184.762 61.3222 184.609 60.8872 184.302 60.5771C184 60.2669 183.54 60.1118 182.923 60.1118C182.284 60.1118 181.783 60.2517 181.42 60.5317C181.057 60.8116 180.801 61.1104 180.654 61.4281L179.383 60.9742C179.61 60.4447 179.912 60.0323 180.291 59.7373C180.673 59.4385 181.089 59.2304 181.539 59.1132C181.993 58.9921 182.439 58.9316 182.878 58.9316C183.158 58.9316 183.48 58.9656 183.843 59.0337C184.21 59.098 184.563 59.2323 184.904 59.4366C185.248 59.6408 185.533 59.9491 185.76 60.3614C185.987 60.7737 186.101 61.326 186.101 62.0182V67.7603H184.762V66.5801H184.694C184.603 66.7693 184.452 66.9716 184.24 67.1872C184.028 67.4029 183.746 67.5863 183.394 67.7376C183.043 67.8889 182.613 67.9646 182.106 67.9646ZM182.311 66.7617C182.84 66.7617 183.287 66.6577 183.65 66.4496C184.017 66.2416 184.293 65.973 184.478 65.6439C184.667 65.3148 184.762 64.9687 184.762 64.6056V63.38C184.705 63.4481 184.58 63.5105 184.387 63.5672C184.198 63.6202 183.979 63.6675 183.729 63.7091C183.483 63.7469 183.243 63.781 183.009 63.8112C182.778 63.8377 182.591 63.8604 182.447 63.8793C182.099 63.9247 181.774 63.9985 181.471 64.1006C181.172 64.1989 180.93 64.3484 180.745 64.5488C180.563 64.7455 180.472 65.0141 180.472 65.3545C180.472 65.8198 180.644 66.1716 180.989 66.4099C181.337 66.6444 181.777 66.7617 182.311 66.7617ZM188.545 67.7603V59.0451H189.839V60.3614H189.929C190.088 59.9302 190.376 59.5803 190.792 59.3118C191.208 59.0432 191.677 58.9089 192.199 58.9089C192.297 58.9089 192.42 58.9108 192.568 58.9146C192.715 58.9184 192.827 58.924 192.903 58.9316V60.2934C192.857 60.282 192.753 60.265 192.591 60.2423C192.432 60.2158 192.263 60.2026 192.086 60.2026C191.662 60.2026 191.284 60.2915 190.951 60.4692C190.622 60.6432 190.361 60.8853 190.168 61.1955C189.979 61.5019 189.884 61.8518 189.884 62.2452V67.7603H188.545ZM194.49 67.7603V59.0451H195.784V60.4068H195.897C196.079 59.9416 196.372 59.5803 196.776 59.3231C197.181 59.0621 197.667 58.9316 198.235 58.9316C198.81 58.9316 199.288 59.0621 199.67 59.3231C200.056 59.5803 200.357 59.9416 200.572 60.4068H200.663C200.886 59.9567 201.221 59.5992 201.667 59.3344C202.114 59.0659 202.649 58.9316 203.273 58.9316C204.052 58.9316 204.69 59.1756 205.185 59.6635C205.681 60.1477 205.929 60.9024 205.929 61.9275V67.7603H204.59V61.9275C204.59 61.2844 204.414 60.8248 204.062 60.5487C203.71 60.2725 203.296 60.1345 202.819 60.1345C202.206 60.1345 201.732 60.3198 201.395 60.6905C201.058 61.0574 200.89 61.5227 200.89 62.0863V67.7603H199.528V61.7913C199.528 61.2958 199.368 60.8967 199.046 60.5941C198.725 60.2877 198.31 60.1345 197.803 60.1345C197.455 60.1345 197.13 60.2272 196.828 60.4125C196.529 60.5979 196.287 60.8551 196.101 61.1842C195.92 61.5095 195.829 61.8858 195.829 62.3133V67.7603H194.49ZM216.752 59.0451V60.1799H212.054V59.0451H216.752ZM213.461 67.7603V57.8422C213.461 57.3429 213.578 56.9268 213.813 56.5939C214.047 56.261 214.352 56.0114 214.726 55.8449C215.101 55.6785 215.496 55.5953 215.912 55.5953C216.241 55.5953 216.51 55.6218 216.718 55.6747C216.926 55.7277 217.081 55.7769 217.183 55.8223L216.797 56.9797C216.729 56.957 216.634 56.9287 216.513 56.8946C216.396 56.8606 216.241 56.8436 216.048 56.8436C215.606 56.8436 215.286 56.9552 215.089 57.1783C214.896 57.4015 214.8 57.7287 214.8 58.1599V67.7603H213.461ZM221.81 67.9419C221.023 67.9419 220.333 67.7546 219.739 67.3802C219.149 67.0057 218.688 66.4818 218.355 65.8085C218.026 65.1352 217.861 64.3484 217.861 63.4481C217.861 62.5402 218.026 61.7478 218.355 61.0707C218.688 60.3936 219.149 59.8678 219.739 59.4933C220.333 59.1188 221.023 58.9316 221.81 58.9316C222.597 58.9316 223.285 59.1188 223.875 59.4933C224.469 59.8678 224.931 60.3936 225.26 61.0707C225.593 61.7478 225.759 62.5402 225.759 63.4481C225.759 64.3484 225.593 65.1352 225.26 65.8085C224.931 66.4818 224.469 67.0057 223.875 67.3802C223.285 67.7546 222.597 67.9419 221.81 67.9419ZM221.81 66.739C222.408 66.739 222.9 66.5858 223.285 66.2794C223.671 65.973 223.957 65.5702 224.142 65.0708C224.327 64.5715 224.42 64.0306 224.42 63.4481C224.42 62.8656 224.327 62.3227 224.142 61.8197C223.957 61.3166 223.671 60.9099 223.285 60.5997C222.9 60.2896 222.408 60.1345 221.81 60.1345C221.212 60.1345 220.721 60.2896 220.335 60.5997C219.949 60.9099 219.663 61.3166 219.478 61.8197C219.293 62.3227 219.2 62.8656 219.2 63.4481C219.2 64.0306 219.293 64.5715 219.478 65.0708C219.663 65.5702 219.949 65.973 220.335 66.2794C220.721 66.5858 221.212 66.739 221.81 66.739ZM227.803 67.7603V59.0451H229.097V60.3614H229.188C229.347 59.9302 229.634 59.5803 230.05 59.3118C230.466 59.0432 230.935 58.9089 231.457 58.9089C231.556 58.9089 231.679 58.9108 231.826 58.9146C231.974 58.9184 232.085 58.924 232.161 58.9316V60.2934C232.115 60.282 232.011 60.265 231.849 60.2423C231.69 60.2158 231.522 60.2026 231.344 60.2026C230.92 60.2026 230.542 60.2915 230.209 60.4692C229.88 60.6432 229.619 60.8853 229.426 61.1955C229.237 61.5019 229.142 61.8518 229.142 62.2452V67.7603H227.803ZM240.807 67.9646C240.254 67.9646 239.753 67.8606 239.303 67.6525C238.853 67.4407 238.495 67.1362 238.231 66.739C237.966 66.338 237.833 65.8539 237.833 65.2865C237.833 64.7871 237.932 64.3824 238.128 64.0722C238.325 63.7583 238.588 63.5124 238.917 63.3346C239.246 63.1568 239.609 63.0244 240.007 62.9374C240.408 62.8466 240.81 62.7748 241.215 62.7218C241.745 62.6537 242.174 62.6027 242.503 62.5686C242.836 62.5308 243.078 62.4684 243.229 62.3814C243.384 62.2944 243.462 62.1431 243.462 61.9275V61.8821C243.462 61.3222 243.309 60.8872 243.002 60.5771C242.7 60.2669 242.24 60.1118 241.624 60.1118C240.984 60.1118 240.483 60.2517 240.12 60.5317C239.757 60.8116 239.502 61.1104 239.354 61.4281L238.083 60.9742C238.31 60.4447 238.613 60.0323 238.991 59.7373C239.373 59.4385 239.789 59.2304 240.239 59.1132C240.693 58.9921 241.139 58.9316 241.578 58.9316C241.858 58.9316 242.18 58.9656 242.543 59.0337C242.91 59.098 243.263 59.2323 243.604 59.4366C243.948 59.6408 244.234 59.9491 244.461 60.3614C244.688 60.7737 244.801 61.326 244.801 62.0182V67.7603H243.462V66.5801H243.394C243.303 66.7693 243.152 66.9716 242.94 67.1872C242.728 67.4029 242.446 67.5863 242.095 67.7376C241.743 67.8889 241.313 67.9646 240.807 67.9646ZM241.011 66.7617C241.54 66.7617 241.987 66.6577 242.35 66.4496C242.717 66.2416 242.993 65.973 243.178 65.6439C243.367 65.3148 243.462 64.9687 243.462 64.6056V63.38C243.405 63.4481 243.28 63.5105 243.088 63.5672C242.898 63.6202 242.679 63.6675 242.429 63.7091C242.183 63.7469 241.943 63.781 241.709 63.8112C241.478 63.8377 241.291 63.8604 241.147 63.8793C240.799 63.9247 240.474 63.9985 240.171 64.1006C239.872 64.1989 239.63 64.3484 239.445 64.5488C239.263 64.7455 239.173 65.0141 239.173 65.3545C239.173 65.8198 239.345 66.1716 239.689 66.4099C240.037 66.6444 240.478 66.7617 241.011 66.7617ZM248.584 62.5176V67.7603H247.245V59.0451H248.539V60.4068H248.652C248.857 59.9643 249.167 59.6087 249.583 59.3401C249.999 59.0678 250.536 58.9316 251.194 58.9316C251.784 58.9316 252.301 59.0526 252.743 59.2947C253.186 59.533 253.53 59.8962 253.776 60.3841C254.022 60.8683 254.145 61.4811 254.145 62.2225V67.7603H252.806V62.3133C252.806 61.6286 252.628 61.0953 252.272 60.7132C251.917 60.3274 251.429 60.1345 250.808 60.1345C250.381 60.1345 249.999 60.2272 249.662 60.4125C249.329 60.5979 249.067 60.8683 248.874 61.2239C248.681 61.5795 248.584 62.0107 248.584 62.5176ZM257.142 71.0285C256.915 71.0285 256.713 71.0096 256.535 70.9718C256.357 70.9377 256.234 70.9037 256.166 70.8697L256.507 69.6895C256.832 69.7727 257.119 69.8029 257.369 69.7803C257.619 69.7576 257.84 69.646 258.033 69.4455C258.23 69.2488 258.409 68.9292 258.572 68.4866L258.822 67.8057L255.599 59.0451H257.051L259.457 65.99H259.548L261.954 59.0451H263.406L259.707 69.0313C259.54 69.4814 259.334 69.854 259.088 70.1491C258.842 70.4479 258.557 70.6692 258.231 70.8129C257.91 70.9567 257.547 71.0285 257.142 71.0285ZM269.667 67.7603V59.0451H271.006V67.7603H269.667ZM270.348 57.5925C270.087 57.5925 269.862 57.5036 269.673 57.3259C269.488 57.1481 269.395 56.9344 269.395 56.6847C269.395 56.435 269.488 56.2213 269.673 56.0435C269.862 55.8658 270.087 55.7769 270.348 55.7769C270.609 55.7769 270.832 55.8658 271.018 56.0435C271.207 56.2213 271.301 56.435 271.301 56.6847C271.301 56.9344 271.207 57.1481 271.018 57.3259C270.832 57.5036 270.609 57.5925 270.348 57.5925ZM279.632 60.9969L278.429 61.3374C278.354 61.1369 278.242 60.9421 278.095 60.7529C277.951 60.56 277.754 60.4012 277.505 60.2763C277.255 60.1515 276.935 60.0891 276.546 60.0891C276.012 60.0891 275.568 60.212 275.212 60.4579C274.86 60.7 274.685 61.0083 274.685 61.3828C274.685 61.7156 274.806 61.9785 275.048 62.1714C275.29 62.3644 275.668 62.5251 276.182 62.6537L277.476 62.9715C278.255 63.1606 278.836 63.45 279.218 63.8396C279.6 64.2254 279.791 64.7228 279.791 65.3318C279.791 65.8312 279.647 66.2775 279.36 66.6709C279.076 67.0643 278.679 67.3745 278.168 67.6014C277.658 67.8284 277.064 67.9419 276.387 67.9419C275.498 67.9419 274.762 67.749 274.18 67.3631C273.597 66.9773 273.228 66.4137 273.073 65.6723L274.344 65.3545C274.465 65.8236 274.694 66.1754 275.031 66.4099C275.371 66.6444 275.816 66.7617 276.364 66.7617C276.988 66.7617 277.484 66.6293 277.851 66.3645C278.221 66.0959 278.407 65.7744 278.407 65.3999C278.407 65.0973 278.301 64.8439 278.089 64.6396C277.877 64.4316 277.552 64.2765 277.113 64.1744L275.66 63.8339C274.862 63.6448 274.276 63.3516 273.902 62.9545C273.531 62.5535 273.345 62.0523 273.345 61.4508C273.345 60.9591 273.484 60.5241 273.76 60.1458C274.04 59.7676 274.42 59.4706 274.9 59.255C275.384 59.0394 275.933 58.9316 276.546 58.9316C277.408 58.9316 278.085 59.1207 278.577 59.499C279.072 59.8773 279.424 60.3766 279.632 60.9969ZM287.98 60.9969L286.777 61.3374C286.702 61.1369 286.59 60.9421 286.442 60.7529C286.299 60.56 286.102 60.4012 285.852 60.2763C285.603 60.1515 285.283 60.0891 284.893 60.0891C284.36 60.0891 283.916 60.212 283.56 60.4579C283.208 60.7 283.032 61.0083 283.032 61.3828C283.032 61.7156 283.153 61.9785 283.396 62.1714C283.638 62.3644 284.016 62.5251 284.53 62.6537L285.824 62.9715C286.603 63.1606 287.184 63.45 287.566 63.8396C287.948 64.2254 288.139 64.7228 288.139 65.3318C288.139 65.8312 287.995 66.2775 287.708 66.6709C287.424 67.0643 287.027 67.3745 286.516 67.6014C286.006 67.8284 285.412 67.9419 284.735 67.9419C283.846 67.9419 283.11 67.749 282.527 67.3631C281.945 66.9773 281.576 66.4137 281.421 65.6723L282.692 65.3545C282.813 65.8236 283.042 66.1754 283.379 66.4099C283.719 66.6444 284.163 66.7617 284.712 66.7617C285.336 66.7617 285.832 66.6293 286.198 66.3645C286.569 66.0959 286.755 65.7744 286.755 65.3999C286.755 65.0973 286.649 64.8439 286.437 64.6396C286.225 64.4316 285.9 64.2765 285.461 64.1744L284.008 63.8339C283.21 63.6448 282.624 63.3516 282.249 62.9545C281.879 62.5535 281.693 62.0523 281.693 61.4508C281.693 60.9591 281.831 60.5241 282.108 60.1458C282.387 59.7676 282.768 59.4706 283.248 59.255C283.732 59.0394 284.281 58.9316 284.893 58.9316C285.756 58.9316 286.433 59.1207 286.925 59.499C287.42 59.8773 287.772 60.3766 287.98 60.9969ZM295.647 64.1971V59.0451H296.986V67.7603H295.647V66.2851H295.556C295.352 66.7276 295.034 67.104 294.603 67.4142C294.172 67.7206 293.627 67.8738 292.969 67.8738C292.424 67.8738 291.94 67.7546 291.516 67.5163C291.093 67.2742 290.76 66.9111 290.518 66.4269C290.276 65.939 290.155 65.3243 290.155 64.5829V59.0451H291.494V64.4921C291.494 65.1276 291.672 65.6345 292.027 66.0127C292.386 66.391 292.844 66.5801 293.4 66.5801C293.733 66.5801 294.072 66.495 294.416 66.3248C294.764 66.1546 295.055 65.8936 295.29 65.5418C295.528 65.19 295.647 64.7418 295.647 64.1971ZM303.093 67.9419C302.253 67.9419 301.529 67.7565 300.92 67.3858C300.314 67.0113 299.847 66.4893 299.518 65.8198C299.193 65.1465 299.03 64.3635 299.03 63.4708C299.03 62.5781 299.193 61.7913 299.518 61.1104C299.847 60.4257 300.305 59.8924 300.891 59.5103C301.481 59.1245 302.17 58.9316 302.957 58.9316C303.411 58.9316 303.859 59.0072 304.301 59.1586C304.744 59.3099 305.147 59.5557 305.51 59.8962C305.873 60.2328 306.162 60.6792 306.378 61.2352C306.594 61.7913 306.701 62.4759 306.701 63.2892V63.8566H299.983V62.6991H305.34C305.34 62.2074 305.241 61.7686 305.045 61.3828C304.852 60.9969 304.576 60.6924 304.216 60.4692C303.861 60.2461 303.441 60.1345 302.957 60.1345C302.423 60.1345 301.962 60.2669 301.572 60.5317C301.186 60.7927 300.889 61.1331 300.681 61.553C300.473 61.9729 300.369 62.423 300.369 62.9034V63.675C300.369 64.3332 300.483 64.8912 300.71 65.3489C300.94 65.8028 301.26 66.1489 301.669 66.3872C302.077 66.6217 302.552 66.739 303.093 66.739C303.445 66.739 303.762 66.6898 304.046 66.5915C304.333 66.4893 304.581 66.338 304.789 66.1376C304.997 65.9333 305.158 65.6799 305.272 65.3772L306.565 65.7404C306.429 66.1792 306.2 66.565 305.879 66.8979C305.557 67.227 305.16 67.4842 304.687 67.6695C304.214 67.8511 303.683 67.9419 303.093 67.9419ZM314.912 60.9969L313.709 61.3374C313.633 61.1369 313.522 60.9421 313.374 60.7529C313.23 60.56 313.034 60.4012 312.784 60.2763C312.534 60.1515 312.215 60.0891 311.825 60.0891C311.292 60.0891 310.847 60.212 310.492 60.4579C310.14 60.7 309.964 61.0083 309.964 61.3828C309.964 61.7156 310.085 61.9785 310.327 62.1714C310.569 62.3644 310.947 62.5251 311.462 62.6537L312.756 62.9715C313.535 63.1606 314.115 63.45 314.497 63.8396C314.88 64.2254 315.071 64.7228 315.071 65.3318C315.071 65.8312 314.927 66.2775 314.639 66.6709C314.356 67.0643 313.958 67.3745 313.448 67.6014C312.937 67.8284 312.343 67.9419 311.666 67.9419C310.777 67.9419 310.042 67.749 309.459 67.3631C308.876 66.9773 308.508 66.4137 308.353 65.6723L309.624 65.3545C309.745 65.8236 309.973 66.1754 310.31 66.4099C310.651 66.6444 311.095 66.7617 311.643 66.7617C312.268 66.7617 312.763 66.6293 313.13 66.3645C313.501 66.0959 313.686 65.7744 313.686 65.3999C313.686 65.0973 313.58 64.8439 313.368 64.6396C313.157 64.4316 312.831 64.2765 312.392 64.1744L310.94 63.8339C310.142 63.6448 309.555 63.3516 309.181 62.9545C308.81 62.5535 308.625 62.0523 308.625 61.4508C308.625 60.9591 308.763 60.5241 309.039 60.1458C309.319 59.7676 309.699 59.4706 310.18 59.255C310.664 59.0394 311.212 58.9316 311.825 58.9316C312.687 58.9316 313.365 59.1207 313.856 59.499C314.352 59.8773 314.704 60.3766 314.912 60.9969Z" fill="#868FA0"/>
<rect y="131.873" width="378.677" height="344.715" rx="8" fill="#FCFDFF"/>
<rect x="34.3874" y="172.203" width="309.904" height="55.1884" rx="2.97168" fill="#FCFDFF"/>
<rect x="34.3874" y="172.203" width="309.904" height="55.1884" rx="2.97168" stroke="#C3C8D1" stroke-width="0.849052"/>
<path d="M323.491 198.524L318.397 203.618L313.303 198.524" stroke="#474C58" stroke-width="1.27358" stroke-linecap="round" stroke-linejoin="round"/>
<rect width="85.8867" height="24.7924" transform="translate(43.3047 158.618)" fill="#FCFDFF"/>
<path d="M55.0226 168.531C54.9719 168.103 54.7665 167.771 54.4063 167.535C54.0461 167.298 53.6043 167.18 53.0808 167.18C52.6981 167.18 52.3632 167.242 52.0762 167.366C51.792 167.49 51.5697 167.66 51.4093 167.877C51.2517 168.093 51.1729 168.339 51.1729 168.615C51.1729 168.846 51.2278 169.044 51.3375 169.21C51.4501 169.374 51.5936 169.51 51.7681 169.62C51.9425 169.727 52.1255 169.815 52.3168 169.886C52.5082 169.953 52.6841 170.008 52.8445 170.05L53.7225 170.287C53.9476 170.346 54.198 170.427 54.4738 170.532C54.7524 170.636 55.0183 170.778 55.2716 170.958C55.5277 171.135 55.7388 171.363 55.9048 171.642C56.0708 171.92 56.1538 172.262 56.1538 172.668C56.1538 173.135 56.0314 173.557 55.7866 173.934C55.5446 174.311 55.19 174.611 54.7229 174.833C54.2585 175.055 53.6943 175.166 53.0302 175.166C52.4111 175.166 51.875 175.067 51.4219 174.867C50.9717 174.667 50.6171 174.388 50.3582 174.031C50.1021 173.674 49.9572 173.258 49.9234 172.786H51.004C51.0322 173.112 51.1419 173.382 51.3333 173.596C51.5275 173.807 51.7723 173.965 52.0678 174.069C52.3661 174.17 52.6869 174.221 53.0302 174.221C53.4298 174.221 53.7886 174.156 54.1066 174.027C54.4246 173.894 54.6764 173.712 54.8622 173.478C55.0479 173.242 55.1408 172.966 55.1408 172.651C55.1408 172.364 55.0606 172.13 54.9002 171.95C54.7397 171.77 54.5287 171.623 54.267 171.511C54.0053 171.398 53.7225 171.3 53.4185 171.215L52.3548 170.912C51.6794 170.717 51.1447 170.44 50.7508 170.08C50.3568 169.72 50.1598 169.248 50.1598 168.666C50.1598 168.182 50.2907 167.76 50.5524 167.4C50.8169 167.037 51.1715 166.755 51.6161 166.555C52.0635 166.353 52.563 166.251 53.1146 166.251C53.6718 166.251 54.1671 166.351 54.6005 166.551C55.0338 166.748 55.3771 167.018 55.6304 167.362C55.8865 167.705 56.0216 168.095 56.0356 168.531H55.0226ZM60.4583 175.15C59.8336 175.15 59.2947 175.012 58.8416 174.736C58.3914 174.457 58.0438 174.069 57.799 173.571C57.557 173.07 57.436 172.487 57.436 171.823C57.436 171.159 57.557 170.574 57.799 170.067C58.0438 169.558 58.3843 169.161 58.8205 168.877C59.2595 168.59 59.7717 168.446 60.357 168.446C60.6947 168.446 61.0282 168.503 61.3574 168.615C61.6867 168.728 61.9864 168.911 62.2565 169.164C62.5267 169.414 62.742 169.746 62.9024 170.16C63.0628 170.574 63.143 171.083 63.143 171.688V172.11H58.1452V171.249H62.1299C62.1299 170.883 62.0567 170.557 61.9104 170.27C61.7669 169.983 61.5615 169.756 61.2941 169.59C61.0296 169.424 60.7172 169.341 60.357 169.341C59.9602 169.341 59.6169 169.44 59.3271 169.637C59.04 169.831 58.8191 170.084 58.6644 170.397C58.5096 170.709 58.4322 171.044 58.4322 171.401V171.975C58.4322 172.465 58.5166 172.88 58.6855 173.22C58.8571 173.558 59.0949 173.816 59.3988 173.993C59.7028 174.167 60.0559 174.255 60.4583 174.255C60.72 174.255 60.9564 174.218 61.1675 174.145C61.3814 174.069 61.5657 173.956 61.7205 173.807C61.8752 173.655 61.9948 173.467 62.0793 173.242L63.0417 173.512C62.9404 173.838 62.7701 174.125 62.5309 174.373C62.2917 174.618 61.9962 174.809 61.6445 174.947C61.2927 175.082 60.8973 175.15 60.4583 175.15ZM65.6546 166.37V175.014H64.6584V166.37H65.6546ZM70.1976 175.15C69.5728 175.15 69.0339 175.012 68.5809 174.736C68.1306 174.457 67.7831 174.069 67.5382 173.571C67.2962 173.07 67.1752 172.487 67.1752 171.823C67.1752 171.159 67.2962 170.574 67.5382 170.067C67.7831 169.558 68.1236 169.161 68.5598 168.877C68.9988 168.59 69.5109 168.446 70.0963 168.446C70.4339 168.446 70.7674 168.503 71.0967 168.615C71.4259 168.728 71.7256 168.911 71.9958 169.164C72.2659 169.414 72.4812 169.746 72.6416 170.16C72.802 170.574 72.8822 171.083 72.8822 171.688V172.11H67.8844V171.249H71.8691C71.8691 170.883 71.796 170.557 71.6496 170.27C71.5061 169.983 71.3007 169.756 71.0333 169.59C70.7688 169.424 70.4565 169.341 70.0963 169.341C69.6995 169.341 69.3561 169.44 69.0663 169.637C68.7793 169.831 68.5583 170.084 68.4036 170.397C68.2488 170.709 68.1714 171.044 68.1714 171.401V171.975C68.1714 172.465 68.2558 172.88 68.4247 173.22C68.5963 173.558 68.8341 173.816 69.1381 173.993C69.442 174.167 69.7951 174.255 70.1976 174.255C70.4593 174.255 70.6957 174.218 70.9067 174.145C71.1206 174.069 71.3049 173.956 71.4597 173.807C71.6145 173.655 71.7341 173.467 71.8185 173.242L72.7809 173.512C72.6796 173.838 72.5093 174.125 72.2701 174.373C72.0309 174.618 71.7355 174.809 71.3837 174.947C71.0319 175.082 70.6366 175.15 70.1976 175.15ZM77.0316 175.15C76.4237 175.15 75.9003 175.006 75.4613 174.719C75.0223 174.432 74.6846 174.037 74.4482 173.533C74.2119 173.029 74.0937 172.454 74.0937 171.806C74.0937 171.148 74.2147 170.567 74.4567 170.063C74.7015 169.557 75.042 169.161 75.4782 168.877C75.9172 168.59 76.4294 168.446 77.0147 168.446C77.4706 168.446 77.8814 168.531 78.2473 168.7C78.6131 168.868 78.9128 169.105 79.1464 169.409C79.3799 169.713 79.5249 170.067 79.5811 170.473H78.585C78.509 170.177 78.3401 169.915 78.0784 169.687C77.8195 169.457 77.4706 169.341 77.0316 169.341C76.6432 169.341 76.3027 169.443 76.0101 169.645C75.7202 169.845 75.4937 170.128 75.3305 170.494C75.1701 170.857 75.0899 171.283 75.0899 171.773C75.0899 172.274 75.1687 172.71 75.3262 173.081C75.4866 173.453 75.7118 173.741 76.0016 173.947C76.2943 174.152 76.6376 174.255 77.0316 174.255C77.2905 174.255 77.5255 174.21 77.7365 174.12C77.9476 174.03 78.1263 173.9 78.2726 173.731C78.4189 173.562 78.5231 173.36 78.585 173.123H79.5811C79.5249 173.506 79.3856 173.851 79.1633 174.158C78.9438 174.461 78.6525 174.704 78.2895 174.884C77.9293 175.061 77.51 175.15 77.0316 175.15ZM83.8572 168.531V169.375H80.4971V168.531H83.8572ZM81.4764 166.977H82.4726V173.157C82.4726 173.439 82.5134 173.65 82.595 173.79C82.6795 173.928 82.7864 174.021 82.9158 174.069C83.0481 174.114 83.1874 174.136 83.3337 174.136C83.4435 174.136 83.5335 174.131 83.6039 174.12C83.6742 174.106 83.7305 174.094 83.7727 174.086L83.9754 174.981C83.9078 175.006 83.8135 175.031 83.6925 175.057C83.5715 175.085 83.4182 175.099 83.2324 175.099C82.951 175.099 82.6752 175.038 82.4051 174.917C82.1378 174.796 81.9154 174.612 81.7382 174.364C81.5637 174.117 81.4764 173.804 81.4764 173.427V166.977ZM89.8807 166.37V175.014H88.8339V166.37H89.8807ZM96.4372 169.983L95.5423 170.236C95.486 170.087 95.403 169.942 95.2933 169.801C95.1863 169.658 95.04 169.54 94.8543 169.447C94.6686 169.354 94.4308 169.307 94.1409 169.307C93.7441 169.307 93.4135 169.399 93.1489 169.582C92.8872 169.762 92.7564 169.991 92.7564 170.27C92.7564 170.518 92.8464 170.713 93.0265 170.857C93.2066 171 93.488 171.12 93.8708 171.215L94.8332 171.452C95.4129 171.593 95.8448 171.808 96.1291 172.098C96.4133 172.385 96.5554 172.755 96.5554 173.208C96.5554 173.579 96.4485 173.911 96.2346 174.204C96.0235 174.497 95.7281 174.727 95.3482 174.896C94.9683 175.065 94.5264 175.15 94.0227 175.15C93.3614 175.15 92.8141 175.006 92.3807 174.719C91.9473 174.432 91.673 174.013 91.5576 173.461L92.5031 173.225C92.5932 173.574 92.7634 173.835 93.0139 174.01C93.2671 174.184 93.5978 174.272 94.0058 174.272C94.4702 174.272 94.8388 174.173 95.1118 173.976C95.3876 173.776 95.5254 173.537 95.5254 173.258C95.5254 173.033 95.4467 172.845 95.2891 172.693C95.1315 172.538 94.8895 172.423 94.563 172.347L93.4824 172.093C92.8886 171.953 92.4525 171.735 92.1739 171.439C91.8981 171.141 91.7602 170.768 91.7602 170.321C91.7602 169.955 91.8629 169.631 92.0683 169.35C92.2766 169.068 92.5594 168.847 92.9168 168.687C93.277 168.527 93.685 168.446 94.1409 168.446C94.7825 168.446 95.2862 168.587 95.6521 168.868C96.0207 169.15 96.2824 169.521 96.4372 169.983ZM102.648 169.983L101.753 170.236C101.696 170.087 101.613 169.942 101.504 169.801C101.397 169.658 101.25 169.54 101.065 169.447C100.879 169.354 100.641 169.307 100.351 169.307C99.9545 169.307 99.6238 169.399 99.3593 169.582C99.0976 169.762 98.9667 169.991 98.9667 170.27C98.9667 170.518 99.0568 170.713 99.2369 170.857C99.417 171 99.6984 171.12 100.081 171.215L101.044 171.452C101.623 171.593 102.055 171.808 102.339 172.098C102.624 172.385 102.766 172.755 102.766 173.208C102.766 173.579 102.659 173.911 102.445 174.204C102.234 174.497 101.938 174.727 101.559 174.896C101.179 175.065 100.737 175.15 100.233 175.15C99.5718 175.15 99.0244 175.006 98.591 174.719C98.1577 174.432 97.8833 174.013 97.7679 173.461L98.7135 173.225C98.8035 173.574 98.9738 173.835 99.2242 174.01C99.4775 174.184 99.8081 174.272 100.216 174.272C100.681 174.272 101.049 174.173 101.322 173.976C101.598 173.776 101.736 173.537 101.736 173.258C101.736 173.033 101.657 172.845 101.499 172.693C101.342 172.538 101.1 172.423 100.773 172.347L99.6928 172.093C99.099 171.953 98.6628 171.735 98.3842 171.439C98.1084 171.141 97.9705 170.768 97.9705 170.321C97.9705 169.955 98.0733 169.631 98.2787 169.35C98.4869 169.068 98.7697 168.847 99.1271 168.687C99.4873 168.527 99.8954 168.446 100.351 168.446C100.993 168.446 101.497 168.587 101.862 168.868C102.231 169.15 102.493 169.521 102.648 169.983ZM108.351 172.364V168.531H109.348V175.014H108.351V173.917H108.284C108.132 174.246 107.895 174.526 107.575 174.757C107.254 174.985 106.849 175.099 106.359 175.099C105.954 175.099 105.594 175.01 105.278 174.833C104.963 174.653 104.716 174.383 104.535 174.022C104.355 173.659 104.265 173.202 104.265 172.651V168.531H105.262V172.583C105.262 173.056 105.394 173.433 105.658 173.714C105.926 173.996 106.266 174.136 106.68 174.136C106.927 174.136 107.179 174.073 107.435 173.947C107.694 173.82 107.911 173.626 108.085 173.364C108.263 173.102 108.351 172.769 108.351 172.364ZM113.891 175.15C113.266 175.15 112.727 175.012 112.274 174.736C111.824 174.457 111.476 174.069 111.231 173.571C110.989 173.07 110.868 172.487 110.868 171.823C110.868 171.159 110.989 170.574 111.231 170.067C111.476 169.558 111.817 169.161 112.253 168.877C112.692 168.59 113.204 168.446 113.789 168.446C114.127 168.446 114.46 168.503 114.79 168.615C115.119 168.728 115.419 168.911 115.689 169.164C115.959 169.414 116.174 169.746 116.335 170.16C116.495 170.574 116.575 171.083 116.575 171.688V172.11H111.577V171.249H115.562C115.562 170.883 115.489 170.557 115.343 170.27C115.199 169.983 114.994 169.756 114.726 169.59C114.462 169.424 114.149 169.341 113.789 169.341C113.392 169.341 113.049 169.44 112.759 169.637C112.472 169.831 112.251 170.084 112.097 170.397C111.942 170.709 111.864 171.044 111.864 171.401V171.975C111.864 172.465 111.949 172.88 112.118 173.22C112.289 173.558 112.527 173.816 112.831 173.993C113.135 174.167 113.488 174.255 113.891 174.255C114.152 174.255 114.389 174.218 114.6 174.145C114.814 174.069 114.998 173.956 115.153 173.807C115.307 173.655 115.427 173.467 115.511 173.242L116.474 173.512C116.373 173.838 116.202 174.125 115.963 174.373C115.724 174.618 115.428 174.809 115.077 174.947C114.725 175.082 114.33 175.15 113.891 175.15Z" fill="#5C6372"/>
<path d="M119.745 171.232L119.813 169.375L118.243 170.371L117.837 169.662L119.492 168.801L117.837 167.94L118.243 167.231L119.813 168.227L119.745 166.37H120.556L120.488 168.227L122.058 167.231L122.464 167.94L120.809 168.801L122.464 169.662L122.058 170.371L120.488 169.375L120.556 171.232H119.745Z" fill="#DC4C12"/>
<rect x="34.3874" y="254.137" width="309.904" height="49.245" rx="2.97168" fill="#FCFDFF"/>
<rect x="34.3874" y="254.137" width="309.904" height="49.245" rx="2.97168" stroke="#C3C8D1" stroke-width="0.849052"/>
<rect width="60.8867" height="24.7924" transform="translate(43.3047 240.976)" fill="#FCFDFF"/>
<path d="M55.0226 250.889C54.9719 250.461 54.7665 250.129 54.4063 249.893C54.0461 249.656 53.6043 249.538 53.0808 249.538C52.6981 249.538 52.3632 249.6 52.0762 249.724C51.792 249.848 51.5697 250.018 51.4093 250.234C51.2517 250.451 51.1729 250.697 51.1729 250.973C51.1729 251.204 51.2278 251.402 51.3375 251.568C51.4501 251.732 51.5936 251.868 51.7681 251.978C51.9425 252.085 52.1255 252.173 52.3168 252.244C52.5082 252.311 52.6841 252.366 52.8445 252.408L53.7225 252.645C53.9476 252.704 54.198 252.785 54.4738 252.89C54.7524 252.994 55.0183 253.136 55.2716 253.316C55.5277 253.493 55.7388 253.721 55.9048 254C56.0708 254.278 56.1538 254.62 56.1538 255.025C56.1538 255.493 56.0314 255.915 55.7866 256.292C55.5446 256.669 55.19 256.969 54.7229 257.191C54.2585 257.413 53.6943 257.524 53.0302 257.524C52.4111 257.524 51.875 257.424 51.4219 257.225C50.9717 257.025 50.6171 256.746 50.3582 256.389C50.1021 256.031 49.9572 255.616 49.9234 255.144H51.004C51.0322 255.47 51.1419 255.74 51.3333 255.954C51.5275 256.165 51.7723 256.323 52.0678 256.427C52.3661 256.528 52.6869 256.579 53.0302 256.579C53.4298 256.579 53.7886 256.514 54.1066 256.385C54.4246 256.252 54.6764 256.069 54.8622 255.836C55.0479 255.6 55.1408 255.324 55.1408 255.009C55.1408 254.722 55.0606 254.488 54.9002 254.308C54.7397 254.128 54.5287 253.981 54.267 253.869C54.0053 253.756 53.7225 253.658 53.4185 253.573L52.3548 253.269C51.6794 253.075 51.1447 252.798 50.7508 252.438C50.3568 252.078 50.1598 251.606 50.1598 251.024C50.1598 250.54 50.2907 250.118 50.5524 249.757C50.8169 249.394 51.1715 249.113 51.6161 248.913C52.0635 248.711 52.563 248.609 53.1146 248.609C53.6718 248.609 54.1671 248.709 54.6005 248.909C55.0338 249.106 55.3771 249.376 55.6304 249.719C55.8865 250.063 56.0216 250.453 56.0356 250.889H55.0226ZM61.826 254.722V250.889H62.8222V257.372H61.826V256.275H61.7584C61.6065 256.604 61.3701 256.884 61.0493 257.115C60.7285 257.343 60.3233 257.457 59.8336 257.457C59.4284 257.457 59.0682 257.368 58.753 257.191C58.4378 257.011 58.1902 256.741 58.0101 256.38C57.83 256.017 57.7399 255.56 57.7399 255.009V250.889H58.7361V254.941C58.7361 255.414 58.8684 255.791 59.1329 256.072C59.4002 256.354 59.7407 256.494 60.1544 256.494C60.4021 256.494 60.6539 256.431 60.91 256.304C61.1689 256.178 61.3856 255.984 61.5601 255.722C61.7373 255.46 61.826 255.127 61.826 254.722ZM64.7818 257.372V248.728H65.778V251.919H65.8624C65.9356 251.806 66.0369 251.663 66.1664 251.488C66.2986 251.311 66.4872 251.153 66.732 251.015C66.9796 250.875 67.3145 250.804 67.7366 250.804C68.2826 250.804 68.7638 250.941 69.1803 251.214C69.5967 251.487 69.9218 251.874 70.1553 252.375C70.3889 252.875 70.5057 253.466 70.5057 254.147C70.5057 254.834 70.3889 255.429 70.1553 255.933C69.9218 256.434 69.5982 256.822 69.1845 257.098C68.7708 257.371 68.2938 257.507 67.7535 257.507C67.337 257.507 67.0036 257.439 66.7531 257.301C66.5027 257.16 66.3099 257.001 66.1748 256.824C66.0397 256.644 65.9356 256.494 65.8624 256.376H65.7443V257.372H64.7818ZM65.7611 254.131C65.7611 254.62 65.8329 255.052 65.9764 255.426C66.1199 255.798 66.3296 256.089 66.6054 256.3C66.8812 256.508 67.2188 256.613 67.6184 256.613C68.0349 256.613 68.3825 256.503 68.6611 256.283C68.9425 256.061 69.1535 255.763 69.2942 255.388C69.4378 255.011 69.5095 254.592 69.5095 254.131C69.5095 253.675 69.4392 253.264 69.2985 252.898C69.1606 252.529 68.9509 252.238 68.6695 252.024C68.3909 251.808 68.0406 251.699 67.6184 251.699C67.2132 251.699 66.8727 251.802 66.5969 252.007C66.3211 252.21 66.1129 252.494 65.9722 252.86C65.8315 253.223 65.7611 253.647 65.7611 254.131ZM72.0295 250.889H73.0257V257.845C73.0257 258.245 72.9568 258.591 72.8189 258.884C72.6838 259.176 72.4784 259.403 72.2026 259.563C71.9296 259.724 71.5849 259.804 71.1684 259.804C71.1346 259.804 71.1009 259.804 71.0671 259.804C71.0333 259.804 70.9996 259.804 70.9658 259.804V258.875C70.9996 258.875 71.0305 258.875 71.0587 258.875C71.0868 258.875 71.1178 258.875 71.1515 258.875C71.4555 258.875 71.6778 258.785 71.8185 258.605C71.9592 258.428 72.0295 258.174 72.0295 257.845V250.889ZM72.5192 249.808C72.325 249.808 72.1576 249.742 72.0169 249.61C71.879 249.477 71.81 249.318 71.81 249.133C71.81 248.947 71.879 248.788 72.0169 248.656C72.1576 248.523 72.325 248.457 72.5192 248.457C72.7134 248.457 72.8794 248.523 73.0173 248.656C73.158 248.788 73.2283 248.947 73.2283 249.133C73.2283 249.318 73.158 249.477 73.0173 249.61C72.8794 249.742 72.7134 249.808 72.5192 249.808ZM77.5687 257.507C76.944 257.507 76.4051 257.37 75.952 257.094C75.5018 256.815 75.1542 256.427 74.9094 255.929C74.6674 255.428 74.5464 254.845 74.5464 254.181C74.5464 253.517 74.6674 252.932 74.9094 252.425C75.1542 251.916 75.4947 251.519 75.9309 251.235C76.3699 250.948 76.8821 250.804 77.4674 250.804C77.8051 250.804 78.1386 250.861 78.4678 250.973C78.7971 251.086 79.0968 251.269 79.3669 251.522C79.6371 251.772 79.8524 252.104 80.0128 252.518C80.1732 252.932 80.2534 253.441 80.2534 254.046V254.468H75.2555V253.607H79.2403C79.2403 253.241 79.1671 252.915 79.0208 252.628C78.8773 252.341 78.6718 252.114 78.4045 251.948C78.14 251.782 77.8276 251.699 77.4674 251.699C77.0706 251.699 76.7273 251.798 76.4375 251.995C76.1504 252.189 75.9295 252.442 75.7747 252.754C75.62 253.067 75.5426 253.402 75.5426 253.759V254.333C75.5426 254.823 75.627 255.238 75.7958 255.578C75.9675 255.916 76.2053 256.174 76.5092 256.351C76.8131 256.525 77.1663 256.613 77.5687 256.613C77.8304 256.613 78.0668 256.576 78.2779 256.503C78.4917 256.427 78.6761 256.314 78.8308 256.165C78.9856 256.013 79.1052 255.825 79.1896 255.6L80.1521 255.87C80.0508 256.196 79.8805 256.483 79.6413 256.731C79.4021 256.976 79.1066 257.167 78.7549 257.305C78.4031 257.44 78.0077 257.507 77.5687 257.507ZM84.4027 257.507C83.7949 257.507 83.2715 257.364 82.8325 257.077C82.3935 256.79 82.0558 256.395 81.8194 255.891C81.583 255.387 81.4648 254.812 81.4648 254.164C81.4648 253.506 81.5858 252.925 81.8278 252.421C82.0727 251.914 82.4132 251.519 82.8494 251.235C83.2884 250.948 83.8005 250.804 84.3859 250.804C84.8417 250.804 85.2526 250.889 85.6184 251.058C85.9843 251.226 86.284 251.463 86.5175 251.767C86.7511 252.071 86.896 252.425 86.9523 252.83H85.9561C85.8801 252.535 85.7113 252.273 85.4496 252.045C85.1907 251.815 84.8417 251.699 84.4027 251.699C84.0144 251.699 83.6739 251.801 83.3812 252.003C83.0914 252.203 82.8648 252.486 82.7016 252.852C82.5412 253.215 82.461 253.641 82.461 254.131C82.461 254.631 82.5398 255.068 82.6974 255.439C82.8578 255.811 83.0829 256.099 83.3728 256.304C83.6655 256.51 84.0088 256.613 84.4027 256.613C84.6616 256.613 84.8966 256.568 85.1077 256.478C85.3187 256.387 85.4974 256.258 85.6438 256.089C85.7901 255.92 85.8942 255.718 85.9561 255.481H86.9523C86.896 255.864 86.7567 256.209 86.5344 256.516C86.3149 256.819 86.0237 257.061 85.6606 257.242C85.3004 257.419 84.8811 257.507 84.4027 257.507ZM91.2283 250.889V251.733H87.8683V250.889H91.2283ZM88.8476 249.335H89.8438V255.515C89.8438 255.797 89.8846 256.008 89.9662 256.148C90.0506 256.286 90.1576 256.379 90.287 256.427C90.4193 256.472 90.5586 256.494 90.7049 256.494C90.8147 256.494 90.9047 256.489 90.9751 256.478C91.0454 256.463 91.1017 256.452 91.1439 256.444L91.3465 257.339C91.279 257.364 91.1847 257.389 91.0637 257.415C90.9427 257.443 90.7893 257.457 90.6036 257.457C90.3222 257.457 90.0464 257.396 89.7763 257.275C89.5089 257.154 89.2866 256.97 89.1093 256.722C88.9348 256.475 88.8476 256.162 88.8476 255.785V249.335Z" fill="#5C6372"/>
<path d="M94.3815 253.59L94.4491 251.733L92.8788 252.729L92.4736 252.02L94.1282 251.159L92.4736 250.298L92.8788 249.589L94.4491 250.585L94.3815 248.728H95.192L95.1244 250.585L96.6947 249.589L97.0999 250.298L95.4452 251.159L97.0999 252.02L96.6947 252.729L95.1244 251.733L95.192 253.59H94.3815Z" fill="#DC4C12"/>
<rect x="34.3874" y="337.965" width="309.904" height="104.237" rx="2.97168" fill="#FCFDFF"/>
<rect x="34.3874" y="337.965" width="309.904" height="104.237" rx="2.97168" stroke="#C3C8D1" stroke-width="0.849052"/>
<rect width="81.8867" height="24.7924" transform="translate(43.7285 324.183)" fill="#FCFDFF"/>
<path d="M53.3865 340.58H50.7187V331.935H53.5047C54.3433 331.935 55.0609 332.108 55.6574 332.454C56.254 332.797 56.7113 333.291 57.0293 333.936C57.3473 334.577 57.5063 335.345 57.5063 336.24C57.5063 337.141 57.3459 337.916 57.0251 338.566C56.7043 339.213 56.2372 339.712 55.6237 340.06C55.0102 340.407 54.2645 340.58 53.3865 340.58ZM51.7656 339.651H53.3189C54.0337 339.651 54.6261 339.513 55.096 339.237C55.566 338.962 55.9163 338.569 56.1471 338.06C56.3779 337.55 56.4932 336.944 56.4932 336.24C56.4932 335.542 56.3793 334.942 56.1513 334.438C55.9234 333.931 55.5829 333.543 55.1298 333.273C54.6767 333 54.1125 332.863 53.4371 332.863H51.7656V339.651ZM61.8456 340.715C61.2209 340.715 60.682 340.577 60.2289 340.301C59.7787 340.022 59.4311 339.634 59.1863 339.136C58.9443 338.635 58.8233 338.053 58.8233 337.388C58.8233 336.724 58.9443 336.139 59.1863 335.632C59.4311 335.123 59.7717 334.726 60.2078 334.442C60.6468 334.155 61.159 334.012 61.7443 334.012C62.082 334.012 62.4155 334.068 62.7447 334.18C63.074 334.293 63.3737 334.476 63.6438 334.729C63.914 334.98 64.1293 335.312 64.2897 335.725C64.4501 336.139 64.5303 336.648 64.5303 337.253V337.676H59.5325V336.814H63.5172C63.5172 336.449 63.444 336.122 63.2977 335.835C63.1542 335.548 62.9488 335.322 62.6814 335.155C62.4169 334.989 62.1045 334.906 61.7443 334.906C61.3475 334.906 61.0042 335.005 60.7144 335.202C60.4273 335.396 60.2064 335.649 60.0517 335.962C59.8969 336.274 59.8195 336.609 59.8195 336.966V337.54C59.8195 338.03 59.9039 338.445 60.0728 338.786C60.2444 339.123 60.4822 339.381 60.7861 339.558C61.0901 339.733 61.4432 339.82 61.8456 339.82C62.1073 339.82 62.3437 339.783 62.5548 339.71C62.7687 339.634 62.953 339.522 63.1078 339.372C63.2625 339.22 63.3821 339.032 63.4666 338.807L64.429 339.077C64.3277 339.403 64.1574 339.69 63.9182 339.938C63.679 340.183 63.3835 340.374 63.0318 340.512C62.68 340.647 62.2846 340.715 61.8456 340.715ZM70.6383 335.548L69.7434 335.801C69.6871 335.652 69.6041 335.507 69.4943 335.367C69.3874 335.223 69.2411 335.105 69.0553 335.012C68.8696 334.919 68.6318 334.873 68.342 334.873C67.9452 334.873 67.6145 334.964 67.35 335.147C67.0883 335.327 66.9574 335.556 66.9574 335.835C66.9574 336.083 67.0475 336.278 67.2276 336.422C67.4077 336.565 67.6891 336.685 68.0718 336.781L69.0342 337.017C69.6139 337.158 70.0459 337.373 70.3301 337.663C70.6144 337.95 70.7565 338.32 70.7565 338.773C70.7565 339.144 70.6495 339.477 70.4357 339.769C70.2246 340.062 69.9291 340.293 69.5492 340.461C69.1693 340.63 68.7275 340.715 68.2238 340.715C67.5625 340.715 67.0151 340.571 66.5818 340.284C66.1484 339.997 65.874 339.578 65.7586 339.026L66.7042 338.79C66.7942 339.139 66.9645 339.401 67.2149 339.575C67.4682 339.749 67.7989 339.837 68.2069 339.837C68.6712 339.837 69.0399 339.738 69.3128 339.541C69.5886 339.341 69.7265 339.102 69.7265 338.824C69.7265 338.599 69.6477 338.41 69.4901 338.258C69.3325 338.103 69.0905 337.988 68.7641 337.912L67.6835 337.659C67.0897 337.518 66.6535 337.3 66.3749 337.004C66.0991 336.706 65.9612 336.333 65.9612 335.886C65.9612 335.52 66.064 335.196 66.2694 334.915C66.4776 334.633 66.7605 334.413 67.1178 334.252C67.478 334.092 67.8861 334.012 68.342 334.012C68.9836 334.012 69.4873 334.152 69.8531 334.434C70.2218 334.715 70.4835 335.087 70.6383 335.548ZM74.89 340.715C74.2822 340.715 73.7587 340.571 73.3197 340.284C72.8807 339.997 72.5431 339.602 72.3067 339.098C72.0703 338.594 71.9521 338.019 71.9521 337.372C71.9521 336.713 72.0731 336.132 72.3151 335.628C72.5599 335.122 72.9004 334.726 73.3366 334.442C73.7756 334.155 74.2878 334.012 74.8731 334.012C75.329 334.012 75.7399 334.096 76.1057 334.265C76.4715 334.434 76.7712 334.67 77.0048 334.974C77.2384 335.278 77.3833 335.632 77.4396 336.038H76.4434C76.3674 335.742 76.1986 335.481 75.9369 335.253C75.678 335.022 75.329 334.906 74.89 334.906C74.5017 334.906 74.1612 335.008 73.8685 335.21C73.5786 335.41 73.3521 335.693 73.1889 336.059C73.0285 336.422 72.9483 336.848 72.9483 337.338C72.9483 337.839 73.0271 338.275 73.1847 338.646C73.3451 339.018 73.5702 339.306 73.8601 339.512C74.1527 339.717 74.496 339.82 74.89 339.82C75.1489 339.82 75.3839 339.775 75.5949 339.685C75.806 339.595 75.9847 339.465 76.131 339.296C76.2774 339.128 76.3815 338.925 76.4434 338.689H77.4396C77.3833 339.071 77.244 339.416 77.0217 339.723C76.8022 340.027 76.5109 340.269 76.1479 340.449C75.7877 340.626 75.3684 340.715 74.89 340.715ZM78.8959 340.58V334.096H79.8583V335.075H79.9258C80.044 334.754 80.2579 334.494 80.5674 334.294C80.877 334.095 81.2259 333.995 81.6143 333.995C81.6875 333.995 81.7789 333.996 81.8887 333.999C81.9984 334.002 82.0814 334.006 82.1377 334.012V335.025C82.1039 335.016 82.0266 335.004 81.9055 334.987C81.7874 334.967 81.6621 334.957 81.5299 334.957C81.2147 334.957 80.9333 335.023 80.6856 335.155C80.4408 335.285 80.2466 335.465 80.1031 335.696C79.9624 335.924 79.8921 336.184 79.8921 336.477V340.58H78.8959ZM83.3186 340.58V334.096H84.3148V340.58H83.3186ZM83.8251 333.015C83.6309 333.015 83.4635 332.949 83.3228 332.817C83.1849 332.685 83.116 332.526 83.116 332.34C83.116 332.154 83.1849 331.995 83.3228 331.863C83.4635 331.731 83.6309 331.665 83.8251 331.665C84.0193 331.665 84.1853 331.731 84.3232 331.863C84.4639 331.995 84.5343 332.154 84.5343 332.34C84.5343 332.526 84.4639 332.685 84.3232 332.817C84.1853 332.949 84.0193 333.015 83.8251 333.015ZM86.1393 343.011V334.096H87.1018V335.126H87.22C87.2931 335.013 87.3944 334.87 87.5239 334.695C87.6561 334.518 87.8447 334.361 88.0895 334.223C88.3372 334.082 88.672 334.012 89.0941 334.012C89.6401 334.012 90.1213 334.148 90.5378 334.421C90.9543 334.694 91.2793 335.081 91.5129 335.582C91.7464 336.083 91.8632 336.674 91.8632 337.355C91.8632 338.041 91.7464 338.637 91.5129 339.14C91.2793 339.641 90.9557 340.029 90.542 340.305C90.1283 340.578 89.6513 340.715 89.111 340.715C88.6945 340.715 88.3611 340.646 88.1106 340.508C87.8602 340.367 87.6674 340.208 87.5323 340.031C87.3972 339.851 87.2931 339.702 87.22 339.583H87.1355V343.011H86.1393ZM87.1187 337.338C87.1187 337.827 87.1904 338.259 87.3339 338.634C87.4774 339.005 87.6871 339.296 87.9629 339.507C88.2387 339.716 88.5764 339.82 88.976 339.82C89.3924 339.82 89.74 339.71 90.0186 339.491C90.3 339.268 90.511 338.97 90.6517 338.596C90.7953 338.219 90.867 337.799 90.867 337.338C90.867 336.882 90.7967 336.471 90.656 336.105C90.5181 335.737 90.3084 335.445 90.027 335.231C89.7484 335.015 89.3981 334.906 88.976 334.906C88.5707 334.906 88.2302 335.009 87.9544 335.215C87.6787 335.417 87.4704 335.701 87.3297 336.067C87.189 336.43 87.1187 336.854 87.1187 337.338ZM96.2025 334.096V334.94H92.8425V334.096H96.2025ZM93.8218 332.543H94.818V338.722C94.818 339.004 94.8588 339.215 94.9404 339.356C95.0248 339.493 95.1318 339.586 95.2612 339.634C95.3935 339.679 95.5328 339.702 95.6791 339.702C95.7889 339.702 95.8789 339.696 95.9493 339.685C96.0196 339.671 96.0759 339.659 96.1181 339.651L96.3207 340.546C96.2532 340.571 96.1589 340.597 96.0379 340.622C95.9169 340.65 95.7635 340.664 95.5778 340.664C95.2964 340.664 95.0206 340.604 94.7505 340.483C94.4831 340.362 94.2608 340.177 94.0835 339.93C93.9091 339.682 93.8218 339.37 93.8218 338.993V332.543ZM97.701 340.58V334.096H98.6972V340.58H97.701ZM98.2076 333.015C98.0134 333.015 97.846 332.949 97.7053 332.817C97.5674 332.685 97.4984 332.526 97.4984 332.34C97.4984 332.154 97.5674 331.995 97.7053 331.863C97.846 331.731 98.0134 331.665 98.2076 331.665C98.4018 331.665 98.5678 331.731 98.7057 331.863C98.8464 331.995 98.9167 332.154 98.9167 332.34C98.9167 332.526 98.8464 332.685 98.7057 332.817C98.5678 332.949 98.4018 333.015 98.2076 333.015ZM103.156 340.715C102.57 340.715 102.057 340.575 101.615 340.297C101.176 340.018 100.833 339.628 100.585 339.128C100.34 338.627 100.218 338.041 100.218 337.372C100.218 336.696 100.34 336.107 100.585 335.603C100.833 335.099 101.176 334.708 101.615 334.429C102.057 334.151 102.57 334.012 103.156 334.012C103.741 334.012 104.253 334.151 104.692 334.429C105.134 334.708 105.477 335.099 105.722 335.603C105.97 336.107 106.094 336.696 106.094 337.372C106.094 338.041 105.97 338.627 105.722 339.128C105.477 339.628 105.134 340.018 104.692 340.297C104.253 340.575 103.741 340.715 103.156 340.715ZM103.156 339.82C103.6 339.82 103.966 339.706 104.253 339.478C104.54 339.25 104.753 338.95 104.891 338.579C105.029 338.207 105.098 337.805 105.098 337.372C105.098 336.938 105.029 336.534 104.891 336.16C104.753 335.786 104.54 335.483 104.253 335.253C103.966 335.022 103.6 334.906 103.156 334.906C102.711 334.906 102.345 335.022 102.058 335.253C101.771 335.483 101.559 335.786 101.421 336.16C101.283 336.534 101.214 336.938 101.214 337.372C101.214 337.805 101.283 338.207 101.421 338.579C101.559 338.95 101.771 339.25 102.058 339.478C102.345 339.706 102.711 339.82 103.156 339.82ZM108.611 336.679V340.58H107.614V334.096H108.577V335.109H108.661C108.813 334.78 109.044 334.515 109.354 334.315C109.663 334.113 110.063 334.012 110.552 334.012C110.991 334.012 111.375 334.102 111.705 334.282C112.034 334.459 112.29 334.729 112.473 335.092C112.656 335.452 112.747 335.908 112.747 336.46V340.58H111.751V336.527C111.751 336.018 111.619 335.621 111.354 335.337C111.09 335.05 110.727 334.906 110.265 334.906C109.947 334.906 109.663 334.975 109.413 335.113C109.165 335.251 108.969 335.452 108.826 335.717C108.682 335.981 108.611 336.302 108.611 336.679Z" fill="#5C6372"/>
<path d="M116.222 336.798L116.29 334.94L114.72 335.936L114.314 335.227L115.969 334.366L114.314 333.505L114.72 332.796L116.29 333.792L116.222 331.935H117.033L116.965 333.792L118.536 332.796L118.941 333.505L117.286 334.366L118.941 335.227L118.536 335.936L116.965 334.94L117.033 336.798H116.222Z" fill="#DC4C12"/>
</svg>
