<svg width="374" height="496" viewBox="0 0 374 496" fill="none" xmlns="http://www.w3.org/2000/svg">
<rect width="373.893" height="100.622" rx="8" fill="white"/>
<rect x="20" y="20" width="60.6219" height="60.6219" rx="4" fill="#E2F5FC"/>
<path d="M38.769 41.5134C38.769 37.9334 41.6712 35.0312 45.2512 35.0312C48.8312 35.0312 51.7334 37.9334 51.7334 41.5134C51.7334 45.0933 48.8312 47.9955 45.2512 47.9955C41.6712 47.9955 38.769 45.0933 38.769 41.5134Z" fill="#6CCBF2"/>
<path d="M54.0906 45.0491C54.0906 42.12 56.4651 39.7455 59.3942 39.7455C62.3233 39.7455 64.6978 42.12 64.6978 45.0491C64.6978 47.9781 62.3233 50.3526 59.3942 50.3526C56.4651 50.3526 54.0906 47.9781 54.0906 45.0491Z" fill="#6CCBF2"/>
<path d="M34.0547 61.549C34.0547 55.3654 39.0675 50.3526 45.2512 50.3526C51.4349 50.3526 56.4477 55.3654 56.4477 61.549V61.553C56.4477 61.6155 56.4471 61.6784 56.4461 61.7406C56.4393 62.1468 56.2237 62.5209 55.8756 62.7305C52.7716 64.5993 49.1351 65.674 45.2512 65.674C41.3673 65.674 37.7308 64.5993 34.6268 62.7305C34.2787 62.5209 34.0631 62.1468 34.0563 61.7406C34.0552 61.6769 34.0547 61.613 34.0547 61.549Z" fill="#6CCBF2"/>
<path d="M58.8046 61.5539C58.8046 61.6294 58.8039 61.7052 58.8027 61.7802C58.7937 62.3124 58.6654 62.8262 58.4366 63.2885C58.7534 63.3073 59.0726 63.3168 59.3939 63.3168C61.9015 63.3168 64.2767 62.7359 66.3893 61.7002C66.7775 61.51 67.0303 61.1224 67.0481 60.6905C67.0525 60.5843 67.0547 60.4776 67.0547 60.3704C67.0547 56.1395 63.6248 52.7097 59.3939 52.7097C58.2209 52.7097 57.1095 52.9734 56.1157 53.4446C57.8046 55.7051 58.8046 58.5102 58.8046 61.549V61.5539Z" fill="#6CCBF2"/>
<path d="M106.669 42.8749H102.189V31.0509H106.189C108.797 31.0509 110.125 32.1869 110.125 34.2349V34.4589C110.125 35.6269 109.661 36.3629 108.877 36.8109C109.933 37.2269 110.605 38.0429 110.605 39.4189V39.6429C110.605 41.7069 109.277 42.8749 106.669 42.8749ZM106.429 32.6509H104.093V36.1549H106.429C107.629 36.1549 108.189 35.4509 108.189 34.4109C108.189 33.3549 107.629 32.6509 106.429 32.6509ZM106.861 37.6909H104.093V41.2749H106.861C108.029 41.2749 108.669 40.5869 108.669 39.4829C108.669 38.3469 108.045 37.6909 106.861 37.6909ZM116.92 43.0989C113.912 43.0989 112.264 40.9069 112.264 38.6669V38.3469C112.264 36.0589 113.992 33.8989 116.92 33.8989C119.848 33.8989 121.576 36.0589 121.576 38.3469V38.6669C121.576 40.9069 119.928 43.0989 116.92 43.0989ZM116.92 41.4669C118.696 41.4669 119.704 40.1869 119.704 38.5069C119.704 36.7949 118.648 35.5309 116.92 35.5309C115.192 35.5309 114.136 36.7949 114.136 38.5069C114.136 40.1869 115.144 41.4669 116.92 41.4669ZM127.764 43.0989C124.756 43.0989 123.108 40.9069 123.108 38.6669V38.3469C123.108 36.0589 124.836 33.8989 127.764 33.8989C130.692 33.8989 132.42 36.0589 132.42 38.3469V38.6669C132.42 40.9069 130.772 43.0989 127.764 43.0989ZM127.764 41.4669C129.54 41.4669 130.548 40.1869 130.548 38.5069C130.548 36.7949 129.492 35.5309 127.764 35.5309C126.036 35.5309 124.98 36.7949 124.98 38.5069C124.98 40.1869 125.988 41.4669 127.764 41.4669ZM136.432 42.8109H134.56V31.1309H136.432V38.4269L139.92 34.1869H141.904L138.848 37.8669L142.688 42.8109H140.544L137.472 38.7949H136.432V42.8109ZM148.534 42.8109H146.614L150.71 31.1309H153.894L158.118 42.8109H156.134L154.966 39.5149H149.67L148.534 42.8109ZM150.246 37.8509H154.374L152.566 32.7789H151.99L150.246 37.8509ZM169.467 42.8109H166.251L162.379 31.1309H164.347L167.595 41.1629H168.171L171.163 31.1309H173.083L169.467 42.8109ZM175.693 32.9869C174.925 32.9869 174.557 32.5389 174.557 31.8989C174.557 31.2749 174.925 30.8109 175.693 30.8109C176.477 30.8109 176.845 31.2749 176.845 31.8989C176.845 32.5389 176.477 32.9869 175.693 32.9869ZM176.957 42.8109H175.085V35.6269H173.821V34.1869H176.957V42.8109ZM182.723 43.0669C180.403 43.0669 179.059 42.0269 178.995 40.2989H180.723C180.771 40.9389 181.331 41.5789 182.739 41.5789C183.939 41.5789 184.659 41.0669 184.659 40.3469C184.659 39.7069 184.195 39.3389 183.011 39.2109L182.163 39.1309C180.387 38.9389 179.283 38.0909 179.283 36.6189C179.283 34.9069 180.675 33.9309 182.659 33.9309C184.691 33.9309 186.051 34.8589 186.115 36.6029H184.403C184.355 35.9469 183.779 35.4349 182.659 35.4349C181.587 35.4349 181.011 35.9149 181.011 36.5709C181.011 37.1629 181.395 37.4989 182.371 37.6109L183.219 37.6909C185.155 37.8989 186.387 38.7789 186.387 40.2989C186.387 41.9629 184.899 43.0669 182.723 43.0669ZM189.459 32.9869C188.691 32.9869 188.323 32.5389 188.323 31.8989C188.323 31.2749 188.691 30.8109 189.459 30.8109C190.243 30.8109 190.611 31.2749 190.611 31.8989C190.611 32.5389 190.243 32.9869 189.459 32.9869ZM190.723 42.8109H188.851V35.6269H187.587V34.1869H190.723V42.8109ZM198.345 42.9069H197.049C194.905 42.9069 193.753 42.1389 193.753 39.7229V35.5789H192.329V34.1869H193.753V31.6749H195.529V34.1869H198.345V35.5789H195.529V39.8829C195.529 40.7629 196.025 41.2749 196.905 41.2749H198.345V42.9069ZM204.358 43.0989C201.35 43.0989 199.702 40.9069 199.702 38.6669V38.3469C199.702 36.0589 201.43 33.8989 204.358 33.8989C207.286 33.8989 209.014 36.0589 209.014 38.3469V38.6669C209.014 40.9069 207.366 43.0989 204.358 43.0989ZM204.358 41.4669C206.134 41.4669 207.142 40.1869 207.142 38.5069C207.142 36.7949 206.086 35.5309 204.358 35.5309C202.63 35.5309 201.574 36.7949 201.574 38.5069C201.574 40.1869 202.582 41.4669 204.358 41.4669ZM213.025 42.8109H211.153V34.1869H212.641V36.8109C212.897 34.9869 213.969 34.0909 215.809 34.0909H216.113V35.7389H215.537C213.921 35.7389 213.025 36.6349 213.025 38.2349V42.8109Z" fill="black"/>
<path d="M107.422 61.1745C107.363 60.6708 107.121 60.2797 106.696 60.0013C106.272 59.7228 105.752 59.5836 105.135 59.5836C104.685 59.5836 104.29 59.6566 103.952 59.8024C103.617 59.9482 103.355 60.1487 103.167 60.404C102.981 60.6592 102.888 60.9492 102.888 61.274C102.888 61.5458 102.953 61.7794 103.082 61.975C103.215 62.1672 103.384 62.328 103.589 62.4572C103.795 62.5832 104.01 62.6876 104.235 62.7704C104.461 62.85 104.668 62.9146 104.857 62.9643L105.891 63.2427C106.156 63.3123 106.451 63.4085 106.776 63.5311C107.104 63.6537 107.417 63.8211 107.716 64.0332C108.017 64.242 108.266 64.5105 108.461 64.8386C108.657 65.1667 108.755 65.5694 108.755 66.0467C108.755 66.5969 108.61 67.0941 108.322 67.5382C108.037 67.9823 107.619 68.3353 107.069 68.5971C106.522 68.859 105.858 68.9899 105.076 68.9899C104.346 68.9899 103.715 68.8722 103.181 68.6369C102.651 68.4016 102.234 68.0735 101.929 67.6525C101.627 67.2316 101.456 66.7427 101.417 66.1859H102.689C102.722 66.5704 102.852 66.8886 103.077 67.1405C103.306 67.389 103.594 67.5746 103.942 67.6973C104.293 67.8166 104.671 67.8763 105.076 67.8763C105.546 67.8763 105.969 67.8 106.343 67.6476C106.718 67.4918 107.015 67.2763 107.233 67.0013C107.452 66.7228 107.561 66.398 107.561 66.0268C107.561 65.6888 107.467 65.4137 107.278 65.2015C107.089 64.9894 106.841 64.8171 106.532 64.6845C106.224 64.5519 105.891 64.4359 105.533 64.3365L104.28 63.9785C103.485 63.7498 102.855 63.4234 102.391 62.9991C101.927 62.5749 101.695 62.0197 101.695 61.3336C101.695 60.7636 101.849 60.2664 102.157 59.8422C102.469 59.4146 102.886 59.0832 103.41 58.8478C103.937 58.6092 104.525 58.4899 105.175 58.4899C105.831 58.4899 106.415 58.6076 106.925 58.8429C107.435 59.0749 107.84 59.3931 108.138 59.7974C108.44 60.2018 108.599 60.6608 108.615 61.1745H107.422ZM113.725 68.97C113.009 68.97 112.393 68.801 111.876 68.4629C111.358 68.1248 110.961 67.6592 110.682 67.0659C110.404 66.4726 110.265 65.7948 110.265 65.0325C110.265 64.2569 110.407 63.5725 110.692 62.9792C110.981 62.3826 111.382 61.917 111.895 61.5822C112.412 61.2442 113.016 61.0751 113.705 61.0751C114.242 61.0751 114.726 61.1745 115.157 61.3734C115.588 61.5723 115.941 61.8507 116.216 62.2086C116.491 62.5666 116.662 62.9842 116.728 63.4615H115.555C115.465 63.1135 115.266 62.8052 114.958 62.5368C114.653 62.265 114.242 62.1291 113.725 62.1291C113.268 62.1291 112.867 62.2484 112.522 62.487C112.18 62.7224 111.914 63.0555 111.721 63.4863C111.532 63.9139 111.438 64.416 111.438 64.9927C111.438 65.5827 111.531 66.0964 111.716 66.5339C111.905 66.9714 112.171 67.3111 112.512 67.5531C112.857 67.7951 113.261 67.916 113.725 67.916C114.03 67.916 114.307 67.863 114.555 67.7569C114.804 67.6509 115.014 67.4984 115.187 67.2995C115.359 67.1007 115.482 66.862 115.555 66.5836H116.728C116.662 67.0344 116.497 67.4404 116.236 67.8017C115.977 68.1596 115.634 68.4447 115.206 68.6568C114.782 68.8656 114.288 68.97 113.725 68.97ZM119.616 64.2172V68.8109H118.443V58.6291H119.616V62.3677H119.716C119.895 61.9733 120.163 61.6601 120.521 61.4281C120.882 61.1928 121.363 61.0751 121.963 61.0751C122.483 61.0751 122.939 61.1795 123.33 61.3883C123.721 61.5938 124.024 61.9103 124.24 62.3379C124.459 62.7621 124.568 63.3024 124.568 63.9586V68.8109H123.395V64.0382C123.395 63.4317 123.237 62.9627 122.922 62.6312C122.611 62.2965 122.178 62.1291 121.625 62.1291C121.24 62.1291 120.896 62.2103 120.591 62.3727C120.289 62.5351 120.05 62.7721 119.875 63.0836C119.702 63.3952 119.616 63.773 119.616 64.2172ZM129.916 68.97C129.18 68.97 128.546 68.8076 128.012 68.4828C127.482 68.1547 127.072 67.6973 126.784 67.1106C126.499 66.5207 126.357 65.8346 126.357 65.0524C126.357 64.2702 126.499 63.5808 126.784 62.9842C127.072 62.3843 127.473 61.917 127.987 61.5822C128.504 61.2442 129.107 61.0751 129.797 61.0751C130.195 61.0751 130.587 61.1414 130.975 61.274C131.363 61.4066 131.716 61.622 132.034 61.9203C132.352 62.2153 132.606 62.6064 132.795 63.0936C132.984 63.5808 133.078 64.1807 133.078 64.8933V65.3905H127.192V64.3763H131.885C131.885 63.9454 131.799 63.5609 131.626 63.2228C131.457 62.8848 131.215 62.618 130.901 62.4224C130.589 62.2269 130.221 62.1291 129.797 62.1291C129.33 62.1291 128.925 62.2451 128.584 62.4771C128.246 62.7058 127.986 63.0041 127.803 63.372C127.621 63.7399 127.53 64.1343 127.53 64.5552V65.2314C127.53 65.8081 127.629 66.2969 127.828 66.698C128.03 67.0957 128.31 67.399 128.668 67.6078C129.026 67.8133 129.442 67.916 129.916 67.916C130.224 67.916 130.503 67.8729 130.751 67.7868C131.003 67.6973 131.22 67.5647 131.403 67.389C131.585 67.2101 131.726 66.988 131.825 66.7228L132.959 67.041C132.839 67.4255 132.639 67.7636 132.357 68.0552C132.076 68.3436 131.728 68.569 131.313 68.7314C130.899 68.8905 130.433 68.97 129.916 68.97ZM137.746 68.97C137.11 68.97 136.548 68.8093 136.061 68.4878C135.574 68.1629 135.193 67.7056 134.918 67.1156C134.643 66.5223 134.505 65.8213 134.505 65.0126C134.505 64.2105 134.643 63.5145 134.918 62.9245C135.193 62.3346 135.576 61.8789 136.066 61.5574C136.557 61.2359 137.123 61.0751 137.766 61.0751C138.263 61.0751 138.656 61.158 138.945 61.3237C139.236 61.4861 139.458 61.6717 139.611 61.8805C139.767 62.086 139.888 62.255 139.974 62.3876H140.073V58.6291H141.246V68.8109H140.113V67.6376H139.974C139.888 67.7768 139.765 67.9525 139.606 68.1646C139.447 68.3734 139.22 68.5607 138.925 68.7264C138.63 68.8888 138.237 68.97 137.746 68.97ZM137.906 67.916C138.376 67.916 138.774 67.7934 139.099 67.5481C139.424 67.2995 139.67 66.9565 139.839 66.519C140.009 66.0782 140.093 65.5694 140.093 64.9927C140.093 64.4227 140.01 63.9238 139.844 63.4963C139.679 63.0654 139.433 62.7307 139.109 62.492C138.784 62.2501 138.383 62.1291 137.906 62.1291C137.408 62.1291 136.994 62.2567 136.663 62.5119C136.335 62.7638 136.088 63.1068 135.922 63.541C135.759 63.9719 135.678 64.4558 135.678 64.9927C135.678 65.5363 135.761 66.0301 135.927 66.4743C136.096 66.9151 136.344 67.2664 136.673 67.5282C137.004 67.7868 137.415 67.916 137.906 67.916ZM148.371 65.6888V61.1745H149.544V68.8109H148.371V67.5183H148.291C148.112 67.9061 147.834 68.2359 147.456 68.5076C147.078 68.7761 146.601 68.9103 146.024 68.9103C145.547 68.9103 145.123 68.8059 144.751 68.5971C144.38 68.385 144.089 68.0668 143.876 67.6426C143.664 67.215 143.558 66.6764 143.558 66.0268V61.1745H144.732V65.9473C144.732 66.5041 144.887 66.9482 145.199 67.2797C145.514 67.6111 145.915 67.7768 146.402 67.7768C146.694 67.7768 146.99 67.7022 147.292 67.5531C147.597 67.404 147.852 67.1753 148.058 66.867C148.266 66.5588 148.371 66.166 148.371 65.6888ZM152.866 58.6291V68.8109H151.693V58.6291H152.866ZM158.217 68.97C157.481 68.97 156.846 68.8076 156.313 68.4828C155.783 68.1547 155.373 67.6973 155.085 67.1106C154.8 66.5207 154.657 65.8346 154.657 65.0524C154.657 64.2702 154.8 63.5808 155.085 62.9842C155.373 62.3843 155.774 61.917 156.288 61.5822C156.805 61.2442 157.408 61.0751 158.098 61.0751C158.495 61.0751 158.888 61.1414 159.276 61.274C159.664 61.4066 160.017 61.622 160.335 61.9203C160.653 62.2153 160.907 62.6064 161.096 63.0936C161.284 63.5808 161.379 64.1807 161.379 64.8933V65.3905H155.493V64.3763H160.186C160.186 63.9454 160.1 63.5609 159.927 63.2228C159.758 62.8848 159.516 62.618 159.201 62.4224C158.89 62.2269 158.522 62.1291 158.098 62.1291C157.63 62.1291 157.226 62.2451 156.885 62.4771C156.547 62.7058 156.286 63.0041 156.104 63.372C155.922 63.7399 155.831 64.1343 155.831 64.5552V65.2314C155.831 65.8081 155.93 66.2969 156.129 66.698C156.331 67.0957 156.611 67.399 156.969 67.6078C157.327 67.8133 157.743 67.916 158.217 67.916C158.525 67.916 158.804 67.8729 159.052 67.7868C159.304 67.6973 159.521 67.5647 159.703 67.389C159.886 67.2101 160.027 66.988 160.126 66.7228L161.26 67.041C161.14 67.4255 160.94 67.7636 160.658 68.0552C160.376 68.3436 160.028 68.569 159.614 68.7314C159.2 68.8905 158.734 68.97 158.217 68.97ZM167.101 68.8109V61.1745H168.235V62.3677H168.334C168.493 61.9601 168.75 61.6435 169.105 61.4182C169.459 61.1895 169.885 61.0751 170.382 61.0751C170.886 61.0751 171.306 61.1895 171.64 61.4182C171.978 61.6435 172.242 61.9601 172.431 62.3677H172.51C172.706 61.9733 172.999 61.6601 173.39 61.4281C173.781 61.1928 174.25 61.0751 174.797 61.0751C175.48 61.0751 176.038 61.2889 176.473 61.7165C176.907 62.1407 177.124 62.8019 177.124 63.7001V68.8109H175.951V63.7001C175.951 63.1367 175.797 62.734 175.488 62.492C175.18 62.2501 174.817 62.1291 174.4 62.1291C173.863 62.1291 173.447 62.2915 173.152 62.6163C172.857 62.9378 172.709 63.3455 172.709 63.8393V68.8109H171.516V63.5808C171.516 63.1466 171.375 62.7969 171.093 62.5318C170.812 62.2633 170.449 62.1291 170.005 62.1291C169.7 62.1291 169.415 62.2103 169.15 62.3727C168.888 62.5351 168.676 62.7605 168.513 63.0488C168.354 63.3339 168.275 63.6637 168.275 64.0382V68.8109H167.101ZM182.471 68.97C181.735 68.97 181.1 68.8076 180.567 68.4828C180.036 68.1547 179.627 67.6973 179.339 67.1106C179.054 66.5207 178.911 65.8346 178.911 65.0524C178.911 64.2702 179.054 63.5808 179.339 62.9842C179.627 62.3843 180.028 61.917 180.542 61.5822C181.059 61.2442 181.662 61.0751 182.352 61.0751C182.749 61.0751 183.142 61.1414 183.53 61.274C183.918 61.4066 184.271 61.622 184.589 61.9203C184.907 62.2153 185.161 62.6064 185.349 63.0936C185.538 63.5808 185.633 64.1807 185.633 64.8933V65.3905H179.746V64.3763H184.44C184.44 63.9454 184.353 63.5609 184.181 63.2228C184.012 62.8848 183.77 62.618 183.455 62.4224C183.144 62.2269 182.776 62.1291 182.352 62.1291C181.884 62.1291 181.48 62.2451 181.138 62.4771C180.8 62.7058 180.54 63.0041 180.358 63.372C180.176 63.7399 180.085 64.1343 180.085 64.5552V65.2314C180.085 65.8081 180.184 66.2969 180.383 66.698C180.585 67.0957 180.865 67.399 181.223 67.6078C181.581 67.8133 181.997 67.916 182.471 67.916C182.779 67.916 183.058 67.8729 183.306 67.7868C183.558 67.6973 183.775 67.5647 183.957 67.389C184.14 67.2101 184.281 66.988 184.38 66.7228L185.513 67.041C185.394 67.4255 185.194 67.7636 184.912 68.0552C184.63 68.3436 184.282 68.569 183.868 68.7314C183.454 68.8905 182.988 68.97 182.471 68.97ZM190.619 68.97C189.884 68.97 189.249 68.8076 188.715 68.4828C188.185 68.1547 187.776 67.6973 187.487 67.1106C187.202 66.5207 187.06 65.8346 187.06 65.0524C187.06 64.2702 187.202 63.5808 187.487 62.9842C187.776 62.3843 188.177 61.917 188.69 61.5822C189.207 61.2442 189.811 61.0751 190.5 61.0751C190.898 61.0751 191.29 61.1414 191.678 61.274C192.066 61.4066 192.419 61.622 192.737 61.9203C193.055 62.2153 193.309 62.6064 193.498 63.0936C193.687 63.5808 193.781 64.1807 193.781 64.8933V65.3905H187.895V64.3763H192.588C192.588 63.9454 192.502 63.5609 192.33 63.2228C192.161 62.8848 191.919 62.618 191.604 62.4224C191.292 62.2269 190.924 62.1291 190.5 62.1291C190.033 62.1291 189.628 62.2451 189.287 62.4771C188.949 62.7058 188.689 63.0041 188.506 63.372C188.324 63.7399 188.233 64.1343 188.233 64.5552V65.2314C188.233 65.8081 188.332 66.2969 188.531 66.698C188.733 67.0957 189.013 67.399 189.371 67.6078C189.729 67.8133 190.145 67.916 190.619 67.916C190.928 67.916 191.206 67.8729 191.455 67.7868C191.706 67.6973 191.924 67.5647 192.106 67.389C192.288 67.2101 192.429 66.988 192.528 66.7228L193.662 67.041C193.543 67.4255 193.342 67.7636 193.06 68.0552C192.779 68.3436 192.431 68.569 192.016 68.7314C191.602 68.8905 191.136 68.97 190.619 68.97ZM198.887 61.1745V62.1689H194.93V61.1745H198.887ZM196.083 59.345H197.256V66.6234C197.256 66.9549 197.304 67.2034 197.401 67.3692C197.5 67.5316 197.626 67.6409 197.778 67.6973C197.934 67.7503 198.098 67.7768 198.271 67.7768C198.4 67.7768 198.506 67.7702 198.589 67.7569C198.672 67.7404 198.738 67.7271 198.788 67.7172L199.026 68.7711C198.947 68.801 198.836 68.8308 198.693 68.8606C198.551 68.8938 198.37 68.9103 198.151 68.9103C197.82 68.9103 197.495 68.8391 197.177 68.6966C196.862 68.554 196.6 68.337 196.391 68.0453C196.186 67.7536 196.083 67.3857 196.083 66.9416V59.345ZM200.652 68.8109V61.1745H201.825V68.8109H200.652ZM201.249 59.9018C201.02 59.9018 200.823 59.8239 200.657 59.6682C200.495 59.5124 200.413 59.3251 200.413 59.1064C200.413 58.8876 200.495 58.7004 200.657 58.5446C200.823 58.3888 201.02 58.3109 201.249 58.3109C201.477 58.3109 201.673 58.3888 201.835 58.5446C202.001 58.7004 202.084 58.8876 202.084 59.1064C202.084 59.3251 202.001 59.5124 201.835 59.6682C201.673 59.8239 201.477 59.9018 201.249 59.9018ZM205.148 64.2172V68.8109H203.974V61.1745H205.108V62.3677H205.207C205.386 61.9799 205.658 61.6684 206.023 61.4331C206.387 61.1944 206.858 61.0751 207.434 61.0751C207.952 61.0751 208.404 61.1812 208.792 61.3933C209.18 61.6021 209.481 61.9203 209.697 62.3478C209.912 62.7721 210.02 63.309 210.02 63.9586V68.8109H208.846V64.0382C208.846 63.4383 208.691 62.971 208.379 62.6362C208.068 62.2981 207.64 62.1291 207.096 62.1291C206.722 62.1291 206.387 62.2103 206.092 62.3727C205.8 62.5351 205.57 62.7721 205.401 63.0836C205.232 63.3952 205.148 63.773 205.148 64.2172ZM215.246 71.8336C214.679 71.8336 214.192 71.7607 213.784 71.6149C213.377 71.4724 213.037 71.2835 212.765 71.0481C212.497 70.8161 212.283 70.5675 212.124 70.3024L213.059 69.6461C213.165 69.7853 213.299 69.9444 213.461 70.1234C213.624 70.3057 213.846 70.4631 214.127 70.5957C214.413 70.7316 214.785 70.7995 215.246 70.7995C215.863 70.7995 216.371 70.6504 216.772 70.3521C217.173 70.0538 217.374 69.5865 217.374 68.9501V67.399H217.275C217.188 67.5382 217.066 67.7105 216.907 67.916C216.751 68.1182 216.525 68.2988 216.23 68.4579C215.939 68.6137 215.544 68.6916 215.047 68.6916C214.431 68.6916 213.877 68.5458 213.387 68.2541C212.9 67.9624 212.513 67.5382 212.228 66.9814C211.947 66.4245 211.806 65.7484 211.806 64.953C211.806 64.1708 211.943 63.4897 212.218 62.9096C212.493 62.3263 212.876 61.8755 213.367 61.5574C213.857 61.2359 214.424 61.0751 215.067 61.0751C215.564 61.0751 215.959 61.158 216.25 61.3237C216.545 61.4861 216.771 61.6717 216.926 61.8805C217.086 62.086 217.208 62.255 217.294 62.3876H217.414V61.1745H218.547V69.0297C218.547 69.6859 218.398 70.2195 218.1 70.6305C217.805 71.0448 217.407 71.3481 216.907 71.5403C216.409 71.7359 215.856 71.8336 215.246 71.8336ZM215.206 67.6376C215.677 67.6376 216.075 67.5299 216.4 67.3145C216.724 67.099 216.971 66.7891 217.14 66.3848C217.309 65.9804 217.394 65.4965 217.394 64.9331C217.394 64.3829 217.311 63.8973 217.145 63.4764C216.98 63.0555 216.734 62.7257 216.409 62.487C216.085 62.2484 215.684 62.1291 215.206 62.1291C214.709 62.1291 214.295 62.255 213.963 62.5069C213.635 62.7588 213.388 63.0969 213.223 63.5211C213.06 63.9454 212.979 64.416 212.979 64.9331C212.979 65.4634 213.062 65.9324 213.228 66.34C213.397 66.7444 213.645 67.0626 213.973 67.2946C214.305 67.5233 214.716 67.6376 215.206 67.6376ZM227.953 61.1745V62.1689H223.996V61.1745H227.953ZM225.15 59.345H226.323V66.6234C226.323 66.9549 226.371 67.2034 226.467 67.3692C226.566 67.5316 226.692 67.6409 226.845 67.6973C227.001 67.7503 227.165 67.7768 227.337 67.7768C227.466 67.7768 227.572 67.7702 227.655 67.7569C227.738 67.7404 227.804 67.7271 227.854 67.7172L228.093 68.7711C228.013 68.801 227.902 68.8308 227.76 68.8606C227.617 68.8938 227.436 68.9103 227.218 68.9103C226.886 68.9103 226.561 68.8391 226.243 68.6966C225.928 68.554 225.667 68.337 225.458 68.0453C225.252 67.7536 225.15 67.3857 225.15 66.9416V59.345ZM229.718 68.8109V61.1745H230.892V68.8109H229.718ZM230.315 59.9018C230.086 59.9018 229.889 59.8239 229.723 59.6682C229.561 59.5124 229.48 59.3251 229.48 59.1064C229.48 58.8876 229.561 58.7004 229.723 58.5446C229.889 58.3888 230.086 58.3109 230.315 58.3109C230.544 58.3109 230.739 58.3888 230.902 58.5446C231.067 58.7004 231.15 58.8876 231.15 59.1064C231.15 59.3251 231.067 59.5124 230.902 59.6682C230.739 59.8239 230.544 59.9018 230.315 59.9018ZM233.041 68.8109V61.1745H234.174V62.3677H234.274C234.433 61.9601 234.69 61.6435 235.044 61.4182C235.399 61.1895 235.825 61.0751 236.322 61.0751C236.826 61.0751 237.245 61.1895 237.58 61.4182C237.918 61.6435 238.181 61.9601 238.37 62.3677H238.45C238.645 61.9733 238.939 61.6601 239.33 61.4281C239.721 61.1928 240.19 61.0751 240.737 61.0751C241.419 61.0751 241.978 61.2889 242.412 61.7165C242.846 62.1407 243.063 62.8019 243.063 63.7001V68.8109H241.89V63.7001C241.89 63.1367 241.736 62.734 241.428 62.492C241.119 62.2501 240.757 62.1291 240.339 62.1291C239.802 62.1291 239.386 62.2915 239.091 62.6163C238.796 62.9378 238.649 63.3455 238.649 63.8393V68.8109H237.455V63.5808C237.455 63.1466 237.315 62.7969 237.033 62.5318C236.751 62.2633 236.388 62.1291 235.944 62.1291C235.639 62.1291 235.354 62.2103 235.089 62.3727C234.827 62.5351 234.615 62.7605 234.453 63.0488C234.294 63.3339 234.214 63.6637 234.214 64.0382V68.8109H233.041ZM248.41 68.97C247.675 68.97 247.04 68.8076 246.506 68.4828C245.976 68.1547 245.567 67.6973 245.278 67.1106C244.993 66.5207 244.851 65.8346 244.851 65.0524C244.851 64.2702 244.993 63.5808 245.278 62.9842C245.567 62.3843 245.968 61.917 246.481 61.5822C246.998 61.2442 247.602 61.0751 248.291 61.0751C248.689 61.0751 249.081 61.1414 249.469 61.274C249.857 61.4066 250.21 61.622 250.528 61.9203C250.846 62.2153 251.1 62.6064 251.289 63.0936C251.478 63.5808 251.572 64.1807 251.572 64.8933V65.3905H245.686V64.3763H250.379C250.379 63.9454 250.293 63.5609 250.121 63.2228C249.952 62.8848 249.71 62.618 249.395 62.4224C249.083 62.2269 248.715 62.1291 248.291 62.1291C247.824 62.1291 247.419 62.2451 247.078 62.4771C246.74 62.7058 246.48 63.0041 246.297 63.372C246.115 63.7399 246.024 64.1343 246.024 64.5552V65.2314C246.024 65.8081 246.123 66.2969 246.322 66.698C246.524 67.0957 246.805 67.399 247.162 67.6078C247.52 67.8133 247.936 67.916 248.41 67.916C248.719 67.916 248.997 67.8729 249.246 67.7868C249.497 67.6973 249.715 67.5647 249.897 67.389C250.079 67.2101 250.22 66.988 250.319 66.7228L251.453 67.041C251.334 67.4255 251.133 67.7636 250.851 68.0552C250.57 68.3436 250.222 68.569 249.807 68.7314C249.393 68.8905 248.927 68.97 248.41 68.97ZM258.766 62.8848L257.712 63.1831C257.646 63.0074 257.548 62.8367 257.419 62.671C257.293 62.502 257.121 62.3628 256.902 62.2534C256.683 62.144 256.403 62.0893 256.062 62.0893C255.594 62.0893 255.205 62.197 254.893 62.4125C254.585 62.6246 254.431 62.8947 254.431 63.2228C254.431 63.5145 254.537 63.7449 254.749 63.9139C254.961 64.0829 255.293 64.2238 255.743 64.3365L256.877 64.6149C257.56 64.7806 258.068 65.0342 258.403 65.3755C258.738 65.7136 258.905 66.1495 258.905 66.6831C258.905 67.1206 258.779 67.5117 258.528 67.8564C258.279 68.2011 257.931 68.4728 257.483 68.6717C257.036 68.8706 256.516 68.97 255.922 68.97C255.144 68.97 254.499 68.801 253.988 68.4629C253.478 68.1248 253.155 67.631 253.019 66.9814L254.133 66.703C254.239 67.1139 254.439 67.4222 254.734 67.6277C255.032 67.8332 255.422 67.9359 255.903 67.9359C256.449 67.9359 256.884 67.8199 257.205 67.5879C257.53 67.3526 257.692 67.0709 257.692 66.7427C257.692 66.4776 257.599 66.2555 257.414 66.0765C257.228 65.8942 256.943 65.7584 256.559 65.6689L255.286 65.3706C254.587 65.2049 254.073 64.948 253.745 64.6C253.42 64.2486 253.258 63.8095 253.258 63.2825C253.258 62.8516 253.379 62.4705 253.621 62.139C253.866 61.8076 254.199 61.5474 254.62 61.3585C255.044 61.1696 255.525 61.0751 256.062 61.0751C256.817 61.0751 257.411 61.2408 257.841 61.5723C258.276 61.9037 258.584 62.3412 258.766 62.8848ZM266.339 68.8109L264.012 61.1745H265.245L266.896 67.0211H266.975L268.606 61.1745H269.859L271.47 67.0013H271.549L273.2 61.1745H274.433L272.106 68.8109H270.953L269.282 62.9444H269.163L267.493 68.8109H266.339ZM275.984 68.8109V61.1745H277.157V68.8109H275.984ZM276.581 59.9018C276.352 59.9018 276.155 59.8239 275.989 59.6682C275.827 59.5124 275.745 59.3251 275.745 59.1064C275.745 58.8876 275.827 58.7004 275.989 58.5446C276.155 58.3888 276.352 58.3109 276.581 58.3109C276.809 58.3109 277.005 58.3888 277.167 58.5446C277.333 58.7004 277.416 58.8876 277.416 59.1064C277.416 59.3251 277.333 59.5124 277.167 59.6682C277.005 59.8239 276.809 59.9018 276.581 59.9018ZM282.627 61.1745V62.1689H278.67V61.1745H282.627ZM279.823 59.345H280.997V66.6234C280.997 66.9549 281.045 67.2034 281.141 67.3692C281.24 67.5316 281.366 67.6409 281.519 67.6973C281.674 67.7503 281.838 67.7768 282.011 67.7768C282.14 67.7768 282.246 67.7702 282.329 67.7569C282.412 67.7404 282.478 67.7271 282.528 67.7172L282.767 68.7711C282.687 68.801 282.576 68.8308 282.433 68.8606C282.291 68.8938 282.11 68.9103 281.892 68.9103C281.56 68.9103 281.235 68.8391 280.917 68.6966C280.602 68.554 280.34 68.337 280.132 68.0453C279.926 67.7536 279.823 67.3857 279.823 66.9416V59.345ZM285.73 64.2172V68.8109H284.556V58.6291H285.73V62.3677H285.829C286.008 61.9733 286.276 61.6601 286.634 61.4281C286.996 61.1928 287.476 61.0751 288.076 61.0751C288.597 61.0751 289.052 61.1795 289.443 61.3883C289.834 61.5938 290.138 61.9103 290.353 62.3379C290.572 62.7621 290.681 63.3024 290.681 63.9586V68.8109H289.508V64.0382C289.508 63.4317 289.351 62.9627 289.036 62.6312C288.724 62.2965 288.292 62.1291 287.738 62.1291C287.354 62.1291 287.009 62.2103 286.704 62.3727C286.402 62.5351 286.164 62.7721 285.988 63.0836C285.816 63.3952 285.73 63.773 285.73 64.2172ZM303.01 61.1745L300.186 68.8109H298.993L296.169 61.1745H297.441L299.549 67.2598H299.629L301.737 61.1745H303.01ZM304.558 68.8109V61.1745H305.732V68.8109H304.558ZM305.155 59.9018C304.926 59.9018 304.729 59.8239 304.563 59.6682C304.401 59.5124 304.32 59.3251 304.32 59.1064C304.32 58.8876 304.401 58.7004 304.563 58.5446C304.729 58.3888 304.926 58.3109 305.155 58.3109C305.384 58.3109 305.579 58.3888 305.741 58.5446C305.907 58.7004 305.99 58.8876 305.99 59.1064C305.99 59.3251 305.907 59.5124 305.741 59.6682C305.579 59.8239 305.384 59.9018 305.155 59.9018ZM313.29 62.8848L312.236 63.1831C312.169 63.0074 312.072 62.8367 311.942 62.671C311.816 62.502 311.644 62.3628 311.425 62.2534C311.206 62.144 310.926 62.0893 310.585 62.0893C310.118 62.0893 309.728 62.197 309.417 62.4125C309.108 62.6246 308.954 62.8947 308.954 63.2228C308.954 63.5145 309.06 63.7449 309.273 63.9139C309.485 64.0829 309.816 64.2238 310.267 64.3365L311.4 64.6149C312.083 64.7806 312.592 65.0342 312.927 65.3755C313.261 65.7136 313.429 66.1495 313.429 66.6831C313.429 67.1206 313.303 67.5117 313.051 67.8564C312.802 68.2011 312.454 68.4728 312.007 68.6717C311.559 68.8706 311.039 68.97 310.446 68.97C309.667 68.97 309.022 68.801 308.512 68.4629C308.001 68.1248 307.678 67.631 307.542 66.9814L308.656 66.703C308.762 67.1139 308.963 67.4222 309.258 67.6277C309.556 67.8332 309.945 67.9359 310.426 67.9359C310.973 67.9359 311.407 67.8199 311.729 67.5879C312.053 67.3526 312.216 67.0709 312.216 66.7427C312.216 66.4776 312.123 66.2555 311.937 66.0765C311.752 65.8942 311.467 65.7584 311.082 65.6689L309.809 65.3706C309.11 65.2049 308.596 64.948 308.268 64.6C307.943 64.2486 307.781 63.8095 307.781 63.2825C307.781 62.8516 307.902 62.4705 308.144 62.139C308.389 61.8076 308.722 61.5474 309.143 61.3585C309.568 61.1696 310.048 61.0751 310.585 61.0751C311.341 61.0751 311.934 61.2408 312.365 61.5723C312.799 61.9037 313.107 62.3412 313.29 62.8848ZM315.195 68.8109V61.1745H316.368V68.8109H315.195ZM315.792 59.9018C315.563 59.9018 315.366 59.8239 315.2 59.6682C315.038 59.5124 314.956 59.3251 314.956 59.1064C314.956 58.8876 315.038 58.7004 315.2 58.5446C315.366 58.3888 315.563 58.3109 315.792 58.3109C316.02 58.3109 316.216 58.3888 316.378 58.5446C316.544 58.7004 316.627 58.8876 316.627 59.1064C316.627 59.3251 316.544 59.5124 316.378 59.6682C316.216 59.8239 316.02 59.9018 315.792 59.9018ZM321.838 61.1745V62.1689H317.881V61.1745H321.838ZM319.034 59.345H320.208V66.6234C320.208 66.9549 320.256 67.2034 320.352 67.3692C320.451 67.5316 320.577 67.6409 320.73 67.6973C320.885 67.7503 321.049 67.7768 321.222 67.7768C321.351 67.7768 321.457 67.7702 321.54 67.7569C321.623 67.7404 321.689 67.7271 321.739 67.7172L321.977 68.7711C321.898 68.801 321.787 68.8308 321.644 68.8606C321.502 68.8938 321.321 68.9103 321.102 68.9103C320.771 68.9103 320.446 68.8391 320.128 68.6966C319.813 68.554 319.551 68.337 319.343 68.0453C319.137 67.7536 319.034 67.3857 319.034 66.9416V59.345ZM326.623 68.97C325.934 68.97 325.329 68.8059 324.809 68.4778C324.292 68.1497 323.887 67.6906 323.596 67.1007C323.307 66.5107 323.163 65.8213 323.163 65.0325C323.163 64.237 323.307 63.5427 323.596 62.9494C323.887 62.3561 324.292 61.8954 324.809 61.5673C325.329 61.2392 325.934 61.0751 326.623 61.0751C327.313 61.0751 327.916 61.2392 328.433 61.5673C328.953 61.8954 329.358 62.3561 329.646 62.9494C329.938 63.5427 330.084 64.237 330.084 65.0325C330.084 65.8213 329.938 66.5107 329.646 67.1007C329.358 67.6906 328.953 68.1497 328.433 68.4778C327.916 68.8059 327.313 68.97 326.623 68.97ZM326.623 67.916C327.147 67.916 327.578 67.7818 327.916 67.5133C328.254 67.2449 328.504 66.8919 328.667 66.4544C328.829 66.0169 328.91 65.5429 328.91 65.0325C328.91 64.5221 328.829 64.0465 328.667 63.6057C328.504 63.1648 328.254 62.8085 327.916 62.5368C327.578 62.265 327.147 62.1291 326.623 62.1291C326.1 62.1291 325.669 62.265 325.331 62.5368C324.993 62.8085 324.742 63.1648 324.58 63.6057C324.418 64.0465 324.336 64.5221 324.336 65.0325C324.336 65.5429 324.418 66.0169 324.58 66.4544C324.742 66.8919 324.993 67.2449 325.331 67.5133C325.669 67.7818 326.1 67.916 326.623 67.916ZM331.875 68.8109V61.1745H333.008V62.328H333.088C333.227 61.9501 333.479 61.6435 333.843 61.4082C334.208 61.1729 334.619 61.0552 335.076 61.0552C335.163 61.0552 335.27 61.0569 335.4 61.0602C335.529 61.0635 335.627 61.0685 335.693 61.0751V62.2683C335.653 62.2584 335.562 62.2434 335.419 62.2236C335.28 62.2004 335.133 62.1888 334.977 62.1888C334.606 62.1888 334.274 62.2666 333.983 62.4224C333.694 62.5749 333.466 62.787 333.297 63.0588C333.131 63.3272 333.048 63.6338 333.048 63.9785V68.8109H331.875ZM342.493 62.8848L341.439 63.1831C341.372 63.0074 341.275 62.8367 341.145 62.671C341.019 62.502 340.847 62.3628 340.628 62.2534C340.41 62.144 340.13 62.0893 339.788 62.0893C339.321 62.0893 338.931 62.197 338.62 62.4125C338.312 62.6246 338.157 62.8947 338.157 63.2228C338.157 63.5145 338.264 63.7449 338.476 63.9139C338.688 64.0829 339.019 64.2238 339.47 64.3365L340.604 64.6149C341.286 64.7806 341.795 65.0342 342.13 65.3755C342.465 65.7136 342.632 66.1495 342.632 66.6831C342.632 67.1206 342.506 67.5117 342.254 67.8564C342.006 68.2011 341.657 68.4728 341.21 68.6717C340.763 68.8706 340.242 68.97 339.649 68.97C338.87 68.97 338.225 68.801 337.715 68.4629C337.205 68.1248 336.881 67.631 336.746 66.9814L337.859 66.703C337.965 67.1139 338.166 67.4222 338.461 67.6277C338.759 67.8332 339.148 67.9359 339.629 67.9359C340.176 67.9359 340.61 67.8199 340.932 67.5879C341.256 67.3526 341.419 67.0709 341.419 66.7427C341.419 66.4776 341.326 66.2555 341.14 66.0765C340.955 65.8942 340.67 65.7584 340.285 65.6689L339.013 65.3706C338.313 65.2049 337.8 64.948 337.471 64.6C337.147 64.2486 336.984 63.8095 336.984 63.2825C336.984 62.8516 337.105 62.4705 337.347 62.139C337.592 61.8076 337.925 61.5474 338.346 61.3585C338.771 61.1696 339.251 61.0751 339.788 61.0751C340.544 61.0751 341.137 61.2408 341.568 61.5723C342.002 61.9037 342.31 62.3412 342.493 62.8848Z" fill="#868FA0"/>
<rect y="130.622" width="373.893" height="364.644" rx="8" fill="white"/>
<rect x="21.0781" y="151.7" width="60.6219" height="60.6219" rx="6" fill="#E2F5FC"/>
<path d="M39.769 173.513C39.769 169.933 42.6712 167.031 46.2512 167.031C49.8312 167.031 52.7334 169.933 52.7334 173.513C52.7334 177.093 49.8312 179.995 46.2512 179.995C42.6712 179.995 39.769 177.093 39.769 173.513Z" fill="#6CCBF2"/>
<path d="M55.0906 177.049C55.0906 174.12 57.4651 171.746 60.3942 171.746C63.3233 171.746 65.6978 174.12 65.6978 177.049C65.6978 179.978 63.3233 182.353 60.3942 182.353C57.4651 182.353 55.0906 179.978 55.0906 177.049Z" fill="#6CCBF2"/>
<path d="M35.0547 193.549C35.0547 187.365 40.0675 182.353 46.2512 182.353C52.4349 182.353 57.4477 187.365 57.4477 193.549V193.553C57.4477 193.616 57.4471 193.678 57.4461 193.741C57.4393 194.147 57.2237 194.521 56.8756 194.73C53.7716 196.599 50.1351 197.674 46.2512 197.674C42.3673 197.674 38.7308 196.599 35.6268 194.73C35.2787 194.521 35.0631 194.147 35.0563 193.741C35.0552 193.677 35.0547 193.613 35.0547 193.549Z" fill="#6CCBF2"/>
<path d="M59.8046 193.554C59.8046 193.629 59.8039 193.705 59.8027 193.78C59.7937 194.312 59.6654 194.826 59.4366 195.288C59.7534 195.307 60.0726 195.317 60.3939 195.317C62.9015 195.317 65.2767 194.736 67.3893 193.7C67.7775 193.51 68.0303 193.122 68.0481 192.691C68.0525 192.584 68.0547 192.478 68.0547 192.37C68.0547 188.14 64.6248 184.71 60.3939 184.71C59.2209 184.71 58.1095 184.973 57.1157 185.445C58.8046 187.705 59.8046 190.51 59.8046 193.549V193.554Z" fill="#6CCBF2"/>
<path d="M106.473 179.763C103.841 179.763 102.371 178.377 102.371 176.459H104.023C104.023 177.341 104.667 178.279 106.473 178.279C108.125 178.279 108.895 177.495 108.895 176.543C108.895 175.759 108.223 175.241 106.879 175.129L105.857 175.031C103.981 174.877 102.763 173.813 102.763 172.147C102.763 170.257 104.219 168.997 106.417 168.997C108.643 168.997 110.099 170.271 110.099 172.231H108.447C108.447 171.335 107.817 170.481 106.417 170.481C105.059 170.481 104.415 171.279 104.415 172.147C104.415 172.847 104.933 173.435 106.011 173.533L107.019 173.617C109.161 173.799 110.561 174.821 110.561 176.543C110.561 178.461 108.937 179.763 106.473 179.763ZM115.736 179.763C113.104 179.763 111.914 177.789 111.914 175.871V175.605C111.914 173.645 113.146 171.713 115.652 171.713C118.088 171.713 119.306 173.519 119.306 175.451V176.109H113.482C113.594 177.439 114.28 178.377 115.736 178.377C116.786 178.377 117.486 177.859 117.64 177.229H119.166C118.844 178.797 117.542 179.763 115.736 179.763ZM115.652 173.099C114.42 173.099 113.72 173.841 113.524 175.003H117.71C117.556 173.813 116.87 173.099 115.652 173.099ZM122.809 179.511H121.157V170.551H120.163V169.291H122.809V179.511ZM128.506 179.763C125.874 179.763 124.684 177.789 124.684 175.871V175.605C124.684 173.645 125.916 171.713 128.422 171.713C130.858 171.713 132.076 173.519 132.076 175.451V176.109H126.252C126.364 177.439 127.05 178.377 128.506 178.377C129.556 178.377 130.256 177.859 130.41 177.229H131.936C131.614 178.797 130.312 179.763 128.506 179.763ZM128.422 173.099C127.19 173.099 126.49 173.841 126.294 175.003H130.48C130.326 173.813 129.64 173.099 128.422 173.099ZM137.119 179.763C134.529 179.763 133.311 177.775 133.311 175.871V175.619C133.311 173.659 134.585 171.713 137.105 171.713C139.037 171.713 140.465 172.875 140.577 174.653H138.995C138.869 173.799 138.211 173.155 137.105 173.155C135.649 173.155 134.949 174.247 134.949 175.745C134.949 177.201 135.635 178.321 137.119 178.321C138.253 178.321 138.967 177.677 139.065 176.781H140.661C140.563 178.587 139.065 179.763 137.119 179.763ZM146.588 179.595H145.454C143.578 179.595 142.57 178.923 142.57 176.809V173.183H141.324V171.965H142.57V169.767H144.124V171.965H146.588V173.183H144.124V176.949C144.124 177.719 144.558 178.167 145.328 178.167H146.588V179.595ZM156.156 179.763C152.418 179.763 150.99 176.823 150.99 174.527V174.219C150.99 171.727 152.502 168.997 156.072 168.997C158.83 168.997 160.524 170.565 160.776 172.917H159.082C158.858 171.349 157.654 170.551 156.072 170.551C153.86 170.551 152.698 172.203 152.698 174.387C152.698 176.487 153.874 178.209 156.156 178.209C157.794 178.209 159.012 177.369 159.25 175.857H160.958C160.678 178.013 159.04 179.763 156.156 179.763ZM166.164 179.763C163.532 179.763 162.09 177.845 162.09 175.885V175.605C162.09 173.603 163.602 171.713 166.164 171.713C168.726 171.713 170.238 173.603 170.238 175.605V175.885C170.238 177.845 168.796 179.763 166.164 179.763ZM166.164 178.335C167.718 178.335 168.6 177.215 168.6 175.745C168.6 174.247 167.676 173.141 166.164 173.141C164.652 173.141 163.728 174.247 163.728 175.745C163.728 177.215 164.61 178.335 166.164 178.335ZM173.748 179.511H172.11V171.965H173.412V173.771C173.748 172.441 174.602 171.741 176.002 171.741H176.072C177.92 171.741 178.844 172.945 178.844 175.199V179.511H177.206V174.975C177.206 173.925 176.562 173.225 175.526 173.225C174.462 173.225 173.748 173.953 173.748 175.045V179.511ZM185.348 179.595H184.214C182.338 179.595 181.33 178.923 181.33 176.809V173.183H180.084V171.965H181.33V169.767H182.884V171.965H185.348V173.183H182.884V176.949C182.884 177.719 183.318 178.167 184.088 178.167H185.348V179.595ZM189.195 179.707C187.515 179.707 186.465 178.811 186.465 177.257C186.465 175.647 187.669 174.849 189.657 174.849H191.379V174.709C191.379 173.771 190.889 173.281 189.937 173.281C189.153 173.281 188.019 173.337 187.333 173.379V171.965C187.949 171.909 188.831 171.867 189.545 171.867C191.855 171.867 192.947 172.693 192.947 174.793V179.511H191.645V178.069C191.309 179.147 190.483 179.707 189.195 179.707ZM189.615 178.475C190.483 178.475 191.323 178.069 191.379 176.711V175.927H189.615C188.635 175.927 188.089 176.459 188.089 177.215C188.089 177.971 188.635 178.475 189.615 178.475ZM198.505 179.763C195.915 179.763 194.697 177.775 194.697 175.871V175.619C194.697 173.659 195.971 171.713 198.491 171.713C200.423 171.713 201.851 172.875 201.963 174.653H200.381C200.255 173.799 199.597 173.155 198.491 173.155C197.035 173.155 196.335 174.247 196.335 175.745C196.335 177.201 197.021 178.321 198.505 178.321C199.639 178.321 200.353 177.677 200.451 176.781H202.047C201.949 178.587 200.451 179.763 198.505 179.763ZM207.975 179.595H206.841C204.965 179.595 203.957 178.923 203.957 176.809V173.183H202.711V171.965H203.957V169.767H205.511V171.965H207.975V173.183H205.511V176.949C205.511 177.719 205.945 178.167 206.715 178.167H207.975V179.595ZM217.08 179.595H215.946C214.07 179.595 213.062 178.923 213.062 176.809V173.183H211.816V171.965H213.062V169.767H214.616V171.965H217.08V173.183H214.616V176.949C214.616 177.719 215.05 178.167 215.82 178.167H217.08V179.595ZM222.342 179.763C219.71 179.763 218.268 177.845 218.268 175.885V175.605C218.268 173.603 219.78 171.713 222.342 171.713C224.904 171.713 226.416 173.603 226.416 175.605V175.885C226.416 177.845 224.974 179.763 222.342 179.763ZM222.342 178.335C223.896 178.335 224.778 177.215 224.778 175.745C224.778 174.247 223.854 173.141 222.342 173.141C220.83 173.141 219.906 174.247 219.906 175.745C219.906 177.215 220.788 178.335 222.342 178.335ZM233.268 179.511H231.588V169.291H233.268V179.511ZM237.514 179.511H235.876V171.965H237.178V173.771C237.514 172.441 238.368 171.741 239.768 171.741H239.838C241.686 171.741 242.61 172.945 242.61 175.199V179.511H240.972V174.975C240.972 173.925 240.328 173.225 239.292 173.225C238.228 173.225 237.514 173.953 237.514 175.045V179.511ZM249.073 179.511H246.385L243.921 171.965H245.629L247.589 178.181H247.911L249.619 171.965H251.215L249.073 179.511ZM253.739 170.915C253.067 170.915 252.745 170.523 252.745 169.963C252.745 169.417 253.067 169.011 253.739 169.011C254.425 169.011 254.747 169.417 254.747 169.963C254.747 170.523 254.425 170.915 253.739 170.915ZM254.845 179.511H253.207V173.225H252.101V171.965H254.845V179.511ZM261.514 179.595H260.38C258.504 179.595 257.496 178.923 257.496 176.809V173.183H256.25V171.965H257.496V169.767H259.05V171.965H261.514V173.183H259.05V176.949C259.05 177.719 259.484 178.167 260.254 178.167H261.514V179.595ZM266.523 179.763C263.891 179.763 262.701 177.789 262.701 175.871V175.605C262.701 173.645 263.933 171.713 266.439 171.713C268.875 171.713 270.093 173.519 270.093 175.451V176.109H264.269C264.381 177.439 265.067 178.377 266.523 178.377C267.573 178.377 268.273 177.859 268.427 177.229H269.953C269.631 178.797 268.329 179.763 266.523 179.763ZM266.439 173.099C265.207 173.099 264.507 173.841 264.311 175.003H268.497C268.343 173.813 267.657 173.099 266.439 173.099Z" fill="black"/>
<path d="M108.483 193.784H109.54V199.562C109.54 200.159 109.4 200.692 109.118 201.16C108.84 201.626 108.446 201.994 107.938 202.264C107.429 202.531 106.833 202.665 106.148 202.665C105.463 202.665 104.867 202.531 104.358 202.264C103.85 201.994 103.455 201.626 103.174 201.16C102.895 200.692 102.756 200.159 102.756 199.562V193.784H103.813V199.477C103.813 199.903 103.907 200.282 104.094 200.615C104.282 200.944 104.549 201.204 104.895 201.395C105.245 201.582 105.662 201.676 106.148 201.676C106.634 201.676 107.051 201.582 107.401 201.395C107.75 201.204 108.017 200.944 108.202 200.615C108.39 200.282 108.483 199.903 108.483 199.477V193.784ZM116.151 197.432L115.247 197.687C115.19 197.537 115.107 197.39 114.996 197.248C114.888 197.103 114.74 196.984 114.553 196.89C114.365 196.797 114.125 196.75 113.832 196.75C113.432 196.75 113.098 196.842 112.831 197.027C112.567 197.209 112.435 197.44 112.435 197.721C112.435 197.971 112.526 198.169 112.707 198.314C112.889 198.459 113.173 198.579 113.56 198.676L114.531 198.915C115.116 199.057 115.553 199.274 115.839 199.567C116.126 199.856 116.27 200.23 116.27 200.687C116.27 201.062 116.162 201.397 115.946 201.693C115.733 201.988 115.435 202.221 115.051 202.392C114.668 202.562 114.222 202.647 113.713 202.647C113.045 202.647 112.493 202.503 112.055 202.213C111.618 201.923 111.341 201.5 111.224 200.943L112.179 200.704C112.27 201.057 112.442 201.321 112.695 201.497C112.95 201.673 113.284 201.761 113.696 201.761C114.165 201.761 114.537 201.662 114.812 201.463C115.091 201.261 115.23 201.02 115.23 200.738C115.23 200.511 115.151 200.321 114.991 200.167C114.832 200.011 114.588 199.895 114.259 199.818L113.168 199.562C112.568 199.42 112.128 199.2 111.847 198.902C111.568 198.601 111.429 198.224 111.429 197.772C111.429 197.403 111.533 197.076 111.74 196.792C111.95 196.508 112.236 196.285 112.597 196.123C112.96 195.961 113.372 195.88 113.832 195.88C114.48 195.88 114.989 196.022 115.358 196.307C115.73 196.591 115.994 196.966 116.151 197.432ZM120.528 202.647C119.897 202.647 119.353 202.508 118.896 202.23C118.441 201.949 118.091 201.557 117.843 201.054C117.599 200.548 117.477 199.96 117.477 199.29C117.477 198.619 117.599 198.028 117.843 197.517C118.091 197.003 118.434 196.602 118.875 196.315C119.318 196.025 119.835 195.88 120.426 195.88C120.767 195.88 121.103 195.937 121.436 196.051C121.768 196.165 122.071 196.349 122.343 196.605C122.616 196.858 122.833 197.193 122.995 197.611C123.157 198.028 123.238 198.542 123.238 199.153V199.579H118.193V198.71H122.216C122.216 198.341 122.142 198.011 121.994 197.721C121.849 197.432 121.642 197.203 121.372 197.035C121.105 196.868 120.789 196.784 120.426 196.784C120.025 196.784 119.679 196.883 119.386 197.082C119.096 197.278 118.873 197.534 118.717 197.849C118.561 198.165 118.483 198.503 118.483 198.863V199.443C118.483 199.937 118.568 200.356 118.738 200.7C118.912 201.041 119.152 201.301 119.458 201.48C119.765 201.656 120.122 201.744 120.528 201.744C120.792 201.744 121.031 201.707 121.244 201.633C121.46 201.557 121.646 201.443 121.802 201.292C121.958 201.139 122.079 200.949 122.164 200.721L123.136 200.994C123.034 201.324 122.862 201.613 122.62 201.863C122.379 202.111 122.081 202.304 121.725 202.443C121.37 202.579 120.971 202.647 120.528 202.647ZM132.779 197.432L131.876 197.687C131.819 197.537 131.735 197.39 131.625 197.248C131.517 197.103 131.369 196.984 131.181 196.89C130.994 196.797 130.754 196.75 130.461 196.75C130.061 196.75 129.727 196.842 129.46 197.027C129.196 197.209 129.064 197.44 129.064 197.721C129.064 197.971 129.154 198.169 129.336 198.314C129.518 198.459 129.802 198.579 130.189 198.676L131.16 198.915C131.745 199.057 132.181 199.274 132.468 199.567C132.755 199.856 132.899 200.23 132.899 200.687C132.899 201.062 132.791 201.397 132.575 201.693C132.362 201.988 132.064 202.221 131.68 202.392C131.297 202.562 130.85 202.647 130.342 202.647C129.674 202.647 129.122 202.503 128.684 202.213C128.247 201.923 127.97 201.5 127.853 200.943L128.808 200.704C128.899 201.057 129.071 201.321 129.324 201.497C129.579 201.673 129.913 201.761 130.325 201.761C130.794 201.761 131.166 201.662 131.441 201.463C131.72 201.261 131.859 201.02 131.859 200.738C131.859 200.511 131.779 200.321 131.62 200.167C131.461 200.011 131.217 199.895 130.887 199.818L129.797 199.562C129.197 199.42 128.757 199.2 128.475 198.902C128.197 198.601 128.058 198.224 128.058 197.772C128.058 197.403 128.162 197.076 128.369 196.792C128.579 196.508 128.865 196.285 129.225 196.123C129.589 195.961 130.001 195.88 130.461 195.88C131.109 195.88 131.618 196.022 131.987 196.307C132.359 196.591 132.623 196.966 132.779 197.432ZM137.259 195.966V196.818H133.867V195.966H137.259ZM134.856 194.397H135.862V200.636C135.862 200.92 135.903 201.133 135.985 201.275C136.07 201.415 136.178 201.508 136.309 201.557C136.442 201.602 136.583 201.625 136.731 201.625C136.842 201.625 136.933 201.619 137.004 201.608C137.075 201.593 137.131 201.582 137.174 201.574L137.379 202.477C137.31 202.503 137.215 202.528 137.093 202.554C136.971 202.582 136.816 202.596 136.629 202.596C136.344 202.596 136.066 202.535 135.793 202.413C135.523 202.291 135.299 202.105 135.12 201.855C134.944 201.605 134.856 201.29 134.856 200.909V194.397ZM138.772 202.511V195.966H139.778V202.511H138.772ZM139.283 194.875C139.087 194.875 138.918 194.808 138.776 194.674C138.637 194.541 138.567 194.38 138.567 194.193C138.567 194.005 138.637 193.845 138.776 193.711C138.918 193.578 139.087 193.511 139.283 193.511C139.479 193.511 139.647 193.578 139.786 193.711C139.928 193.845 139.999 194.005 139.999 194.193C139.999 194.38 139.928 194.541 139.786 194.674C139.647 194.808 139.479 194.875 139.283 194.875ZM144.279 202.647C143.665 202.647 143.137 202.503 142.694 202.213C142.25 201.923 141.909 201.524 141.671 201.015C141.432 200.507 141.313 199.926 141.313 199.272C141.313 198.608 141.435 198.021 141.679 197.513C141.926 197.001 142.27 196.602 142.711 196.315C143.154 196.025 143.671 195.88 144.262 195.88C144.722 195.88 145.137 195.966 145.506 196.136C145.875 196.307 146.178 196.545 146.414 196.852C146.65 197.159 146.796 197.517 146.853 197.926H145.847C145.77 197.628 145.6 197.363 145.336 197.133C145.074 196.9 144.722 196.784 144.279 196.784C143.887 196.784 143.543 196.886 143.248 197.091C142.955 197.292 142.726 197.578 142.561 197.947C142.4 198.314 142.319 198.744 142.319 199.238C142.319 199.744 142.398 200.184 142.557 200.559C142.719 200.934 142.946 201.226 143.239 201.433C143.534 201.64 143.881 201.744 144.279 201.744C144.54 201.744 144.777 201.699 144.99 201.608C145.203 201.517 145.384 201.386 145.532 201.216C145.679 201.045 145.784 200.841 145.847 200.602H146.853C146.796 200.988 146.655 201.336 146.431 201.646C146.209 201.953 145.915 202.197 145.549 202.379C145.185 202.558 144.762 202.647 144.279 202.647ZM149.26 200.125L149.243 198.88H149.448L152.311 195.966H153.556L150.505 199.051H150.419L149.26 200.125ZM148.323 202.511V193.784H149.328V202.511H148.323ZM152.482 202.511L149.925 199.272L150.641 198.574L153.76 202.511H152.482ZM157.325 202.647C156.694 202.647 156.15 202.508 155.693 202.23C155.238 201.949 154.887 201.557 154.64 201.054C154.396 200.548 154.274 199.96 154.274 199.29C154.274 198.619 154.396 198.028 154.64 197.517C154.887 197.003 155.231 196.602 155.672 196.315C156.115 196.025 156.632 195.88 157.223 195.88C157.564 195.88 157.9 195.937 158.233 196.051C158.565 196.165 158.868 196.349 159.14 196.605C159.413 196.858 159.63 197.193 159.792 197.611C159.954 198.028 160.035 198.542 160.035 199.153V199.579H154.99V198.71H159.012C159.012 198.341 158.939 198.011 158.791 197.721C158.646 197.432 158.439 197.203 158.169 197.035C157.902 196.868 157.586 196.784 157.223 196.784C156.822 196.784 156.475 196.883 156.183 197.082C155.893 197.278 155.67 197.534 155.514 197.849C155.358 198.165 155.279 198.503 155.279 198.863V199.443C155.279 199.937 155.365 200.356 155.535 200.7C155.708 201.041 155.949 201.301 156.255 201.48C156.562 201.656 156.919 201.744 157.325 201.744C157.589 201.744 157.828 201.707 158.041 201.633C158.257 201.557 158.443 201.443 158.599 201.292C158.755 201.139 158.876 200.949 158.961 200.721L159.933 200.994C159.831 201.324 159.659 201.613 159.417 201.863C159.176 202.111 158.877 202.304 158.522 202.443C158.167 202.579 157.768 202.647 157.325 202.647ZM161.565 202.511V195.966H162.537V196.954H162.605C162.724 196.63 162.94 196.368 163.252 196.166C163.565 195.964 163.917 195.863 164.309 195.863C164.383 195.863 164.475 195.865 164.586 195.868C164.697 195.87 164.781 195.875 164.838 195.88V196.903C164.804 196.895 164.725 196.882 164.603 196.865C164.484 196.845 164.358 196.835 164.224 196.835C163.906 196.835 163.622 196.902 163.372 197.035C163.125 197.166 162.929 197.348 162.784 197.581C162.642 197.811 162.571 198.074 162.571 198.369V202.511H161.565ZM170.666 197.432L169.763 197.687C169.706 197.537 169.622 197.39 169.511 197.248C169.403 197.103 169.256 196.984 169.068 196.89C168.881 196.797 168.641 196.75 168.348 196.75C167.947 196.75 167.614 196.842 167.347 197.027C167.082 197.209 166.95 197.44 166.95 197.721C166.95 197.971 167.041 198.169 167.223 198.314C167.405 198.459 167.689 198.579 168.075 198.676L169.047 198.915C169.632 199.057 170.068 199.274 170.355 199.567C170.642 199.856 170.786 200.23 170.786 200.687C170.786 201.062 170.678 201.397 170.462 201.693C170.249 201.988 169.95 202.221 169.567 202.392C169.183 202.562 168.737 202.647 168.229 202.647C167.561 202.647 167.009 202.503 166.571 202.213C166.134 201.923 165.857 201.5 165.74 200.943L166.695 200.704C166.786 201.057 166.957 201.321 167.21 201.497C167.466 201.673 167.8 201.761 168.212 201.761C168.68 201.761 169.053 201.662 169.328 201.463C169.607 201.261 169.746 201.02 169.746 200.738C169.746 200.511 169.666 200.321 169.507 200.167C169.348 200.011 169.104 199.895 168.774 199.818L167.683 199.562C167.084 199.42 166.643 199.2 166.362 198.902C166.084 198.601 165.945 198.224 165.945 197.772C165.945 197.403 166.048 197.076 166.256 196.792C166.466 196.508 166.751 196.285 167.112 196.123C167.476 195.961 167.888 195.88 168.348 195.88C168.996 195.88 169.504 196.022 169.874 196.307C170.246 196.591 170.51 196.966 170.666 197.432ZM178.589 195.966V196.818H175.061V195.966H178.589ZM176.118 202.511V195.062C176.118 194.687 176.206 194.375 176.382 194.125C176.558 193.875 176.787 193.687 177.068 193.562C177.349 193.437 177.646 193.375 177.958 193.375C178.206 193.375 178.407 193.395 178.564 193.434C178.72 193.474 178.836 193.511 178.913 193.545L178.623 194.415C178.572 194.397 178.501 194.376 178.41 194.351C178.322 194.325 178.206 194.312 178.061 194.312C177.728 194.312 177.488 194.396 177.341 194.564C177.196 194.731 177.123 194.977 177.123 195.301V202.511H176.118ZM182.388 202.647C181.797 202.647 181.279 202.507 180.833 202.226C180.39 201.944 180.043 201.551 179.793 201.045C179.546 200.54 179.422 199.949 179.422 199.272C179.422 198.591 179.546 197.995 179.793 197.487C180.043 196.978 180.39 196.584 180.833 196.302C181.279 196.021 181.797 195.88 182.388 195.88C182.979 195.88 183.496 196.021 183.939 196.302C184.385 196.584 184.732 196.978 184.979 197.487C185.229 197.995 185.354 198.591 185.354 199.272C185.354 199.949 185.229 200.54 184.979 201.045C184.732 201.551 184.385 201.944 183.939 202.226C183.496 202.507 182.979 202.647 182.388 202.647ZM182.388 201.744C182.837 201.744 183.206 201.629 183.496 201.399C183.786 201.169 184 200.866 184.14 200.491C184.279 200.116 184.348 199.71 184.348 199.272C184.348 198.835 184.279 198.427 184.14 198.049C184 197.672 183.786 197.366 183.496 197.133C183.206 196.9 182.837 196.784 182.388 196.784C181.939 196.784 181.57 196.9 181.28 197.133C180.99 197.366 180.776 197.672 180.637 198.049C180.498 198.427 180.428 198.835 180.428 199.272C180.428 199.71 180.498 200.116 180.637 200.491C180.776 200.866 180.99 201.169 181.28 201.399C181.57 201.629 181.939 201.744 182.388 201.744ZM186.889 202.511V195.966H187.861V196.954H187.929C188.048 196.63 188.264 196.368 188.577 196.166C188.889 195.964 189.241 195.863 189.634 195.863C189.707 195.863 189.8 195.865 189.911 195.868C190.021 195.87 190.105 195.875 190.162 195.88V196.903C190.128 196.895 190.05 196.882 189.928 196.865C189.808 196.845 189.682 196.835 189.548 196.835C189.23 196.835 188.946 196.902 188.696 197.035C188.449 197.166 188.253 197.348 188.108 197.581C187.966 197.811 187.895 198.074 187.895 198.369V202.511H186.889ZM197.473 202.647C196.843 202.647 196.299 202.508 195.841 202.23C195.387 201.949 195.036 201.557 194.789 201.054C194.544 200.548 194.422 199.96 194.422 199.29C194.422 198.619 194.544 198.028 194.789 197.517C195.036 197.003 195.38 196.602 195.82 196.315C196.263 196.025 196.78 195.88 197.371 195.88C197.712 195.88 198.049 195.937 198.381 196.051C198.713 196.165 199.016 196.349 199.289 196.605C199.561 196.858 199.779 197.193 199.941 197.611C200.103 198.028 200.184 198.542 200.184 199.153V199.579H195.138V198.71H199.161C199.161 198.341 199.087 198.011 198.939 197.721C198.794 197.432 198.587 197.203 198.317 197.035C198.05 196.868 197.735 196.784 197.371 196.784C196.971 196.784 196.624 196.883 196.331 197.082C196.042 197.278 195.819 197.534 195.662 197.849C195.506 198.165 195.428 198.503 195.428 198.863V199.443C195.428 199.937 195.513 200.356 195.684 200.7C195.857 201.041 196.097 201.301 196.404 201.48C196.711 201.656 197.067 201.744 197.473 201.744C197.738 201.744 197.976 201.707 198.189 201.633C198.405 201.557 198.591 201.443 198.748 201.292C198.904 201.139 199.025 200.949 199.11 200.721L200.081 200.994C199.979 201.324 199.807 201.613 199.566 201.863C199.324 202.111 199.026 202.304 198.671 202.443C198.316 202.579 197.917 202.647 197.473 202.647ZM206.35 197.432L205.446 197.687C205.39 197.537 205.306 197.39 205.195 197.248C205.087 197.103 204.939 196.984 204.752 196.89C204.564 196.797 204.324 196.75 204.032 196.75C203.631 196.75 203.297 196.842 203.03 197.027C202.766 197.209 202.634 197.44 202.634 197.721C202.634 197.971 202.725 198.169 202.907 198.314C203.088 198.459 203.373 198.579 203.759 198.676L204.73 198.915C205.316 199.057 205.752 199.274 206.039 199.567C206.326 199.856 206.469 200.23 206.469 200.687C206.469 201.062 206.361 201.397 206.145 201.693C205.932 201.988 205.634 202.221 205.25 202.392C204.867 202.562 204.421 202.647 203.912 202.647C203.245 202.647 202.692 202.503 202.255 202.213C201.817 201.923 201.54 201.5 201.424 200.943L202.378 200.704C202.469 201.057 202.641 201.321 202.894 201.497C203.15 201.673 203.483 201.761 203.895 201.761C204.364 201.761 204.736 201.662 205.012 201.463C205.29 201.261 205.429 201.02 205.429 200.738C205.429 200.511 205.35 200.321 205.191 200.167C205.032 200.011 204.787 199.895 204.458 199.818L203.367 199.562C202.767 199.42 202.327 199.2 202.046 198.902C201.767 198.601 201.628 198.224 201.628 197.772C201.628 197.403 201.732 197.076 201.939 196.792C202.15 196.508 202.435 196.285 202.796 196.123C203.159 195.961 203.571 195.88 204.032 195.88C204.679 195.88 205.188 196.022 205.557 196.307C205.929 196.591 206.194 196.966 206.35 197.432ZM210.83 195.966V196.818H207.438V195.966H210.83ZM208.426 194.397H209.432V200.636C209.432 200.92 209.473 201.133 209.555 201.275C209.641 201.415 209.749 201.508 209.879 201.557C210.013 201.602 210.153 201.625 210.301 201.625C210.412 201.625 210.503 201.619 210.574 201.608C210.645 201.593 210.702 201.582 210.744 201.574L210.949 202.477C210.881 202.503 210.786 202.528 210.663 202.554C210.541 202.582 210.386 202.596 210.199 202.596C209.915 202.596 209.636 202.535 209.364 202.413C209.094 202.291 208.869 202.105 208.69 201.855C208.514 201.605 208.426 201.29 208.426 200.909V194.397ZM214.268 202.665C213.854 202.665 213.477 202.586 213.139 202.43C212.801 202.271 212.533 202.042 212.334 201.744C212.135 201.443 212.036 201.079 212.036 200.653C212.036 200.278 212.109 199.974 212.257 199.741C212.405 199.505 212.602 199.321 212.849 199.187C213.097 199.054 213.369 198.954 213.668 198.889C213.969 198.821 214.271 198.767 214.575 198.727C214.973 198.676 215.295 198.638 215.543 198.612C215.793 198.584 215.974 198.537 216.088 198.471C216.205 198.406 216.263 198.292 216.263 198.13V198.096C216.263 197.676 216.148 197.349 215.918 197.116C215.69 196.883 215.345 196.767 214.882 196.767C214.402 196.767 214.026 196.872 213.753 197.082C213.48 197.292 213.288 197.517 213.178 197.755L212.223 197.415C212.393 197.017 212.621 196.707 212.905 196.486C213.192 196.261 213.504 196.105 213.842 196.017C214.183 195.926 214.518 195.88 214.848 195.88C215.058 195.88 215.3 195.906 215.572 195.957C215.848 196.005 216.114 196.106 216.369 196.26C216.628 196.413 216.842 196.645 217.013 196.954C217.183 197.264 217.268 197.679 217.268 198.199V202.511H216.263V201.625H216.212C216.143 201.767 216.03 201.919 215.871 202.081C215.712 202.243 215.5 202.38 215.236 202.494C214.972 202.608 214.649 202.665 214.268 202.665ZM214.422 201.761C214.82 201.761 215.155 201.683 215.428 201.527C215.703 201.37 215.911 201.169 216.05 200.922C216.192 200.674 216.263 200.415 216.263 200.142V199.221C216.22 199.272 216.126 199.319 215.982 199.362C215.839 199.402 215.675 199.437 215.487 199.468C215.303 199.497 215.122 199.522 214.946 199.545C214.773 199.565 214.632 199.582 214.524 199.596C214.263 199.63 214.018 199.686 213.791 199.763C213.567 199.836 213.385 199.949 213.246 200.099C213.109 200.247 213.041 200.449 213.041 200.704C213.041 201.054 213.17 201.318 213.429 201.497C213.69 201.673 214.021 201.761 214.422 201.761ZM221.951 195.966V196.818H218.559V195.966H221.951ZM219.547 194.397H220.553V200.636C220.553 200.92 220.594 201.133 220.676 201.275C220.762 201.415 220.87 201.508 221 201.557C221.134 201.602 221.275 201.625 221.422 201.625C221.533 201.625 221.624 201.619 221.695 201.608C221.766 201.593 221.823 201.582 221.865 201.574L222.07 202.477C222.002 202.503 221.907 202.528 221.784 202.554C221.662 202.582 221.507 202.596 221.32 202.596C221.036 202.596 220.757 202.535 220.485 202.413C220.215 202.291 219.99 202.105 219.811 201.855C219.635 201.605 219.547 201.29 219.547 200.909V194.397ZM226.137 202.647C225.507 202.647 224.963 202.508 224.505 202.23C224.051 201.949 223.7 201.557 223.453 201.054C223.208 200.548 223.086 199.96 223.086 199.29C223.086 198.619 223.208 198.028 223.453 197.517C223.7 197.003 224.044 196.602 224.484 196.315C224.927 196.025 225.444 195.88 226.035 195.88C226.376 195.88 226.713 195.937 227.045 196.051C227.377 196.165 227.68 196.349 227.953 196.605C228.225 196.858 228.443 197.193 228.605 197.611C228.767 198.028 228.848 198.542 228.848 199.153V199.579H223.802V198.71H227.825C227.825 198.341 227.751 198.011 227.603 197.721C227.458 197.432 227.251 197.203 226.981 197.035C226.714 196.868 226.399 196.784 226.035 196.784C225.635 196.784 225.288 196.883 224.995 197.082C224.706 197.278 224.483 197.534 224.326 197.849C224.17 198.165 224.092 198.503 224.092 198.863V199.443C224.092 199.937 224.177 200.356 224.348 200.7C224.521 201.041 224.761 201.301 225.068 201.48C225.375 201.656 225.731 201.744 226.137 201.744C226.402 201.744 226.64 201.707 226.853 201.633C227.069 201.557 227.255 201.443 227.412 201.292C227.568 201.139 227.689 200.949 227.774 200.721L228.745 200.994C228.643 201.324 228.471 201.613 228.23 201.863C227.988 202.111 227.69 202.304 227.335 202.443C226.98 202.579 226.581 202.647 226.137 202.647ZM234.946 193.784V202.511H233.889V193.784H234.946ZM239.758 202.511H237.065V193.784H239.877C240.724 193.784 241.448 193.959 242.05 194.308C242.653 194.655 243.114 195.153 243.435 195.804C243.756 196.451 243.917 197.227 243.917 198.13C243.917 199.04 243.755 199.822 243.431 200.478C243.107 201.132 242.636 201.635 242.016 201.987C241.397 202.336 240.644 202.511 239.758 202.511ZM238.121 201.574H239.69C240.411 201.574 241.009 201.434 241.484 201.156C241.958 200.878 242.312 200.481 242.545 199.967C242.778 199.453 242.894 198.841 242.894 198.13C242.894 197.426 242.779 196.819 242.549 196.311C242.319 195.799 241.975 195.407 241.518 195.135C241.06 194.859 240.491 194.721 239.809 194.721H238.121V201.574Z" fill="#868FA0"/>
<path d="M352.242 182.281C352.242 182.713 352.114 183.136 351.874 183.496C351.633 183.856 351.292 184.136 350.892 184.302C350.492 184.467 350.052 184.511 349.628 184.426C349.204 184.342 348.814 184.133 348.508 183.828C348.202 183.522 347.994 183.132 347.909 182.708C347.825 182.283 347.868 181.843 348.034 181.444C348.199 181.044 348.48 180.702 348.839 180.462C349.199 180.222 349.622 180.093 350.055 180.093C350.635 180.093 351.191 180.324 351.601 180.734C352.012 181.144 352.242 181.701 352.242 182.281ZM350.055 178.218C350.487 178.218 350.91 178.09 351.27 177.85C351.63 177.609 351.91 177.268 352.076 176.868C352.241 176.468 352.285 176.028 352.2 175.604C352.116 175.18 351.907 174.79 351.601 174.484C351.296 174.178 350.906 173.97 350.481 173.885C350.057 173.801 349.617 173.844 349.218 174.01C348.818 174.175 348.476 174.456 348.236 174.815C347.995 175.175 347.867 175.598 347.867 176.031C347.867 176.611 348.098 177.167 348.508 177.578C348.918 177.988 349.475 178.218 350.055 178.218ZM350.055 186.343C349.622 186.343 349.199 186.472 348.839 186.712C348.48 186.952 348.199 187.294 348.034 187.694C347.868 188.093 347.825 188.533 347.909 188.958C347.994 189.382 348.202 189.772 348.508 190.078C348.814 190.383 349.204 190.592 349.628 190.676C350.052 190.761 350.492 190.717 350.892 190.552C351.292 190.386 351.633 190.106 351.874 189.746C352.114 189.386 352.242 188.963 352.242 188.531C352.242 187.951 352.012 187.394 351.601 186.984C351.191 186.574 350.635 186.343 350.055 186.343Z" fill="black"/>
<path d="M21.0781 232.322H352.814" stroke="#D8D8D8"/>
<rect x="21.0781" y="252.322" width="331.736" height="60.6219" rx="6" fill="#F8F6FE"/>
<rect x="28.6582" y="260.001" width="46" height="46" rx="3" fill="#E9E3FB"/>
<path d="M42.7319 288.779H40.4599L44.4439 277.099H48.1559L52.2519 288.779H49.9159L48.8439 285.675H43.7559L42.7319 288.779ZM44.3959 283.755H48.1879L46.5719 279.003H45.9799L44.3959 283.755ZM58.6589 288.859H53.9869V277.019H58.1789C60.8189 277.019 62.2269 278.155 62.2269 280.235V280.459C62.2269 281.563 61.7949 282.315 61.0589 282.763C62.0829 283.195 62.7069 284.011 62.7069 285.355V285.579C62.7069 287.659 61.3149 288.859 58.6589 288.859ZM58.3869 278.843H56.2109V282.011H58.3869C59.4749 282.011 59.9709 281.387 59.9709 280.427C59.9709 279.467 59.4749 278.843 58.3869 278.843ZM58.8189 283.771H56.2109V287.035H58.8189C59.8909 287.035 60.4509 286.427 60.4509 285.387C60.4509 284.363 59.8909 283.771 58.8189 283.771Z" fill="black"/>
<path d="M97.7102 287.501H96.0302V277.281H97.7102V282.069L101.742 277.281H103.66L99.8662 281.761L104.626 287.501H102.568L98.6202 282.727H97.7102V287.501ZM109.1 287.501H106.664L104.564 279.955H106.16L107.812 286.171H108.106L109.31 280.207H111.34L112.754 286.171H113.034L114.49 279.955H115.988L114.14 287.501H111.718L110.318 281.649L109.1 287.501ZM119.687 287.697C118.007 287.697 116.957 286.801 116.957 285.247C116.957 283.637 118.161 282.839 120.149 282.839H121.871V282.699C121.871 281.761 121.381 281.271 120.429 281.271C119.645 281.271 118.511 281.327 117.825 281.369V279.955C118.441 279.899 119.323 279.857 120.037 279.857C122.347 279.857 123.439 280.683 123.439 282.783V287.501H122.137V286.059C121.801 287.137 120.975 287.697 119.687 287.697ZM120.107 286.465C120.975 286.465 121.815 286.059 121.871 284.701V283.917H120.107C119.127 283.917 118.581 284.449 118.581 285.205C118.581 285.961 119.127 286.465 120.107 286.465ZM127.36 287.501H125.722V279.955H127.024V281.747C127.346 280.445 128.158 279.731 129.474 279.731H129.544C130.776 279.731 131.574 280.361 131.938 281.509C132.302 280.361 133.114 279.731 134.346 279.731H134.416C136.166 279.731 137.062 280.977 137.062 283.203V287.501H135.424V282.965C135.424 281.873 134.85 281.215 133.87 281.215C132.862 281.215 132.218 281.915 132.218 283.035V287.501H130.566V282.965C130.566 281.873 129.992 281.215 129.026 281.215C128.018 281.215 127.36 281.915 127.36 283.035V287.501ZM142.629 287.753C139.997 287.753 138.807 285.779 138.807 283.861V283.595C138.807 281.635 140.039 279.703 142.545 279.703C144.981 279.703 146.199 281.509 146.199 283.441V284.099H140.375C140.487 285.429 141.173 286.367 142.629 286.367C143.679 286.367 144.379 285.849 144.533 285.219H146.059C145.737 286.787 144.435 287.753 142.629 287.753ZM142.545 281.089C141.313 281.089 140.613 281.831 140.417 282.993H144.603C144.449 281.803 143.763 281.089 142.545 281.089ZM152.917 287.501H151.237V277.281H157.089V278.737H152.917V281.635H156.879V283.091H152.917V287.501ZM160.432 287.501H158.794V279.955H160.096V282.251C160.32 280.655 161.258 279.871 162.868 279.871H163.134V281.313H162.63C161.216 281.313 160.432 282.097 160.432 283.497V287.501ZM166.65 287.697C164.97 287.697 163.92 286.801 163.92 285.247C163.92 283.637 165.124 282.839 167.112 282.839H168.834V282.699C168.834 281.761 168.344 281.271 167.392 281.271C166.608 281.271 165.474 281.327 164.788 281.369V279.955C165.404 279.899 166.286 279.857 167 279.857C169.31 279.857 170.402 280.683 170.402 282.783V287.501H169.1V286.059C168.764 287.137 167.938 287.697 166.65 287.697ZM167.07 286.465C167.938 286.465 168.778 286.059 168.834 284.701V283.917H167.07C166.09 283.917 165.544 284.449 165.544 285.205C165.544 285.961 166.09 286.465 167.07 286.465ZM174.322 287.501H172.684V279.955H173.986V281.761C174.322 280.431 175.176 279.731 176.576 279.731H176.646C178.494 279.731 179.418 280.935 179.418 283.189V287.501H177.78V282.965C177.78 281.915 177.136 281.215 176.1 281.215C175.036 281.215 174.322 281.943 174.322 283.035V287.501ZM183.332 287.501H181.694V277.281H183.332V283.665L186.384 279.955H188.12L185.446 283.175L188.806 287.501H186.93L184.242 283.987H183.332V287.501Z" fill="black"/>
<rect x="21.0781" y="332.944" width="331.736" height="60.6219" rx="6" fill="#FFF3E6"/>
<rect x="28.6582" y="340.622" width="46" height="46" rx="3" fill="#FFDAB3"/>
<path d="M45.7952 369.083C41.5712 369.083 39.6192 365.691 39.6192 363.083V362.731C39.6192 359.867 41.6832 356.763 45.7952 356.763C49.8752 356.763 51.9552 359.867 51.9552 362.731V363.083C51.9552 365.691 50.0032 369.083 45.7952 369.083ZM45.7952 366.971C48.1792 366.971 49.6512 365.115 49.6512 362.923C49.6512 360.603 48.1632 358.875 45.7952 358.875C43.4112 358.875 41.9232 360.603 41.9232 362.923C41.9232 365.115 43.3952 366.971 45.7952 366.971ZM54.8178 368.779H52.5458L56.5298 357.099H60.2418L64.3378 368.779H62.0018L60.9298 365.675H55.8418L54.8178 368.779ZM56.4818 363.755H60.2738L58.6578 359.003H58.0658L56.4818 363.755Z" fill="black"/>
<path d="M100.72 368.388C97.0242 368.388 95.3162 365.42 95.3162 363.138V362.83C95.3162 360.324 97.1222 357.608 100.72 357.608C104.29 357.608 106.11 360.324 106.11 362.83V363.138C106.11 365.42 104.402 368.388 100.72 368.388ZM100.72 366.54C102.806 366.54 104.094 364.916 104.094 362.998C104.094 360.968 102.792 359.456 100.72 359.456C98.6342 359.456 97.3322 360.968 97.3322 362.998C97.3322 364.916 98.6202 366.54 100.72 366.54ZM110.845 371.118C110.103 371.118 109.319 371.062 108.675 370.964V369.34C109.333 369.424 110.159 369.494 110.831 369.494C112.707 369.494 113.477 368.836 113.477 367.338V366.652C112.973 367.646 112.035 368.178 110.845 368.178C108.745 368.178 107.373 366.498 107.373 364.356V364.062C107.373 361.906 108.829 360.282 110.957 360.282C112.287 360.282 113.281 360.912 113.771 362.074V360.52H115.311V367.226C115.311 369.998 113.925 371.118 110.845 371.118ZM111.405 366.512C112.525 366.512 113.449 365.728 113.449 364.384V363.894C113.449 362.606 112.483 361.892 111.405 361.892C110.173 361.892 109.319 362.802 109.319 364.216C109.319 365.63 110.187 366.512 111.405 366.512ZM120.108 368.36H120.024C118.26 368.36 117.266 367.198 117.266 364.916V360.506H119.212V365.084C119.212 366.022 119.786 366.61 120.668 366.61C121.564 366.61 122.194 365.994 122.194 365V360.506H124.14V368.122H122.6V366.358C122.278 367.688 121.452 368.36 120.108 368.36ZM128.322 368.122H126.376V360.52H127.916V362.396C128.238 360.996 129.106 360.282 130.52 360.282H130.604C132.41 360.282 133.362 361.458 133.362 363.768V368.122H131.416V363.6C131.416 362.662 130.842 362.032 129.918 362.032C128.966 362.032 128.322 362.676 128.322 363.656V368.122ZM137.4 368.122H135.454V360.52H136.994V362.382C137.302 361.01 138.142 360.282 139.472 360.282H139.556C140.774 360.282 141.558 360.87 141.936 362.004C142.314 360.87 143.112 360.282 144.316 360.282H144.4C146.15 360.282 147.06 361.5 147.06 363.782V368.122H145.114V363.6C145.114 362.648 144.61 362.032 143.714 362.032C142.804 362.032 142.23 362.662 142.23 363.656V368.122H140.284V363.6C140.284 362.648 139.78 362.032 138.884 362.032C137.974 362.032 137.4 362.662 137.4 363.656V368.122ZM152.793 368.388C150.119 368.388 148.635 366.498 148.635 364.482V364.188C148.635 362.102 150.203 360.254 152.793 360.254C155.369 360.254 156.937 362.102 156.937 364.188V364.482C156.937 366.498 155.453 368.388 152.793 368.388ZM152.793 366.722C154.207 366.722 154.991 365.7 154.991 364.328C154.991 362.942 154.165 361.92 152.793 361.92C151.407 361.92 150.581 362.942 150.581 364.328C150.581 365.7 151.365 366.722 152.793 366.722ZM160.685 368.122H158.739V359.358H157.787V357.902H160.685V368.122ZM165.063 368.318C163.397 368.318 162.305 367.422 162.305 365.868C162.305 364.202 163.607 363.432 165.637 363.432H167.191V363.362C167.191 362.494 166.757 362.06 165.875 362.06C165.175 362.06 163.943 362.102 163.159 362.158V360.506C163.803 360.45 164.769 360.408 165.525 360.408C167.863 360.408 169.053 361.29 169.053 363.404V368.122H167.513V366.666C167.177 367.744 166.351 368.318 165.063 368.318ZM165.609 366.932C166.407 366.932 167.135 366.554 167.191 365.308V364.594H165.609C164.727 364.594 164.223 365.07 164.223 365.77C164.223 366.47 164.713 366.932 165.609 366.932ZM175.293 368.122H173.305L176.791 357.902H180.039L183.623 368.122H181.579L180.641 365.406H176.189L175.293 368.122ZM176.749 363.726H180.067L178.653 359.568H178.135L176.749 363.726ZM189.453 368.374C188.067 368.374 187.017 367.702 186.527 366.47V368.122H184.987V357.902H186.933V361.752C187.479 360.772 188.431 360.282 189.579 360.282C191.693 360.282 193.065 361.962 193.065 364.146V364.44C193.065 366.638 191.665 368.374 189.453 368.374ZM189.019 366.736C190.265 366.736 191.119 365.728 191.119 364.3C191.119 362.858 190.265 361.92 189.019 361.92C187.871 361.92 186.877 362.718 186.877 364.09V364.65C186.877 365.966 187.927 366.736 189.019 366.736ZM199.242 368.374C197.856 368.374 196.806 367.702 196.316 366.47V368.122H194.776V357.902H196.722V361.752C197.268 360.772 198.22 360.282 199.368 360.282C201.482 360.282 202.854 361.962 202.854 364.146V364.44C202.854 366.638 201.454 368.374 199.242 368.374ZM198.808 366.736C200.054 366.736 200.908 365.728 200.908 364.3C200.908 362.858 200.054 361.92 198.808 361.92C197.66 361.92 196.666 362.718 196.666 364.09V364.65C196.666 365.966 197.716 366.736 198.808 366.736ZM207.967 368.388C205.349 368.388 204.061 366.4 204.061 364.454V364.188C204.061 362.172 205.377 360.254 207.883 360.254C210.333 360.254 211.621 362.088 211.621 364.09V364.79H205.909C206.035 365.98 206.679 366.778 207.967 366.778C208.905 366.778 209.535 366.344 209.703 365.784H211.495C211.159 367.352 209.843 368.388 207.967 368.388ZM207.883 361.864C206.791 361.864 206.133 362.508 205.937 363.6H209.759C209.605 362.494 208.975 361.864 207.883 361.864ZM214.2 371.118H212.954V369.452H214.382C215.18 369.452 215.586 369.186 215.796 368.374L215.908 367.954H214.662L212.198 360.52H214.158L216.006 366.414H216.3L217.84 360.52H219.702L217.448 368.794C216.986 370.488 216.076 371.118 214.2 371.118Z" fill="black"/>
<rect x="21.0781" y="413.566" width="331.736" height="60.6219" rx="6" fill="#F0FAFE"/>
<rect x="28.6582" y="421.244" width="46" height="46" rx="3" fill="#D3EFFB"/>
<path d="M44.4787 450.083C41.3747 450.083 39.6787 448.467 39.6787 446.243H41.9027C41.9027 447.203 42.6227 448.131 44.4787 448.131C46.1427 448.131 46.9747 447.363 46.9747 446.371C46.9747 445.555 46.2867 445.027 44.8147 444.899L43.7907 444.819C41.5507 444.627 40.1107 443.363 40.1107 441.379C40.1107 439.171 41.7907 437.763 44.3507 437.763C46.9907 437.763 48.6547 439.235 48.6547 441.507H46.4307C46.4307 440.563 45.7427 439.715 44.3507 439.715C42.9907 439.715 42.3347 440.483 42.3347 441.379C42.3347 442.099 42.8307 442.707 43.9987 442.803L45.0227 442.899C47.5187 443.107 49.1987 444.307 49.1987 446.371C49.1987 448.595 47.3587 450.083 44.4787 450.083ZM56.7639 450.083C52.5399 450.083 50.5879 446.691 50.5879 444.083V443.731C50.5879 440.867 52.6519 437.763 56.7639 437.763C60.8439 437.763 62.9239 440.867 62.9239 443.731V444.083C62.9239 446.691 60.9719 450.083 56.7639 450.083ZM56.7639 447.971C59.1479 447.971 60.6199 446.115 60.6199 443.923C60.6199 441.603 59.1319 439.875 56.7639 439.875C54.3799 439.875 52.8919 441.603 52.8919 443.923C52.8919 446.115 54.3639 447.971 56.7639 447.971Z" fill="black"/>
<path d="M99.4042 449.01C96.6882 449.01 95.2042 447.596 95.2042 445.65H97.1502C97.1502 446.49 97.7802 447.302 99.4042 447.302C100.86 447.302 101.588 446.63 101.588 445.762C101.588 445.048 100.986 444.586 99.6982 444.474L98.8022 444.404C96.8422 444.236 95.5822 443.13 95.5822 441.394C95.5822 439.462 97.0522 438.23 99.2922 438.23C101.602 438.23 103.058 439.518 103.058 441.506H101.112C101.112 440.68 100.51 439.938 99.2922 439.938C98.1022 439.938 97.5282 440.61 97.5282 441.394C97.5282 442.024 97.9622 442.556 98.9842 442.64L99.8802 442.724C102.064 442.906 103.534 443.956 103.534 445.762C103.534 447.708 101.924 449.01 99.4042 449.01ZM107.144 448.744H105.198V438.524H107.144V442.416C107.55 441.436 108.306 440.904 109.454 440.904H109.538C111.274 440.904 112.184 442.136 112.184 444.404V448.744H110.238V444.222C110.238 443.256 109.636 442.654 108.74 442.654C107.774 442.654 107.144 443.34 107.144 444.348V448.744ZM116.432 448.94C114.766 448.94 113.674 448.044 113.674 446.49C113.674 444.824 114.976 444.054 117.006 444.054H118.56V443.984C118.56 443.116 118.126 442.682 117.244 442.682C116.544 442.682 115.312 442.724 114.528 442.78V441.128C115.172 441.072 116.138 441.03 116.894 441.03C119.232 441.03 120.422 441.912 120.422 444.026V448.744H118.882V447.288C118.546 448.366 117.72 448.94 116.432 448.94ZM116.978 447.554C117.776 447.554 118.504 447.176 118.56 445.93V445.216H116.978C116.096 445.216 115.592 445.692 115.592 446.392C115.592 447.092 116.082 447.554 116.978 447.554ZM124.55 448.744H122.604V439.98H121.652V438.524H124.55V448.744ZM130.426 449.01C127.752 449.01 126.268 447.12 126.268 445.104V444.81C126.268 442.724 127.836 440.876 130.426 440.876C133.002 440.876 134.57 442.724 134.57 444.81V445.104C134.57 447.12 133.086 449.01 130.426 449.01ZM130.426 447.344C131.84 447.344 132.624 446.322 132.624 444.95C132.624 443.564 131.798 442.542 130.426 442.542C129.04 442.542 128.214 443.564 128.214 444.95C128.214 446.322 128.998 447.344 130.426 447.344ZM138.22 448.744H136.274V441.142H137.814V443.004C138.122 441.632 138.962 440.904 140.292 440.904H140.376C141.594 440.904 142.378 441.492 142.756 442.626C143.134 441.492 143.932 440.904 145.136 440.904H145.22C146.97 440.904 147.88 442.122 147.88 444.404V448.744H145.934V444.222C145.934 443.27 145.43 442.654 144.534 442.654C143.624 442.654 143.05 443.284 143.05 444.278V448.744H141.104V444.222C141.104 443.27 140.6 442.654 139.704 442.654C138.794 442.654 138.22 443.284 138.22 444.278V448.744ZM157.937 449.01C154.241 449.01 152.533 446.042 152.533 443.76V443.452C152.533 440.946 154.339 438.23 157.937 438.23C161.507 438.23 163.327 440.946 163.327 443.452V443.76C163.327 446.042 161.619 449.01 157.937 449.01ZM157.937 447.162C160.023 447.162 161.311 445.538 161.311 443.62C161.311 441.59 160.009 440.078 157.937 440.078C155.851 440.078 154.549 441.59 154.549 443.62C154.549 445.538 155.837 447.162 157.937 447.162ZM168.062 451.74C167.32 451.74 166.536 451.684 165.892 451.586V449.962C166.55 450.046 167.376 450.116 168.048 450.116C169.924 450.116 170.694 449.458 170.694 447.96V447.274C170.19 448.268 169.252 448.8 168.062 448.8C165.962 448.8 164.59 447.12 164.59 444.978V444.684C164.59 442.528 166.046 440.904 168.174 440.904C169.504 440.904 170.498 441.534 170.988 442.696V441.142H172.528V447.848C172.528 450.62 171.142 451.74 168.062 451.74ZM168.622 447.134C169.742 447.134 170.666 446.35 170.666 445.006V444.516C170.666 443.228 169.7 442.514 168.622 442.514C167.39 442.514 166.536 443.424 166.536 444.838C166.536 446.252 167.404 447.134 168.622 447.134ZM177.325 448.982H177.241C175.477 448.982 174.483 447.82 174.483 445.538V441.128H176.429V445.706C176.429 446.644 177.003 447.232 177.885 447.232C178.781 447.232 179.411 446.616 179.411 445.622V441.128H181.357V448.744H179.817V446.98C179.495 448.31 178.669 448.982 177.325 448.982ZM185.538 448.744H183.592V441.142H185.132V443.018C185.454 441.618 186.322 440.904 187.736 440.904H187.82C189.626 440.904 190.578 442.08 190.578 444.39V448.744H188.632V444.222C188.632 443.284 188.058 442.654 187.134 442.654C186.182 442.654 185.538 443.298 185.538 444.278V448.744ZM194.616 448.744H192.67V438.524H194.616V444.796L197.542 441.142H199.572L196.982 444.376L200.188 448.744H197.99L195.442 445.188H194.616V448.744ZM203.889 448.982H203.805C202.041 448.982 201.047 447.82 201.047 445.538V441.128H202.993V445.706C202.993 446.644 203.567 447.232 204.449 447.232C205.345 447.232 205.975 446.616 205.975 445.622V441.128H207.921V448.744H206.381V446.98C206.059 448.31 205.233 448.982 203.889 448.982ZM212.103 448.744H210.157V441.142H211.697V443.018C212.019 441.618 212.887 440.904 214.301 440.904H214.385C216.191 440.904 217.143 442.08 217.143 444.39V448.744H215.197V444.222C215.197 443.284 214.623 442.654 213.699 442.654C212.747 442.654 212.103 443.298 212.103 444.278V448.744ZM221.279 448.744H219.333V439.98H218.381V438.524H221.279V448.744ZM226.903 449.01C224.285 449.01 222.997 447.022 222.997 445.076V444.81C222.997 442.794 224.313 440.876 226.819 440.876C229.269 440.876 230.557 442.71 230.557 444.712V445.412H224.845C224.971 446.602 225.615 447.4 226.903 447.4C227.841 447.4 228.471 446.966 228.639 446.406H230.431C230.095 447.974 228.779 449.01 226.903 449.01ZM226.819 442.486C225.727 442.486 225.069 443.13 224.873 444.222H228.695C228.541 443.116 227.911 442.486 226.819 442.486Z" fill="black"/>
</svg>
